<svg width="320" height="130" viewBox="0 0 320 130" fill="none" xmlns="http://www.w3.org/2000/svg">
<path fill-rule="evenodd" clip-rule="evenodd" d="M320 0H0V43.1921C5.55644e-05 42.8774 0.10493 42.5627 0.314625 42.3529C0.524374 42.143 0.838999 42.0381 1.04875 42.0381C10.5924 42.0381 18.1434 48.0192 20.2409 57.2533C20.2711 57.4047 20.3014 57.554 20.3314 57.7017C20.509 58.5774 20.6755 59.3984 20.7652 60.2963C26.1138 60.0864 31.882 57.4631 35.3428 50.6425L35.7623 49.8031C35.9721 49.3833 36.2867 49.1735 36.7062 49.1735C37.1257 49.1735 37.4403 49.3833 37.6501 49.8031L44.1523 62.1851L50.4448 50.1179C50.6546 49.8031 51.0741 49.5932 51.3887 49.4883C51.8082 49.4883 52.2277 49.6981 52.3326 50.1179L52.7521 50.9573C56.2129 57.7779 61.9811 60.4012 67.3297 60.6111C67.4345 59.4568 67.5394 58.4075 67.854 57.2533C70.371 48.0192 77.922 42.0381 87.3608 42.0381C87.99 42.0381 88.4095 42.5627 88.4095 43.0874C88.4095 52.5313 82.4317 60.0864 73.2027 62.29C72.049 62.6048 70.8954 62.7097 69.7418 62.8147C69.9515 68.1662 72.5734 73.9375 79.3903 77.4002L80.2293 77.82C80.6488 78.0298 80.8585 78.3446 80.8585 78.7644C80.8585 79.1841 80.6488 79.6038 80.2293 79.7087L68.1687 86.0047L80.7537 92.6154C81.0683 92.8253 81.3829 93.1401 81.3829 93.5598C81.3829 93.9795 81.1732 94.3992 80.7537 94.5042L79.9147 94.9239C73.0978 98.3867 70.4759 104.158 70.2662 109.509C71.3149 109.614 72.2588 109.719 73.3075 110.034C82.5365 112.238 88.5144 119.688 88.5144 129.132C88.5144 129.447 88.4095 129.761 88.1998 129.866C88.1667 129.916 88.131 129.96 88.0931 130H118.417C110.885 128.759 105.067 123.56 102.883 115.91C94.0734 113.497 88.515 106.152 88.515 96.9176C88.515 96.288 89.0394 95.8683 89.5637 95.8683C90.0881 95.8683 90.6125 96.393 90.6125 96.9176C90.6125 106.152 96.5903 111.398 102.254 113.392C100.995 105.102 104.666 97.4423 112.112 93.3499L99.8415 87.1589C99.422 86.9491 99.2122 86.6343 99.2122 86.2145C99.2122 85.7948 99.422 85.3751 99.8415 85.2701L112.217 79.0791C104.771 74.9868 100.995 67.3267 102.358 59.0371C96.5904 61.0308 90.7174 66.2774 90.7174 75.5115C90.7174 76.141 90.193 76.5608 89.6686 76.5608C89.1442 76.5608 88.6199 76.0361 88.6199 75.5115C88.6199 66.2774 94.2831 58.9322 102.988 56.5187C105.295 47.5995 112.741 42.0381 121.97 42.0381C122.599 42.0381 123.019 42.5627 123.019 43.0874C123.019 43.6121 122.494 44.1367 121.97 44.1367C112.741 44.1367 107.392 50.0129 105.4 55.7842C113.685 54.525 121.446 58.1976 125.536 65.6478L131.723 53.2658C132.143 52.5313 133.297 52.5313 133.716 53.2658L139.904 65.6478C143.994 58.1976 151.755 54.525 160.04 55.7842C158.047 50.0129 152.698 44.1367 143.469 44.1367C142.84 44.1367 142.421 43.6121 142.421 43.0874C142.421 42.5627 142.945 42.0381 143.469 42.0381C152.698 42.0381 160.04 47.5995 162.557 56.4138C171.366 58.8272 176.925 66.1725 176.925 75.4065C176.925 76.0361 176.4 76.4558 175.876 76.4558C175.351 76.4558 174.827 75.9312 174.827 75.4065C174.827 66.1725 168.849 60.9259 163.186 58.9322C164.444 67.2218 160.774 74.8819 153.328 78.9742L165.703 85.1652C166.122 85.3751 166.332 85.6899 166.332 86.1096C166.332 86.5293 166.122 86.9491 165.703 87.054L153.328 93.245C160.774 97.3373 164.549 104.997 163.186 113.287C168.954 111.293 174.827 106.047 174.827 96.8127C174.827 96.1831 175.351 95.7634 175.876 95.7634C176.4 95.7634 176.925 96.288 176.925 96.8127C176.925 106.047 171.261 113.392 162.557 115.805C160.461 123.465 154.563 128.747 146.997 130H194.729C194.555 129.81 194.459 129.552 194.459 129.263V128.528C194.459 128.004 194.774 127.584 195.194 127.479L210.505 96.9438L179.357 112.579C178.833 112.894 178.204 112.579 177.889 112.054C177.575 111.529 177.784 110.9 178.414 110.585L210.191 94.5304L195.298 87.395L178.623 95.6847C178.309 95.8945 177.889 95.7896 177.575 95.6847C177.26 95.4748 177.05 95.16 177.05 94.7403V77.6363C177.05 77.2166 177.26 76.9018 177.575 76.6919C177.889 76.4821 178.309 76.4821 178.623 76.6919L195.298 84.9816L210.296 77.7413L177.575 61.4768C177.155 61.2669 176.84 60.7422 176.945 60.2176C177.05 59.6929 177.47 59.3781 177.994 59.3781H178.728C179.253 59.3781 179.672 59.6929 179.777 60.1127L210.715 75.5377L195.403 44.8975C194.984 44.7926 194.669 44.3728 194.669 43.8482V43.1136C194.669 42.589 194.984 42.1693 195.508 42.0643C196.033 41.9594 196.557 42.1693 196.767 42.6939L213.127 75.3278L220.363 60.3225L212.078 43.7432C211.869 43.4284 211.973 43.0087 212.078 42.6939C212.183 42.3791 212.603 42.1693 213.022 42.1693H230.222C230.641 42.1693 230.956 42.3791 231.166 42.6939C231.375 43.0087 231.375 43.4284 231.166 43.7432L222.88 60.3225L230.012 75.2229L246.058 43.4284C246.372 42.9038 247.002 42.6939 247.526 42.9038C248.05 43.2186 248.26 43.8482 248.05 44.3728L232.214 75.6426L262.628 60.5324C262.733 60.1127 263.152 59.7979 263.677 59.7979H264.411C264.935 59.7979 265.355 60.1127 265.46 60.6373C265.565 61.162 265.355 61.6866 264.83 61.8965L232.109 78.161L247.107 85.4013L263.782 77.1117C264.096 76.9018 264.516 77.0067 264.83 77.1117C265.145 77.3215 265.355 77.6363 265.355 78.0561V95.16C265.355 95.5797 265.145 95.8945 264.83 96.1044C264.516 96.3143 264.096 96.3143 263.782 96.1044L247.107 87.8148L232.214 94.9501L264.096 111.005C264.621 111.32 264.83 111.949 264.621 112.474C264.306 112.998 263.677 113.208 263.152 112.998L232.005 97.3636L247.736 128.109C248.05 128.633 247.841 129.263 247.211 129.578C246.687 129.893 246.058 129.683 245.743 129.053L229.697 97.2586L222.566 112.159L230.851 128.738C231.061 129.053 230.956 129.473 230.851 129.788C230.799 129.865 230.741 129.937 230.676 130H320V124.451L309.572 120.986L283.038 129.801C282.619 129.906 282.199 129.801 281.885 129.486C281.57 129.171 281.465 128.751 281.57 128.332L288.806 106.611L266.992 113.851C266.573 113.956 266.153 113.851 265.839 113.536C265.524 113.221 265.419 112.802 265.524 112.382L274.334 85.9391L265.524 59.4962C265.419 59.0765 265.524 58.6567 265.839 58.3419C266.153 58.0271 266.573 57.9222 266.992 58.0271L288.806 65.2674L281.57 43.5465C281.465 43.1268 281.57 42.707 281.885 42.3922C282.199 42.0774 282.619 41.9725 283.038 42.0774L309.572 50.8917L320 47.4274V0ZM320 49.9208L313.032 52.2559L320 54.5796V49.9208ZM320 56.9231L309.467 53.4101L289.331 60.1258L291.428 66.3168L309.467 72.2979L320 68.8053V56.9231ZM320 71.1983L313.137 73.4522L315.025 74.0817C315.34 74.1867 315.654 74.5015 315.759 74.9212C315.864 75.3409 315.759 75.6557 315.445 75.9705L311.25 80.1678L313.347 82.2665L315.549 84.47L319.744 80.2728C319.829 80.1882 319.913 80.1188 320 80.0645V71.1983ZM320 83.165L317.123 86.044L320 88.923V83.165ZM320 92.0813C319.876 92.0223 319.758 91.9336 319.64 91.8153L315.445 87.618L313.242 89.8216L311.04 92.0252L315.235 96.2224C315.549 96.5372 315.654 96.852 315.549 97.2718C315.445 97.6915 315.235 97.9014 314.815 98.1112L313.032 98.6359L320 100.924V92.0813ZM320 103.248L309.572 99.7901L291.533 105.771L289.436 111.962L309.572 118.678L320 115.2V103.248ZM320 117.522L313.032 119.832L320 122.156V117.522ZM211.938 130C211.874 129.937 211.816 129.865 211.764 129.788C211.554 129.473 211.554 129.053 211.764 128.738L220.049 112.159L212.813 97.1537L196.452 129.788C196.4 129.865 196.342 129.937 196.277 130H211.938ZM142.75 130C142.541 129.8 142.421 129.518 142.421 129.237C142.421 128.712 142.945 128.187 143.469 128.187C152.698 128.187 158.047 122.311 160.04 116.54C151.755 117.799 143.994 114.126 139.904 106.676L133.716 119.058C133.297 119.793 132.143 119.793 131.723 119.058L125.536 106.676C121.446 114.126 113.685 117.799 105.4 116.54C107.392 122.311 112.741 128.187 121.97 128.187C122.599 128.187 123.019 128.712 123.019 129.237C123.019 129.518 122.868 129.8 122.647 130H142.75ZM0 43.1923V129.132V130H0.588333C0.526924 129.962 0.470153 129.917 0.4195 129.866L0.419469 129.866H0.419459C0.209723 129.656 0 129.447 0 129.132C0.20975 119.793 6.18762 112.448 15.3117 110.349C16.2556 110.139 17.3044 109.929 18.2482 109.929C18.1434 104.578 15.5215 98.4916 8.59974 95.0288L7.76074 94.5042C7.34124 94.2943 7.13149 93.9795 7.13149 93.5598C7.13149 93.1401 7.34124 92.7203 7.76074 92.6154L20.136 86.1096L8.07537 79.8137C7.76074 79.6038 7.44612 79.289 7.44612 78.8693C7.44612 78.4495 7.65587 78.0298 8.07537 77.9249L8.91436 77.5052C15.941 74.0424 18.458 67.9563 18.6677 62.6048L18.5179 62.5899C17.5096 62.4894 16.4107 62.38 15.3117 62.0801C6.18762 59.8766 0.20975 52.5313 0 43.1923ZM84.2604 130C76.3372 128.691 70.3449 123.068 68.4833 114.966C68.2736 113.917 68.0638 112.762 67.9589 111.713C62.5054 111.818 56.5276 114.441 52.9618 121.367L52.5423 122.206C52.4374 122.521 52.0179 122.836 51.5984 122.836C51.1789 122.836 50.7594 122.626 50.6546 122.206L44.3621 110.139L37.8598 122.521C37.6501 122.836 37.3355 123.151 36.916 123.151C36.4965 123.151 36.077 122.941 35.9721 122.521L35.5526 121.682C31.9868 114.756 26.009 112.238 20.5555 112.028C20.4506 112.972 20.3457 113.917 20.136 114.861C18.233 123.144 12.0136 128.921 3.82749 130H84.2604ZM70.6857 114.441C70.4759 113.602 70.371 112.657 70.2662 111.713L70.5183 111.744H70.5184C71.2911 111.84 72.1322 111.944 72.888 112.133C78.8659 113.497 85.7877 118.534 86.312 127.978C76.8733 127.348 72.049 120.422 70.6857 114.441ZM15.8361 112.553C16.6751 112.343 17.4092 112.238 18.2482 112.133C18.1434 112.972 18.0385 113.707 17.8287 114.441C16.4654 120.422 11.6411 127.348 2.30725 127.978C2.9365 118.744 9.85824 113.812 15.8361 112.553ZM36.916 119.688C33.3502 113.497 27.3723 109.929 20.5555 109.824C20.3457 103.109 16.78 97.0225 10.6972 93.4548L23.0725 86.9491C23.492 86.7392 23.7017 86.4244 23.7017 86.0047C23.7017 85.5849 23.3871 85.2701 23.0725 85.0603L11.1167 78.9742C17.4092 75.5115 20.975 69.5303 21.0799 62.7097C27.687 62.3949 33.56 58.8272 37.0208 52.8461L43.5231 65.2281C43.9426 65.9626 45.0962 65.9626 45.5157 65.2281L51.8082 53.1609C55.2691 59.247 61.1421 62.8147 67.7492 63.0245C67.9589 69.6352 71.5247 75.5115 77.6074 78.9742L65.5468 85.2701C65.1273 85.48 64.9176 85.7948 64.9176 86.2145C64.9176 86.6343 65.2322 86.9491 65.5468 87.1589L77.922 93.6647C71.8393 97.0225 68.3784 102.899 68.0638 109.509C61.2469 109.614 55.2691 113.182 51.7033 119.373L45.4108 107.306C44.9913 106.571 43.8377 106.571 43.4182 107.306L36.916 119.688ZM70.2662 57.7779C71.7344 51.7968 76.7684 44.7663 86.312 44.2417C85.7877 53.6856 78.761 58.7223 72.7832 60.1914C71.8393 60.4012 70.8954 60.5061 69.8467 60.6111C69.9515 59.6667 70.0564 58.7223 70.2662 57.7779ZM15.8361 59.7716C9.85824 58.4075 2.9365 53.5806 2.20237 44.2417C11.746 44.7663 16.78 51.7968 18.1434 57.673C18.3531 58.5124 18.458 59.3519 18.5629 60.1914L18.5628 60.1913C17.6189 60.0864 16.6751 59.9815 15.8361 59.7716ZM126.48 103.633C126.375 103.214 125.955 103.004 125.536 103.004C125.116 103.004 124.697 103.214 124.487 103.423L123.963 104.578C119.453 113.497 110.853 115.176 104.666 113.917C103.407 107.726 105.085 99.2261 114 94.714L115.153 94.1894C115.573 94.0844 115.782 93.6647 115.782 93.245C115.782 92.8253 115.573 92.5105 115.153 92.3006L102.778 86.1096L115.363 80.0235C115.782 79.9186 115.992 79.4989 115.992 79.0791C115.992 78.6594 115.782 78.3446 115.363 78.1348L114.209 77.6101C105.295 73.2029 103.617 64.5985 104.875 58.4075C111.168 57.1483 119.663 58.8272 124.172 67.7465L124.697 68.9007C124.802 69.3204 125.221 69.5303 125.641 69.5303C126.06 69.5303 126.375 69.3204 126.585 68.9007L132.772 56.5187L138.96 68.9007C139.379 69.6352 140.533 69.6352 140.952 68.9007L141.477 67.7465C145.986 58.8272 154.586 57.1483 160.774 58.4075C162.032 64.5985 160.354 73.098 151.44 77.6101L150.286 78.1348C149.867 78.2397 149.657 78.6594 149.657 79.0791C149.657 79.4989 149.867 79.8137 150.286 80.0235L162.452 86.3195L150.077 92.5105C149.657 92.6154 149.447 93.0351 149.447 93.4548C149.447 93.8746 149.657 94.1894 150.077 94.3992L151.23 94.9239C160.145 99.3311 161.823 107.935 160.564 114.126C154.272 115.386 145.777 113.707 141.267 104.788L140.743 103.633C140.638 103.214 140.218 103.004 139.799 103.004C139.379 103.004 139.065 103.214 138.855 103.633L132.667 116.015L126.48 103.633ZM228.124 128.109H214.49L221.307 114.468L228.124 128.109ZM213.861 94.1107C213.652 93.9008 213.442 93.6909 213.232 93.586L197.711 86.3457L213.022 79.0005H213.127C213.547 79.0005 213.861 78.7906 214.071 78.3708L221.517 62.8409L228.649 77.6363C228.544 77.8462 228.544 77.9511 228.544 78.161C228.544 78.5807 228.753 78.8955 229.173 79.1054L244.694 86.5556L229.802 93.691H229.592C229.173 93.691 228.858 93.9008 228.649 94.3205L221.307 109.641L213.861 94.1107ZM263.362 93.3762L249.728 86.5556L263.362 79.735V93.3762ZM179.253 92.9564V79.4202L192.886 86.1358L179.253 92.9564ZM221.622 57.8041L214.805 44.2679H228.439L221.622 57.8041ZM284.402 127.072L288.701 114.061L306.111 119.832L284.402 127.072ZM268.356 111.123L275.592 89.5068L281.36 106.821L268.356 111.123ZM283.563 106.086L276.851 86.044L283.563 65.7921L289.75 67.8908L295.728 85.9391L289.75 103.987L283.563 106.086ZM292.267 103.148L296.882 89.5068L297.406 91.2906C297.616 91.7104 297.826 91.9202 298.245 92.0252C298.665 92.1301 298.979 92.0252 299.294 91.7104L303.489 87.5131L307.894 91.9202L303.699 96.1175C303.384 96.4323 303.279 96.7471 303.384 97.1668C303.489 97.5866 303.803 97.9014 304.118 98.0063L306.006 98.6359L292.267 103.148ZM309.572 97.3767L306.635 96.4323L309.572 93.4942L312.508 96.4323L309.572 97.3767ZM307.369 88.2476L305.167 86.044L307.369 83.8404L309.572 81.6369L313.976 86.044L309.572 90.4512L307.369 88.2476ZM298.979 88.9821L298.035 86.044L298.979 83.1059L301.916 86.044L298.979 88.9821ZM299.294 80.2728C299.084 80.0629 298.874 79.958 298.56 79.958C298.515 79.958 298.49 79.958 298.467 79.9499C298.454 79.9454 298.442 79.9385 298.429 79.9276C298.409 79.9121 298.386 79.8887 298.35 79.8533L298.35 79.853C297.93 79.958 297.616 80.2728 297.511 80.5875L296.882 82.4763L292.267 68.8351L306.006 73.3472L304.118 73.9768C303.699 74.1867 303.489 74.3965 303.384 74.8163C303.279 75.236 303.384 75.5508 303.699 75.8656L307.894 80.0629L303.489 84.47L299.294 80.2728ZM275.697 82.5813L268.461 60.9652L281.465 65.2674L275.697 82.5813ZM309.572 78.4889L306.635 75.5508L309.572 74.6064L312.508 75.5508L309.572 78.4889ZM288.701 58.0271L284.402 45.0155L306.006 52.2559L288.701 58.0271Z" fill="#EFEFEF"/>
</svg>
