<svg width="1326" height="668" viewBox="0 0 1326 668" fill="none" xmlns="http://www.w3.org/2000/svg">
<rect width="1326" height="220" fill="#EFEFEF"/>
<path d="M70.2662 201.713C70.371 202.657 70.4759 203.602 70.6857 204.441C72.049 210.422 76.8733 217.348 86.312 217.978C85.7877 208.534 78.8659 203.497 72.888 202.133C72.049 201.923 71.1052 201.818 70.2662 201.713ZM18.2482 202.133C17.4092 202.238 16.6751 202.343 15.8361 202.553C9.85824 203.812 2.9365 208.744 2.30725 217.978C11.6411 217.348 16.4654 210.422 17.8287 204.441C18.0385 203.707 18.1434 202.972 18.2482 202.133ZM20.5555 199.824C27.3723 199.929 33.3502 203.497 36.916 209.688L43.4182 197.306C43.8377 196.571 44.9913 196.571 45.4108 197.306L51.7033 209.373C55.2691 203.182 61.2469 199.614 68.0638 199.509C68.3784 192.899 71.8393 187.023 77.922 183.665L65.5468 177.159C65.2322 176.949 64.9176 176.634 64.9176 176.215C64.9176 175.795 65.1273 175.48 65.5468 175.27L77.6074 168.974C71.5247 165.511 67.9589 159.635 67.7492 153.025C61.1421 152.815 55.2691 149.247 51.8082 143.161L45.5157 155.228C45.0962 155.963 43.9426 155.963 43.5231 155.228L37.0208 142.846C33.56 148.827 27.687 152.395 21.0799 152.71C20.975 159.53 17.4092 165.511 11.1167 168.974L23.0725 175.06C23.3871 175.27 23.7017 175.585 23.7017 176.005C23.7017 176.424 23.492 176.739 23.0725 176.949L10.6972 183.455C16.78 187.023 20.3457 193.109 20.5555 199.824ZM87.3608 220.286C77.922 220.076 70.5808 214.095 68.4833 204.966C68.2736 203.917 68.0638 202.762 67.9589 201.713C62.5054 201.818 56.5276 204.441 52.9618 211.367L52.5423 212.206C52.4374 212.521 52.0179 212.836 51.5984 212.836C51.1789 212.836 50.7594 212.626 50.6546 212.206L44.3621 200.139L37.8598 212.521C37.6501 212.836 37.3355 213.151 36.916 213.151C36.4965 213.151 36.077 212.941 35.9721 212.521L35.5526 211.682C31.9868 204.756 26.009 202.238 20.5555 202.028C20.4506 202.972 20.3457 203.917 20.136 204.861C18.0385 213.99 10.6972 220.076 1.2585 220.181C0.943874 220.181 0.629249 220.076 0.4195 219.866C0.20975 219.656 0 219.447 0 219.132C0.20975 209.793 6.18762 202.448 15.3117 200.349C16.2556 200.139 17.3044 199.929 18.2482 199.929C18.1434 194.578 15.5215 188.492 8.59974 185.029L7.76074 184.504C7.34124 184.294 7.13149 183.98 7.13149 183.56C7.13149 183.14 7.34124 182.72 7.76074 182.615L20.136 176.11L8.07537 169.814C7.76074 169.604 7.44612 169.289 7.44612 168.869C7.44612 168.45 7.65587 168.03 8.07537 167.925L8.91436 167.505C15.941 164.042 18.458 157.956 18.6677 152.605C17.619 152.5 16.4654 152.395 15.3117 152.08C6.18762 149.877 0.20975 142.531 0 133.192C0 132.878 0.104875 132.563 0.314625 132.353C0.524374 132.143 0.838999 132.038 1.04875 132.038C10.5924 132.038 18.1434 138.019 20.2409 147.253C20.4506 148.303 20.6604 149.247 20.7652 150.296C26.1138 150.086 31.882 147.463 35.3428 140.643L35.7623 139.803C35.9721 139.383 36.2867 139.173 36.7062 139.173C37.1257 139.173 37.4403 139.383 37.6501 139.803L44.1523 152.185L50.4448 140.118C50.6546 139.803 51.0741 139.593 51.3887 139.488C51.8082 139.488 52.2277 139.698 52.3326 140.118L52.7521 140.957C56.2129 147.778 61.9811 150.401 67.3297 150.611C67.4345 149.457 67.5394 148.408 67.854 147.253C70.371 138.019 77.922 132.038 87.3608 132.038C87.99 132.038 88.4095 132.563 88.4095 133.087C88.4095 142.531 82.4317 150.086 73.2027 152.29C72.049 152.605 70.8954 152.71 69.7418 152.815C69.9515 158.166 72.5734 163.937 79.3903 167.4L80.2293 167.82C80.6488 168.03 80.8585 168.345 80.8585 168.764C80.8585 169.184 80.6488 169.604 80.2293 169.709L68.1687 176.005L80.7537 182.615C81.0683 182.825 81.3829 183.14 81.3829 183.56C81.3829 183.98 81.1732 184.399 80.7537 184.504L79.9147 184.924C73.0978 188.387 70.4759 194.158 70.2662 199.509C71.3149 199.614 72.2588 199.719 73.3075 200.034C82.5365 202.238 88.5144 209.688 88.5144 219.132C88.5144 219.447 88.4095 219.761 88.1998 219.866C87.99 220.181 87.6754 220.286 87.3608 220.286ZM86.312 134.242C76.7684 134.766 71.7344 141.797 70.2662 147.778C70.0564 148.722 69.9515 149.667 69.8467 150.611C70.8954 150.506 71.8393 150.401 72.7832 150.191C78.761 148.722 85.7877 143.686 86.312 134.242ZM2.20237 134.242C2.9365 143.581 9.85824 148.408 15.8361 149.772C16.6751 149.981 17.619 150.086 18.5629 150.191C18.458 149.352 18.3531 148.512 18.1434 147.673C16.78 141.797 11.746 134.766 2.20237 134.242Z" fill="white"/>
<path d="M423.695 201.713C423.8 202.657 423.905 203.602 424.114 204.441C425.478 210.422 430.302 217.348 439.741 217.978C439.216 208.534 432.295 203.497 426.317 202.133C425.478 201.923 424.534 201.818 423.695 201.713ZM371.677 202.133C370.838 202.238 370.104 202.343 369.265 202.553C363.287 203.812 356.365 208.744 355.736 217.978C365.07 217.348 369.894 210.422 371.257 204.441C371.467 203.707 371.572 202.972 371.677 202.133ZM373.984 199.824C380.801 199.929 386.779 203.497 390.345 209.688L396.847 197.306C397.266 196.571 398.42 196.571 398.84 197.306L405.132 209.373C408.698 203.182 414.676 199.614 421.493 199.509C421.807 192.899 425.268 187.023 431.351 183.665L418.976 177.159C418.661 176.949 418.346 176.634 418.346 176.215C418.346 175.795 418.556 175.48 418.976 175.27L431.036 168.974C424.953 165.511 421.388 159.635 421.178 153.025C414.571 152.815 408.698 149.247 405.237 143.161L398.944 155.228C398.525 155.963 397.371 155.963 396.952 155.228L390.45 142.846C386.989 148.827 381.116 152.395 374.509 152.71C374.404 159.53 370.838 165.511 364.545 168.974L376.501 175.06C376.816 175.27 377.13 175.585 377.13 176.005C377.13 176.424 376.921 176.739 376.501 176.949L364.126 183.455C370.209 187.023 373.774 193.109 373.984 199.824ZM440.789 220.286C431.351 220.076 424.01 214.095 421.912 204.966C421.702 203.917 421.493 202.762 421.388 201.713C415.934 201.818 409.956 204.441 406.391 211.367L405.971 212.206C405.866 212.521 405.447 212.836 405.027 212.836C404.608 212.836 404.188 212.626 404.083 212.206L397.791 200.139L391.289 212.521C391.079 212.836 390.764 213.151 390.345 213.151C389.925 213.151 389.506 212.941 389.401 212.521L388.981 211.682C385.416 204.756 379.438 202.238 373.984 202.028C373.879 202.972 373.774 203.917 373.565 204.861C371.467 213.99 364.126 220.076 354.687 220.181C354.373 220.181 354.058 220.076 353.848 219.866C353.638 219.656 353.429 219.447 353.429 219.132C353.638 209.793 359.616 202.448 368.74 200.349C369.684 200.139 370.733 199.929 371.677 199.929C371.572 194.578 368.95 188.492 362.028 185.029L361.189 184.504C360.77 184.294 360.56 183.98 360.56 183.56C360.56 183.14 360.77 182.72 361.189 182.615L373.565 176.11L361.504 169.814C361.189 169.604 360.875 169.289 360.875 168.869C360.875 168.45 361.085 168.03 361.504 167.925L362.343 167.505C369.37 164.042 371.887 157.956 372.096 152.605C371.048 152.5 369.894 152.395 368.74 152.08C359.616 149.877 353.638 142.531 353.429 133.192C353.429 132.878 353.534 132.563 353.743 132.353C353.953 132.143 354.268 132.038 354.477 132.038C364.021 132.038 371.572 138.019 373.67 147.253C373.879 148.303 374.089 149.247 374.194 150.296C379.543 150.086 385.311 147.463 388.772 140.643L389.191 139.803C389.401 139.383 389.715 139.173 390.135 139.173C390.554 139.173 390.869 139.383 391.079 139.803L397.581 152.185L403.874 140.118C404.083 139.803 404.503 139.593 404.817 139.488C405.237 139.488 405.656 139.698 405.761 140.118L406.181 140.957C409.642 147.778 415.41 150.401 420.758 150.611C420.863 149.457 420.968 148.408 421.283 147.253C423.8 138.019 431.351 132.038 440.789 132.038C441.419 132.038 441.838 132.563 441.838 133.087C441.838 142.531 435.86 150.086 426.631 152.29C425.478 152.605 424.324 152.71 423.171 152.815C423.38 158.166 426.002 163.937 432.819 167.4L433.658 167.82C434.077 168.03 434.287 168.345 434.287 168.764C434.287 169.184 434.077 169.604 433.658 169.709L421.597 176.005L434.182 182.615C434.497 182.825 434.812 183.14 434.812 183.56C434.812 183.98 434.602 184.399 434.182 184.504L433.343 184.924C426.527 188.387 423.905 194.158 423.695 199.509C424.744 199.614 425.688 199.719 426.736 200.034C435.965 202.238 441.943 209.688 441.943 219.132C441.943 219.447 441.838 219.761 441.628 219.866C441.419 220.181 441.104 220.286 440.789 220.286ZM439.741 134.242C430.197 134.766 425.163 141.797 423.695 147.778C423.485 148.722 423.38 149.667 423.275 150.611C424.324 150.506 425.268 150.401 426.212 150.191C432.19 148.722 439.216 143.686 439.741 134.242ZM355.631 134.242C356.365 143.581 363.287 148.408 369.265 149.772C370.104 149.981 371.048 150.086 371.992 150.191C371.887 149.352 371.782 148.512 371.572 147.673C370.209 141.797 365.175 134.766 355.631 134.242Z" fill="white"/>
<path d="M777.124 201.713C777.228 202.657 777.333 203.602 777.543 204.441C778.906 210.422 783.731 217.348 793.169 217.978C792.645 208.534 785.723 203.497 779.745 202.133C778.906 201.923 777.963 201.818 777.124 201.713ZM725.106 202.133C724.267 202.238 723.533 202.343 722.694 202.553C716.716 203.812 709.794 208.744 709.165 217.978C718.499 217.348 723.323 210.422 724.686 204.441C724.896 203.707 725.001 202.972 725.106 202.133ZM727.413 199.824C734.23 199.929 740.208 203.497 743.773 209.688L750.276 197.306C750.695 196.571 751.849 196.571 752.268 197.306L758.561 209.373C762.126 203.182 768.104 199.614 774.921 199.509C775.236 192.899 778.697 187.023 784.779 183.665L772.404 177.159C772.09 176.949 771.775 176.634 771.775 176.215C771.775 175.795 771.985 175.48 772.404 175.27L784.465 168.974C778.382 165.511 774.816 159.635 774.607 153.025C767.999 152.815 762.126 149.247 758.666 143.161L752.373 155.228C751.954 155.963 750.8 155.963 750.381 155.228L743.878 142.846C740.417 148.827 734.544 152.395 727.937 152.71C727.832 159.53 724.267 165.511 717.974 168.974L729.93 175.06C730.245 175.27 730.559 175.585 730.559 176.005C730.559 176.424 730.349 176.739 729.93 176.949L717.555 183.455C723.637 187.023 727.203 193.109 727.413 199.824ZM794.218 220.286C784.779 220.076 777.438 214.095 775.341 204.966C775.131 203.917 774.921 202.762 774.816 201.713C769.363 201.818 763.385 204.441 759.819 211.367L759.4 212.206C759.295 212.521 758.875 212.836 758.456 212.836C758.036 212.836 757.617 212.626 757.512 212.206L751.219 200.139L744.717 212.521C744.508 212.836 744.193 213.151 743.773 213.151C743.354 213.151 742.934 212.941 742.83 212.521L742.41 211.682C738.844 204.756 732.866 202.238 727.413 202.028C727.308 202.972 727.203 203.917 726.993 204.861C724.896 213.99 717.555 220.076 708.116 220.181C707.801 220.181 707.487 220.076 707.277 219.866C707.067 219.656 706.857 219.447 706.857 219.132C707.067 209.793 713.045 202.448 722.169 200.349C723.113 200.139 724.162 199.929 725.106 199.929C725.001 194.578 722.379 188.492 715.457 185.029L714.618 184.504C714.199 184.294 713.989 183.98 713.989 183.56C713.989 183.14 714.199 182.72 714.618 182.615L726.993 176.11L714.933 169.814C714.618 169.604 714.304 169.289 714.304 168.869C714.304 168.45 714.513 168.03 714.933 167.925L715.772 167.505C722.798 164.042 725.315 157.956 725.525 152.605C724.476 152.5 723.323 152.395 722.169 152.08C713.045 149.877 707.067 142.531 706.857 133.192C706.857 132.878 706.962 132.563 707.172 132.353C707.382 132.143 707.696 132.038 707.906 132.038C717.45 132.038 725.001 138.019 727.098 147.253C727.308 148.303 727.518 149.247 727.623 150.296C732.971 150.086 738.739 147.463 742.2 140.643L742.62 139.803C742.83 139.383 743.144 139.173 743.564 139.173C743.983 139.173 744.298 139.383 744.508 139.803L751.01 152.185L757.302 140.118C757.512 139.803 757.931 139.593 758.246 139.488C758.666 139.488 759.085 139.698 759.19 140.118L759.609 140.957C763.07 147.778 768.838 150.401 774.187 150.611C774.292 149.457 774.397 148.408 774.711 147.253C777.228 138.019 784.779 132.038 794.218 132.038C794.847 132.038 795.267 132.563 795.267 133.087C795.267 142.531 789.289 150.086 780.06 152.29C778.906 152.605 777.753 152.71 776.599 152.815C776.809 158.166 779.431 163.937 786.248 167.4L787.087 167.82C787.506 168.03 787.716 168.345 787.716 168.764C787.716 169.184 787.506 169.604 787.087 169.709L775.026 176.005L787.611 182.615C787.926 182.825 788.24 183.14 788.24 183.56C788.24 183.98 788.031 184.399 787.611 184.504L786.772 184.924C779.955 188.387 777.333 194.158 777.124 199.509C778.172 199.614 779.116 199.719 780.165 200.034C789.394 202.238 795.372 209.688 795.372 219.132C795.372 219.447 795.267 219.761 795.057 219.866C794.847 220.181 794.533 220.286 794.218 220.286ZM793.169 134.242C783.626 134.766 778.592 141.797 777.124 147.778C776.914 148.722 776.809 149.667 776.704 150.611C777.753 150.506 778.697 150.401 779.641 150.191C785.618 148.722 792.645 143.686 793.169 134.242ZM709.06 134.242C709.794 143.581 716.716 148.408 722.694 149.772C723.533 149.981 724.476 150.086 725.42 150.191C725.315 149.352 725.211 148.512 725.001 147.673C723.637 141.797 718.603 134.766 709.06 134.242Z" fill="white"/>
<path d="M1130.78 201.713C1130.89 202.657 1130.99 203.602 1131.2 204.441C1132.56 210.422 1137.39 217.348 1146.83 217.978C1146.3 208.534 1139.38 203.497 1133.4 202.133C1132.56 201.923 1131.62 201.818 1130.78 201.713ZM1078.76 202.133C1077.92 202.238 1077.19 202.343 1076.35 202.553C1070.37 203.812 1063.45 208.744 1062.82 217.978C1072.16 217.348 1076.98 210.422 1078.34 204.441C1078.55 203.707 1078.66 202.972 1078.76 202.133ZM1081.07 199.824C1087.89 199.929 1093.86 203.497 1097.43 209.688L1103.93 197.306C1104.35 196.571 1105.51 196.571 1105.93 197.306L1112.22 209.373C1115.78 203.182 1121.76 199.614 1128.58 199.509C1128.89 192.899 1132.35 187.023 1138.44 183.665L1126.06 177.159C1125.75 176.949 1125.43 176.634 1125.43 176.215C1125.43 175.795 1125.64 175.48 1126.06 175.27L1138.12 168.974C1132.04 165.511 1128.47 159.635 1128.26 153.025C1121.66 152.815 1115.78 149.247 1112.32 143.161L1106.03 155.228C1105.61 155.963 1104.46 155.963 1104.04 155.228L1097.54 142.846C1094.07 148.827 1088.2 152.395 1081.59 152.71C1081.49 159.53 1077.92 165.511 1071.63 168.974L1083.59 175.06C1083.9 175.27 1084.22 175.585 1084.22 176.005C1084.22 176.424 1084.01 176.739 1083.59 176.949L1071.21 183.455C1077.29 187.023 1080.86 193.109 1081.07 199.824ZM1147.88 220.286C1138.44 220.076 1131.1 214.095 1129 204.966C1128.79 203.917 1128.58 202.762 1128.47 201.713C1123.02 201.818 1117.04 204.441 1113.48 211.367L1113.06 212.206C1112.95 212.521 1112.53 212.836 1112.11 212.836C1111.69 212.836 1111.27 212.626 1111.17 212.206L1104.88 200.139L1098.37 212.521C1098.16 212.836 1097.85 213.151 1097.43 213.151C1097.01 213.151 1096.59 212.941 1096.49 212.521L1096.07 211.682C1092.5 204.756 1086.52 202.238 1081.07 202.028C1080.97 202.972 1080.86 203.917 1080.65 204.861C1078.55 213.99 1071.21 220.076 1061.77 220.181C1061.46 220.181 1061.14 220.076 1060.93 219.866C1060.72 219.656 1060.51 219.447 1060.51 219.132C1060.72 209.793 1066.7 202.448 1075.83 200.349C1076.77 200.139 1077.82 199.929 1078.76 199.929C1078.66 194.578 1076.04 188.492 1069.11 185.029L1068.28 184.504C1067.86 184.294 1067.65 183.98 1067.65 183.56C1067.65 183.14 1067.86 182.72 1068.28 182.615L1080.65 176.11L1068.59 169.814C1068.28 169.604 1067.96 169.289 1067.96 168.869C1067.96 168.45 1068.17 168.03 1068.59 167.925L1069.43 167.505C1076.46 164.042 1078.97 157.956 1079.18 152.605C1078.13 152.5 1076.98 152.395 1075.83 152.08C1066.7 149.877 1060.72 142.531 1060.51 133.192C1060.51 132.878 1060.62 132.563 1060.83 132.353C1061.04 132.143 1061.35 132.038 1061.56 132.038C1071.11 132.038 1078.66 138.019 1080.76 147.253C1080.97 148.303 1081.17 149.247 1081.28 150.296C1086.63 150.086 1092.4 147.463 1095.86 140.643L1096.28 139.803C1096.49 139.383 1096.8 139.173 1097.22 139.173C1097.64 139.173 1097.95 139.383 1098.16 139.803L1104.67 152.185L1110.96 140.118C1111.17 139.803 1111.59 139.593 1111.9 139.488C1112.32 139.488 1112.74 139.698 1112.85 140.118L1113.27 140.957C1116.73 147.778 1122.5 150.401 1127.84 150.611C1127.95 149.457 1128.05 148.408 1128.37 147.253C1130.89 138.019 1138.44 132.038 1147.88 132.038C1148.5 132.038 1148.92 132.563 1148.92 133.087C1148.92 142.531 1142.95 150.086 1133.72 152.29C1132.56 152.605 1131.41 152.71 1130.26 152.815C1130.47 158.166 1133.09 163.937 1139.9 167.4L1140.74 167.82C1141.16 168.03 1141.37 168.345 1141.37 168.764C1141.37 169.184 1141.16 169.604 1140.74 169.709L1128.68 176.005L1141.27 182.615C1141.58 182.825 1141.9 183.14 1141.9 183.56C1141.9 183.98 1141.69 184.399 1141.27 184.504L1140.43 184.924C1133.61 188.387 1130.99 194.158 1130.78 199.509C1131.83 199.614 1132.77 199.719 1133.82 200.034C1143.05 202.238 1149.03 209.688 1149.03 219.132C1149.03 219.447 1148.92 219.761 1148.71 219.866C1148.5 220.181 1148.19 220.286 1147.88 220.286ZM1146.83 134.242C1137.28 134.766 1132.25 141.797 1130.78 147.778C1130.57 148.722 1130.47 149.667 1130.36 150.611C1131.41 150.506 1132.35 150.401 1133.3 150.191C1139.28 148.722 1146.3 143.686 1146.83 134.242ZM1062.72 134.242C1063.45 143.581 1070.37 148.408 1076.35 149.772C1077.19 149.981 1078.13 150.086 1079.08 150.191C1078.97 149.352 1078.87 148.512 1078.66 147.673C1077.29 141.797 1072.26 134.766 1062.72 134.242Z" fill="white"/>
<path d="M143.469 220.286C142.84 220.286 142.42 219.761 142.42 219.237C142.42 218.712 142.945 218.187 143.469 218.187C152.698 218.187 158.047 212.311 160.039 206.54C151.754 207.799 143.993 204.126 139.903 196.676L133.716 209.058C133.296 209.793 132.143 209.793 131.723 209.058L125.535 196.676C121.445 204.126 113.685 207.799 105.4 206.54C107.392 212.311 112.741 218.187 121.97 218.187C122.599 218.187 123.018 218.712 123.018 219.237C123.018 219.761 122.494 220.286 121.97 220.286C112.741 220.286 105.4 214.725 102.883 205.91C94.073 203.497 88.5146 196.152 88.5146 186.918C88.5146 186.288 89.039 185.868 89.5634 185.868C90.0878 185.868 90.6121 186.393 90.6121 186.918C90.6121 196.152 96.59 201.398 102.253 203.392C100.995 195.102 104.665 187.442 112.111 183.35L99.8411 177.159C99.4216 176.949 99.2119 176.634 99.2119 176.215C99.2119 175.795 99.4216 175.375 99.8411 175.27L112.216 169.079C104.77 164.987 100.995 157.327 102.358 149.037C96.59 151.031 90.717 156.277 90.717 165.511C90.717 166.141 90.1926 166.561 89.6683 166.561C89.1439 166.561 88.6195 166.036 88.6195 165.511C88.6195 156.277 94.2828 148.932 102.987 146.519C105.295 137.599 112.741 132.038 121.97 132.038C122.599 132.038 123.018 132.563 123.018 133.087C123.018 133.612 122.494 134.137 121.97 134.137C112.741 134.137 107.392 140.013 105.4 145.784C113.685 144.525 121.445 148.198 125.535 155.648L131.723 143.266C132.143 142.531 133.296 142.531 133.716 143.266L139.903 155.648C143.993 148.198 151.754 144.525 160.039 145.784C158.047 140.013 152.698 134.137 143.469 134.137C142.84 134.137 142.42 133.612 142.42 133.087C142.42 132.563 142.945 132.038 143.469 132.038C152.698 132.038 160.039 137.599 162.556 146.414C171.366 148.827 176.924 156.172 176.924 165.407C176.924 166.036 176.4 166.456 175.875 166.456C175.351 166.456 174.827 165.931 174.827 165.407C174.827 156.172 168.849 150.926 163.186 148.932C164.444 157.222 160.773 164.882 153.327 168.974L165.703 175.165C166.122 175.375 166.332 175.69 166.332 176.11C166.332 176.529 166.122 176.949 165.703 177.054L153.327 183.245C160.773 187.337 164.549 194.997 163.186 203.287C168.954 201.293 174.827 196.047 174.827 186.813C174.827 186.183 175.351 185.763 175.875 185.763C176.4 185.763 176.924 186.288 176.924 186.813C176.924 196.047 171.261 203.392 162.556 205.805C160.144 214.62 152.698 220.286 143.469 220.286ZM125.535 193.004C125.955 193.004 126.374 193.214 126.479 193.633L132.667 206.015L138.855 193.633C139.064 193.214 139.379 193.004 139.798 193.004C140.218 193.004 140.637 193.214 140.742 193.633L141.267 194.788C145.776 203.707 154.271 205.386 160.564 204.126C161.822 197.935 160.144 189.331 151.23 184.924L150.076 184.399C149.657 184.189 149.447 183.875 149.447 183.455C149.447 183.035 149.657 182.615 150.076 182.51L162.451 176.319L150.286 170.024C149.866 169.814 149.657 169.499 149.657 169.079C149.657 168.659 149.866 168.24 150.286 168.135L151.44 167.61C160.354 163.098 162.032 154.599 160.773 148.408C154.586 147.148 145.986 148.827 141.476 157.746L140.952 158.901C140.533 159.635 139.379 159.635 138.959 158.901L132.772 146.519L126.584 158.901C126.374 159.32 126.06 159.53 125.64 159.53C125.221 159.53 124.801 159.32 124.696 158.901L124.172 157.746C119.663 148.827 111.168 147.148 104.875 148.408C103.617 154.599 105.295 163.203 114.209 167.61L115.363 168.135C115.782 168.345 115.992 168.659 115.992 169.079C115.992 169.499 115.782 169.919 115.363 170.024L102.778 176.11L115.153 182.301C115.572 182.51 115.782 182.825 115.782 183.245C115.782 183.665 115.572 184.084 115.153 184.189L113.999 184.714C105.085 189.226 103.407 197.726 104.665 203.917C110.853 205.176 119.453 203.497 123.962 194.578L124.487 193.423C124.696 193.214 125.116 193.004 125.535 193.004Z" fill="white"/>
<path d="M496.898 220.286C496.269 220.286 495.849 219.761 495.849 219.237C495.849 218.712 496.373 218.187 496.898 218.187C506.127 218.187 511.475 212.311 513.468 206.54C505.183 207.799 497.422 204.126 493.332 196.676L487.144 209.058C486.725 209.793 485.571 209.793 485.152 209.058L478.964 196.676C474.874 204.126 467.113 207.799 458.828 206.54C460.821 212.311 466.169 218.187 475.398 218.187C476.028 218.187 476.447 218.712 476.447 219.237C476.447 219.761 475.923 220.286 475.398 220.286C466.169 220.286 458.828 214.725 456.311 205.91C447.502 203.497 441.943 196.152 441.943 186.918C441.943 186.288 442.468 185.868 442.992 185.868C443.516 185.868 444.041 186.393 444.041 186.918C444.041 196.152 450.019 201.398 455.682 203.392C454.423 195.102 458.094 187.442 465.54 183.35L453.27 177.159C452.85 176.949 452.641 176.634 452.641 176.215C452.641 175.795 452.85 175.375 453.27 175.27L465.645 169.079C458.199 164.987 454.423 157.327 455.787 149.037C450.019 151.031 444.146 156.277 444.146 165.511C444.146 166.141 443.621 166.561 443.097 166.561C442.573 166.561 442.048 166.036 442.048 165.511C442.048 156.277 447.711 148.932 456.416 146.519C458.723 137.599 466.169 132.038 475.398 132.038C476.028 132.038 476.447 132.563 476.447 133.087C476.447 133.612 475.923 134.137 475.398 134.137C466.169 134.137 460.821 140.013 458.828 145.784C467.113 144.525 474.874 148.198 478.964 155.648L485.152 143.266C485.571 142.531 486.725 142.531 487.144 143.266L493.332 155.648C497.422 148.198 505.183 144.525 513.468 145.784C511.475 140.013 506.127 134.137 496.898 134.137C496.269 134.137 495.849 133.612 495.849 133.087C495.849 132.563 496.373 132.038 496.898 132.038C506.127 132.038 513.468 137.599 515.985 146.414C524.795 148.827 530.353 156.172 530.353 165.407C530.353 166.036 529.829 166.456 529.304 166.456C528.78 166.456 528.255 165.931 528.255 165.407C528.255 156.172 522.278 150.926 516.614 148.932C517.873 157.222 514.202 164.882 506.756 168.974L519.131 175.165C519.551 175.375 519.761 175.69 519.761 176.11C519.761 176.529 519.551 176.949 519.131 177.054L506.756 183.245C514.202 187.337 517.978 194.997 516.614 203.287C522.382 201.293 528.255 196.047 528.255 186.813C528.255 186.183 528.78 185.763 529.304 185.763C529.829 185.763 530.353 186.288 530.353 186.813C530.353 196.047 524.69 203.392 515.985 205.805C513.573 214.62 506.127 220.286 496.898 220.286ZM478.964 193.004C479.384 193.004 479.803 193.214 479.908 193.633L486.096 206.015L492.283 193.633C492.493 193.214 492.808 193.004 493.227 193.004C493.647 193.004 494.066 193.214 494.171 193.633L494.695 194.788C499.205 203.707 507.7 205.386 513.992 204.126C515.251 197.935 513.573 189.331 504.659 184.924L503.505 184.399C503.085 184.189 502.876 183.875 502.876 183.455C502.876 183.035 503.085 182.615 503.505 182.51L515.88 176.319L503.715 170.024C503.295 169.814 503.085 169.499 503.085 169.079C503.085 168.659 503.295 168.24 503.715 168.135L504.868 167.61C513.783 163.098 515.461 154.599 514.202 148.408C508.015 147.148 499.415 148.827 494.905 157.746L494.381 158.901C493.961 159.635 492.808 159.635 492.388 158.901L486.201 146.519L480.013 158.901C479.803 159.32 479.489 159.53 479.069 159.53C478.65 159.53 478.23 159.32 478.125 158.901L477.601 157.746C473.091 148.827 464.596 147.148 458.304 148.408C457.045 154.599 458.723 163.203 467.638 167.61L468.791 168.135C469.211 168.345 469.421 168.659 469.421 169.079C469.421 169.499 469.211 169.919 468.791 170.024L456.206 176.11L468.582 182.301C469.001 182.51 469.211 182.825 469.211 183.245C469.211 183.665 469.001 184.084 468.582 184.189L467.428 184.714C458.514 189.226 456.836 197.726 458.094 203.917C464.282 205.176 472.881 203.497 477.391 194.578L477.915 193.423C478.125 193.214 478.545 193.004 478.964 193.004Z" fill="white"/>
<path d="M850.327 220.286C849.697 220.286 849.278 219.761 849.278 219.237C849.278 218.712 849.802 218.187 850.327 218.187C859.556 218.187 864.904 212.311 866.897 206.54C858.612 207.799 850.851 204.126 846.761 196.676L840.573 209.058C840.154 209.793 839 209.793 838.581 209.058L832.393 196.676C828.303 204.126 820.542 207.799 812.257 206.54C814.25 212.311 819.598 218.187 828.827 218.187C829.456 218.187 829.876 218.712 829.876 219.237C829.876 219.761 829.352 220.286 828.827 220.286C819.598 220.286 812.257 214.725 809.74 205.91C800.93 203.497 795.372 196.152 795.372 186.918C795.372 186.288 795.896 185.868 796.421 185.868C796.945 185.868 797.47 186.393 797.47 186.918C797.47 196.152 803.447 201.398 809.111 203.392C807.852 195.102 811.523 187.442 818.969 183.35L806.699 177.159C806.279 176.949 806.069 176.634 806.069 176.215C806.069 175.795 806.279 175.375 806.699 175.27L819.074 169.079C811.628 164.987 807.852 157.327 809.216 149.037C803.447 151.031 797.574 156.277 797.574 165.511C797.574 166.141 797.05 166.561 796.526 166.561C796.001 166.561 795.477 166.036 795.477 165.511C795.477 156.277 801.14 148.932 809.845 146.519C812.152 137.599 819.598 132.038 828.827 132.038C829.456 132.038 829.876 132.563 829.876 133.087C829.876 133.612 829.352 134.137 828.827 134.137C819.598 134.137 814.25 140.013 812.257 145.784C820.542 144.525 828.303 148.198 832.393 155.648L838.581 143.266C839 142.531 840.154 142.531 840.573 143.266L846.761 155.648C850.851 148.198 858.612 144.525 866.897 145.784C864.904 140.013 859.556 134.137 850.327 134.137C849.697 134.137 849.278 133.612 849.278 133.087C849.278 132.563 849.802 132.038 850.327 132.038C859.556 132.038 866.897 137.599 869.414 146.414C878.223 148.827 883.782 156.172 883.782 165.407C883.782 166.036 883.257 166.456 882.733 166.456C882.208 166.456 881.684 165.931 881.684 165.407C881.684 156.172 875.706 150.926 870.043 148.932C871.301 157.222 867.631 164.882 860.185 168.974L872.56 175.165C872.979 175.375 873.189 175.69 873.189 176.11C873.189 176.529 872.979 176.949 872.56 177.054L860.185 183.245C867.631 187.337 871.406 194.997 870.043 203.287C875.811 201.293 881.684 196.047 881.684 186.813C881.684 186.183 882.208 185.763 882.733 185.763C883.257 185.763 883.782 186.288 883.782 186.813C883.782 196.047 878.118 203.392 869.414 205.805C867.002 214.62 859.556 220.286 850.327 220.286ZM832.393 193.004C832.812 193.004 833.232 193.214 833.337 193.633L839.524 206.015L845.712 193.633C845.922 193.214 846.236 193.004 846.656 193.004C847.075 193.004 847.495 193.214 847.6 193.633L848.124 194.788C852.634 203.707 861.129 205.386 867.421 204.126C868.68 197.935 867.002 189.331 858.087 184.924L856.934 184.399C856.514 184.189 856.304 183.875 856.304 183.455C856.304 183.035 856.514 182.615 856.934 182.51L869.309 176.319L857.143 170.024C856.724 169.814 856.514 169.499 856.514 169.079C856.514 168.659 856.724 168.24 857.143 168.135L858.297 167.61C867.211 163.098 868.889 154.599 867.631 148.408C861.443 147.148 852.844 148.827 848.334 157.746L847.81 158.901C847.39 159.635 846.236 159.635 845.817 158.901L839.629 146.519L833.442 158.901C833.232 159.32 832.917 159.53 832.498 159.53C832.078 159.53 831.659 159.32 831.554 158.901L831.03 157.746C826.52 148.827 818.025 147.148 811.733 148.408C810.474 154.599 812.152 163.203 821.066 167.61L822.22 168.135C822.64 168.345 822.849 168.659 822.849 169.079C822.849 169.499 822.64 169.919 822.22 170.024L809.635 176.11L822.01 182.301C822.43 182.51 822.64 182.825 822.64 183.245C822.64 183.665 822.43 184.084 822.01 184.189L820.857 184.714C811.942 189.226 810.264 197.726 811.523 203.917C817.71 205.176 826.31 203.497 830.82 194.578L831.344 193.423C831.554 193.214 831.973 193.004 832.393 193.004Z" fill="white"/>
<path d="M1203.98 220.286C1203.36 220.286 1202.94 219.761 1202.94 219.237C1202.94 218.712 1203.46 218.187 1203.98 218.187C1213.21 218.187 1218.56 212.311 1220.55 206.54C1212.27 207.799 1204.51 204.126 1200.42 196.676L1194.23 209.058C1193.81 209.793 1192.66 209.793 1192.24 209.058L1186.05 196.676C1181.96 204.126 1174.2 207.799 1165.92 206.54C1167.91 212.311 1173.26 218.187 1182.49 218.187C1183.11 218.187 1183.53 218.712 1183.53 219.237C1183.53 219.761 1183.01 220.286 1182.49 220.286C1173.26 220.286 1165.92 214.725 1163.4 205.91C1154.59 203.497 1149.03 196.152 1149.03 186.918C1149.03 186.288 1149.55 185.868 1150.08 185.868C1150.6 185.868 1151.13 186.393 1151.13 186.918C1151.13 196.152 1157.11 201.398 1162.77 203.392C1161.51 195.102 1165.18 187.442 1172.63 183.35L1160.36 177.159C1159.94 176.949 1159.73 176.634 1159.73 176.215C1159.73 175.795 1159.94 175.375 1160.36 175.27L1172.73 169.079C1165.29 164.987 1161.51 157.327 1162.87 149.037C1157.11 151.031 1151.23 156.277 1151.23 165.511C1151.23 166.141 1150.71 166.561 1150.18 166.561C1149.66 166.561 1149.14 166.036 1149.14 165.511C1149.14 156.277 1154.8 148.932 1163.5 146.519C1165.81 137.599 1173.26 132.038 1182.49 132.038C1183.11 132.038 1183.53 132.563 1183.53 133.087C1183.53 133.612 1183.01 134.137 1182.49 134.137C1173.26 134.137 1167.91 140.013 1165.92 145.784C1174.2 144.525 1181.96 148.198 1186.05 155.648L1192.24 143.266C1192.66 142.531 1193.81 142.531 1194.23 143.266L1200.42 155.648C1204.51 148.198 1212.27 144.525 1220.55 145.784C1218.56 140.013 1213.21 134.137 1203.98 134.137C1203.36 134.137 1202.94 133.612 1202.94 133.087C1202.94 132.563 1203.46 132.038 1203.98 132.038C1213.21 132.038 1220.55 137.599 1223.07 146.414C1231.88 148.827 1237.44 156.172 1237.44 165.407C1237.44 166.036 1236.92 166.456 1236.39 166.456C1235.87 166.456 1235.34 165.931 1235.34 165.407C1235.34 156.172 1229.36 150.926 1223.7 148.932C1224.96 157.222 1221.29 164.882 1213.84 168.974L1226.22 175.165C1226.64 175.375 1226.85 175.69 1226.85 176.11C1226.85 176.529 1226.64 176.949 1226.22 177.054L1213.84 183.245C1221.29 187.337 1225.06 194.997 1223.7 203.287C1229.47 201.293 1235.34 196.047 1235.34 186.813C1235.34 186.183 1235.87 185.763 1236.39 185.763C1236.92 185.763 1237.44 186.288 1237.44 186.813C1237.44 196.047 1231.78 203.392 1223.07 205.805C1220.66 214.62 1213.21 220.286 1203.98 220.286ZM1186.05 193.004C1186.47 193.004 1186.89 193.214 1186.99 193.633L1193.18 206.015L1199.37 193.633C1199.58 193.214 1199.89 193.004 1200.31 193.004C1200.73 193.004 1201.15 193.214 1201.26 193.633L1201.78 194.788C1206.29 203.707 1214.79 205.386 1221.08 204.126C1222.34 197.935 1220.66 189.331 1211.75 184.924L1210.59 184.399C1210.17 184.189 1209.96 183.875 1209.96 183.455C1209.96 183.035 1210.17 182.615 1210.59 182.51L1222.97 176.319L1210.8 170.024C1210.38 169.814 1210.17 169.499 1210.17 169.079C1210.17 168.659 1210.38 168.24 1210.8 168.135L1211.96 167.61C1220.87 163.098 1222.55 154.599 1221.29 148.408C1215.1 147.148 1206.5 148.827 1201.99 157.746L1201.47 158.901C1201.05 159.635 1199.89 159.635 1199.48 158.901L1193.29 146.519L1187.1 158.901C1186.89 159.32 1186.58 159.53 1186.16 159.53C1185.74 159.53 1185.32 159.32 1185.21 158.901L1184.69 157.746C1180.18 148.827 1171.68 147.148 1165.39 148.408C1164.13 154.599 1165.81 163.203 1174.72 167.61L1175.88 168.135C1176.3 168.345 1176.51 168.659 1176.51 169.079C1176.51 169.499 1176.3 169.919 1175.88 170.024L1163.29 176.11L1175.67 182.301C1176.09 182.51 1176.3 182.825 1176.3 183.245C1176.3 183.665 1176.09 184.084 1175.67 184.189L1174.51 184.714C1165.6 189.226 1163.92 197.726 1165.18 203.917C1171.37 205.176 1179.97 203.497 1184.48 194.578L1185 193.423C1185.21 193.214 1185.63 193.004 1186.05 193.004Z" fill="white"/>
<path d="M195.508 220.312C195.403 220.312 195.298 220.312 195.298 220.312C194.774 220.207 194.459 219.788 194.459 219.263V218.528C194.459 218.004 194.774 217.584 195.193 217.479L210.505 186.944L179.357 202.579C178.833 202.894 178.204 202.579 177.889 202.054C177.574 201.529 177.784 200.9 178.413 200.585L210.19 184.53L195.298 177.395L178.623 185.685C178.309 185.895 177.889 185.79 177.574 185.685C177.26 185.475 177.05 185.16 177.05 184.74V167.636C177.05 167.217 177.26 166.902 177.574 166.692C177.889 166.482 178.309 166.482 178.623 166.692L195.298 174.982L210.295 167.741L177.574 151.477C177.155 151.267 176.84 150.742 176.945 150.218C177.05 149.693 177.47 149.378 177.994 149.378H178.728C179.252 149.378 179.672 149.693 179.777 150.113L210.715 165.538L195.403 134.897C194.984 134.793 194.669 134.373 194.669 133.848V133.114C194.669 132.589 194.984 132.169 195.508 132.064C196.032 131.959 196.557 132.169 196.766 132.694L213.127 165.328L220.363 150.323L212.078 133.743C211.868 133.428 211.973 133.009 212.078 132.694C212.183 132.379 212.603 132.169 213.022 132.169H230.222C230.641 132.169 230.956 132.379 231.165 132.694C231.375 133.009 231.375 133.428 231.165 133.743L222.88 150.323L230.012 165.223L246.058 133.428C246.372 132.904 247.002 132.694 247.526 132.904C248.05 133.219 248.26 133.848 248.05 134.373L232.214 165.643L262.628 150.532C262.733 150.113 263.152 149.798 263.677 149.798H264.411C264.935 149.798 265.355 150.113 265.46 150.637C265.564 151.162 265.355 151.687 264.83 151.896L232.109 168.161L247.106 175.401L263.782 167.112C264.096 166.902 264.516 167.007 264.83 167.112C265.145 167.322 265.355 167.636 265.355 168.056V185.16C265.355 185.58 265.145 185.895 264.83 186.104C264.516 186.314 264.096 186.314 263.782 186.104L247.106 177.815L232.214 184.95L264.096 201.005C264.621 201.32 264.83 201.949 264.621 202.474C264.306 202.998 263.677 203.208 263.152 202.998L232.004 187.364L247.736 218.109C248.05 218.633 247.841 219.263 247.211 219.578C246.687 219.893 246.058 219.683 245.743 219.053L229.697 187.259L222.566 202.159L230.851 218.738C231.061 219.053 230.956 219.473 230.851 219.788C230.641 220.102 230.326 220.312 229.907 220.312H212.707C212.288 220.312 211.973 220.102 211.764 219.788C211.554 219.473 211.554 219.053 211.764 218.738L220.049 202.159L212.812 187.154L196.452 219.788C196.242 220.102 195.927 220.312 195.508 220.312ZM214.49 218.109H228.124L221.307 204.468L214.49 218.109ZM213.232 183.586C213.442 183.691 213.651 183.901 213.861 184.111L221.307 199.641L228.648 184.321C228.858 183.901 229.173 183.691 229.592 183.691C229.697 183.691 229.697 183.691 229.802 183.691L244.694 176.556L229.173 169.105C228.753 168.896 228.544 168.581 228.544 168.161C228.544 167.951 228.544 167.846 228.648 167.636L221.517 152.841L214.071 168.371C213.861 168.791 213.546 169 213.127 169C213.127 169 213.127 169 213.022 169L197.71 176.346L213.232 183.586ZM249.728 176.556L263.362 183.376V169.735L249.728 176.556ZM179.252 169.42V182.956L192.886 176.136L179.252 169.42ZM214.805 134.268L221.622 147.804L228.439 134.268H214.805Z" fill="white"/>
<path d="M548.936 220.312C548.831 220.312 548.726 220.312 548.726 220.312C548.202 220.207 547.887 219.788 547.887 219.263V218.528C547.887 218.004 548.202 217.584 548.621 217.479L563.933 186.944L532.785 202.579C532.261 202.894 531.631 202.579 531.317 202.054C531.002 201.529 531.212 200.9 531.841 200.585L563.618 184.53L548.726 177.395L532.051 185.685C531.736 185.895 531.317 185.79 531.002 185.685C530.687 185.475 530.478 185.16 530.478 184.74V167.636C530.478 167.217 530.687 166.902 531.002 166.692C531.317 166.482 531.736 166.482 532.051 166.692L548.726 174.982L563.723 167.741L531.002 151.477C530.583 151.267 530.268 150.742 530.373 150.218C530.478 149.693 530.897 149.378 531.422 149.378H532.156C532.68 149.378 533.1 149.693 533.204 150.113L564.143 165.538L548.831 134.897C548.411 134.793 548.097 134.373 548.097 133.848V133.114C548.097 132.589 548.411 132.169 548.936 132.064C549.46 131.959 549.984 132.169 550.194 132.694L566.555 165.328L573.791 150.323L565.506 133.743C565.296 133.428 565.401 133.009 565.506 132.694C565.611 132.379 566.03 132.169 566.45 132.169H583.649C584.069 132.169 584.383 132.379 584.593 132.694C584.803 133.009 584.803 133.428 584.593 133.743L576.308 150.323L583.44 165.223L599.485 133.428C599.8 132.904 600.429 132.694 600.954 132.904C601.478 133.219 601.688 133.848 601.478 134.373L585.642 165.643L616.056 150.532C616.161 150.113 616.58 149.798 617.104 149.798H617.839C618.363 149.798 618.782 150.113 618.887 150.637C618.992 151.162 618.782 151.687 618.258 151.896L585.537 168.161L600.534 175.401L617.209 167.112C617.524 166.902 617.943 167.007 618.258 167.112C618.573 167.322 618.782 167.636 618.782 168.056V185.16C618.782 185.58 618.573 185.895 618.258 186.104C617.943 186.314 617.524 186.314 617.209 186.104L600.534 177.815L585.642 184.95L617.524 201.005C618.048 201.32 618.258 201.949 618.048 202.474C617.734 202.998 617.104 203.208 616.58 202.998L585.432 187.364L601.163 218.109C601.478 218.633 601.268 219.263 600.639 219.578C600.115 219.893 599.485 219.683 599.171 219.053L583.125 187.259L575.993 202.159L584.279 218.738C584.488 219.053 584.383 219.473 584.279 219.788C584.069 220.102 583.754 220.312 583.335 220.312H566.135C565.716 220.312 565.401 220.102 565.191 219.788C564.982 219.473 564.982 219.053 565.191 218.738L573.476 202.159L566.24 187.154L549.88 219.788C549.67 220.102 549.355 220.312 548.936 220.312ZM567.918 218.109H581.552L574.735 204.468L567.918 218.109ZM566.66 183.586C566.869 183.691 567.079 183.901 567.289 184.111L574.735 199.641L582.076 184.321C582.286 183.901 582.601 183.691 583.02 183.691C583.125 183.691 583.125 183.691 583.23 183.691L598.122 176.556L582.601 169.105C582.181 168.896 581.971 168.581 581.971 168.161C581.971 167.951 581.971 167.846 582.076 167.636L574.945 152.841L567.499 168.371C567.289 168.791 566.974 169 566.555 169C566.555 169 566.555 169 566.45 169L551.138 176.346L566.66 183.586ZM603.156 176.556L616.79 183.376V169.735L603.156 176.556ZM532.68 169.42V182.956L546.314 176.136L532.68 169.42ZM568.233 134.268L575.05 147.804L581.866 134.268H568.233Z" fill="white"/>
<path d="M902.364 220.312C902.26 220.312 902.155 220.312 902.155 220.312C901.63 220.207 901.316 219.788 901.316 219.263V218.528C901.316 218.004 901.63 217.584 902.05 217.479L917.362 186.944L886.214 202.579C885.689 202.894 885.06 202.579 884.745 202.054C884.431 201.529 884.641 200.9 885.27 200.585L917.047 184.53L902.155 177.395L885.48 185.685C885.165 185.895 884.745 185.79 884.431 185.685C884.116 185.475 883.906 185.16 883.906 184.74V167.636C883.906 167.217 884.116 166.902 884.431 166.692C884.745 166.482 885.165 166.482 885.48 166.692L902.155 174.982L917.152 167.741L884.431 151.477C884.011 151.267 883.697 150.742 883.802 150.218C883.906 149.693 884.326 149.378 884.85 149.378H885.584C886.109 149.378 886.528 149.693 886.633 150.113L917.571 165.538L902.26 134.897C901.84 134.793 901.525 134.373 901.525 133.848V133.114C901.525 132.589 901.84 132.169 902.364 132.064C902.889 131.959 903.413 132.169 903.623 132.694L919.983 165.328L927.22 150.323L918.935 133.743C918.725 133.428 918.83 133.009 918.935 132.694C919.04 132.379 919.459 132.169 919.879 132.169H937.078C937.498 132.169 937.812 132.379 938.022 132.694C938.232 133.009 938.232 133.428 938.022 133.743L929.737 150.323L936.868 165.223L952.914 133.428C953.229 132.904 953.858 132.694 954.382 132.904C954.907 133.219 955.117 133.848 954.907 134.373L939.071 165.643L969.484 150.532C969.589 150.113 970.009 149.798 970.533 149.798H971.267C971.792 149.798 972.211 150.113 972.316 150.637C972.421 151.162 972.211 151.687 971.687 151.896L938.966 168.161L953.963 175.401L970.638 167.112C970.953 166.902 971.372 167.007 971.687 167.112C972.001 167.322 972.211 167.636 972.211 168.056V185.16C972.211 185.58 972.001 185.895 971.687 186.104C971.372 186.314 970.953 186.314 970.638 186.104L953.963 177.815L939.071 184.95L970.953 201.005C971.477 201.32 971.687 201.949 971.477 202.474C971.162 202.998 970.533 203.208 970.009 202.998L938.861 187.364L954.592 218.109C954.907 218.633 954.697 219.263 954.068 219.578C953.543 219.893 952.914 219.683 952.6 219.053L936.554 187.259L929.422 202.159L937.707 218.738C937.917 219.053 937.812 219.473 937.707 219.788C937.498 220.102 937.183 220.312 936.763 220.312H919.564C919.144 220.312 918.83 220.102 918.62 219.788C918.41 219.473 918.41 219.053 918.62 218.738L926.905 202.159L919.669 187.154L903.308 219.788C903.099 220.102 902.784 220.312 902.364 220.312ZM921.347 218.109H934.981L928.164 204.468L921.347 218.109ZM920.088 183.586C920.298 183.691 920.508 183.901 920.718 184.111L928.164 199.641L935.505 184.321C935.715 183.901 936.029 183.691 936.449 183.691C936.554 183.691 936.554 183.691 936.659 183.691L951.551 176.556L936.029 169.105C935.61 168.896 935.4 168.581 935.4 168.161C935.4 167.951 935.4 167.846 935.505 167.636L928.373 152.841L920.927 168.371C920.718 168.791 920.403 169 919.983 169C919.983 169 919.983 169 919.879 169L904.567 176.346L920.088 183.586ZM956.585 176.556L970.218 183.376V169.735L956.585 176.556ZM886.109 169.42V182.956L899.743 176.136L886.109 169.42ZM921.661 134.268L928.478 147.804L935.295 134.268H921.661Z" fill="white"/>
<path d="M1256.02 220.312C1255.92 220.312 1255.81 220.312 1255.81 220.312C1255.29 220.207 1254.97 219.788 1254.97 219.263V218.528C1254.97 218.004 1255.29 217.584 1255.71 217.479L1271.02 186.944L1239.87 202.579C1239.35 202.894 1238.72 202.579 1238.4 202.054C1238.09 201.529 1238.3 200.9 1238.93 200.585L1270.71 184.53L1255.81 177.395L1239.14 185.685C1238.82 185.895 1238.4 185.79 1238.09 185.685C1237.77 185.475 1237.56 185.16 1237.56 184.74V167.636C1237.56 167.217 1237.77 166.902 1238.09 166.692C1238.4 166.482 1238.82 166.482 1239.14 166.692L1255.81 174.982L1270.81 167.741L1238.09 151.477C1237.67 151.267 1237.35 150.742 1237.46 150.218C1237.56 149.693 1237.98 149.378 1238.51 149.378H1239.24C1239.77 149.378 1240.19 149.693 1240.29 150.113L1271.23 165.538L1255.92 134.897C1255.5 134.793 1255.18 134.373 1255.18 133.848V133.114C1255.18 132.589 1255.5 132.169 1256.02 132.064C1256.55 131.959 1257.07 132.169 1257.28 132.694L1273.64 165.328L1280.88 150.323L1272.59 133.743C1272.38 133.428 1272.49 133.009 1272.59 132.694C1272.7 132.379 1273.12 132.169 1273.54 132.169H1290.74C1291.16 132.169 1291.47 132.379 1291.68 132.694C1291.89 133.009 1291.89 133.428 1291.68 133.743L1283.39 150.323L1290.53 165.223L1306.57 133.428C1306.89 132.904 1307.52 132.694 1308.04 132.904C1308.56 133.219 1308.77 133.848 1308.56 134.373L1292.73 165.643L1323.14 150.532C1323.25 150.113 1323.67 149.798 1324.19 149.798H1324.93C1325.45 149.798 1325.87 150.113 1325.97 150.637C1326.08 151.162 1325.87 151.687 1325.34 151.896L1292.62 168.161L1307.62 175.401L1324.3 167.112C1324.61 166.902 1325.03 167.007 1325.34 167.112C1325.66 167.322 1325.87 167.636 1325.87 168.056V185.16C1325.87 185.58 1325.66 185.895 1325.34 186.104C1325.03 186.314 1324.61 186.314 1324.3 186.104L1307.62 177.815L1292.73 184.95L1324.61 201.005C1325.14 201.32 1325.34 201.949 1325.14 202.474C1324.82 202.998 1324.19 203.208 1323.67 202.998L1292.52 187.364L1308.25 218.109C1308.56 218.633 1308.36 219.263 1307.73 219.578C1307.2 219.893 1306.57 219.683 1306.26 219.053L1290.21 187.259L1283.08 202.159L1291.37 218.738C1291.58 219.053 1291.47 219.473 1291.37 219.788C1291.16 220.102 1290.84 220.312 1290.42 220.312H1273.22C1272.8 220.312 1272.49 220.102 1272.28 219.788C1272.07 219.473 1272.07 219.053 1272.28 218.738L1280.56 202.159L1273.33 187.154L1256.97 219.788C1256.76 220.102 1256.44 220.312 1256.02 220.312ZM1275 218.109H1288.64L1281.82 204.468L1275 218.109ZM1273.75 183.586C1273.96 183.691 1274.17 183.901 1274.38 184.111L1281.82 199.641L1289.16 184.321C1289.37 183.901 1289.69 183.691 1290.11 183.691C1290.21 183.691 1290.21 183.691 1290.32 183.691L1305.21 176.556L1289.69 169.105C1289.27 168.896 1289.06 168.581 1289.06 168.161C1289.06 167.951 1289.06 167.846 1289.16 167.636L1282.03 152.841L1274.59 168.371C1274.38 168.791 1274.06 169 1273.64 169C1273.64 169 1273.64 169 1273.54 169L1258.23 176.346L1273.75 183.586ZM1310.24 176.556L1323.88 183.376V169.735L1310.24 176.556ZM1239.77 169.42V182.956L1253.4 176.136L1239.77 169.42ZM1275.32 134.268L1282.14 147.804L1288.95 134.268H1275.32Z" fill="white"/>
<path d="M336.419 219.906C336.314 219.906 336.209 219.906 336.104 219.801L309.571 210.986L283.038 219.801C282.618 219.906 282.199 219.801 281.884 219.486C281.57 219.171 281.465 218.751 281.57 218.332L288.806 196.611L266.992 203.851C266.572 203.956 266.153 203.851 265.838 203.536C265.524 203.221 265.419 202.802 265.524 202.382L274.333 175.939L265.524 149.496C265.419 149.076 265.524 148.657 265.838 148.342C266.153 148.027 266.572 147.922 266.992 148.027L288.806 155.267L281.57 133.546C281.465 133.127 281.57 132.707 281.884 132.392C282.199 132.077 282.618 131.973 283.038 132.077L309.571 140.892L336.104 132.077C336.524 131.973 336.943 132.077 337.258 132.392C337.573 132.707 337.678 133.127 337.573 133.546L330.336 155.267L352.15 148.027C352.57 147.922 352.989 148.027 353.304 148.342C353.619 148.657 353.723 149.076 353.619 149.496L344.809 175.939L353.514 202.487C353.619 202.907 353.514 203.326 353.199 203.641C352.884 203.956 352.465 204.061 352.045 203.956L330.231 196.716L337.468 218.437C337.573 218.856 337.468 219.276 337.153 219.591C337.048 219.801 336.734 219.906 336.419 219.906ZM313.032 209.832L334.741 217.072L330.441 204.061L313.032 209.832ZM288.701 204.061L284.401 217.072L306.11 209.832L288.701 204.061ZM289.435 201.962L309.571 208.678L329.707 201.962L327.61 195.771L309.571 189.79L291.533 195.771L289.435 201.962ZM275.592 179.507L268.355 201.123L281.36 196.821L275.592 179.507ZM337.678 196.821L350.682 201.123L343.446 179.507L337.678 196.821ZM276.85 176.044L283.562 196.086L289.75 193.987L295.728 175.939L289.75 157.891L283.562 155.792L276.85 176.044ZM329.393 194.092L335.58 196.191L342.292 176.149L335.58 156.107L329.393 158.206L323.415 176.254L329.393 194.092ZM313.032 188.636L326.771 193.148L322.156 179.507L321.527 181.396C321.422 181.71 321.107 182.025 320.688 182.13C320.268 182.235 319.954 182.13 319.639 181.815L315.444 177.618L313.242 179.822L311.039 182.025L315.234 186.222C315.549 186.537 315.654 186.852 315.549 187.272C315.444 187.691 315.234 187.901 314.815 188.111L313.032 188.636ZM296.881 179.507L292.267 193.148L306.005 188.636L304.118 188.006C303.803 187.901 303.488 187.587 303.384 187.167C303.279 186.747 303.384 186.432 303.698 186.118L307.893 181.92L303.488 177.513L299.293 181.71C298.979 182.025 298.664 182.13 298.245 182.025C297.825 181.92 297.615 181.71 297.406 181.291L296.881 179.507ZM306.635 186.432L309.571 187.377L312.508 186.432L309.571 183.494L306.635 186.432ZM305.166 176.044L307.369 178.248L309.571 180.451L313.976 176.044L309.571 171.637L307.369 173.84L305.166 176.044ZM298.035 176.044L298.979 178.982L301.915 176.044L298.979 173.106L298.035 176.044ZM317.122 176.044L320.059 178.982L321.003 176.044L320.059 173.106L317.122 176.044ZM298.559 169.958C298.874 169.958 299.084 170.063 299.293 170.273L303.488 174.47L307.893 170.063L303.698 165.866C303.384 165.551 303.279 165.236 303.384 164.816C303.488 164.397 303.698 164.187 304.118 163.977L306.005 163.347L292.267 158.835L296.881 172.476L297.511 170.588C297.615 170.273 297.93 169.958 298.35 169.853C298.454 169.958 298.454 169.958 298.559 169.958ZM313.347 172.266L315.549 174.47L319.744 170.273C320.059 169.958 320.373 169.853 320.793 169.958C321.212 170.063 321.422 170.273 321.632 170.692L322.261 172.581L326.876 158.94L313.137 163.452L315.025 164.082C315.339 164.187 315.654 164.501 315.759 164.921C315.864 165.341 315.759 165.656 315.444 165.971L311.249 170.168L313.347 172.266ZM268.46 150.965L275.697 172.581L281.465 155.267L268.46 150.965ZM337.678 155.267L343.446 172.581L350.682 150.965L337.678 155.267ZM306.635 165.551L309.571 168.489L312.508 165.551L309.571 164.606L306.635 165.551ZM291.428 156.317L309.466 162.298L327.505 156.317L329.602 150.126L309.466 143.41L289.33 150.126L291.428 156.317ZM313.032 142.256L330.336 148.027L334.636 135.016L313.032 142.256ZM284.401 135.016L288.701 148.027L306.005 142.256L284.401 135.016Z" fill="white"/>
<path d="M689.848 219.906C689.743 219.906 689.638 219.906 689.533 219.801L663 210.986L636.467 219.801C636.047 219.906 635.628 219.801 635.313 219.486C634.998 219.171 634.893 218.751 634.998 218.332L642.235 196.611L620.421 203.851C620.001 203.956 619.582 203.851 619.267 203.536C618.952 203.221 618.848 202.802 618.952 202.382L627.762 175.939L618.952 149.496C618.848 149.076 618.952 148.657 619.267 148.342C619.582 148.027 620.001 147.922 620.421 148.027L642.235 155.267L634.998 133.546C634.893 133.127 634.998 132.707 635.313 132.392C635.628 132.077 636.047 131.973 636.467 132.077L663 140.892L689.533 132.077C689.953 131.973 690.372 132.077 690.687 132.392C691.001 132.707 691.106 133.127 691.001 133.546L683.765 155.267L705.579 148.027C705.999 147.922 706.418 148.027 706.733 148.342C707.047 148.657 707.152 149.076 707.047 149.496L698.238 175.939L706.942 202.487C707.047 202.907 706.942 203.326 706.628 203.641C706.313 203.956 705.894 204.061 705.474 203.956L683.66 196.716L690.897 218.437C691.001 218.856 690.897 219.276 690.582 219.591C690.477 219.801 690.162 219.906 689.848 219.906ZM666.461 209.832L688.17 217.072L683.87 204.061L666.461 209.832ZM642.13 204.061L637.83 217.072L659.539 209.832L642.13 204.061ZM642.864 201.962L663 208.678L683.136 201.962L681.038 195.771L663 189.79L644.961 195.771L642.864 201.962ZM629.02 179.507L621.784 201.123L634.789 196.821L629.02 179.507ZM691.106 196.821L704.111 201.123L696.874 179.507L691.106 196.821ZM630.279 176.044L636.991 196.086L643.179 193.987L649.156 175.939L643.179 157.891L636.991 155.792L630.279 176.044ZM682.821 194.092L689.009 196.191L695.721 176.149L689.009 156.107L682.821 158.206L676.843 176.254L682.821 194.092ZM666.461 188.636L680.199 193.148L675.585 179.507L674.956 181.396C674.851 181.71 674.536 182.025 674.117 182.13C673.697 182.235 673.382 182.13 673.068 181.815L668.873 177.618L666.67 179.822L664.468 182.025L668.663 186.222C668.978 186.537 669.083 186.852 668.978 187.272C668.873 187.691 668.663 187.901 668.244 188.111L666.461 188.636ZM650.31 179.507L645.696 193.148L659.434 188.636L657.546 188.006C657.232 187.901 656.917 187.587 656.812 187.167C656.707 186.747 656.812 186.432 657.127 186.118L661.322 181.92L656.917 177.513L652.722 181.71C652.407 182.025 652.093 182.13 651.673 182.025C651.254 181.92 651.044 181.71 650.834 181.291L650.31 179.507ZM660.063 186.432L663 187.377L665.936 186.432L663 183.494L660.063 186.432ZM658.595 176.044L660.797 178.248L663 180.451L667.405 176.044L663 171.637L660.797 173.84L658.595 176.044ZM651.464 176.044L652.407 178.982L655.344 176.044L652.407 173.106L651.464 176.044ZM670.551 176.044L673.487 178.982L674.431 176.044L673.487 173.106L670.551 176.044ZM651.988 169.958C652.303 169.958 652.512 170.063 652.722 170.273L656.917 174.47L661.322 170.063L657.127 165.866C656.812 165.551 656.707 165.236 656.812 164.816C656.917 164.397 657.127 164.187 657.546 163.977L659.434 163.347L645.696 158.835L650.31 172.476L650.939 170.588C651.044 170.273 651.359 169.958 651.778 169.853C651.883 169.958 651.883 169.958 651.988 169.958ZM666.775 172.266L668.978 174.47L673.173 170.273C673.487 169.958 673.802 169.853 674.221 169.958C674.641 170.063 674.851 170.273 675.06 170.692L675.69 172.581L680.304 158.94L666.566 163.452L668.453 164.082C668.768 164.187 669.083 164.501 669.187 164.921C669.292 165.341 669.187 165.656 668.873 165.971L664.678 170.168L666.775 172.266ZM621.889 150.965L629.125 172.581L634.893 155.267L621.889 150.965ZM691.106 155.267L696.874 172.581L704.111 150.965L691.106 155.267ZM660.063 165.551L663 168.489L665.936 165.551L663 164.606L660.063 165.551ZM644.856 156.317L662.895 162.298L680.933 156.317L683.031 150.126L662.895 143.41L642.759 150.126L644.856 156.317ZM666.461 142.256L683.765 148.027L688.065 135.016L666.461 142.256ZM637.83 135.016L642.13 148.027L659.434 142.256L637.83 135.016Z" fill="white"/>
<path d="M1043.28 219.906C1043.17 219.906 1043.07 219.906 1042.96 219.801L1016.43 210.986L989.895 219.801C989.476 219.906 989.056 219.801 988.742 219.486C988.427 219.171 988.322 218.751 988.427 218.332L995.663 196.611L973.849 203.851C973.43 203.956 973.01 203.851 972.696 203.536C972.381 203.221 972.276 202.802 972.381 202.382L981.191 175.939L972.381 149.496C972.276 149.076 972.381 148.657 972.696 148.342C973.01 148.027 973.43 147.922 973.849 148.027L995.663 155.267L988.427 133.546C988.322 133.127 988.427 132.707 988.742 132.392C989.056 132.077 989.476 131.973 989.895 132.077L1016.43 140.892L1042.96 132.077C1043.38 131.973 1043.8 132.077 1044.12 132.392C1044.43 132.707 1044.54 133.127 1044.43 133.546L1037.19 155.267L1059.01 148.027C1059.43 147.922 1059.85 148.027 1060.16 148.342C1060.48 148.657 1060.58 149.076 1060.48 149.496L1051.67 175.939L1060.37 202.487C1060.48 202.907 1060.37 203.326 1060.06 203.641C1059.74 203.956 1059.32 204.061 1058.9 203.956L1037.09 196.716L1044.33 218.437C1044.43 218.856 1044.33 219.276 1044.01 219.591C1043.91 219.801 1043.59 219.906 1043.28 219.906ZM1019.89 209.832L1041.6 217.072L1037.3 204.061L1019.89 209.832ZM995.558 204.061L991.259 217.072L1012.97 209.832L995.558 204.061ZM996.293 201.962L1016.43 208.678L1036.56 201.962L1034.47 195.771L1016.43 189.79L998.39 195.771L996.293 201.962ZM982.449 179.507L975.213 201.123L988.217 196.821L982.449 179.507ZM1044.54 196.821L1057.54 201.123L1050.3 179.507L1044.54 196.821ZM983.708 176.044L990.42 196.086L996.607 193.987L1002.59 175.939L996.607 157.891L990.42 155.792L983.708 176.044ZM1036.25 194.092L1042.44 196.191L1049.15 176.149L1042.44 156.107L1036.25 158.206L1030.27 176.254L1036.25 194.092ZM1019.89 188.636L1033.63 193.148L1029.01 179.507L1028.38 181.396C1028.28 181.71 1027.96 182.025 1027.55 182.13C1027.13 182.235 1026.81 182.13 1026.5 181.815L1022.3 177.618L1020.1 179.822L1017.9 182.025L1022.09 186.222C1022.41 186.537 1022.51 186.852 1022.41 187.272C1022.3 187.691 1022.09 187.901 1021.67 188.111L1019.89 188.636ZM1003.74 179.507L999.124 193.148L1012.86 188.636L1010.98 188.006C1010.66 187.901 1010.35 187.587 1010.24 187.167C1010.14 186.747 1010.24 186.432 1010.56 186.118L1014.75 181.92L1010.35 177.513L1006.15 181.71C1005.84 182.025 1005.52 182.13 1005.1 182.025C1004.68 181.92 1004.47 181.71 1004.26 181.291L1003.74 179.507ZM1013.49 186.432L1016.43 187.377L1019.37 186.432L1016.43 183.494L1013.49 186.432ZM1012.02 176.044L1014.23 178.248L1016.43 180.451L1020.83 176.044L1016.43 171.637L1014.23 173.84L1012.02 176.044ZM1004.89 176.044L1005.84 178.982L1008.77 176.044L1005.84 173.106L1004.89 176.044ZM1023.98 176.044L1026.92 178.982L1027.86 176.044L1026.92 173.106L1023.98 176.044ZM1005.42 169.958C1005.73 169.958 1005.94 170.063 1006.15 170.273L1010.35 174.47L1014.75 170.063L1010.56 165.866C1010.24 165.551 1010.14 165.236 1010.24 164.816C1010.35 164.397 1010.56 164.187 1010.98 163.977L1012.86 163.347L999.124 158.835L1003.74 172.476L1004.37 170.588C1004.47 170.273 1004.79 169.958 1005.21 169.853C1005.31 169.958 1005.31 169.958 1005.42 169.958ZM1020.2 172.266L1022.41 174.47L1026.6 170.273C1026.92 169.958 1027.23 169.853 1027.65 169.958C1028.07 170.063 1028.28 170.273 1028.49 170.692L1029.12 172.581L1033.73 158.94L1019.99 163.452L1021.88 164.082C1022.2 164.187 1022.51 164.501 1022.62 164.921C1022.72 165.341 1022.62 165.656 1022.3 165.971L1018.11 170.168L1020.2 172.266ZM975.318 150.965L982.554 172.581L988.322 155.267L975.318 150.965ZM1044.54 155.267L1050.3 172.581L1057.54 150.965L1044.54 155.267ZM1013.49 165.551L1016.43 168.489L1019.37 165.551L1016.43 164.606L1013.49 165.551ZM998.285 156.317L1016.32 162.298L1034.36 156.317L1036.46 150.126L1016.32 143.41L996.188 150.126L998.285 156.317ZM1019.89 142.256L1037.19 148.027L1041.49 135.016L1019.89 142.256ZM991.259 135.016L995.558 148.027L1012.86 142.256L991.259 135.016Z" fill="white"/>
<rect y="220" width="1326" height="448" fill="#F7F7F7"/>
</svg>
