<svg width="1920" height="129" viewBox="0 0 1920 129" fill="none" xmlns="http://www.w3.org/2000/svg">
<path d="M101.743 101.153C101.895 102.521 102.047 103.888 102.35 105.104C104.324 113.764 111.31 123.792 124.977 124.704C124.217 111.029 114.195 103.736 105.539 101.761C104.324 101.457 102.958 101.305 101.743 101.153ZM26.4228 101.761C25.2079 101.913 24.145 102.065 22.9301 102.369C14.2744 104.192 4.25194 111.333 3.34081 124.704C16.8559 123.792 23.8412 113.764 25.8154 105.104C26.1191 104.04 26.2709 102.977 26.4228 101.761ZM29.7636 98.4185C39.6342 98.5705 48.2899 103.736 53.453 112.701L62.868 94.772C63.4754 93.7085 65.1458 93.7085 65.7532 94.772L74.8645 112.245C80.0276 103.281 88.6833 98.1147 98.5539 97.9627C99.0095 88.3906 104.021 79.8821 112.828 75.0201L94.9094 65.5999C94.4538 65.2961 93.9983 64.8402 93.9983 64.2325C93.9983 63.6247 94.302 63.1689 94.9094 62.8651L112.373 53.7488C103.565 48.7348 98.4021 40.2263 98.0983 30.6542C88.5315 30.3503 80.0276 25.1844 75.0164 16.372L65.9051 33.8449C65.2977 34.9085 63.6273 34.9085 63.0198 33.8449L53.6048 15.9162C48.5936 24.5767 40.0897 29.7426 30.5229 30.1984C30.371 40.0744 25.2079 48.7348 16.0966 53.7488L33.4081 62.5612C33.8637 62.8651 34.3192 63.3209 34.3192 63.9286C34.3192 64.5364 34.0155 64.9922 33.4081 65.2961L15.4892 74.7162C24.2968 79.8821 29.4599 88.6945 29.7636 98.4185ZM126.495 128.046C112.828 127.743 102.198 119.082 99.1613 105.864C98.8576 104.344 98.5539 102.673 98.4021 101.153C90.5056 101.305 81.8499 105.104 76.6868 115.132L76.0794 116.347C75.9275 116.803 75.3201 117.259 74.7127 117.259C74.1053 117.259 73.4978 116.955 73.346 116.347L64.2347 98.8744L54.8197 116.803C54.516 117.259 54.0604 117.715 53.453 117.715C52.8456 117.715 52.2381 117.411 52.0863 116.803L51.4789 115.588C46.3158 105.56 37.66 101.913 29.7636 101.609C29.6117 102.977 29.4599 104.344 29.1562 105.712C26.1191 118.93 15.4892 127.743 1.82226 127.895C1.3667 127.895 0.91113 127.743 0.60742 127.439C0.30371 127.135 0 126.831 0 126.375C0.30371 112.853 8.95945 102.217 22.1708 99.1782C23.5375 98.8744 25.0561 98.5705 26.4228 98.5705C26.2709 90.8216 22.4745 82.0092 12.4521 76.9953L11.2373 76.2356C10.6299 75.9317 10.3261 75.4759 10.3261 74.8682C10.3261 74.2604 10.6299 73.6527 11.2373 73.5007L29.1562 64.0806L11.6928 54.9643C11.2373 54.6604 10.7817 54.2046 10.7817 53.5968C10.7817 52.9891 11.0854 52.3813 11.6928 52.2294L12.9077 51.6216C23.082 46.6077 26.7265 37.7953 27.0302 30.0464C25.5116 29.8945 23.8412 29.7426 22.1708 29.2868C8.95945 26.0961 0.30371 15.4604 0 1.93792C0 1.48211 0.151855 1.02629 0.455565 0.722416C0.759275 0.41854 1.21484 0.266602 1.51855 0.266602C15.3374 0.266602 26.2709 8.92707 29.308 22.2976C29.6117 23.817 29.9154 25.1844 30.0673 26.7038C37.8119 26.3999 46.1639 22.6015 51.1751 12.7255L51.7826 11.51C52.0863 10.9023 52.5418 10.5984 53.1493 10.5984C53.7567 10.5984 54.2122 10.9023 54.516 11.51L63.931 29.4387L73.0423 11.9658C73.346 11.51 73.9534 11.2061 74.409 11.0542C75.0164 11.0542 75.6238 11.3581 75.7757 11.9658L76.3831 13.1813C81.3943 23.0573 89.7463 26.8558 97.4909 27.1596C97.6428 25.4883 97.7946 23.9689 98.2502 22.2976C101.895 8.92707 112.828 0.266602 126.495 0.266602C127.406 0.266602 128.014 1.02629 128.014 1.78598C128.014 15.4604 119.358 26.3999 105.995 29.5906C104.324 30.0464 102.654 30.1984 100.984 30.3503C101.287 38.0992 105.084 46.4558 114.954 51.4697L116.169 52.0775C116.777 52.3813 117.08 52.8371 117.08 53.4449C117.08 54.0527 116.777 54.6604 116.169 54.8123L98.7058 63.9286L116.928 73.5007C117.384 73.8046 117.84 74.2604 117.84 74.8682C117.84 75.4759 117.536 76.0837 116.928 76.2356L115.714 76.8434C105.843 81.8573 102.047 90.2139 101.743 97.9627C103.261 98.1147 104.628 98.2666 106.147 98.7224C119.51 101.913 128.166 112.701 128.166 126.375C128.166 126.831 128.014 127.287 127.71 127.439C127.406 127.895 126.951 128.046 126.495 128.046ZM124.977 3.4573C111.158 4.21699 103.869 14.3968 101.743 23.0573C101.439 24.4247 101.287 25.7922 101.135 27.1596C102.654 27.0077 104.021 26.8557 105.387 26.5519C114.043 24.4247 124.217 17.1317 124.977 3.4573ZM3.18896 3.4573C4.25194 16.9798 14.2744 23.9689 22.9301 25.9441C24.145 26.248 25.5116 26.3999 26.8783 26.5519C26.7265 25.3364 26.5746 24.1209 26.2709 22.9054C24.2968 14.3968 17.0078 4.21699 3.18896 3.4573Z" fill="white"/>
<path d="M613.495 101.153C613.647 102.521 613.799 103.888 614.103 105.104C616.077 113.764 623.062 123.792 636.729 124.704C635.97 111.029 625.947 103.736 617.292 101.761C616.077 101.457 614.71 101.305 613.495 101.153ZM538.175 101.761C536.96 101.913 535.897 102.065 534.683 102.369C526.027 104.192 516.004 111.333 515.093 124.704C528.608 123.792 535.594 113.764 537.568 105.104C537.872 104.04 538.023 102.977 538.175 101.761ZM541.516 98.4185C551.387 98.5705 560.042 103.736 565.205 112.701L574.62 94.772C575.228 93.7085 576.898 93.7085 577.506 94.772L586.617 112.245C591.78 103.281 600.436 98.1147 610.306 97.9627C610.762 88.3906 615.773 79.8821 624.581 75.0201L606.662 65.5999C606.206 65.2961 605.751 64.8402 605.751 64.2325C605.751 63.6247 606.054 63.1689 606.662 62.8651L624.125 53.7488C615.318 48.7348 610.154 40.2263 609.851 30.6542C600.284 30.3503 591.78 25.1844 586.769 16.372L577.658 33.8449C577.05 34.9085 575.38 34.9085 574.772 33.8449L565.357 15.9162C560.346 24.5767 551.842 29.7426 542.275 30.1984C542.123 40.0744 536.96 48.7348 527.849 53.7488L545.161 62.5612C545.616 62.8651 546.072 63.3209 546.072 63.9286C546.072 64.5364 545.768 64.9922 545.161 65.2961L527.242 74.7162C536.049 79.8821 541.212 88.6945 541.516 98.4185ZM638.248 128.046C624.581 127.743 613.951 119.082 610.914 105.864C610.61 104.344 610.306 102.673 610.155 101.153C602.258 101.305 593.602 105.104 588.439 115.132L587.832 116.347C587.68 116.803 587.073 117.259 586.465 117.259C585.858 117.259 585.25 116.955 585.098 116.347L575.987 98.8744L566.572 116.803C566.268 117.259 565.813 117.715 565.205 117.715C564.598 117.715 563.991 117.411 563.839 116.803L563.231 115.588C558.068 105.56 549.412 101.913 541.516 101.609C541.364 102.977 541.212 104.344 540.909 105.712C537.872 118.93 527.242 127.743 513.575 127.895C513.119 127.895 512.664 127.743 512.36 127.439C512.056 127.135 511.752 126.831 511.752 126.375C512.056 112.853 520.712 102.217 533.923 99.1782C535.29 98.8744 536.809 98.5705 538.175 98.5705C538.023 90.8216 534.227 82.0092 524.205 76.9953L522.99 76.2356C522.382 75.9317 522.079 75.4759 522.079 74.8682C522.079 74.2604 522.382 73.6527 522.99 73.5007L540.909 64.0806L523.445 54.9643C522.99 54.6604 522.534 54.2046 522.534 53.5968C522.534 52.9891 522.838 52.3813 523.445 52.2294L524.66 51.6216C534.834 46.6077 538.479 37.7953 538.783 30.0464C537.264 29.8945 535.594 29.7426 533.923 29.2868C520.712 26.0961 512.056 15.4604 511.752 1.93792C511.752 1.48211 511.904 1.02629 512.208 0.722416C512.512 0.41854 512.967 0.266602 513.271 0.266602C527.09 0.266602 538.023 8.92707 541.06 22.2976C541.364 23.817 541.668 25.1844 541.82 26.7038C549.564 26.3999 557.916 22.6015 562.928 12.7255L563.535 11.51C563.839 10.9023 564.294 10.5984 564.902 10.5984C565.509 10.5984 565.965 10.9023 566.268 11.51L575.683 29.4387L584.795 11.9658C585.098 11.51 585.706 11.2061 586.161 11.0542C586.769 11.0542 587.376 11.3581 587.528 11.9658L588.136 13.1813C593.147 23.0573 601.499 26.8558 609.243 27.1596C609.395 25.4883 609.547 23.9689 610.003 22.2976C613.647 8.92707 624.581 0.266602 638.248 0.266602C639.159 0.266602 639.766 1.02629 639.766 1.78598C639.766 15.4604 631.11 26.3999 617.747 29.5906C616.077 30.0464 614.406 30.1984 612.736 30.3503C613.04 38.0992 616.836 46.4558 626.707 51.4697L627.922 52.0775C628.529 52.3813 628.833 52.8371 628.833 53.4449C628.833 54.0527 628.529 54.6604 627.922 54.8123L610.458 63.9286L628.681 73.5007C629.136 73.8046 629.592 74.2604 629.592 74.8682C629.592 75.4759 629.288 76.0837 628.681 76.2356L627.466 76.8434C617.595 81.8573 613.799 90.2139 613.495 97.9627C615.014 98.1147 616.381 98.2666 617.899 98.7224C631.262 101.913 639.918 112.701 639.918 126.375C639.918 126.831 639.766 127.287 639.463 127.439C639.159 127.895 638.703 128.046 638.248 128.046ZM636.729 3.4573C622.91 4.21699 615.621 14.3968 613.495 23.0573C613.192 24.4247 613.04 25.7922 612.888 27.1596C614.406 27.0077 615.773 26.8557 617.14 26.5519C625.796 24.4247 635.97 17.1317 636.729 3.4573ZM514.941 3.4573C516.004 16.9798 526.027 23.9689 534.683 25.9441C535.897 26.248 537.264 26.3999 538.631 26.5519C538.479 25.3364 538.327 24.1209 538.023 22.9054C536.049 14.3968 528.76 4.21699 514.941 3.4573Z" fill="white"/>
<path d="M1125.25 101.153C1125.4 102.521 1125.55 103.888 1125.85 105.104C1127.83 113.764 1134.81 123.792 1148.48 124.704C1147.72 111.029 1137.7 103.736 1129.04 101.761C1127.83 101.457 1126.46 101.305 1125.25 101.153ZM1049.93 101.761C1048.71 101.913 1047.65 102.065 1046.43 102.369C1037.78 104.192 1027.75 111.333 1026.84 124.704C1040.36 123.792 1047.34 113.764 1049.32 105.104C1049.62 104.04 1049.77 102.977 1049.93 101.761ZM1053.27 98.4185C1063.14 98.5705 1071.79 103.736 1076.96 112.701L1086.37 94.772C1086.98 93.7085 1088.65 93.7085 1089.26 94.772L1098.37 112.245C1103.53 103.281 1112.19 98.1147 1122.06 97.9627C1122.51 88.3906 1127.52 79.8821 1136.33 75.0201L1118.41 65.5999C1117.96 65.2961 1117.5 64.8402 1117.5 64.2325C1117.5 63.6247 1117.8 63.1689 1118.41 62.8651L1135.88 53.7488C1127.07 48.7348 1121.9 40.2263 1121.6 30.6542C1112.03 30.3503 1103.53 25.1844 1098.52 16.372L1089.41 33.8449C1088.8 34.9085 1087.13 34.9085 1086.52 33.8449L1077.11 15.9162C1072.1 24.5767 1063.59 29.7426 1054.03 30.1984C1053.87 40.0744 1048.71 48.7348 1039.6 53.7488L1056.91 62.5612C1057.37 62.8651 1057.82 63.3209 1057.82 63.9286C1057.82 64.5364 1057.52 64.9922 1056.91 65.2961L1038.99 74.7162C1047.8 79.8821 1052.96 88.6945 1053.27 98.4185ZM1150 128.046C1136.33 127.743 1125.7 119.082 1122.66 105.864C1122.36 104.344 1122.06 102.673 1121.9 101.153C1114.01 101.305 1105.35 105.104 1100.19 115.132L1099.58 116.347C1099.43 116.803 1098.82 117.259 1098.22 117.259C1097.61 117.259 1097 116.955 1096.85 116.347L1087.74 98.8744L1078.32 116.803C1078.02 117.259 1077.56 117.715 1076.96 117.715C1076.35 117.715 1075.74 117.411 1075.59 116.803L1074.98 115.588C1069.82 105.56 1061.16 101.913 1053.27 101.609C1053.11 102.977 1052.96 104.344 1052.66 105.712C1049.62 118.93 1038.99 127.743 1025.33 127.895C1024.87 127.895 1024.41 127.743 1024.11 127.439C1023.81 127.135 1023.5 126.831 1023.5 126.375C1023.81 112.853 1032.46 102.217 1045.67 99.1782C1047.04 98.8744 1048.56 98.5705 1049.93 98.5705C1049.77 90.8216 1045.98 82.0092 1035.96 76.9953L1034.74 76.2356C1034.13 75.9317 1033.83 75.4759 1033.83 74.8682C1033.83 74.2604 1034.13 73.6527 1034.74 73.5007L1052.66 64.0806L1035.2 54.9643C1034.74 54.6604 1034.28 54.2046 1034.28 53.5968C1034.28 52.9891 1034.59 52.3813 1035.2 52.2294L1036.41 51.6216C1046.58 46.6077 1050.23 37.7953 1050.53 30.0464C1049.01 29.8945 1047.34 29.7426 1045.67 29.2868C1032.46 26.0961 1023.81 15.4604 1023.5 1.93792C1023.5 1.48211 1023.65 1.02629 1023.96 0.722416C1024.26 0.41854 1024.72 0.266602 1025.02 0.266602C1038.84 0.266602 1049.77 8.92707 1052.81 22.2976C1053.11 23.817 1053.42 25.1844 1053.57 26.7038C1061.31 26.3999 1069.67 22.6015 1074.68 12.7255L1075.29 11.51C1075.59 10.9023 1076.04 10.5984 1076.65 10.5984C1077.26 10.5984 1077.72 10.9023 1078.02 11.51L1087.43 29.4387L1096.55 11.9658C1096.85 11.51 1097.46 11.2061 1097.91 11.0542C1098.52 11.0542 1099.13 11.3581 1099.28 11.9658L1099.89 13.1813C1104.9 23.0573 1113.25 26.8558 1120.99 27.1596C1121.15 25.4883 1121.3 23.9689 1121.75 22.2976C1125.4 8.92707 1136.33 0.266602 1150 0.266602C1150.91 0.266602 1151.52 1.02629 1151.52 1.78598C1151.52 15.4604 1142.86 26.3999 1129.5 29.5906C1127.83 30.0464 1126.16 30.1984 1124.49 30.3503C1124.79 38.0992 1128.59 46.4558 1138.46 51.4697L1139.67 52.0775C1140.28 52.3813 1140.58 52.8371 1140.58 53.4449C1140.58 54.0527 1140.28 54.6604 1139.67 54.8123L1122.21 63.9286L1140.43 73.5007C1140.89 73.8046 1141.34 74.2604 1141.34 74.8682C1141.34 75.4759 1141.04 76.0837 1140.43 76.2356L1139.22 76.8434C1129.35 81.8573 1125.55 90.2139 1125.25 97.9627C1126.76 98.1147 1128.13 98.2666 1129.65 98.7224C1143.01 101.913 1151.67 112.701 1151.67 126.375C1151.67 126.831 1151.52 127.287 1151.21 127.439C1150.91 127.895 1150.45 128.046 1150 128.046ZM1148.48 3.4573C1134.66 4.21699 1127.37 14.3968 1125.25 23.0573C1124.94 24.4247 1124.79 25.7922 1124.64 27.1596C1126.16 27.0077 1127.52 26.8557 1128.89 26.5519C1137.55 24.4247 1147.72 17.1317 1148.48 3.4573ZM1026.69 3.4573C1027.75 16.9798 1037.78 23.9689 1046.43 25.9441C1047.65 26.248 1049.01 26.3999 1050.38 26.5519C1050.23 25.3364 1050.08 24.1209 1049.77 22.9054C1047.8 14.3968 1040.51 4.21699 1026.69 3.4573Z" fill="white"/>
<path d="M1637.33 101.153C1637.48 102.521 1637.63 103.888 1637.94 105.104C1639.91 113.764 1646.9 123.792 1660.56 124.704C1659.81 111.029 1649.78 103.736 1641.13 101.761C1639.91 101.457 1638.55 101.305 1637.33 101.153ZM1562.01 101.761C1560.8 101.913 1559.73 102.065 1558.52 102.369C1549.86 104.192 1539.84 111.333 1538.93 124.704C1552.44 123.792 1559.43 113.764 1561.4 105.104C1561.71 104.04 1561.86 102.977 1562.01 101.761ZM1565.35 98.4185C1575.22 98.5705 1583.88 103.736 1589.04 112.701L1598.46 94.772C1599.06 93.7085 1600.73 93.7085 1601.34 94.772L1610.45 112.245C1615.62 103.281 1624.27 98.1147 1634.14 97.9627C1634.6 88.3906 1639.61 79.8821 1648.42 75.0201L1630.5 65.5999C1630.04 65.2961 1629.59 64.8402 1629.59 64.2325C1629.59 63.6247 1629.89 63.1689 1630.5 62.8651L1647.96 53.7488C1639.15 48.7348 1633.99 40.2263 1633.69 30.6542C1624.12 30.3503 1615.62 25.1844 1610.6 16.372L1601.49 33.8449C1600.89 34.9085 1599.22 34.9085 1598.61 33.8449L1589.19 15.9162C1584.18 24.5767 1575.68 29.7426 1566.11 30.1984C1565.96 40.0744 1560.8 48.7348 1551.68 53.7488L1569 62.5612C1569.45 62.8651 1569.91 63.3209 1569.91 63.9286C1569.91 64.5364 1569.6 64.9922 1569 65.2961L1551.08 74.7162C1559.88 79.8821 1565.05 88.6945 1565.35 98.4185ZM1662.08 128.046C1648.42 127.743 1637.79 119.082 1634.75 105.864C1634.45 104.344 1634.14 102.673 1633.99 101.153C1626.09 101.305 1617.44 105.104 1612.27 115.132L1611.67 116.347C1611.52 116.803 1610.91 117.259 1610.3 117.259C1609.69 117.259 1609.09 116.955 1608.93 116.347L1599.82 98.8744L1590.41 116.803C1590.1 117.259 1589.65 117.715 1589.04 117.715C1588.43 117.715 1587.83 117.411 1587.67 116.803L1587.07 115.588C1581.9 105.56 1573.25 101.913 1565.35 101.609C1565.2 102.977 1565.05 104.344 1564.74 105.712C1561.71 118.93 1551.08 127.743 1537.41 127.895C1536.95 127.895 1536.5 127.743 1536.2 127.439C1535.89 127.135 1535.59 126.831 1535.59 126.375C1535.89 112.853 1544.55 102.217 1557.76 99.1782C1559.13 98.8744 1560.64 98.5705 1562.01 98.5705C1561.86 90.8216 1558.06 82.0092 1548.04 76.9953L1546.83 76.2356C1546.22 75.9317 1545.91 75.4759 1545.91 74.8682C1545.91 74.2604 1546.22 73.6527 1546.83 73.5007L1564.74 64.0806L1547.28 54.9643C1546.83 54.6604 1546.37 54.2046 1546.37 53.5968C1546.37 52.9891 1546.67 52.3813 1547.28 52.2294L1548.5 51.6216C1558.67 46.6077 1562.31 37.7953 1562.62 30.0464C1561.1 29.8945 1559.43 29.7426 1557.76 29.2868C1544.55 26.0961 1535.89 15.4604 1535.59 1.93792C1535.59 1.48211 1535.74 1.02629 1536.04 0.722416C1536.35 0.41854 1536.8 0.266602 1537.11 0.266602C1550.93 0.266602 1561.86 8.92707 1564.9 22.2976C1565.2 23.817 1565.5 25.1844 1565.66 26.7038C1573.4 26.3999 1581.75 22.6015 1586.76 12.7255L1587.37 11.51C1587.67 10.9023 1588.13 10.5984 1588.74 10.5984C1589.34 10.5984 1589.8 10.9023 1590.1 11.51L1599.52 29.4387L1608.63 11.9658C1608.93 11.51 1609.54 11.2061 1610 11.0542C1610.6 11.0542 1611.21 11.3581 1611.36 11.9658L1611.97 13.1813C1616.98 23.0573 1625.33 26.8558 1633.08 27.1596C1633.23 25.4883 1633.38 23.9689 1633.84 22.2976C1637.48 8.92707 1648.42 0.266602 1662.08 0.266602C1662.99 0.266602 1663.6 1.02629 1663.6 1.78598C1663.6 15.4604 1654.95 26.3999 1641.58 29.5906C1639.91 30.0464 1638.24 30.1984 1636.57 30.3503C1636.88 38.0992 1640.67 46.4558 1650.54 51.4697L1651.76 52.0775C1652.36 52.3813 1652.67 52.8371 1652.67 53.4449C1652.67 54.0527 1652.36 54.6604 1651.76 54.8123L1634.29 63.9286L1652.52 73.5007C1652.97 73.8046 1653.43 74.2604 1653.43 74.8682C1653.43 75.4759 1653.12 76.0837 1652.52 76.2356L1651.3 76.8434C1641.43 81.8573 1637.63 90.2139 1637.33 97.9627C1638.85 98.1147 1640.22 98.2666 1641.73 98.7224C1655.1 101.913 1663.75 112.701 1663.75 126.375C1663.75 126.831 1663.6 127.287 1663.3 127.439C1662.99 127.895 1662.54 128.046 1662.08 128.046ZM1660.56 3.4573C1646.75 4.21699 1639.46 14.3968 1637.33 23.0573C1637.03 24.4247 1636.88 25.7922 1636.72 27.1596C1638.24 27.0077 1639.61 26.8557 1640.98 26.5519C1649.63 24.4247 1659.81 17.1317 1660.56 3.4573ZM1538.78 3.4573C1539.84 16.9798 1549.86 23.9689 1558.52 25.9441C1559.73 26.248 1561.1 26.3999 1562.47 26.5519C1562.31 25.3364 1562.16 24.1209 1561.86 22.9054C1559.88 14.3968 1552.6 4.21699 1538.78 3.4573Z" fill="white"/>
<path d="M207.739 128.046C206.827 128.046 206.22 127.287 206.22 126.527C206.22 125.767 206.979 125.008 207.739 125.008C221.102 125.008 228.846 116.499 231.732 108.143C219.735 109.966 208.498 104.648 202.575 93.8604L193.616 111.789C193.009 112.853 191.338 112.853 190.731 111.789L181.771 93.8604C175.849 104.648 164.612 109.966 152.615 108.143C155.5 116.499 163.245 125.008 176.608 125.008C177.519 125.008 178.127 125.767 178.127 126.527C178.127 127.287 177.368 128.046 176.608 128.046C163.245 128.046 152.615 119.994 148.971 107.231C136.215 103.736 128.167 93.1007 128.167 79.7302C128.167 78.8185 128.926 78.2108 129.685 78.2108C130.444 78.2108 131.204 78.9705 131.204 79.7302C131.204 93.1007 139.859 100.698 148.06 103.584C146.237 91.5813 151.552 80.4899 162.334 74.5643L144.567 65.5999C143.959 65.2961 143.656 64.8402 143.656 64.2325C143.656 63.6247 143.959 63.017 144.567 62.8651L162.486 53.9007C151.704 47.9751 146.237 36.8837 148.211 24.8806C139.859 27.7674 131.355 35.3643 131.355 48.7348C131.355 49.6465 130.596 50.2542 129.837 50.2542C129.078 50.2542 128.318 49.4945 128.318 48.7348C128.318 35.3643 136.519 24.7286 149.123 21.234C152.463 8.31932 163.245 0.266602 176.608 0.266602C177.519 0.266602 178.127 1.02629 178.127 1.78598C178.127 2.54567 177.368 3.30536 176.608 3.30536C163.245 3.30536 155.5 11.8139 152.615 20.1705C164.612 18.3472 175.849 23.6651 181.771 34.4527L190.731 16.524C191.338 15.4604 193.009 15.4604 193.616 16.524L202.575 34.4527C208.498 23.6651 219.735 18.3472 231.732 20.1705C228.846 11.8139 221.102 3.30536 207.739 3.30536C206.827 3.30536 206.22 2.54567 206.22 1.78598C206.22 1.02629 206.979 0.266602 207.739 0.266602C221.102 0.266602 231.732 8.31932 235.376 21.0821C248.132 24.5767 256.18 35.2123 256.18 48.5829C256.18 49.4945 255.421 50.1023 254.662 50.1023C253.902 50.1023 253.143 49.3426 253.143 48.5829C253.143 35.2123 244.487 27.6154 236.287 24.7286C238.11 36.7317 232.795 47.8232 222.013 53.7488L239.932 62.7131C240.539 63.017 240.843 63.4728 240.843 64.0806C240.843 64.6883 240.539 65.2961 239.932 65.448L222.013 74.4123C232.795 80.3379 238.261 91.4294 236.287 103.433C244.639 100.546 253.143 92.9488 253.143 79.5782C253.143 78.6666 253.902 78.0589 254.662 78.0589C255.421 78.0589 256.18 78.8186 256.18 79.5782C256.18 92.9488 247.98 103.584 235.376 107.079C231.883 119.842 221.102 128.046 207.739 128.046ZM181.771 88.5426C182.379 88.5426 182.986 88.8465 183.138 89.4542L192.097 107.383L201.057 89.4542C201.361 88.8465 201.816 88.5426 202.424 88.5426C203.031 88.5426 203.638 88.8465 203.79 89.4542L204.55 91.1255C211.079 104.04 223.38 106.471 232.491 104.648C234.313 95.6837 231.883 83.2247 218.976 76.8434L217.305 76.0837C216.698 75.7798 216.394 75.324 216.394 74.7162C216.394 74.1085 216.698 73.5007 217.305 73.3488L235.224 64.3844L217.609 55.2682C217.002 54.9643 216.698 54.5085 216.698 53.9007C216.698 53.293 217.002 52.6852 217.609 52.5333L219.28 51.7736C232.187 45.2402 234.617 32.9333 232.795 23.9689C223.835 22.1457 211.383 24.5767 204.853 37.4914L204.094 39.1627C203.487 40.2263 201.816 40.2263 201.209 39.1627L192.249 21.234L183.29 39.1627C182.986 39.7705 182.531 40.0744 181.923 40.0744C181.316 40.0744 180.708 39.7705 180.557 39.1627L179.797 37.4914C173.267 24.5767 160.967 22.1457 151.856 23.9689C150.034 32.9333 152.463 45.3922 165.371 51.7736L167.041 52.5333C167.649 52.8372 167.953 53.293 167.953 53.9007C167.953 54.5085 167.649 55.1162 167.041 55.2682L148.819 64.0806L166.738 73.0449C167.345 73.3488 167.649 73.8046 167.649 74.4123C167.649 75.0201 167.345 75.6278 166.738 75.7798L165.067 76.5395C152.16 83.0728 149.73 95.3798 151.552 104.344C160.512 106.167 172.964 103.736 179.493 90.8216L180.253 89.1503C180.556 88.8465 181.164 88.5426 181.771 88.5426Z" fill="white"/>
<path d="M719.49 128.046C718.579 128.046 717.971 127.287 717.971 126.527C717.971 125.767 718.731 125.008 719.49 125.008C732.853 125.008 740.598 116.499 743.483 108.143C731.487 109.966 720.249 104.648 714.327 93.8604L705.367 111.789C704.76 112.853 703.09 112.853 702.482 111.789L693.523 93.8604C687.6 104.648 676.363 109.966 664.367 108.143C667.252 116.499 674.996 125.008 688.36 125.008C689.271 125.008 689.878 125.767 689.878 126.527C689.878 127.287 689.119 128.046 688.36 128.046C674.996 128.046 664.367 119.994 660.722 107.231C647.966 103.736 639.918 93.1007 639.918 79.7302C639.918 78.8185 640.677 78.2108 641.437 78.2108C642.196 78.2108 642.955 78.9705 642.955 79.7302C642.955 93.1007 651.611 100.698 659.811 103.584C657.989 91.5813 663.304 80.4899 674.085 74.5643L656.318 65.5999C655.711 65.2961 655.407 64.8402 655.407 64.2325C655.407 63.6247 655.711 63.017 656.318 62.8651L674.237 53.9007C663.455 47.9751 657.989 36.8837 659.963 24.8806C651.611 27.7674 643.107 35.3643 643.107 48.7348C643.107 49.6465 642.348 50.2542 641.588 50.2542C640.829 50.2542 640.07 49.4945 640.07 48.7348C640.07 35.3643 648.27 24.7286 660.874 21.234C664.215 8.31932 674.996 0.266602 688.36 0.266602C689.271 0.266602 689.878 1.02629 689.878 1.78598C689.878 2.54567 689.119 3.30536 688.36 3.30536C674.996 3.30536 667.252 11.8139 664.367 20.1705C676.363 18.3472 687.6 23.6651 693.523 34.4527L702.482 16.524C703.09 15.4604 704.76 15.4604 705.367 16.524L714.327 34.4527C720.249 23.6651 731.487 18.3472 743.483 20.1705C740.598 11.8139 732.853 3.30536 719.49 3.30536C718.579 3.30536 717.971 2.54567 717.971 1.78598C717.971 1.02629 718.731 0.266602 719.49 0.266602C732.853 0.266602 743.483 8.31932 747.128 21.0821C759.883 24.5767 767.932 35.2123 767.932 48.5829C767.932 49.4945 767.172 50.1023 766.413 50.1023C765.654 50.1023 764.895 49.3426 764.895 48.5829C764.895 35.2123 756.239 27.6154 748.039 24.7286C749.861 36.7317 744.546 47.8232 733.764 53.7488L751.683 62.7131C752.291 63.017 752.594 63.4728 752.594 64.0806C752.594 64.6883 752.291 65.2961 751.683 65.448L733.764 74.4123C744.546 80.3379 750.013 91.4294 748.039 103.433C756.391 100.546 764.895 92.9488 764.895 79.5782C764.895 78.6666 765.654 78.0589 766.413 78.0589C767.172 78.0589 767.932 78.8186 767.932 79.5782C767.932 92.9488 759.732 103.584 747.128 107.079C743.635 119.842 732.853 128.046 719.49 128.046ZM693.523 88.5426C694.13 88.5426 694.738 88.8465 694.889 89.4542L703.849 107.383L712.808 89.4542C713.112 88.8465 713.568 88.5426 714.175 88.5426C714.783 88.5426 715.39 88.8465 715.542 89.4542L716.301 91.1255C722.831 104.04 735.131 106.471 744.242 104.648C746.065 95.6837 743.635 83.2247 730.727 76.8434L729.057 76.0837C728.449 75.7798 728.146 75.324 728.146 74.7162C728.146 74.1085 728.449 73.5007 729.057 73.3488L746.976 64.3844L729.361 55.2682C728.753 54.9643 728.449 54.5085 728.449 53.9007C728.449 53.293 728.753 52.6852 729.361 52.5333L731.031 51.7736C743.939 45.2402 746.368 32.9333 744.546 23.9689C735.587 22.1457 723.135 24.5767 716.605 37.4914L715.845 39.1627C715.238 40.2263 713.568 40.2263 712.96 39.1627L704.001 21.234L695.041 39.1627C694.738 39.7705 694.282 40.0744 693.675 40.0744C693.067 40.0744 692.46 39.7705 692.308 39.1627L691.549 37.4914C685.019 24.5767 672.719 22.1457 663.607 23.9689C661.785 32.9333 664.215 45.3922 677.122 51.7736L678.793 52.5333C679.4 52.8372 679.704 53.293 679.704 53.9007C679.704 54.5085 679.4 55.1162 678.793 55.2682L660.57 64.0806L678.489 73.0449C679.097 73.3488 679.4 73.8046 679.4 74.4123C679.4 75.0201 679.097 75.6278 678.489 75.7798L676.819 76.5395C663.911 83.0728 661.481 95.3798 663.304 104.344C672.263 106.167 684.715 103.736 691.245 90.8216L692.004 89.1503C692.308 88.8465 692.915 88.5426 693.523 88.5426Z" fill="white"/>
<path d="M1231.24 128.046C1230.33 128.046 1229.72 127.287 1229.72 126.527C1229.72 125.767 1230.48 125.008 1231.24 125.008C1244.61 125.008 1252.35 116.499 1255.24 108.143C1243.24 109.966 1232 104.648 1226.08 93.8604L1217.12 111.789C1216.51 112.853 1214.84 112.853 1214.23 111.789L1205.27 93.8604C1199.35 104.648 1188.12 109.966 1176.12 108.143C1179 116.499 1186.75 125.008 1200.11 125.008C1201.02 125.008 1201.63 125.767 1201.63 126.527C1201.63 127.287 1200.87 128.046 1200.11 128.046C1186.75 128.046 1176.12 119.994 1172.47 107.231C1159.72 103.736 1151.67 93.1007 1151.67 79.7302C1151.67 78.8185 1152.43 78.2108 1153.19 78.2108C1153.95 78.2108 1154.71 78.9705 1154.71 79.7302C1154.71 93.1007 1163.36 100.698 1171.56 103.584C1169.74 91.5813 1175.06 80.4899 1185.84 74.5643L1168.07 65.5999C1167.46 65.2961 1167.16 64.8402 1167.16 64.2325C1167.16 63.6247 1167.46 63.017 1168.07 62.8651L1185.99 53.9007C1175.21 47.9751 1169.74 36.8837 1171.71 24.8806C1163.36 27.7674 1154.86 35.3643 1154.86 48.7348C1154.86 49.6465 1154.1 50.2542 1153.34 50.2542C1152.58 50.2542 1151.82 49.4945 1151.82 48.7348C1151.82 35.3643 1160.02 24.7286 1172.63 21.234C1175.97 8.31932 1186.75 0.266602 1200.11 0.266602C1201.02 0.266602 1201.63 1.02629 1201.63 1.78598C1201.63 2.54567 1200.87 3.30536 1200.11 3.30536C1186.75 3.30536 1179 11.8139 1176.12 20.1705C1188.12 18.3472 1199.35 23.6651 1205.27 34.4527L1214.23 16.524C1214.84 15.4604 1216.51 15.4604 1217.12 16.524L1226.08 34.4527C1232 23.6651 1243.24 18.3472 1255.24 20.1705C1252.35 11.8139 1244.61 3.30536 1231.24 3.30536C1230.33 3.30536 1229.72 2.54567 1229.72 1.78598C1229.72 1.02629 1230.48 0.266602 1231.24 0.266602C1244.61 0.266602 1255.24 8.31932 1258.88 21.0821C1271.64 24.5767 1279.68 35.2123 1279.68 48.5829C1279.68 49.4945 1278.92 50.1023 1278.17 50.1023C1277.41 50.1023 1276.65 49.3426 1276.65 48.5829C1276.65 35.2123 1267.99 27.6154 1259.79 24.7286C1261.61 36.7317 1256.3 47.8232 1245.52 53.7488L1263.44 62.7131C1264.04 63.017 1264.35 63.4728 1264.35 64.0806C1264.35 64.6883 1264.04 65.2961 1263.44 65.448L1245.52 74.4123C1256.3 80.3379 1261.76 91.4294 1259.79 103.433C1268.14 100.546 1276.65 92.9488 1276.65 79.5782C1276.65 78.6666 1277.41 78.0589 1278.17 78.0589C1278.92 78.0589 1279.68 78.8186 1279.68 79.5782C1279.68 92.9488 1271.48 103.584 1258.88 107.079C1255.39 119.842 1244.61 128.046 1231.24 128.046ZM1205.27 88.5426C1205.88 88.5426 1206.49 88.8465 1206.64 89.4542L1215.6 107.383L1224.56 89.4542C1224.86 88.8465 1225.32 88.5426 1225.93 88.5426C1226.53 88.5426 1227.14 88.8465 1227.29 89.4542L1228.05 91.1255C1234.58 104.04 1246.88 106.471 1255.99 104.648C1257.82 95.6837 1255.39 83.2247 1242.48 76.8434L1240.81 76.0837C1240.2 75.7798 1239.9 75.324 1239.9 74.7162C1239.9 74.1085 1240.2 73.5007 1240.81 73.3488L1258.73 64.3844L1241.11 55.2682C1240.51 54.9643 1240.2 54.5085 1240.2 53.9007C1240.2 53.293 1240.51 52.6852 1241.11 52.5333L1242.78 51.7736C1255.69 45.2402 1258.12 32.9333 1256.3 23.9689C1247.34 22.1457 1234.89 24.5767 1228.36 37.4914L1227.6 39.1627C1226.99 40.2263 1225.32 40.2263 1224.71 39.1627L1215.75 21.234L1206.79 39.1627C1206.49 39.7705 1206.03 40.0744 1205.43 40.0744C1204.82 40.0744 1204.21 39.7705 1204.06 39.1627L1203.3 37.4914C1196.77 24.5767 1184.47 22.1457 1175.36 23.9689C1173.54 32.9333 1175.97 45.3922 1188.87 51.7736L1190.54 52.5333C1191.15 52.8372 1191.46 53.293 1191.46 53.9007C1191.46 54.5085 1191.15 55.1162 1190.54 55.2682L1172.32 64.0806L1190.24 73.0449C1190.85 73.3488 1191.15 73.8046 1191.15 74.4123C1191.15 75.0201 1190.85 75.6278 1190.24 75.7798L1188.57 76.5395C1175.66 83.0728 1173.23 95.3798 1175.06 104.344C1184.02 106.167 1196.47 103.736 1203 90.8216L1203.76 89.1503C1204.06 88.8465 1204.67 88.5426 1205.27 88.5426Z" fill="white"/>
<path d="M1743.33 128.046C1742.41 128.046 1741.81 127.287 1741.81 126.527C1741.81 125.767 1742.57 125.008 1743.33 125.008C1756.69 125.008 1764.43 116.499 1767.32 108.143C1755.32 109.966 1744.09 104.648 1738.16 93.8604L1729.2 111.789C1728.6 112.853 1726.93 112.853 1726.32 111.789L1717.36 93.8604C1711.44 104.648 1700.2 109.966 1688.2 108.143C1691.09 116.499 1698.83 125.008 1712.2 125.008C1713.11 125.008 1713.71 125.767 1713.71 126.527C1713.71 127.287 1712.95 128.046 1712.2 128.046C1698.83 128.046 1688.2 119.994 1684.56 107.231C1671.8 103.736 1663.75 93.1007 1663.75 79.7302C1663.75 78.8185 1664.51 78.2108 1665.27 78.2108C1666.03 78.2108 1666.79 78.9705 1666.79 79.7302C1666.79 93.1007 1675.45 100.698 1683.65 103.584C1681.82 91.5813 1687.14 80.4899 1697.92 74.5643L1680.15 65.5999C1679.55 65.2961 1679.24 64.8402 1679.24 64.2325C1679.24 63.6247 1679.55 63.017 1680.15 62.8651L1698.07 53.9007C1687.29 47.9751 1681.82 36.8837 1683.8 24.8806C1675.45 27.7674 1666.94 35.3643 1666.94 48.7348C1666.94 49.6465 1666.18 50.2542 1665.42 50.2542C1664.67 50.2542 1663.91 49.4945 1663.91 48.7348C1663.91 35.3643 1672.11 24.7286 1684.71 21.234C1688.05 8.31932 1698.83 0.266602 1712.2 0.266602C1713.11 0.266602 1713.71 1.02629 1713.71 1.78598C1713.71 2.54567 1712.95 3.30536 1712.2 3.30536C1698.83 3.30536 1691.09 11.8139 1688.2 20.1705C1700.2 18.3472 1711.44 23.6651 1717.36 34.4527L1726.32 16.524C1726.93 15.4604 1728.6 15.4604 1729.2 16.524L1738.16 34.4527C1744.09 23.6651 1755.32 18.3472 1767.32 20.1705C1764.43 11.8139 1756.69 3.30536 1743.33 3.30536C1742.41 3.30536 1741.81 2.54567 1741.81 1.78598C1741.81 1.02629 1742.57 0.266602 1743.33 0.266602C1756.69 0.266602 1767.32 8.31932 1770.96 21.0821C1783.72 24.5767 1791.77 35.2123 1791.77 48.5829C1791.77 49.4945 1791.01 50.1023 1790.25 50.1023C1789.49 50.1023 1788.73 49.3426 1788.73 48.5829C1788.73 35.2123 1780.07 27.6154 1771.87 24.7286C1773.7 36.7317 1768.38 47.8232 1757.6 53.7488L1775.52 62.7131C1776.13 63.017 1776.43 63.4728 1776.43 64.0806C1776.43 64.6883 1776.13 65.2961 1775.52 65.448L1757.6 74.4123C1768.38 80.3379 1773.85 91.4294 1771.87 103.433C1780.23 100.546 1788.73 92.9488 1788.73 79.5782C1788.73 78.6666 1789.49 78.0589 1790.25 78.0589C1791.01 78.0589 1791.77 78.8186 1791.77 79.5782C1791.77 92.9488 1783.57 103.584 1770.96 107.079C1767.47 119.842 1756.69 128.046 1743.33 128.046ZM1717.36 88.5426C1717.97 88.5426 1718.57 88.8465 1718.73 89.4542L1727.68 107.383L1736.64 89.4542C1736.95 88.8465 1737.4 88.5426 1738.01 88.5426C1738.62 88.5426 1739.23 88.8465 1739.38 89.4542L1740.14 91.1255C1746.67 104.04 1758.97 106.471 1768.08 104.648C1769.9 95.6837 1767.47 83.2247 1754.56 76.8434L1752.89 76.0837C1752.29 75.7798 1751.98 75.324 1751.98 74.7162C1751.98 74.1085 1752.29 73.5007 1752.89 73.3488L1770.81 64.3844L1753.2 55.2682C1752.59 54.9643 1752.29 54.5085 1752.29 53.9007C1752.29 53.293 1752.59 52.6852 1753.2 52.5333L1754.87 51.7736C1767.77 45.2402 1770.2 32.9333 1768.38 23.9689C1759.42 22.1457 1746.97 24.5767 1740.44 37.4914L1739.68 39.1627C1739.07 40.2263 1737.4 40.2263 1736.8 39.1627L1727.84 21.234L1718.88 39.1627C1718.57 39.7705 1718.12 40.0744 1717.51 40.0744C1716.9 40.0744 1716.3 39.7705 1716.14 39.1627L1715.38 37.4914C1708.85 24.5767 1696.55 22.1457 1687.44 23.9689C1685.62 32.9333 1688.05 45.3922 1700.96 51.7736L1702.63 52.5333C1703.24 52.8372 1703.54 53.293 1703.54 53.9007C1703.54 54.5085 1703.24 55.1162 1702.63 55.2682L1684.41 64.0806L1702.33 73.0449C1702.93 73.3488 1703.24 73.8046 1703.24 74.4123C1703.24 75.0201 1702.93 75.6278 1702.33 75.7798L1700.65 76.5395C1687.75 83.0728 1685.32 95.3798 1687.14 104.344C1696.1 106.167 1708.55 103.736 1715.08 90.8216L1715.84 89.1503C1716.14 88.8465 1716.75 88.5426 1717.36 88.5426Z" fill="white"/>
<path d="M283.088 128.084C282.937 128.084 282.785 128.084 282.785 128.084C282.025 127.932 281.57 127.325 281.57 126.565V125.501C281.57 124.742 282.025 124.134 282.633 123.982L304.804 79.7682L259.703 102.407C258.943 102.863 258.032 102.407 257.577 101.647C257.121 100.888 257.425 99.9759 258.336 99.5201L304.348 76.2736L282.785 65.9418L258.64 77.9449C258.184 78.2488 257.577 78.0968 257.121 77.9449C256.666 77.641 256.362 77.1852 256.362 76.5775V51.8116C256.362 51.2038 256.666 50.748 257.121 50.4441C257.577 50.1402 258.184 50.1402 258.64 50.4441L282.785 62.4472L304.5 51.9635L257.121 28.4131C256.514 28.1092 256.058 27.3495 256.21 26.5899C256.362 25.8302 256.969 25.3744 257.729 25.3744H258.792C259.551 25.3744 260.158 25.8302 260.31 26.4379L305.107 48.7728L282.937 4.40691C282.329 4.25497 281.874 3.64722 281.874 2.88753V1.82397C281.874 1.06428 282.329 0.456524 283.088 0.304586C283.848 0.152648 284.607 0.456524 284.911 1.21621L308.6 48.4689L319.078 26.7418L307.082 2.73559C306.778 2.27978 306.93 1.67203 307.082 1.21621C307.233 0.7604 307.841 0.456524 308.448 0.456524H333.352C333.96 0.456524 334.415 0.7604 334.719 1.21621C335.023 1.67203 335.023 2.27978 334.719 2.73559L322.723 26.7418L333.049 48.317L356.283 2.27978C356.738 1.52009 357.649 1.21621 358.409 1.52009C359.168 1.9759 359.472 2.88753 359.168 3.64722L336.238 48.9247L380.276 27.0457C380.428 26.4379 381.035 25.9821 381.794 25.9821H382.857C383.616 25.9821 384.224 26.4379 384.376 27.1976C384.528 27.9573 384.224 28.717 383.465 29.0209L336.086 52.5713L357.801 63.055L381.946 51.0519C382.402 50.748 383.009 50.8999 383.465 51.0519C383.92 51.3558 384.224 51.8116 384.224 52.4193V77.1852C384.224 77.793 383.92 78.2488 383.465 78.5527C383.009 78.8565 382.402 78.8565 381.946 78.5527L357.801 66.5495L336.238 76.8813L382.402 100.128C383.161 100.584 383.465 101.495 383.161 102.255C382.705 103.015 381.794 103.319 381.035 103.015L335.934 80.3759L358.712 124.894C359.168 125.653 358.864 126.565 357.953 127.021C357.194 127.477 356.283 127.173 355.827 126.261L332.593 80.224L322.267 101.799L334.264 125.805C334.567 126.261 334.415 126.869 334.264 127.325C333.96 127.781 333.504 128.084 332.897 128.084H307.993C307.385 128.084 306.93 127.781 306.626 127.325C306.322 126.869 306.322 126.261 306.626 125.805L318.623 101.799L308.145 80.072L284.455 127.325C284.151 127.781 283.696 128.084 283.088 128.084ZM310.574 124.894H330.315L320.445 105.142L310.574 124.894ZM308.752 74.9061C309.056 75.0581 309.359 75.362 309.663 75.6658L320.445 98.1527L331.075 75.9697C331.378 75.362 331.834 75.0581 332.441 75.0581C332.593 75.0581 332.593 75.0581 332.745 75.0581L354.308 64.7263L331.834 53.9387C331.226 53.6348 330.923 53.179 330.923 52.5713C330.923 52.2674 330.923 52.1154 331.075 51.8116L320.748 30.3883L309.967 52.8751C309.663 53.4829 309.208 53.7868 308.6 53.7868C308.6 53.7868 308.6 53.7868 308.448 53.7868L286.277 64.4224L308.752 74.9061ZM361.597 64.7263L381.339 74.6023V54.8503L361.597 64.7263ZM259.551 54.3945V73.9945L279.292 64.1185L259.551 54.3945ZM311.03 3.49528L320.9 23.0953L330.771 3.49528H311.03Z" fill="white"/>
<path d="M794.839 128.084C794.688 128.084 794.536 128.084 794.536 128.084C793.776 127.932 793.321 127.325 793.321 126.565V125.501C793.321 124.742 793.776 124.134 794.384 123.982L816.555 79.7682L771.454 102.407C770.694 102.863 769.783 102.407 769.328 101.647C768.872 100.888 769.176 99.9759 770.087 99.5201L816.099 76.2736L794.536 65.9418L770.391 77.9449C769.935 78.2488 769.328 78.0968 768.872 77.9449C768.417 77.641 768.113 77.1852 768.113 76.5775V51.8116C768.113 51.2038 768.417 50.748 768.872 50.4441C769.328 50.1402 769.935 50.1402 770.391 50.4441L794.536 62.4472L816.251 51.9635L768.872 28.4131C768.265 28.1092 767.809 27.3495 767.961 26.5899C768.113 25.8302 768.72 25.3744 769.48 25.3744H770.543C771.302 25.3744 771.909 25.8302 772.061 26.4379L816.858 48.7728L794.688 4.40691C794.08 4.25497 793.625 3.64722 793.625 2.88753V1.82397C793.625 1.06428 794.08 0.456524 794.839 0.304586C795.599 0.152648 796.358 0.456524 796.662 1.21621L820.351 48.4689L830.829 26.7418L818.833 2.73559C818.529 2.27978 818.681 1.67203 818.833 1.21621C818.984 0.7604 819.592 0.456524 820.199 0.456524H845.103C845.711 0.456524 846.166 0.7604 846.47 1.21621C846.774 1.67203 846.774 2.27978 846.47 2.73559L834.474 26.7418L844.8 48.317L868.034 2.27978C868.489 1.52009 869.4 1.21621 870.16 1.52009C870.919 1.9759 871.223 2.88753 870.919 3.64722L847.989 48.9247L892.027 27.0457C892.178 26.4379 892.786 25.9821 893.545 25.9821H894.608C895.367 25.9821 895.975 26.4379 896.127 27.1976C896.279 27.9573 895.975 28.717 895.216 29.0209L847.837 52.5713L869.552 63.055L893.697 51.0519C894.153 50.748 894.76 50.8999 895.216 51.0519C895.671 51.3558 895.975 51.8116 895.975 52.4193V77.1852C895.975 77.793 895.671 78.2488 895.216 78.5527C894.76 78.8565 894.153 78.8565 893.697 78.5527L869.552 66.5495L847.989 76.8813L894.153 100.128C894.912 100.584 895.216 101.495 894.912 102.255C894.456 103.015 893.545 103.319 892.786 103.015L847.685 80.3759L870.463 124.894C870.919 125.653 870.615 126.565 869.704 127.021C868.945 127.477 868.034 127.173 867.578 126.261L844.344 80.224L834.018 101.799L846.015 125.805C846.318 126.261 846.166 126.869 846.015 127.325C845.711 127.781 845.255 128.084 844.648 128.084H819.744C819.136 128.084 818.681 127.781 818.377 127.325C818.073 126.869 818.073 126.261 818.377 125.805L830.374 101.799L819.896 80.072L796.206 127.325C795.902 127.781 795.447 128.084 794.839 128.084ZM822.325 124.894H842.066L832.196 105.142L822.325 124.894ZM820.503 74.9061C820.807 75.0581 821.11 75.362 821.414 75.6658L832.196 98.1527L842.826 75.9697C843.129 75.362 843.585 75.0581 844.192 75.0581C844.344 75.0581 844.344 75.0581 844.496 75.0581L866.059 64.7263L843.585 53.9387C842.977 53.6348 842.674 53.179 842.674 52.5713C842.674 52.2674 842.674 52.1154 842.826 51.8116L832.499 30.3883L821.718 52.8751C821.414 53.4829 820.958 53.7868 820.351 53.7868C820.351 53.7868 820.351 53.7868 820.199 53.7868L798.028 64.4224L820.503 74.9061ZM873.348 64.7263L893.09 74.6023V54.8503L873.348 64.7263ZM771.302 54.3945V73.9945L791.043 64.1185L771.302 54.3945ZM822.781 3.49528L832.651 23.0953L842.522 3.49528H822.781Z" fill="white"/>
<path d="M1306.59 128.084C1306.44 128.084 1306.29 128.084 1306.29 128.084C1305.53 127.932 1305.07 127.325 1305.07 126.565V125.501C1305.07 124.742 1305.53 124.134 1306.13 123.982L1328.31 79.7682L1283.2 102.407C1282.45 102.863 1281.53 102.407 1281.08 101.647C1280.62 100.888 1280.93 99.9759 1281.84 99.5201L1327.85 76.2736L1306.29 65.9418L1282.14 77.9449C1281.69 78.2488 1281.08 78.0968 1280.62 77.9449C1280.17 77.641 1279.86 77.1852 1279.86 76.5775V51.8116C1279.86 51.2038 1280.17 50.748 1280.62 50.4441C1281.08 50.1402 1281.69 50.1402 1282.14 50.4441L1306.29 62.4472L1328 51.9635L1280.62 28.4131C1280.02 28.1092 1279.56 27.3495 1279.71 26.5899C1279.86 25.8302 1280.47 25.3744 1281.23 25.3744H1282.29C1283.05 25.3744 1283.66 25.8302 1283.81 26.4379L1328.61 48.7728L1306.44 4.40691C1305.83 4.25497 1305.38 3.64722 1305.38 2.88753V1.82397C1305.38 1.06428 1305.83 0.456524 1306.59 0.304586C1307.35 0.152648 1308.11 0.456524 1308.41 1.21621L1332.1 48.4689L1342.58 26.7418L1330.58 2.73559C1330.28 2.27978 1330.43 1.67203 1330.58 1.21621C1330.74 0.7604 1331.34 0.456524 1331.95 0.456524H1356.85C1357.46 0.456524 1357.92 0.7604 1358.22 1.21621C1358.52 1.67203 1358.52 2.27978 1358.22 2.73559L1346.22 26.7418L1356.55 48.317L1379.78 2.27978C1380.24 1.52009 1381.15 1.21621 1381.91 1.52009C1382.67 1.9759 1382.97 2.88753 1382.67 3.64722L1359.74 48.9247L1403.78 27.0457C1403.93 26.4379 1404.54 25.9821 1405.3 25.9821H1406.36C1407.12 25.9821 1407.73 26.4379 1407.88 27.1976C1408.03 27.9573 1407.73 28.717 1406.97 29.0209L1359.59 52.5713L1381.3 63.055L1405.45 51.0519C1405.9 50.748 1406.51 50.8999 1406.97 51.0519C1407.42 51.3558 1407.73 51.8116 1407.73 52.4193V77.1852C1407.73 77.793 1407.42 78.2488 1406.97 78.5527C1406.51 78.8565 1405.9 78.8565 1405.45 78.5527L1381.3 66.5495L1359.74 76.8813L1405.9 100.128C1406.66 100.584 1406.97 101.495 1406.66 102.255C1406.21 103.015 1405.3 103.319 1404.54 103.015L1359.44 80.3759L1382.21 124.894C1382.67 125.653 1382.37 126.565 1381.45 127.021C1380.7 127.477 1379.78 127.173 1379.33 126.261L1356.1 80.224L1345.77 101.799L1357.77 125.805C1358.07 126.261 1357.92 126.869 1357.77 127.325C1357.46 127.781 1357.01 128.084 1356.4 128.084H1331.49C1330.89 128.084 1330.43 127.781 1330.13 127.325C1329.82 126.869 1329.82 126.261 1330.13 125.805L1342.12 101.799L1331.65 80.072L1307.96 127.325C1307.65 127.781 1307.2 128.084 1306.59 128.084ZM1334.08 124.894H1353.82L1343.95 105.142L1334.08 124.894ZM1332.25 74.9061C1332.56 75.0581 1332.86 75.362 1333.17 75.6658L1343.95 98.1527L1354.58 75.9697C1354.88 75.362 1355.34 75.0581 1355.94 75.0581C1356.1 75.0581 1356.1 75.0581 1356.25 75.0581L1377.81 64.7263L1355.34 53.9387C1354.73 53.6348 1354.42 53.179 1354.42 52.5713C1354.42 52.2674 1354.42 52.1154 1354.58 51.8116L1344.25 30.3883L1333.47 52.8751C1333.17 53.4829 1332.71 53.7868 1332.1 53.7868C1332.1 53.7868 1332.1 53.7868 1331.95 53.7868L1309.78 64.4224L1332.25 74.9061ZM1385.1 64.7263L1404.84 74.6023V54.8503L1385.1 64.7263ZM1283.05 54.3945V73.9945L1302.79 64.1185L1283.05 54.3945ZM1334.53 3.49528L1344.4 23.0953L1354.27 3.49528H1334.53Z" fill="white"/>
<path d="M1818.67 128.084C1818.52 128.084 1818.37 128.084 1818.37 128.084C1817.61 127.932 1817.16 127.325 1817.16 126.565V125.501C1817.16 124.742 1817.61 124.134 1818.22 123.982L1840.39 79.7682L1795.29 102.407C1794.53 102.863 1793.62 102.407 1793.16 101.647C1792.71 100.888 1793.01 99.9759 1793.92 99.5201L1839.93 76.2736L1818.37 65.9418L1794.23 77.9449C1793.77 78.2488 1793.16 78.0968 1792.71 77.9449C1792.25 77.641 1791.95 77.1852 1791.95 76.5775V51.8116C1791.95 51.2038 1792.25 50.748 1792.71 50.4441C1793.16 50.1402 1793.77 50.1402 1794.23 50.4441L1818.37 62.4472L1840.09 51.9635L1792.71 28.4131C1792.1 28.1092 1791.64 27.3495 1791.8 26.5899C1791.95 25.8302 1792.56 25.3744 1793.31 25.3744H1794.38C1795.14 25.3744 1795.74 25.8302 1795.9 26.4379L1840.69 48.7728L1818.52 4.40691C1817.92 4.25497 1817.46 3.64722 1817.46 2.88753V1.82397C1817.46 1.06428 1817.92 0.456524 1818.67 0.304586C1819.43 0.152648 1820.19 0.456524 1820.5 1.21621L1844.19 48.4689L1854.66 26.7418L1842.67 2.73559C1842.36 2.27978 1842.52 1.67203 1842.67 1.21621C1842.82 0.7604 1843.43 0.456524 1844.03 0.456524H1868.94C1869.55 0.456524 1870 0.7604 1870.31 1.21621C1870.61 1.67203 1870.61 2.27978 1870.31 2.73559L1858.31 26.7418L1868.63 48.317L1891.87 2.27978C1892.32 1.52009 1893.24 1.21621 1893.99 1.52009C1894.75 1.9759 1895.06 2.88753 1894.75 3.64722L1871.82 48.9247L1915.86 27.0457C1916.01 26.4379 1916.62 25.9821 1917.38 25.9821H1918.44C1919.2 25.9821 1919.81 26.4379 1919.96 27.1976C1920.11 27.9573 1919.81 28.717 1919.05 29.0209L1871.67 52.5713L1893.39 63.055L1917.53 51.0519C1917.99 50.748 1918.6 50.8999 1919.05 51.0519C1919.51 51.3558 1919.81 51.8116 1919.81 52.4193V77.1852C1919.81 77.793 1919.51 78.2488 1919.05 78.5527C1918.6 78.8565 1917.99 78.8565 1917.53 78.5527L1893.39 66.5495L1871.82 76.8813L1917.99 100.128C1918.75 100.584 1919.05 101.495 1918.75 102.255C1918.29 103.015 1917.38 103.319 1916.62 103.015L1871.52 80.3759L1894.3 124.894C1894.75 125.653 1894.45 126.565 1893.54 127.021C1892.78 127.477 1891.87 127.173 1891.41 126.261L1868.18 80.224L1857.85 101.799L1869.85 125.805C1870.15 126.261 1870 126.869 1869.85 127.325C1869.55 127.781 1869.09 128.084 1868.48 128.084H1843.58C1842.97 128.084 1842.52 127.781 1842.21 127.325C1841.91 126.869 1841.91 126.261 1842.21 125.805L1854.21 101.799L1843.73 80.072L1820.04 127.325C1819.74 127.781 1819.28 128.084 1818.67 128.084ZM1846.16 124.894H1865.9L1856.03 105.142L1846.16 124.894ZM1844.34 74.9061C1844.64 75.0581 1844.95 75.362 1845.25 75.6658L1856.03 98.1527L1866.66 75.9697C1866.96 75.362 1867.42 75.0581 1868.03 75.0581C1868.18 75.0581 1868.18 75.0581 1868.33 75.0581L1889.89 64.7263L1867.42 53.9387C1866.81 53.6348 1866.51 53.179 1866.51 52.5713C1866.51 52.2674 1866.51 52.1154 1866.66 51.8116L1856.33 30.3883L1845.55 52.8751C1845.25 53.4829 1844.79 53.7868 1844.19 53.7868C1844.19 53.7868 1844.19 53.7868 1844.03 53.7868L1821.86 64.4224L1844.34 74.9061ZM1897.18 64.7263L1916.92 74.6023V54.8503L1897.18 64.7263ZM1795.14 54.3945V73.9945L1814.88 64.1185L1795.14 54.3945ZM1846.62 3.49528L1856.49 23.0953L1866.36 3.49528H1846.62Z" fill="white"/>
<path d="M487.124 127.496C486.972 127.496 486.82 127.496 486.668 127.344L448.249 114.581L409.829 127.344C409.222 127.496 408.615 127.344 408.159 126.888C407.703 126.432 407.551 125.824 407.703 125.217L418.181 93.7654L386.596 104.249C385.988 104.401 385.381 104.249 384.925 103.793C384.47 103.338 384.318 102.73 384.47 102.122L397.225 63.8337L384.47 25.5453C384.318 24.9375 384.47 24.3298 384.925 23.874C385.381 23.4182 385.988 23.2662 386.596 23.4182L418.181 33.9019L407.703 2.45071C407.551 1.84296 407.703 1.23521 408.159 0.779392C408.615 0.323578 409.222 0.17164 409.829 0.323578L448.249 13.0864L486.668 0.323578C487.275 0.17164 487.883 0.323578 488.338 0.779392C488.794 1.23521 488.946 1.84296 488.794 2.45071L478.316 33.9019L509.902 23.4182C510.509 23.2662 511.117 23.4182 511.572 23.874C512.028 24.3298 512.18 24.9375 512.028 25.5453L499.272 63.8337L511.876 102.274C512.028 102.882 511.876 103.489 511.42 103.945C510.965 104.401 510.357 104.553 509.75 104.401L478.164 93.9174L488.642 125.369C488.794 125.976 488.642 126.584 488.187 127.04C488.035 127.344 487.579 127.496 487.124 127.496ZM453.26 112.91L484.694 123.393L478.468 104.553L453.26 112.91ZM418.03 104.553L411.803 123.393L443.237 112.91L418.03 104.553ZM419.092 101.514L448.249 111.238L477.405 101.514L474.368 92.5499L448.249 83.8895L422.13 92.5499L419.092 101.514ZM399.048 68.9995L388.57 100.299L407.4 94.0693L399.048 68.9995ZM488.946 94.0693L507.776 100.299L497.298 68.9995L488.946 94.0693ZM400.87 63.9856L410.589 93.0058L419.548 89.967L428.204 63.8337L419.548 37.7003L410.589 34.6616L400.87 63.9856ZM476.949 90.1189L485.909 93.1577L495.627 64.1375L485.909 35.1174L476.949 38.1561L468.294 64.2895L476.949 90.1189ZM453.26 82.2182L473.153 88.7515L466.471 68.9995L465.56 71.7344C465.408 72.1903 464.953 72.6461 464.345 72.798C463.738 72.9499 463.282 72.798 462.827 72.3422L456.753 66.2647L453.564 69.4554L450.375 72.6461L456.449 78.7236C456.904 79.1794 457.056 79.6352 456.904 80.243C456.753 80.8507 456.449 81.1546 455.841 81.4585L453.26 82.2182ZM429.874 68.9995L423.193 88.7515L443.086 82.2182L440.352 81.3065C439.897 81.1546 439.441 80.6988 439.289 80.091C439.137 79.4833 439.289 79.0275 439.745 78.5716L445.819 72.4941L439.441 66.1127L433.367 72.1903C432.911 72.6461 432.456 72.798 431.848 72.6461C431.241 72.4941 430.937 72.1903 430.633 71.5825L429.874 68.9995ZM443.997 79.0275L448.249 80.3949L452.501 79.0275L448.249 74.7732L443.997 79.0275ZM441.871 63.9856L445.06 67.1763L448.249 70.367L454.627 63.9856L448.249 57.6042L445.06 60.7949L441.871 63.9856ZM431.545 63.9856L432.911 68.2399L437.163 63.9856L432.911 59.7313L431.545 63.9856ZM459.182 63.9856L463.434 68.2399L464.801 63.9856L463.434 59.7313L459.182 63.9856ZM432.304 55.1732C432.759 55.1732 433.063 55.3251 433.367 55.629L439.441 61.7065L445.819 55.3251L439.745 49.2476C439.289 48.7918 439.137 48.336 439.289 47.7282C439.441 47.1205 439.745 46.8166 440.352 46.5127L443.086 45.6011L423.193 39.0678L429.874 58.8197L430.785 56.0848C430.937 55.629 431.393 55.1732 432 55.0213C432.152 55.1732 432.152 55.1732 432.304 55.1732ZM453.715 58.5158L456.904 61.7065L462.979 55.629C463.434 55.1732 463.89 55.0213 464.497 55.1732C465.105 55.3251 465.408 55.629 465.712 56.2368L466.623 58.9716L473.305 39.2197L453.412 45.753L456.145 46.6647C456.601 46.8166 457.056 47.2724 457.208 47.8802C457.36 48.4879 457.208 48.9437 456.753 49.3996L450.678 55.4771L453.715 58.5158ZM388.721 27.6724L399.199 58.9716L407.551 33.9019L388.721 27.6724ZM488.946 33.9019L497.298 58.9716L507.776 27.6724L488.946 33.9019ZM443.997 48.7918L448.249 53.0461L452.501 48.7918L448.249 47.4244L443.997 48.7918ZM421.978 35.4213L448.097 44.0817L474.216 35.4213L477.253 26.4569L448.097 16.7329L418.941 26.4569L421.978 35.4213ZM453.26 15.0616L478.316 23.4182L484.542 4.57784L453.26 15.0616ZM411.803 4.57784L418.03 23.4182L443.086 15.0616L411.803 4.57784Z" fill="white"/>
<path d="M998.874 127.496C998.722 127.496 998.57 127.496 998.418 127.344L959.999 114.581L921.58 127.344C920.972 127.496 920.365 127.344 919.909 126.888C919.454 126.432 919.302 125.824 919.454 125.217L929.932 93.7654L898.346 104.249C897.739 104.401 897.131 104.249 896.676 103.793C896.22 103.338 896.068 102.73 896.22 102.122L908.976 63.8337L896.22 25.5453C896.068 24.9375 896.22 24.3298 896.676 23.874C897.131 23.4182 897.739 23.2662 898.346 23.4182L929.932 33.9019L919.454 2.45071C919.302 1.84296 919.454 1.23521 919.909 0.779392C920.365 0.323578 920.972 0.17164 921.58 0.323578L959.999 13.0864L998.418 0.323578C999.026 0.17164 999.633 0.323578 1000.09 0.779392C1000.54 1.23521 1000.7 1.84296 1000.54 2.45071L990.066 33.9019L1021.65 23.4182C1022.26 23.2662 1022.87 23.4182 1023.32 23.874C1023.78 24.3298 1023.93 24.9375 1023.78 25.5453L1011.02 63.8337L1023.63 102.274C1023.78 102.882 1023.63 103.489 1023.17 103.945C1022.72 104.401 1022.11 104.553 1021.5 104.401L989.915 93.9174L1000.39 125.369C1000.54 125.976 1000.39 126.584 999.937 127.04C999.785 127.344 999.33 127.496 998.874 127.496ZM965.01 112.91L996.444 123.393L990.218 104.553L965.01 112.91ZM929.78 104.553L923.554 123.393L954.988 112.91L929.78 104.553ZM930.843 101.514L959.999 111.238L989.155 101.514L986.118 92.5499L959.999 83.8895L933.88 92.5499L930.843 101.514ZM910.798 68.9995L900.32 100.299L919.15 94.0693L910.798 68.9995ZM1000.7 94.0693L1019.53 100.299L1009.05 68.9995L1000.7 94.0693ZM912.62 63.9856L922.339 93.0058L931.299 89.967L939.954 63.8337L931.299 37.7003L922.339 34.6616L912.62 63.9856ZM988.7 90.1189L997.659 93.1577L1007.38 64.1375L997.659 35.1174L988.7 38.1561L980.044 64.2895L988.7 90.1189ZM965.01 82.2182L984.903 88.7515L978.222 68.9995L977.311 71.7344C977.159 72.1903 976.703 72.6461 976.096 72.798C975.488 72.9499 975.033 72.798 974.577 72.3422L968.503 66.2647L965.314 69.4554L962.125 72.6461L968.199 78.7236C968.655 79.1794 968.807 79.6352 968.655 80.243C968.503 80.8507 968.199 81.1546 967.592 81.4585L965.01 82.2182ZM941.625 68.9995L934.943 88.7515L954.836 82.2182L952.103 81.3065C951.647 81.1546 951.192 80.6988 951.04 80.091C950.888 79.4833 951.04 79.0275 951.495 78.5716L957.569 72.4941L951.192 66.1127L945.117 72.1903C944.662 72.6461 944.206 72.798 943.599 72.6461C942.991 72.4941 942.688 72.1903 942.384 71.5825L941.625 68.9995ZM955.747 79.0275L959.999 80.3949L964.251 79.0275L959.999 74.7732L955.747 79.0275ZM953.621 63.9856L956.81 67.1763L959.999 70.367L966.377 63.9856L959.999 57.6042L956.81 60.7949L953.621 63.9856ZM943.295 63.9856L944.662 68.2399L948.914 63.9856L944.662 59.7313L943.295 63.9856ZM970.933 63.9856L975.185 68.2399L976.551 63.9856L975.185 59.7313L970.933 63.9856ZM944.054 55.1732C944.51 55.1732 944.814 55.3251 945.117 55.629L951.192 61.7065L957.569 55.3251L951.495 49.2476C951.04 48.7918 950.888 48.336 951.04 47.7282C951.192 47.1205 951.495 46.8166 952.103 46.5127L954.836 45.6011L934.943 39.0678L941.625 58.8197L942.536 56.0848C942.688 55.629 943.143 55.1732 943.751 55.0213C943.903 55.1732 943.903 55.1732 944.054 55.1732ZM965.466 58.5158L968.655 61.7065L974.729 55.629C975.185 55.1732 975.64 55.0213 976.248 55.1732C976.855 55.3251 977.159 55.629 977.462 56.2368L978.374 58.9716L985.055 39.2197L965.162 45.753L967.896 46.6647C968.351 46.8166 968.807 47.2724 968.959 47.8802C969.11 48.4879 968.959 48.9437 968.503 49.3996L962.429 55.4771L965.466 58.5158ZM900.472 27.6724L910.95 58.9716L919.302 33.9019L900.472 27.6724ZM1000.7 33.9019L1009.05 58.9716L1019.53 27.6724L1000.7 33.9019ZM955.747 48.7918L959.999 53.0461L964.251 48.7918L959.999 47.4244L955.747 48.7918ZM933.728 35.4213L959.847 44.0817L985.966 35.4213L989.003 26.4569L959.847 16.7329L930.691 26.4569L933.728 35.4213ZM965.01 15.0616L990.066 23.4182L996.292 4.57784L965.01 15.0616ZM923.554 4.57784L929.78 23.4182L954.836 15.0616L923.554 4.57784Z" fill="white"/>
<path d="M1510.63 127.496C1510.48 127.496 1510.32 127.496 1510.17 127.344L1471.75 114.581L1433.33 127.344C1432.73 127.496 1432.12 127.344 1431.66 126.888C1431.21 126.432 1431.05 125.824 1431.21 125.217L1441.68 93.7654L1410.1 104.249C1409.49 104.401 1408.88 104.249 1408.43 103.793C1407.97 103.338 1407.82 102.73 1407.97 102.122L1420.73 63.8337L1407.97 25.5453C1407.82 24.9375 1407.97 24.3298 1408.43 23.874C1408.88 23.4182 1409.49 23.2662 1410.1 23.4182L1441.68 33.9019L1431.21 2.45071C1431.05 1.84296 1431.21 1.23521 1431.66 0.779392C1432.12 0.323578 1432.73 0.17164 1433.33 0.323578L1471.75 13.0864L1510.17 0.323578C1510.78 0.17164 1511.39 0.323578 1511.84 0.779392C1512.3 1.23521 1512.45 1.84296 1512.3 2.45071L1501.82 33.9019L1533.41 23.4182C1534.01 23.2662 1534.62 23.4182 1535.08 23.874C1535.53 24.3298 1535.68 24.9375 1535.53 25.5453L1522.78 63.8337L1535.38 102.274C1535.53 102.882 1535.38 103.489 1534.92 103.945C1534.47 104.401 1533.86 104.553 1533.25 104.401L1501.67 93.9174L1512.15 125.369C1512.3 125.976 1512.15 126.584 1511.69 127.04C1511.54 127.344 1511.08 127.496 1510.63 127.496ZM1476.76 112.91L1508.2 123.393L1501.97 104.553L1476.76 112.91ZM1441.53 104.553L1435.31 123.393L1466.74 112.91L1441.53 104.553ZM1442.6 101.514L1471.75 111.238L1500.91 101.514L1497.87 92.5499L1471.75 83.8895L1445.63 92.5499L1442.6 101.514ZM1422.55 68.9995L1412.07 100.299L1430.9 94.0693L1422.55 68.9995ZM1512.45 94.0693L1531.28 100.299L1520.8 68.9995L1512.45 94.0693ZM1424.37 63.9856L1434.09 93.0058L1443.05 89.967L1451.71 63.8337L1443.05 37.7003L1434.09 34.6616L1424.37 63.9856ZM1500.45 90.1189L1509.41 93.1577L1519.13 64.1375L1509.41 35.1174L1500.45 38.1561L1491.8 64.2895L1500.45 90.1189ZM1476.76 82.2182L1496.66 88.7515L1489.97 68.9995L1489.06 71.7344C1488.91 72.1903 1488.46 72.6461 1487.85 72.798C1487.24 72.9499 1486.79 72.798 1486.33 72.3422L1480.26 66.2647L1477.07 69.4554L1473.88 72.6461L1479.95 78.7236C1480.41 79.1794 1480.56 79.6352 1480.41 80.243C1480.26 80.8507 1479.95 81.1546 1479.34 81.4585L1476.76 82.2182ZM1453.38 68.9995L1446.7 88.7515L1466.59 82.2182L1463.86 81.3065C1463.4 81.1546 1462.94 80.6988 1462.79 80.091C1462.64 79.4833 1462.79 79.0275 1463.25 78.5716L1469.32 72.4941L1462.94 66.1127L1456.87 72.1903C1456.41 72.6461 1455.96 72.798 1455.35 72.6461C1454.74 72.4941 1454.44 72.1903 1454.14 71.5825L1453.38 68.9995ZM1467.5 79.0275L1471.75 80.3949L1476 79.0275L1471.75 74.7732L1467.5 79.0275ZM1465.37 63.9856L1468.56 67.1763L1471.75 70.367L1478.13 63.9856L1471.75 57.6042L1468.56 60.7949L1465.37 63.9856ZM1455.05 63.9856L1456.41 68.2399L1460.67 63.9856L1456.41 59.7313L1455.05 63.9856ZM1482.69 63.9856L1486.94 68.2399L1488.3 63.9856L1486.94 59.7313L1482.69 63.9856ZM1455.81 55.1732C1456.26 55.1732 1456.57 55.3251 1456.87 55.629L1462.94 61.7065L1469.32 55.3251L1463.25 49.2476C1462.79 48.7918 1462.64 48.336 1462.79 47.7282C1462.94 47.1205 1463.25 46.8166 1463.86 46.5127L1466.59 45.6011L1446.7 39.0678L1453.38 58.8197L1454.29 56.0848C1454.44 55.629 1454.9 55.1732 1455.5 55.0213C1455.66 55.1732 1455.66 55.1732 1455.81 55.1732ZM1477.22 58.5158L1480.41 61.7065L1486.48 55.629C1486.94 55.1732 1487.39 55.0213 1488 55.1732C1488.61 55.3251 1488.91 55.629 1489.22 56.2368L1490.13 58.9716L1496.81 39.2197L1476.92 45.753L1479.65 46.6647C1480.1 46.8166 1480.56 47.2724 1480.71 47.8802C1480.86 48.4879 1480.71 48.9437 1480.26 49.3996L1474.18 55.4771L1477.22 58.5158ZM1412.22 27.6724L1422.7 58.9716L1431.05 33.9019L1412.22 27.6724ZM1512.45 33.9019L1520.8 58.9716L1531.28 27.6724L1512.45 33.9019ZM1467.5 48.7918L1471.75 53.0461L1476 48.7918L1471.75 47.4244L1467.5 48.7918ZM1445.48 35.4213L1471.6 44.0817L1497.72 35.4213L1500.76 26.4569L1471.6 16.7329L1442.44 26.4569L1445.48 35.4213ZM1476.76 15.0616L1501.82 23.4182L1508.05 4.57784L1476.76 15.0616ZM1435.31 4.57784L1441.53 23.4182L1466.59 15.0616L1435.31 4.57784Z" fill="white"/>
</svg>
