<svg width="149" height="85" viewBox="0 0 149 85" fill="none" xmlns="http://www.w3.org/2000/svg">
<path d="M59.9465 22.5093C57.6747 24.6133 56.45 25.4265 55.2054 25.6949C54.7818 25.7831 54.3502 25.828 53.9175 25.8291C53.6132 25.8291 53.4434 25.8962 53.4434 26.066C53.4434 26.2357 53.6449 26.3384 54.0202 26.3384H56.5645C59.6541 26.3384 60.5154 25.762 62.4671 23.7962C62.6647 23.5949 62.5027 23.7172 62.7081 23.5001C62.2143 22.7106 61.8113 21.8817 61.3807 21.0685C60.6458 21.8343 60.389 22.0948 59.9465 22.5093Z" fill="#4D4D4C"/>
<path d="M70.9735 14.1333C71.2777 13.7583 71.5859 13.4898 71.8229 13.1859V12.7438C70.6377 11.6937 66.0863 7.04754 64.0516 4.91195C61.9458 2.70926 61.7087 2.14872 61.7087 1.79344C61.7087 1.52107 61.843 1.31975 62.4989 1.18158C62.8387 1.11448 62.973 1.04737 62.973 0.909207C62.973 0.771046 62.8031 0.707886 62.4989 0.707886C61.6495 0.707886 60.8356 0.81052 59.6503 0.81052C58.5994 0.81052 56.8333 0.707886 56.2565 0.707886C55.814 0.707886 55.6797 0.774993 55.6797 0.944735C55.6797 1.11448 55.8496 1.15 56.2921 1.21711C56.8329 1.27073 57.3643 1.3955 57.8724 1.58817C58.8206 1.92766 59.5357 2.33425 61.5704 4.35141C64.182 6.96069 68.6306 11.3345 69.4722 12.2464C68.7215 13.099 66.6078 15.5386 64.2649 18.0689C64.66 18.9176 65.0551 19.6479 65.5253 20.469C67.4414 18.3176 69.1087 16.3162 70.9735 14.1333Z" fill="#4D4D4C"/>
<path d="M82.7335 23.8871C81.8683 23.0107 81.4377 22.4423 80.4697 21.3528L73.3581 35.7611C73.3296 35.8166 73.2863 35.8632 73.233 35.8958C73.1796 35.9283 73.1184 35.9455 73.0559 35.9455C72.9934 35.9455 72.9322 35.9283 72.8788 35.8958C72.8255 35.8632 72.7822 35.8166 72.7537 35.7611C70.8533 32.2439 67.8467 26.3898 65.1008 20.9383L63.8445 18.4356C61.5569 13.8644 59.6249 9.91696 58.9572 8.40508C58.6372 7.65111 57.4125 5.15235 57.1438 4.55628C57.0332 4.31154 55.919 4.39049 55.1684 4.39049C54.7733 4.39049 52.0946 4.33917 50.2416 4.33917C49.5384 4.33917 49.0801 4.49312 49.0801 4.73392C49.0801 4.97472 49.3369 5.08525 49.8465 5.08525C50.9008 5.05577 51.9483 5.26212 52.9124 5.68921C53.7421 6.14317 54.6982 6.99977 56.4247 10.4262C56.9976 11.5749 59.214 15.7869 61.7742 20.6541L63.0819 23.141L63.5758 24.0805C67.4714 31.4386 72.6628 43.2297 74.0535 43.1784C74.82 43.1508 75.0254 43.1468 76.7914 40.056L84.2665 25.3082C83.9109 25.0437 83.1286 24.2818 82.7335 23.8871Z" fill="#4D4D4C"/>
<path d="M98.2895 4.40625C95.4015 4.40625 90.214 4.37073 88.8391 4.37073C88.718 4.37583 88.601 4.41582 88.5022 4.48586C88.4033 4.5559 88.3269 4.653 88.282 4.76548C87.9106 5.5155 86.7016 8.36558 86.0972 9.5893L82.3359 17.3856C83.528 18.8013 84.8052 20.1433 86.1604 21.4041L92.4146 9.1906C93.8211 6.36815 94.7851 5.81551 97.0095 5.31023C97.8096 5.16428 98.622 5.09685 99.4353 5.10891C99.8304 5.10891 99.945 4.9589 99.945 4.75758C99.9489 4.45757 99.3089 4.40625 98.2895 4.40625Z" fill="#4D4D4C"/>
<path d="M92.0894 25.5489C91.6659 25.5469 91.2436 25.5019 90.8291 25.4147C89.6004 25.1502 88.3756 24.3252 86.1473 22.2567L85.9103 22.0317C85.0134 21.1633 83.5398 19.608 82.0226 17.9579C79.8813 15.6368 77.6332 13.1341 76.7443 12.1275C77.4238 11.413 79.5099 9.33268 81.5446 7.32341C82.6192 6.25759 83.6899 5.19572 84.5591 4.32728C86.657 2.23116 87.3247 1.89168 88.2136 1.56404C88.7042 1.37765 89.2168 1.25558 89.7387 1.20087C90.1338 1.13771 90.4696 1.06666 90.4696 0.806125C90.4696 0.411377 90.0192 0.411377 89.7505 0.411377C89.4819 0.411377 89.0433 0.411377 88.51 0.450852C87.783 0.478484 86.9573 0.514011 86.3567 0.514011C85.7562 0.514011 85.1715 0.482432 84.6974 0.458747C84.3023 0.435062 83.9072 0.415325 83.5121 0.415325C83.0025 0.415325 82.8958 0.604804 82.8958 0.762703C82.8958 1.05482 83.2514 1.12587 83.4845 1.15745C84.1522 1.29956 84.1522 1.49693 84.1522 1.6272C84.1522 1.9351 83.9744 2.4167 81.8488 4.64702C79.9642 6.62076 75.7921 10.8919 74.3422 12.2538V10.4024C74.3422 5.12072 74.3422 4.16938 74.4093 3.08777C74.4804 1.87194 74.757 1.43377 75.5511 1.28772C75.8218 1.2319 76.0967 1.19889 76.3729 1.18903C76.4217 1.19224 76.4706 1.18579 76.5169 1.17006C76.5632 1.15432 76.606 1.12961 76.6427 1.09733C76.6794 1.06506 76.7093 1.02586 76.7308 0.981979C76.7523 0.938103 76.765 0.890415 76.768 0.841652C76.768 0.446904 76.286 0.446904 76.0805 0.446904C75.3536 0.446904 74.1051 0.498222 73.3702 0.529802L72.8211 0.549539H72.2996C71.5924 0.521907 70.2688 0.466642 69.4628 0.466642C69.2574 0.466642 68.7754 0.466642 68.7754 0.86139C68.7784 0.910153 68.791 0.95784 68.8125 1.00172C68.834 1.04559 68.864 1.08479 68.9007 1.11707C68.9374 1.14935 68.9802 1.17406 69.0264 1.1898C69.0727 1.20553 69.1217 1.21198 69.1705 1.20877C69.5142 1.21176 69.8564 1.25549 70.1898 1.33903C70.8654 1.49299 71.1696 2.00616 71.2328 3.1075C71.296 4.20885 71.3 5.14046 71.3 10.4222V16.3671C71.3 19.4816 71.2368 22.2291 71.1301 23.7133C71.0274 24.9213 70.8022 25.3673 70.2214 25.4858C69.9429 25.5506 69.6579 25.5837 69.372 25.5844C69.0875 25.5844 68.8544 25.7384 68.8544 25.9318C68.8544 26.3266 69.1744 26.3266 69.4707 26.3266C70.1977 26.3266 71.4738 26.2753 72.2363 26.2437L72.7974 26.2239H73.1925C73.9392 26.2516 75.4998 26.3108 76.9339 26.3108C77.3646 26.3108 77.5858 26.1726 77.5858 25.916C77.5858 25.7581 77.4317 25.5687 77.0011 25.5687C76.5532 25.5595 76.1061 25.5266 75.6617 25.47C74.7965 25.3555 74.5713 24.7594 74.4765 23.6976C74.3066 22.2804 74.3066 19.6672 74.3066 16.3552V13.4302L74.4686 13.5999C74.6108 13.7499 74.757 13.9039 74.9071 14.0854L76.1991 15.6052C77.6253 17.2868 79.1701 19.1027 80.6517 20.7646C81.6236 21.8541 82.5639 22.8804 83.4173 23.7568C83.8124 24.1515 84.164 24.491 84.4998 24.7831C85.8273 25.9397 86.9059 26.3424 89.4226 26.3424H91.967C92.1645 26.3424 92.686 26.3424 92.686 25.9476C92.7058 25.6792 92.5003 25.5489 92.0894 25.5489Z" fill="#4D4D4C"/>
<path d="M64.6067 38.8677H0.503906L0.507857 37.9756H64.6107L64.6067 38.8677Z" fill="#4D4D4C"/>
<path d="M148.503 38.8677H84.4004L84.4043 37.9756H148.507L148.503 38.8677Z" fill="#4D4D4C"/>
<path d="M0.193359 66.7211H148.821V67.6093H0.193359V66.7211Z" fill="#4D4D4C"/>
<path d="M74.5076 69.0501C75.5484 69.0501 76.3922 68.2071 76.3922 67.1671C76.3922 66.1272 75.5484 65.2842 74.5076 65.2842C73.4668 65.2842 72.623 66.1272 72.623 67.1671C72.623 68.2071 73.4668 69.0501 74.5076 69.0501Z" fill="#4D4D4C"/>
<path d="M25.043 84.5558L27.6268 81.6584L25.2563 79.0175H25.8766L28.3143 81.7808V79.0175H28.7963V81.7808L31.2221 79.0175H31.8385L29.4679 81.6584L32.0518 84.5558H31.4513L29.1637 81.9465L28.7884 82.361V84.5519H28.3103V82.361L27.935 81.9465L25.6475 84.5558H25.043Z" fill="#4D4D4C"/>
<path d="M34.6074 84.5558V79.0294H35.0815V83.7229L38.5583 79.0294H39.0403V84.5558H38.5662V79.7991L35.0736 84.5598L34.6074 84.5558Z" fill="#4D4D4C"/>
<path d="M41.2872 84.2242C41.9944 84.2242 42.4171 83.8019 42.6818 81.7492L43.0413 79.0175H46.1586V84.544H45.6726V79.4478H43.4601L43.1599 81.7887C42.8359 84.2716 42.2038 84.6545 41.2832 84.6545L41.2872 84.2242Z" fill="#4D4D4C"/>
<path d="M48.9785 81.7926C48.9785 80.1741 50.0413 78.9267 51.673 78.9267C53.3047 78.9267 54.3675 80.1741 54.3675 81.7926C54.3675 83.411 53.2968 84.6584 51.673 84.6584C50.0492 84.6584 48.9785 83.411 48.9785 81.7926ZM53.8657 81.7926C53.8657 80.3794 53.0005 79.357 51.6691 79.357C50.3376 79.357 49.4763 80.3794 49.4763 81.7926C49.4763 83.2058 50.3258 84.2282 51.6691 84.2282C53.0123 84.2282 53.8657 83.186 53.8657 81.7926Z" fill="#4D4D4C"/>
<path d="M57.4062 84.556V79.0295H57.8804V83.7231L61.3571 79.0295H61.8312V84.556H61.3571V79.7993L57.8804 84.556H57.4062ZM59.6266 78.6742C59.343 78.6738 59.0634 78.6076 58.8098 78.4809C58.5561 78.3542 58.3353 78.1704 58.1648 77.944L58.4058 77.7347C58.5437 77.9295 58.7268 78.088 58.9394 78.1966C59.152 78.3053 59.3878 78.3608 59.6266 78.3584C59.8651 78.3591 60.1003 78.3029 60.3127 78.1944C60.525 78.0859 60.7084 77.9283 60.8474 77.7347L61.0806 77.944C60.913 78.1729 60.6935 78.3588 60.4401 78.4864C60.1866 78.614 59.9065 78.6798 59.6227 78.6782L59.6266 78.6742Z" fill="#4D4D4C"/>
<path d="M72.0674 84.5559L69.7799 81.9466L69.1636 82.6177V84.5519H68.6895V79.0255H69.1636V82.0571L71.8422 79.0255H72.4507L70.0802 81.6663L72.664 84.5638L72.0674 84.5559Z" fill="#4D4D4C"/>
<path d="M75.0156 81.7926C75.0156 80.1741 76.0784 78.9267 77.7101 78.9267C79.3418 78.9267 80.4046 80.1741 80.4046 81.7926C80.4046 83.411 79.3339 84.6584 77.7101 84.6584C76.0863 84.6584 75.0156 83.411 75.0156 81.7926ZM79.9029 81.7926C79.9029 80.3794 79.0376 79.357 77.7062 79.357C76.3747 79.357 75.5134 80.3794 75.5134 81.7926C75.5134 83.2058 76.3629 84.2282 77.7062 84.2282C79.0495 84.2282 79.9029 83.186 79.9029 81.7926Z" fill="#4D4D4C"/>
<path d="M87.9377 84.5558V79.6649L85.9307 84.5558H85.7489L83.7221 79.6649V84.5558H83.248V79.0294H83.9552L85.8438 83.5966L87.7244 79.0294H88.4395V84.5558H87.9377Z" fill="#4D4D4C"/>
<path d="M95.4474 84.5558V79.4478H91.9311V84.5558H91.4609V79.0294H95.9333V84.5558H95.4474Z" fill="#4D4D4C"/>
<path d="M98.5742 84.2242C99.2814 84.2242 99.7042 83.8019 99.9689 81.7492L100.328 79.0175H103.446V84.544H102.964V79.4478H100.751L100.451 81.7887C100.127 84.2716 99.4948 84.6545 98.5742 84.6545V84.2242Z" fill="#4D4D4C"/>
<path d="M106.477 84.5558V79.0294H109.993V79.4596H106.951V81.5123H109.934V81.9426H106.951V84.1335H109.993V84.5637L106.477 84.5558Z" fill="#4D4D4C"/>
<path d="M116.194 84.5559L113.907 81.9466L113.291 82.6177V84.5519H112.816V79.0255H113.291V82.0571L115.969 79.0255H116.578L114.207 81.6663L116.791 84.5638L116.194 84.5559Z" fill="#4D4D4C"/>
<path d="M119.144 81.7926C119.13 81.4175 119.192 81.0435 119.328 80.6933C119.463 80.3432 119.669 80.0243 119.932 79.7562C120.194 79.488 120.509 79.2761 120.857 79.1335C121.204 78.9909 121.577 78.9205 121.953 78.9267C122.342 78.9215 122.728 79.0073 123.078 79.1772C123.429 79.3472 123.735 79.5966 123.972 79.9057L123.577 80.1623C123.386 79.9141 123.141 79.7135 122.86 79.5765C122.579 79.4394 122.27 79.3697 121.957 79.3728C121.328 79.3981 120.733 79.6656 120.297 80.1192C119.861 80.5728 119.617 81.1774 119.617 81.8064C119.617 82.4354 119.861 83.04 120.297 83.4936C120.733 83.9472 121.328 84.2147 121.957 84.24C122.27 84.2431 122.579 84.1733 122.86 84.0363C123.141 83.8993 123.386 83.6987 123.577 83.4505L123.972 83.6992C123.736 84.0106 123.431 84.2623 123.08 84.4337C122.73 84.6052 122.343 84.6916 121.953 84.6861C121.575 84.6924 121.199 84.6213 120.85 84.477C120.5 84.3327 120.184 84.1183 119.921 83.8471C119.658 83.576 119.453 83.2537 119.319 82.9003C119.186 82.547 119.126 82.1699 119.144 81.7926Z" fill="#4D4D4C"/>
<path d="M13.4335 59.1775V48.7641H6.59064V59.1775H5.13672V47.4653H14.8914V59.1775H13.4335Z" fill="#4D4D4C"/>
<path d="M17.0918 59.1775L20.2525 54.4089C19.8265 54.3857 19.4092 54.2789 19.0246 54.0945C18.6399 53.9101 18.2954 53.6518 18.0107 53.3344C17.726 53.0169 17.5066 52.6465 17.3652 52.2443C17.2238 51.8421 17.1631 51.4161 17.1866 50.9904C17.1866 48.8351 18.7117 47.4653 20.8728 47.4653H25.5743V59.1775H24.1283V54.5116H21.7578L18.7946 59.1775H17.0918ZM24.1283 53.2563V48.7641H21.0387C19.6717 48.7641 18.7038 49.6759 18.7038 50.9904C18.6972 51.2945 18.7538 51.5965 18.87 51.8776C18.9862 52.1586 19.1595 52.4126 19.379 52.6233C19.5984 52.834 19.8592 52.9969 20.1449 53.1018C20.4306 53.2067 20.7349 53.2512 21.0387 53.2326L24.1283 53.2563Z" fill="#4D4D4C"/>
<path d="M31.2039 59.1775V48.7641H27.502V47.4653H36.3795V48.7641H32.6618V59.1775H31.2039Z" fill="#4D4D4C"/>
<path d="M39.7743 47.4653V52.1115H43.0219C45.3371 52.1115 46.6883 53.726 46.6883 55.6366C46.6883 57.5472 45.3726 59.1617 43.0219 59.1617H38.3164V47.4653H39.7743ZM39.7743 53.4102V57.863H42.8441C44.2309 57.863 45.1791 56.9511 45.1791 55.6366C45.1791 54.3221 44.2309 53.4102 42.8441 53.4102H39.7743ZM47.9526 59.1775V47.4653H49.4104V59.1775H47.9526Z" fill="#4D4D4C"/>
<path d="M52.1504 59.1775V47.4653H53.6083V56.5998L60.3445 47.4653H61.83V59.1775H60.3721V49.8299L53.5529 59.1775H52.1504ZM56.9941 46.8179C56.3947 46.8172 55.8037 46.6774 55.2675 46.4095C54.7314 46.1417 54.2648 45.7531 53.9046 45.2745L54.5525 44.7139C54.8262 45.1059 55.191 45.4256 55.6156 45.6456C56.0402 45.8656 56.5119 45.9794 56.9902 45.9771C57.4671 45.9837 57.9381 45.8717 58.3608 45.6512C58.7836 45.4307 59.1449 45.1086 59.4121 44.7139L60.06 45.2745C59.7044 45.7509 59.2416 46.137 58.709 46.4017C58.1764 46.6664 57.589 46.8022 56.9941 46.7982V46.8179Z" fill="#4D4D4C"/>
<path d="M76.1835 59.1775L71.7427 53.9195L70.5575 55.2498V59.1775H69.0996V47.4653H70.5575V53.5129L75.7331 47.4653H77.5584L72.6791 53.0234L77.9891 59.1775H76.1835Z" fill="#4D4D4C"/>
<path d="M79.6602 59.1775V47.4653H84.8713C86.906 47.4653 88.1545 48.693 88.1545 50.4457C88.177 51.0618 87.9843 51.6665 87.6095 52.1562C87.2347 52.646 86.701 52.9902 86.1001 53.13C87.3446 53.3234 88.3797 54.6024 88.3797 56.0037C88.3797 57.8788 87.1352 59.1617 84.9938 59.1617L79.6602 59.1775ZM86.6453 50.6746C86.6453 49.6207 85.942 48.7798 84.6264 48.7798H81.118V52.5497H84.6264C85.9302 52.5339 86.6453 51.7247 86.6453 50.6549V50.6746ZM86.8744 55.8656C86.8744 54.7958 86.1356 53.8484 84.6975 53.8484H81.118V57.8827H84.6975C86.0685 57.863 86.8744 57.0893 86.8744 55.8458V55.8656Z" fill="#4D4D4C"/>
<path d="M99.0593 59.1776L98.0241 56.5841H92.1966L91.1615 59.1776H89.4863L94.1879 47.4812H95.9934L100.727 59.1776H99.0593ZM95.1084 48.9931L92.6154 55.2854H97.5856L95.1084 48.9931Z" fill="#4D4D4C"/>
<path d="M102.26 59.1775V47.4653H106.961C109.332 47.4653 110.628 49.0798 110.628 50.9904C110.628 52.901 109.277 54.5155 106.961 54.5155H103.71V59.1775H102.26ZM109.122 51.0062C109.122 49.6917 108.174 48.7798 106.787 48.7798H103.71V53.2168H106.78C108.17 53.2168 109.118 52.3049 109.118 50.9904L109.122 51.0062Z" fill="#4D4D4C"/>
<path d="M115.462 59.1775V48.7641H111.76V47.4653H120.637V48.7641H116.916V59.1775H115.462Z" fill="#4D4D4C"/>
<path d="M130.922 59.1776L129.887 56.5841H124.064L123.029 59.1776H121.361L126.063 47.4812H127.868L132.59 59.1776H130.922ZM126.972 48.9931L124.479 55.2854H129.445L126.972 48.9931Z" fill="#4D4D4C"/>
<path d="M133.318 58.0721C134.721 58.0721 135.511 57.2826 136.005 53.3351L136.724 47.4613H143.883V59.1774H142.429V48.764H138.02L137.439 53.4457C136.807 58.5774 135.404 59.3669 133.314 59.3669L133.318 58.0721Z" fill="#4D4D4C"/>
</svg>
