<svg width="260" height="212" viewBox="0 0 260 212" fill="none" xmlns="http://www.w3.org/2000/svg">
<path d="M131.66 155.985C148.612 155.985 158.299 149.896 158.299 136.502C158.299 125.542 149.823 118.236 131.66 118.236H89.2789V154.767H131.66V155.985ZM123.184 80.4867C140.136 80.4867 149.823 74.3982 149.823 62.221C149.823 51.2616 141.347 45.173 124.395 45.173H88.068V80.4867H123.184ZM36 0.117645H136.503C161.932 0.117645 178.884 6.20621 190.993 18.3833C199.469 26.9073 204.313 36.649 204.313 51.2616C204.313 74.3982 190.993 87.793 174.041 96.317C198.259 104.841 214 118.236 214 146.243C214 180.339 186.15 201.04 138.925 201.04H36L36 0.117645Z" fill="#F65275"/>
<path d="M136.16 161.008V161.508H136.66C145.181 161.508 151.962 159.98 156.625 156.698C161.318 153.394 163.799 148.359 163.799 141.525C163.799 135.9 161.615 131.177 157.085 127.878C152.577 124.595 145.798 122.759 136.66 122.759H94.2789H93.7789V123.259V159.79V160.29H94.2789H136.16V161.008ZM93.068 49.6961H92.568V50.1961V85.5098V86.0098H93.068H128.184C136.706 86.0098 143.481 84.4816 148.139 81.3587C152.828 78.2151 155.323 73.4875 155.323 67.2441C155.323 61.6153 153.135 57.1913 148.748 54.1973C144.391 51.2242 137.917 49.6961 129.395 49.6961H93.068ZM143.925 205.563H41.5L41.5 5.64071H141.503C166.85 5.64071 183.654 11.7071 195.639 23.759C204.028 32.1953 208.813 41.8125 208.813 56.2847C208.813 67.7489 205.516 76.7762 200.133 83.9932C194.745 91.2177 187.248 96.6535 178.816 100.893L177.766 101.421L178.875 101.812C190.946 106.06 200.844 111.503 207.727 119.327C214.597 127.138 218.5 137.365 218.5 151.266C218.5 168.161 211.609 181.708 198.876 191.048C186.125 200.401 167.473 205.563 143.925 205.563Z" stroke="white" stroke-opacity="0.5"/>
<path d="M141.16 166.031V166.531H141.66C150.181 166.531 156.962 165.003 161.625 161.721C166.318 158.417 168.799 153.382 168.799 146.548C168.799 140.923 166.615 136.2 162.085 132.901C157.577 129.618 150.798 127.782 141.66 127.782H99.2789H98.7789V128.282V164.813V165.313H99.2789H141.16V166.031ZM98.068 54.7192H97.568V55.2192V90.5329V91.0329H98.068H133.184C141.706 91.0329 148.481 89.5047 153.139 86.3818C157.828 83.2382 160.323 78.5106 160.323 72.2672C160.323 66.6384 158.135 62.2144 153.748 59.2204C149.391 56.2472 142.917 54.7192 134.395 54.7192H98.068ZM148.925 210.587H46.5L46.5 10.6638H146.503C171.85 10.6638 188.654 16.7302 200.639 28.782C209.028 37.2184 213.813 46.8355 213.813 61.3077C213.813 72.772 210.516 81.7992 205.133 89.0162C199.745 96.2408 192.248 101.677 183.816 105.916L182.766 106.445L183.875 106.835C195.946 111.083 205.844 116.526 212.727 124.35C219.597 132.161 223.5 142.388 223.5 156.289C223.5 173.184 216.609 186.731 203.876 196.071C191.125 205.424 172.473 210.587 148.925 210.587Z" stroke="white" stroke-opacity="0.5"/>
<path d="M260 211.087H0L130 80.4868L260 211.087Z" fill="white"/>
<path d="M129.188 148.494L129.301 148.327L130.528 150.833L131.755 148.327L131.868 148.494C133.372 151.558 138 150.442 138 147.046L138 146.935L138 130.837L132.981 140.807L130.476 135.802L132.906 130.833L130.472 130.833L127.984 130.833L130.47 135.8L127.963 140.807L123 130.837L123 146.935L123 147.046C123 150.442 127.628 151.558 129.188 148.494Z" fill="#F65275"/>
<path d="M111.38 171.833H115.7V178.833H114.83V172.653H112.18L111.85 176.623C111.724 178.103 111.02 178.843 109.74 178.843H109.45V177.973H109.73C110.464 177.973 110.87 177.533 110.95 176.653L111.38 171.833ZM122.933 177.923C122.24 178.609 121.363 178.953 120.303 178.953C119.25 178.953 118.376 178.609 117.683 177.923C116.99 177.236 116.643 176.376 116.643 175.343C116.643 174.303 116.99 173.439 117.683 172.753C118.376 172.059 119.25 171.713 120.303 171.713C121.363 171.713 122.24 172.056 122.933 172.743C123.626 173.429 123.973 174.293 123.973 175.333C123.973 176.373 123.626 177.236 122.933 177.923ZM118.323 177.303C118.85 177.829 119.51 178.093 120.303 178.093C121.103 178.093 121.763 177.833 122.283 177.313C122.81 176.786 123.073 176.126 123.073 175.333C123.073 174.539 122.81 173.883 122.283 173.363C121.763 172.836 121.103 172.573 120.303 172.573C119.51 172.573 118.85 172.836 118.323 173.363C117.803 173.889 117.543 174.546 117.543 175.333C117.543 176.119 117.803 176.776 118.323 177.303ZM129.184 178.833L126.724 175.623H125.784V178.833H124.914V171.833H125.784V174.803H126.714L128.954 171.833H130.074L127.514 175.203L130.304 178.833H129.184ZM135.652 178.833L134.952 177.153H131.592L130.902 178.833H129.972L132.832 171.833H133.652L136.602 178.833H135.652ZM133.262 173.043L131.922 176.353H134.622L133.262 173.043ZM142.274 178.013H142.994V180.263H142.174V178.833H137.234V171.833H138.104V178.013H141.394V171.833H142.274V178.013ZM143.893 178.833V171.833H144.763V178.833H143.893ZM148.066 171.833H150.756V178.833H149.876V176.113H148.326L146.706 178.833H145.676L147.386 176.003C147.059 175.916 146.772 175.776 146.526 175.583C146.286 175.389 146.099 175.156 145.966 174.883C145.832 174.603 145.766 174.299 145.766 173.973C145.766 173.359 145.982 172.849 146.416 172.443C146.856 172.036 147.406 171.833 148.066 171.833ZM148.096 175.293H149.876V172.663H148.096C147.822 172.663 147.576 172.719 147.356 172.833C147.136 172.939 146.962 173.093 146.836 173.293C146.716 173.493 146.656 173.719 146.656 173.973C146.656 174.226 146.716 174.453 146.836 174.653C146.962 174.853 147.136 175.009 147.356 175.123C147.576 175.236 147.822 175.293 148.096 175.293Z" fill="#555568"/>
</svg>
