<svg width="12" height="15" viewBox="0 0 12 15" fill="none" xmlns="http://www.w3.org/2000/svg">
<path d="M3.93214 0.000510092C3.86566 0.00804141 3.80285 0.034748 3.75145 0.0773386C3.70004 0.119929 3.6623 0.176543 3.64286 0.240202L3.2625 1.46529H0.342857C0.251929 1.4653 0.164727 1.50122 0.100431 1.56515C0.0361344 1.62908 9.07331e-06 1.71578 0 1.80619V3.83558C9.07331e-06 3.92599 0.0361344 4.01269 0.100431 4.07662C0.164727 4.14055 0.251929 4.17646 0.342857 4.17647H11.6571C11.7481 4.17646 11.8353 4.14055 11.8996 4.07662C11.9639 4.01269 12 3.92599 12 3.83558V1.80619C12 1.71578 11.9639 1.62908 11.8996 1.56515C11.8353 1.50122 11.7481 1.4653 11.6571 1.46529H8.7375L8.35714 0.240202C8.33545 0.170851 8.29206 0.110199 8.23327 0.0670847C8.17449 0.02397 8.1034 0.000645565 8.03036 0.000510092H3.96964C3.95715 -0.000170031 3.94463 -0.000170031 3.93214 0.000510092ZM4.22143 0.6823H7.77857L8.01964 1.46529H3.98036L4.22143 0.6823ZM0.685714 2.14708H11.3143V3.49468H0.685714V2.14708ZM10.95 4.58661C10.8619 4.59073 10.7788 4.62846 10.7179 4.69195C10.657 4.75543 10.6231 4.8398 10.6232 4.92751L9.79821 14.3181H2.20179L1.37679 4.92751C1.37132 4.84084 1.3328 4.75952 1.26908 4.70013C1.20537 4.64074 1.12126 4.60776 1.03393 4.60792C0.986021 4.60838 0.938742 4.61882 0.895141 4.63857C0.85154 4.65831 0.812584 4.68692 0.780786 4.72255C0.748987 4.75819 0.725052 4.80005 0.710522 4.84544C0.695993 4.89083 0.691191 4.93875 0.696429 4.9861L1.62857 14.9999H1.71429C1.8 14.9999 1.79924 15.0001 1.88571 14.9999H10.1143C10.1143 14.9999 10.2857 14.9999 10.3714 14.9999L11.3036 4.9861C11.3125 4.93578 11.3098 4.88412 11.2959 4.83494C11.282 4.78575 11.2572 4.7403 11.2233 4.70195C11.1893 4.6636 11.1471 4.63332 11.0998 4.61336C11.0525 4.59339 11.0013 4.58425 10.95 4.58661ZM5.9625 5.72115C5.87822 5.73038 5.80036 5.77033 5.74397 5.83329C5.68757 5.89625 5.65664 5.97774 5.65714 6.06205V12.1502C5.6565 12.1954 5.6649 12.2402 5.68184 12.2822C5.69878 12.3241 5.72393 12.3622 5.75583 12.3944C5.78773 12.4266 5.82575 12.4521 5.86766 12.4696C5.90958 12.487 5.95456 12.496 6 12.496C6.04544 12.496 6.09042 12.487 6.13234 12.4696C6.17425 12.4521 6.21227 12.4266 6.24417 12.3944C6.27607 12.3622 6.30122 12.3241 6.31816 12.2822C6.3351 12.2402 6.3435 12.1954 6.34286 12.1502V6.06205C6.34314 6.01397 6.33319 5.96637 6.31367 5.92238C6.29414 5.87839 6.26547 5.839 6.22955 5.80681C6.19363 5.77461 6.15127 5.75034 6.10524 5.73558C6.05922 5.72081 6.01057 5.7159 5.9625 5.72115ZM3.17143 6.05672C3.08125 6.06741 2.99901 6.11322 2.94277 6.18413C2.88652 6.25503 2.86087 6.34522 2.87143 6.4349L3.42857 11.8466C3.43314 11.8914 3.44654 11.9348 3.468 11.9744C3.48945 12.0141 3.51854 12.0491 3.55361 12.0775C3.58869 12.106 3.62905 12.1273 3.67239 12.1402C3.71574 12.1531 3.76123 12.1574 3.80625 12.1529C3.85127 12.1483 3.89496 12.135 3.93481 12.1137C3.97465 12.0924 4.00988 12.0634 4.03849 12.0286C4.06709 11.9937 4.08851 11.9536 4.10151 11.9105C4.11452 11.8674 4.11886 11.8221 4.11429 11.7774L3.55714 6.36566C3.55318 6.31982 3.53993 6.27524 3.51819 6.23463C3.49644 6.19401 3.46665 6.15819 3.43061 6.12932C3.39458 6.10046 3.35303 6.07914 3.30849 6.06667C3.26395 6.05419 3.21732 6.05081 3.17143 6.05672ZM8.74821 6.05672C8.6692 6.06506 8.59555 6.10043 8.53985 6.15678C8.48415 6.21313 8.44987 6.28696 8.44286 6.36566L7.88571 11.7774C7.88114 11.8221 7.88548 11.8674 7.89849 11.9105C7.91149 11.9536 7.93291 11.9937 7.96151 12.0286C7.99012 12.0634 8.02535 12.0924 8.0652 12.1137C8.10504 12.135 8.14873 12.1483 8.19375 12.1529C8.23878 12.1574 8.28426 12.1531 8.32761 12.1402C8.37095 12.1273 8.41131 12.106 8.44639 12.0775C8.48146 12.0491 8.51055 12.0141 8.53201 11.9744C8.55346 11.9348 8.56686 11.8914 8.57143 11.8466L9.12857 6.4349C9.13458 6.3838 9.12887 6.33201 9.11188 6.2834C9.09488 6.23481 9.06705 6.19066 9.03046 6.15428C8.99387 6.11789 8.94947 6.09022 8.90059 6.07332C8.85171 6.05643 8.79961 6.05075 8.74821 6.05672Z"/>
</svg>
