<svg width="70" height="70" viewBox="0 0 70 70" fill="none" xmlns="http://www.w3.org/2000/svg">
<circle cx="35" cy="35" r="35" fill="white" fill-opacity="0.95"/>
<path fill-rule="evenodd" clip-rule="evenodd" d="M23.7037 36.5569C24.2884 41.6575 28.5108 45.738 33.7077 46.3118C40.5285 47.0131 46.375 41.785 46.375 35.1542C46.375 30.1811 43.062 26.0369 38.5148 24.5704C37.7352 24.3154 37.0207 23.8691 36.436 23.1678C36.1158 22.8086 35.7956 22.3545 35.4527 21.7834C35.3086 21.5434 35.1606 21.2829 35.0069 21C34.8622 21.284 34.7176 21.5458 34.5736 21.7869C34.0712 22.6285 33.5775 23.2176 33.123 23.6141C32.6683 24.0604 32.0187 24.3792 31.3691 24.5704C26.497 26.2281 23.0541 31.0737 23.7037 36.5569ZM31.5963 25.3042C27.0399 26.8616 23.8545 31.3828 24.4566 36.4652L24.457 36.4681C24.9981 41.1892 28.9208 45.0085 33.787 45.5471C40.186 46.2034 45.6167 41.3026 45.6167 35.1542C45.6167 30.5463 42.5469 26.6776 38.2849 25.3032L38.2819 25.3022C37.3836 25.0083 36.5478 24.4891 35.865 23.6739C35.5776 23.3502 35.2978 22.9677 35.0139 22.5216C34.5525 23.2393 34.0875 23.7837 33.634 24.1826C33.0665 24.7323 32.3055 25.0934 31.5963 25.3042ZM23.7039 36.5569L23.7037 36.5569L23.7039 36.5569Z" fill="#F65275"/>
<path d="M34.3594 12.25V15.75H33.455V12.9448H31.5367V15.75H30.625V12.25H34.3594Z" fill="#555568"/>
<path d="M35.5896 12.25H36.5013V13.6723H38.4633V12.25H39.375V15.75H38.4633V14.367H36.5013V15.75H35.5896V12.25Z" fill="#555568"/>
<path d="M34.5653 53.375V57.6683H33.611V54.2272H31.587V57.6683H30.625V53.375H34.5653Z" fill="#555568"/>
<path d="M40.25 56.816V58.625H39.3496V57.6683H36.1789V58.625H35.2861V56.816H35.4785C35.7402 56.8053 35.9172 56.6311 36.0096 56.2935C36.107 55.9504 36.1712 55.468 36.2019 54.8463L36.2558 53.375H39.642V56.816H40.25ZM37.0793 54.9186C37.0588 55.4118 37.0203 55.8137 36.9638 56.1246C36.9074 56.4355 36.8048 56.666 36.656 56.816H38.68V54.2272H37.1024L37.0793 54.9186Z" fill="#555568"/>
<path d="M13.546 35.3462C13.8139 35.4203 14.0202 35.542 14.1649 35.7114C14.3149 35.8755 14.3899 36.074 14.3899 36.3069C14.3899 36.5663 14.3015 36.7966 14.1247 36.9977C13.9479 37.1936 13.7041 37.3471 13.3933 37.4583C13.0826 37.5694 12.7289 37.625 12.3324 37.625C12.0002 37.625 11.6761 37.5879 11.36 37.5138C11.0438 37.4344 10.7572 37.3233 10.5 37.1804L10.7893 36.4419C10.9983 36.5584 11.234 36.6484 11.4966 36.7119C11.7591 36.7754 12.0217 36.8072 12.2842 36.8072C12.6218 36.8072 12.8843 36.7569 13.0718 36.6563C13.2647 36.5504 13.3612 36.4075 13.3612 36.2275C13.3612 36.0634 13.2862 35.9364 13.1361 35.8464C12.9915 35.7564 12.7852 35.7114 12.5173 35.7114H11.6814V35.0445H12.4369C12.6888 35.0445 12.8843 35.0021 13.0236 34.9174C13.1683 34.8327 13.2406 34.7136 13.2406 34.5601C13.2406 34.4066 13.1549 34.2849 12.9834 34.1949C12.812 34.1049 12.5762 34.0599 12.2762 34.0599C11.8475 34.0599 11.3948 34.1631 10.9179 34.3696L10.6607 33.6391C11.2233 33.3797 11.7913 33.25 12.3646 33.25C12.7289 33.25 13.0558 33.3003 13.3451 33.4009C13.6344 33.4961 13.8595 33.6338 14.0202 33.8137C14.1863 33.9884 14.2694 34.1896 14.2694 34.4172C14.2694 34.6236 14.2051 34.8089 14.0765 34.973C13.9479 35.1318 13.7711 35.2562 13.546 35.3462Z" fill="#555568"/>
<path d="M18.1168 37.5535L17.0157 36.0846L15.9066 37.5535H14.7975L16.4692 35.4018L14.8698 33.3135H15.987L17.0398 34.703L18.0927 33.3135H19.1777L17.5703 35.3859L19.25 37.5535H18.1168Z" fill="#555568"/>
<path d="M53.0755 37.625C52.6302 37.625 52.2306 37.5317 51.8765 37.3451C51.5225 37.1584 51.2462 36.8998 51.0477 36.5692C50.8492 36.2333 50.75 35.8547 50.75 35.4335C50.75 35.0123 50.8492 34.6363 51.0477 34.3058C51.2462 33.9752 51.5198 33.7166 51.8685 33.5299C52.2225 33.3433 52.6249 33.25 53.0755 33.25C53.4993 33.25 53.8694 33.3353 54.1859 33.5059C54.5078 33.6766 54.7492 33.9218 54.9101 34.2418L54.1376 34.6897C54.0143 34.4924 53.8587 34.3457 53.6709 34.2498C53.4886 34.1485 53.2874 34.0978 53.0674 34.0978C52.6919 34.0978 52.3808 34.2204 52.134 34.4657C51.8873 34.7057 51.7639 35.0283 51.7639 35.4335C51.7639 35.8387 51.8846 36.164 52.126 36.4093C52.3727 36.6492 52.6866 36.7692 53.0674 36.7692C53.2874 36.7692 53.4886 36.7212 53.6709 36.6252C53.8587 36.5239 54.0143 36.3746 54.1376 36.1773L54.9101 36.6252C54.7438 36.9452 54.4997 37.1931 54.1779 37.3691C53.8614 37.5397 53.4939 37.625 53.0755 37.625Z" fill="#555568"/>
<path d="M58.3654 37.569L57.263 36.0894L56.1526 37.569H55.0421L56.7159 35.4015L55.1146 33.298H56.2331L57.2872 34.6977L58.3413 33.298H59.4276L57.8182 35.3855L59.5 37.569H58.3654Z" fill="#555568"/>
</svg>
