<svg width="152" height="1221" viewBox="0 0 152 1221" fill="none" xmlns="http://www.w3.org/2000/svg">
<rect width="152" height="244" fill="#EFEFEF"/>
<rect y="244" width="152" height="977" fill="#E6E6E6"/>
<g clip-path="url(#clip0)">
<path d="M95.4874 351C95.4112 351 95.3351 351 95.259 350.925L76 344.605L56.741 350.925C56.4365 351 56.132 350.925 55.9037 350.699C55.6753 350.473 55.5992 350.172 55.6753 349.871L60.9277 334.298L45.0943 339.489C44.7898 339.564 44.4853 339.489 44.2569 339.263C44.0285 339.038 43.9524 338.737 44.0285 338.436L50.4228 319.476L44.0285 300.517C43.9524 300.216 44.0285 299.915 44.2569 299.69C44.4853 299.464 44.7898 299.389 45.0943 299.464L60.9277 304.655L55.6753 289.082C55.5992 288.781 55.6753 288.48 55.9037 288.254C56.132 288.028 56.4365 287.953 56.741 288.028L76 294.348L95.259 288.028C95.5635 287.953 95.868 288.028 96.0963 288.254C96.3247 288.48 96.4008 288.781 96.3247 289.082L91.0723 304.655L106.906 299.464C107.21 299.389 107.515 299.464 107.743 299.69C107.971 299.915 108.048 300.216 107.971 300.517L101.577 319.476L107.895 338.511C107.971 338.812 107.895 339.113 107.667 339.339C107.439 339.564 107.134 339.64 106.83 339.564L90.9961 334.373L96.2486 349.947C96.3247 350.248 96.2486 350.549 96.0202 350.774C95.9441 350.925 95.7157 351 95.4874 351ZM78.512 343.777L94.2694 348.969L91.1484 339.639L78.512 343.777ZM60.8516 339.639L57.7306 348.969L73.4879 343.777L60.8516 339.639ZM61.3845 338.135L76 342.95L90.6155 338.135L89.0931 333.696L76 329.408L62.9069 333.696L61.3845 338.135ZM51.3363 322.034L46.0838 337.533L55.5231 334.448L51.3363 322.034ZM96.4008 334.448L105.84 337.533L100.588 322.034L96.4008 334.448ZM52.2498 319.552L57.1216 333.922L61.6129 332.417L65.9518 319.476L61.6129 306.536L57.1216 305.031L52.2498 319.552ZM90.3872 332.492L94.8784 333.997L99.7502 319.627L94.8784 305.257L90.3872 306.762L86.0482 319.702L90.3872 332.492ZM78.512 328.58L88.4841 331.815L85.1347 322.034L84.678 323.389C84.6018 323.614 84.3735 323.84 84.069 323.915C83.7645 323.991 83.5361 323.915 83.3078 323.69L80.2629 320.68L78.6643 322.26L77.0657 323.84L80.1106 326.85C80.339 327.075 80.4151 327.301 80.339 327.602C80.2628 327.903 80.1106 328.053 79.8061 328.204L78.512 328.58ZM66.7892 322.034L63.4398 331.815L73.4118 328.58L72.0416 328.129C71.8133 328.053 71.5849 327.828 71.5088 327.527C71.4327 327.226 71.5088 327 71.7371 326.774L74.782 323.765L71.5849 320.605L68.54 323.614C68.3116 323.84 68.0832 323.915 67.7788 323.84C67.4743 323.765 67.322 323.614 67.1698 323.313L66.7892 322.034ZM73.8686 327L76 327.677L78.1314 327L76 324.893L73.8686 327ZM72.8028 319.552L74.4014 321.132L76 322.712L79.1971 319.552L76 316.392L74.4014 317.972L72.8028 319.552ZM67.6265 319.552L68.3116 321.658L70.443 319.552L68.3116 317.445L67.6265 319.552ZM81.4808 319.552L83.6123 321.658L84.2974 319.552L83.6123 317.445L81.4808 319.552ZM68.0071 315.188C68.2355 315.188 68.3877 315.263 68.54 315.414L71.5849 318.423L74.782 315.263L71.7371 312.254C71.5088 312.028 71.4327 311.803 71.5088 311.502C71.5849 311.201 71.7371 311.05 72.0416 310.9L73.4118 310.448L63.4398 307.213L66.7892 316.994L67.2459 315.639C67.322 315.414 67.5504 315.188 67.8549 315.113C67.931 315.188 67.931 315.188 68.0071 315.188ZM78.7404 316.843L80.339 318.423L83.3839 315.414C83.6122 315.188 83.8406 315.113 84.1451 315.188C84.4496 315.263 84.6018 315.414 84.7541 315.715L85.2108 317.069L88.5602 307.288L78.5882 310.524L79.9584 310.975C80.1867 311.05 80.4151 311.276 80.4912 311.577C80.5673 311.878 80.4912 312.103 80.2629 312.329L77.218 315.339L78.7404 316.843ZM46.16 301.571L51.4124 317.069L55.5992 304.655L46.16 301.571ZM96.4008 304.655L100.588 317.069L105.84 301.571L96.4008 304.655ZM73.8686 312.028L76 314.135L78.1314 312.028L76 311.351L73.8686 312.028ZM62.8308 305.408L75.9239 309.696L89.017 305.408L90.5394 300.969L75.9239 296.154L61.3083 300.969L62.8308 305.408ZM78.512 295.326L91.0723 299.464L94.1933 290.135L78.512 295.326ZM57.7306 290.135L60.8516 299.464L73.4118 295.326L57.7306 290.135Z" fill="white"/>
<path d="M94.8057 402.32C94.8815 403.015 94.9573 403.711 95.109 404.329C96.0948 408.735 99.5829 413.836 106.408 414.3C106.028 407.344 101.024 403.634 96.7014 402.629C96.0948 402.474 95.4123 402.397 94.8057 402.32ZM57.1943 402.629C56.5877 402.706 56.0569 402.784 55.4502 402.938C51.128 403.866 46.1232 407.498 45.6682 414.3C52.4171 413.836 55.9052 408.735 56.891 404.329C57.0427 403.788 57.1185 403.247 57.1943 402.629ZM58.8626 400.929C63.7915 401.006 68.1137 403.634 70.6919 408.194L75.3934 399.074C75.6967 398.533 76.5308 398.533 76.8341 399.074L81.3839 407.962C83.9621 403.402 88.2844 400.774 93.2133 400.697C93.4408 395.828 95.9431 391.499 100.341 389.026L91.3934 384.234C91.1659 384.08 90.9384 383.848 90.9384 383.539C90.9384 383.229 91.09 382.998 91.3934 382.843L100.114 378.206C95.7156 375.655 93.1374 371.327 92.9858 366.458C88.2085 366.303 83.9621 363.675 81.4597 359.193L76.91 368.081C76.6066 368.622 75.7725 368.622 75.4692 368.081L70.7678 358.961C68.2654 363.366 64.019 365.994 59.2417 366.226C59.1659 371.25 56.5877 375.655 52.0379 378.206L60.6825 382.688C60.91 382.843 61.1374 383.075 61.1374 383.384C61.1374 383.693 60.9858 383.925 60.6825 384.08L51.7346 388.872C56.1327 391.499 58.7109 395.982 58.8626 400.929ZM107.166 416C100.341 415.845 95.0332 411.44 93.5166 404.716C93.3649 403.943 93.2133 403.093 93.1374 402.32C89.1943 402.397 84.872 404.329 82.2938 409.43L81.9905 410.049C81.9147 410.281 81.6114 410.512 81.3081 410.512C81.0047 410.512 80.7014 410.358 80.6256 410.049L76.0758 401.161L71.3744 410.281C71.2227 410.512 70.9953 410.744 70.6919 410.744C70.3886 410.744 70.0853 410.59 70.0095 410.281L69.7062 409.662C67.128 404.561 62.8057 402.706 58.8626 402.552C58.7867 403.247 58.7109 403.943 58.5592 404.639C57.0427 411.363 51.7346 415.845 44.91 415.923C44.6825 415.923 44.455 415.845 44.3033 415.691C44.1517 415.536 44 415.382 44 415.15C44.1517 408.271 48.4739 402.861 55.0711 401.315C55.7536 401.161 56.5118 401.006 57.1943 401.006C57.1185 397.064 55.2227 392.581 50.218 390.031L49.6114 389.644C49.3081 389.49 49.1564 389.258 49.1564 388.949C49.1564 388.64 49.3081 388.331 49.6114 388.253L58.5592 383.461L49.8389 378.824C49.6114 378.669 49.3839 378.438 49.3839 378.128C49.3839 377.819 49.5355 377.51 49.8389 377.433L50.4455 377.124C55.5261 374.573 57.346 370.09 57.4976 366.149C56.7393 366.071 55.9052 365.994 55.0711 365.762C48.4739 364.139 44.1517 358.729 44 351.85C44 351.618 44.0758 351.386 44.2275 351.232C44.3791 351.077 44.6066 351 44.7583 351C51.6588 351 57.1185 355.405 58.6351 362.207C58.7867 362.98 58.9384 363.675 59.0142 364.448C62.8815 364.294 67.0521 362.361 69.5545 357.338L69.8578 356.719C70.0095 356.41 70.237 356.256 70.5403 356.256C70.8436 356.256 71.0711 356.41 71.2227 356.719L75.9242 365.839L80.4739 356.951C80.6256 356.719 80.9289 356.565 81.1564 356.488C81.4597 356.488 81.763 356.642 81.8389 356.951L82.1422 357.57C84.6445 362.593 88.8152 364.526 92.6825 364.68C92.7583 363.83 92.8341 363.057 93.0616 362.207C94.8815 355.405 100.341 351 107.166 351C107.621 351 107.924 351.386 107.924 351.773C107.924 358.729 103.602 364.294 96.9289 365.917C96.0948 366.149 95.2607 366.226 94.4265 366.303C94.5782 370.245 96.4739 374.496 101.403 377.046L102.009 377.356C102.313 377.51 102.464 377.742 102.464 378.051C102.464 378.36 102.313 378.669 102.009 378.747L93.2891 383.384L102.389 388.253C102.616 388.408 102.844 388.64 102.844 388.949C102.844 389.258 102.692 389.567 102.389 389.644L101.782 389.954C96.8531 392.504 94.9573 396.755 94.8057 400.697C95.564 400.774 96.2464 400.851 97.0047 401.083C103.678 402.706 108 408.194 108 415.15C108 415.382 107.924 415.614 107.773 415.691C107.621 415.923 107.393 416 107.166 416ZM106.408 352.623C99.5071 353.01 95.8673 358.188 94.8057 362.593C94.654 363.289 94.5782 363.985 94.5024 364.68C95.2607 364.603 95.9431 364.526 96.6256 364.371C100.948 363.289 106.028 359.579 106.408 352.623ZM45.5924 352.623C46.1232 359.502 51.128 363.057 55.4502 364.062C56.0569 364.216 56.7393 364.294 57.4218 364.371C57.346 363.753 57.2701 363.134 57.1185 362.516C56.1327 358.188 52.4929 353.01 45.5924 352.623Z" fill="white"/>
<path d="M83.7817 480C83.3262 480 83.0225 479.62 83.0225 479.239C83.0225 478.859 83.4021 478.478 83.7817 478.478C90.4626 478.478 94.3345 474.216 95.777 470.031C89.7794 470.944 84.1613 468.281 81.2005 462.878L76.7212 471.857C76.4176 472.39 75.5824 472.39 75.2788 471.857L70.7995 462.878C67.8387 468.281 62.2206 470.944 56.223 470.031C57.6655 474.216 61.5374 478.478 68.2183 478.478C68.6738 478.478 68.9775 478.859 68.9775 479.239C68.9775 479.62 68.5979 480 68.2183 480C61.5374 480 56.223 475.967 54.401 469.574C48.0237 467.824 44 462.497 44 455.8C44 455.344 44.3796 455.039 44.7592 455.039C45.1388 455.039 45.5184 455.42 45.5184 455.8C45.5184 462.497 49.8458 466.302 53.9454 467.748C53.0344 461.736 55.6916 456.181 61.0819 453.213L52.1993 448.723C51.8956 448.571 51.7438 448.342 51.7438 448.038C51.7438 447.734 51.8956 447.429 52.1993 447.353L61.1578 442.863C55.7675 439.895 53.0344 434.34 54.0214 428.328C49.8458 429.774 45.5943 433.579 45.5943 440.276C45.5943 440.732 45.2147 441.037 44.8351 441.037C44.4555 441.037 44.0759 440.656 44.0759 440.276C44.0759 433.579 48.1756 428.252 54.4769 426.502C56.1471 420.033 61.5374 416 68.2183 416C68.6738 416 68.9775 416.38 68.9775 416.761C68.9775 417.141 68.5979 417.522 68.2183 417.522C61.5374 417.522 57.6655 421.784 56.223 425.969C62.2206 425.056 67.8387 427.719 70.7995 433.122L75.2788 424.143C75.5824 423.61 76.4176 423.61 76.7212 424.143L81.2005 433.122C84.1613 427.719 89.7794 425.056 95.777 425.969C94.3345 421.784 90.4626 417.522 83.7817 417.522C83.3262 417.522 83.0225 417.141 83.0225 416.761C83.0225 416.38 83.4021 416 83.7817 416C90.4626 416 95.777 420.033 97.5991 426.426C103.976 428.176 108 433.503 108 440.2C108 440.656 107.62 440.961 107.241 440.961C106.861 440.961 106.482 440.58 106.482 440.2C106.482 433.503 102.154 429.698 98.0546 428.252C98.9656 434.264 96.3084 439.819 90.9181 442.787L99.8766 447.277C100.18 447.429 100.332 447.658 100.332 447.962C100.332 448.266 100.18 448.571 99.8766 448.647L90.9181 453.137C96.3084 456.105 99.0415 461.66 98.0546 467.672C102.23 466.226 106.482 462.421 106.482 455.724C106.482 455.268 106.861 454.963 107.241 454.963C107.62 454.963 108 455.344 108 455.724C108 462.421 103.9 467.748 97.5991 469.498C95.8529 475.891 90.4626 480 83.7817 480ZM70.7995 460.214C71.1032 460.214 71.4069 460.366 71.4828 460.671L75.962 469.65L80.4413 460.671C80.5931 460.366 80.8209 460.214 81.1246 460.214C81.4282 460.214 81.7319 460.366 81.8078 460.671L82.1874 461.508C85.452 467.976 91.6014 469.194 96.1566 468.281C97.0676 463.791 95.8529 457.551 89.3998 454.354L88.5647 453.974C88.261 453.822 88.1091 453.593 88.1091 453.289C88.1091 452.985 88.261 452.68 88.5647 452.604L97.5231 448.114L88.7165 443.548C88.4128 443.396 88.261 443.168 88.261 442.863C88.261 442.559 88.4128 442.254 88.7165 442.178L89.5516 441.798C96.0048 438.526 97.2195 432.361 96.3084 427.872C91.8292 426.958 85.6038 428.176 82.3393 434.644L81.9597 435.482C81.656 436.014 80.8209 436.014 80.5172 435.482L76.038 426.502L71.5587 435.482C71.4069 435.786 71.1791 435.938 70.8754 435.938C70.5718 435.938 70.2681 435.786 70.1922 435.482L69.8126 434.644C66.548 428.176 60.3986 426.958 55.8434 427.872C54.9324 432.361 56.1471 438.602 62.6002 441.798L63.4354 442.178C63.739 442.331 63.8909 442.559 63.8909 442.863C63.8909 443.168 63.739 443.472 63.4354 443.548L54.325 447.962L63.2835 452.452C63.5872 452.604 63.739 452.832 63.739 453.137C63.739 453.441 63.5872 453.746 63.2835 453.822L62.4484 454.202C55.9953 457.474 54.7805 463.639 55.6916 468.128C60.1708 469.042 66.3962 467.824 69.6607 461.356L70.0403 460.518C70.1922 460.366 70.4958 460.214 70.7995 460.214Z" fill="white"/>
<path d="M57.4294 544C57.3537 544 57.2779 544 57.2779 544C56.8989 543.924 56.6715 543.62 56.6715 543.239V542.707C56.6715 542.326 56.8989 542.022 57.2021 541.946L68.2673 519.807L45.7579 531.143C45.3789 531.371 44.9242 531.143 44.6968 530.763C44.4694 530.382 44.621 529.926 45.0757 529.697L68.04 518.058L57.2779 512.884L45.2273 518.895C45 519.047 44.6968 518.971 44.4694 518.895C44.2421 518.742 44.0905 518.514 44.0905 518.21V505.809C44.0905 505.505 44.2421 505.277 44.4694 505.125C44.6968 504.972 45 504.972 45.2273 505.125L57.2779 511.135L68.1158 505.885L44.4694 494.093C44.1663 493.941 43.9389 493.561 44.0147 493.18C44.0905 492.8 44.3936 492.572 44.7726 492.572H45.3031C45.6821 492.572 45.9852 492.8 46.061 493.104L68.4189 504.288L57.3537 482.073C57.0505 481.997 56.8231 481.693 56.8231 481.312V480.78C56.8231 480.399 57.0505 480.095 57.4294 480.019C57.8084 479.943 58.1873 480.095 58.3389 480.475L70.1621 504.136L75.3916 493.256L69.4042 481.236C69.2526 481.008 69.3284 480.704 69.4042 480.475C69.48 480.247 69.7831 480.095 70.0863 480.095H82.5158C82.8189 480.095 83.0463 480.247 83.1979 480.475C83.3495 480.704 83.3495 481.008 83.1979 481.236L77.2105 493.256L82.3642 504.059L93.96 481.008C94.1874 480.628 94.6421 480.475 95.0211 480.628C95.4 480.856 95.5516 481.312 95.4 481.693L83.9558 504.364L105.935 493.409C106.011 493.104 106.314 492.876 106.693 492.876H107.223C107.602 492.876 107.905 493.104 107.981 493.485C108.057 493.865 107.905 494.245 107.526 494.398L83.88 506.19L94.7179 511.439L106.768 505.429C106.996 505.277 107.299 505.353 107.526 505.429C107.754 505.581 107.905 505.809 107.905 506.114V518.514C107.905 518.818 107.754 519.047 107.526 519.199C107.299 519.351 106.996 519.351 106.768 519.199L94.7179 513.189L83.9558 518.362L106.996 530.002C107.375 530.23 107.526 530.686 107.375 531.067C107.147 531.447 106.693 531.599 106.314 531.447L83.8042 520.112L95.1726 542.402C95.4 542.783 95.2484 543.239 94.7937 543.467C94.4147 543.696 93.96 543.544 93.7326 543.087L82.1368 520.036L76.9831 530.839L82.9705 542.859C83.1221 543.087 83.0463 543.391 82.9705 543.62C82.8189 543.848 82.5916 544 82.2884 544H69.8589C69.5558 544 69.3284 543.848 69.1768 543.62C69.0252 543.391 69.0252 543.087 69.1768 542.859L75.1642 530.839L69.9347 519.96L58.1115 543.62C57.96 543.848 57.7326 544 57.4294 544ZM71.1473 542.402H81L76.0737 532.512L71.1473 542.402ZM70.2379 517.373C70.3895 517.449 70.541 517.601 70.6926 517.753L76.0737 529.013L81.3789 517.905C81.5305 517.601 81.7579 517.449 82.061 517.449C82.1368 517.449 82.1368 517.449 82.2126 517.449L92.9747 512.276L81.7579 506.874C81.4547 506.722 81.3032 506.494 81.3032 506.19C81.3032 506.037 81.3031 505.961 81.3789 505.809L76.2252 495.082L70.8442 506.342C70.6926 506.646 70.4652 506.798 70.1621 506.798C70.1621 506.798 70.1621 506.798 70.0863 506.798L59.021 512.124L70.2379 517.373ZM96.6126 512.276L106.465 517.221V507.331L96.6126 512.276ZM45.6821 507.103V516.916L55.5347 511.971L45.6821 507.103ZM71.3747 481.617L76.301 491.431L81.2274 481.617H71.3747Z" fill="white"/>
<path d="M95.4874 608C95.4112 608 95.3351 608 95.259 607.924L76 601.504L56.741 607.924C56.4365 608 56.132 607.924 55.9037 607.694C55.6753 607.465 55.5992 607.159 55.6753 606.854L60.9277 591.033L45.0943 596.306C44.7898 596.383 44.4853 596.306 44.2569 596.077C44.0285 595.848 43.9524 595.542 44.0285 595.236L50.4228 575.976L44.0285 556.716C43.9524 556.41 44.0285 556.104 44.2569 555.875C44.4853 555.646 44.7898 555.569 45.0943 555.646L60.9277 560.92L55.6753 545.099C55.5992 544.793 55.6753 544.487 55.9037 544.258C56.132 544.029 56.4365 543.952 56.741 544.029L76 550.449L95.259 544.029C95.5635 543.952 95.868 544.029 96.0963 544.258C96.3247 544.487 96.4008 544.793 96.3247 545.099L91.0723 560.92L106.906 555.646C107.21 555.569 107.515 555.646 107.743 555.875C107.971 556.104 108.048 556.41 107.971 556.716L101.577 575.976L107.895 595.313C107.971 595.618 107.895 595.924 107.667 596.153C107.439 596.383 107.134 596.459 106.83 596.383L90.9961 591.109L96.2486 606.93C96.3247 607.236 96.2486 607.541 96.0202 607.771C95.9441 607.924 95.7157 608 95.4874 608ZM78.512 600.663L94.2694 605.936L91.1484 596.459L78.512 600.663ZM60.8516 596.459L57.7306 605.936L73.4879 600.663L60.8516 596.459ZM61.3845 594.931L76 599.822L90.6155 594.931L89.0931 590.421L76 586.065L62.9069 590.421L61.3845 594.931ZM51.3363 578.575L46.0838 594.319L55.5231 591.186L51.3363 578.575ZM96.4008 591.186L105.84 594.319L100.588 578.575L96.4008 591.186ZM52.2498 576.053L57.1216 590.651L61.6129 589.122L65.9518 575.976L61.6129 562.83L57.1216 561.302L52.2498 576.053ZM90.3872 589.198L94.8784 590.727L99.7502 576.129L94.8784 561.531L90.3872 563.06L86.0482 576.205L90.3872 589.198ZM78.512 585.224L88.4841 588.511L85.1347 578.575L84.678 579.95C84.6018 580.18 84.3735 580.409 84.069 580.485C83.7645 580.562 83.5361 580.485 83.3078 580.256L80.2629 577.199L78.6643 578.804L77.0657 580.409L80.1106 583.466C80.339 583.695 80.4151 583.925 80.339 584.23C80.2628 584.536 80.1106 584.689 79.8061 584.842L78.512 585.224ZM66.7892 578.575L63.4398 588.511L73.4118 585.224L72.0416 584.765C71.8133 584.689 71.5849 584.46 71.5088 584.154C71.4327 583.848 71.5088 583.619 71.7371 583.39L74.782 580.333L71.5849 577.123L68.54 580.18C68.3116 580.409 68.0832 580.485 67.7788 580.409C67.4743 580.333 67.322 580.18 67.1698 579.874L66.7892 578.575ZM73.8686 583.619L76 584.307L78.1314 583.619L76 581.479L73.8686 583.619ZM72.8028 576.053L74.4014 577.658L76 579.263L79.1971 576.053L76 572.843L74.4014 574.448L72.8028 576.053ZM67.6265 576.053L68.3116 578.193L70.443 576.053L68.3116 573.913L67.6265 576.053ZM81.4808 576.053L83.6123 578.193L84.2974 576.053L83.6123 573.913L81.4808 576.053ZM68.0071 571.62C68.2355 571.62 68.3877 571.696 68.54 571.849L71.5849 574.906L74.782 571.696L71.7371 568.639C71.5088 568.41 71.4327 568.18 71.5088 567.875C71.5849 567.569 71.7371 567.416 72.0416 567.263L73.4118 566.805L63.4398 563.518L66.7892 573.454L67.2459 572.078C67.322 571.849 67.5504 571.62 67.8549 571.543C67.931 571.62 67.931 571.62 68.0071 571.62ZM78.7404 573.301L80.339 574.906L83.3839 571.849C83.6122 571.62 83.8406 571.543 84.1451 571.62C84.4496 571.696 84.6018 571.849 84.7541 572.155L85.2108 573.53L88.5602 563.595L78.5882 566.881L79.9584 567.34C80.1867 567.416 80.4151 567.645 80.4912 567.951C80.5673 568.257 80.4912 568.486 80.2629 568.715L77.218 571.773L78.7404 573.301ZM46.16 557.786L51.4124 573.53L55.5992 560.92L46.16 557.786ZM96.4008 560.92L100.588 573.53L105.84 557.786L96.4008 560.92ZM73.8686 568.41L76 570.55L78.1314 568.41L76 567.722L73.8686 568.41ZM62.8308 561.684L75.9239 566.04L89.017 561.684L90.5394 557.175L75.9239 552.283L61.3083 557.175L62.8308 561.684ZM78.512 551.442L91.0723 555.646L94.1933 546.169L78.512 551.442ZM57.7306 546.169L60.8516 555.646L73.4118 551.442L57.7306 546.169Z" fill="white"/>
<path d="M94.8057 658.53C94.8815 659.215 94.9573 659.9 95.109 660.509C96.0948 664.847 99.5829 669.869 106.408 670.326C106.028 663.477 101.024 659.824 96.7014 658.835C96.0948 658.683 95.4123 658.606 94.8057 658.53ZM57.1943 658.835C56.5877 658.911 56.0569 658.987 55.4502 659.139C51.128 660.052 46.1232 663.629 45.6682 670.326C52.4171 669.869 55.9052 664.847 56.891 660.509C57.0427 659.976 57.1185 659.444 57.1943 658.835ZM58.8626 657.161C63.7915 657.237 68.1137 659.824 70.6919 664.314L75.3934 655.334C75.6967 654.801 76.5308 654.801 76.8341 655.334L81.3839 664.086C83.9621 659.596 88.2844 657.008 93.2133 656.932C93.4408 652.138 95.9431 647.876 100.341 645.441L91.3934 640.723C91.1659 640.571 90.9384 640.342 90.9384 640.038C90.9384 639.734 91.09 639.505 91.3934 639.353L100.114 634.787C95.7156 632.276 93.1374 628.014 92.9858 623.22C88.2085 623.068 83.9621 620.48 81.4597 616.067L76.91 624.818C76.6066 625.351 75.7725 625.351 75.4692 624.818L70.7678 615.838C68.2654 620.176 64.019 622.763 59.2417 622.992C59.1659 627.938 56.5877 632.276 52.0379 634.787L60.6825 639.201C60.91 639.353 61.1374 639.581 61.1374 639.886C61.1374 640.19 60.9858 640.419 60.6825 640.571L51.7346 645.289C56.1327 647.876 58.7109 652.29 58.8626 657.161ZM107.166 672C100.341 671.848 95.0332 667.51 93.5166 660.889C93.3649 660.128 93.2133 659.291 93.1374 658.53C89.1943 658.606 84.872 660.509 82.2938 665.532L81.9905 666.14C81.9147 666.369 81.6114 666.597 81.3081 666.597C81.0047 666.597 80.7014 666.445 80.6256 666.14L76.0758 657.389L71.3744 666.369C71.2227 666.597 70.9953 666.825 70.6919 666.825C70.3886 666.825 70.0853 666.673 70.0095 666.369L69.7062 665.76C67.128 660.737 62.8057 658.911 58.8626 658.759C58.7867 659.444 58.7109 660.128 58.5592 660.813C57.0427 667.434 51.7346 671.848 44.91 671.924C44.6825 671.924 44.455 671.848 44.3033 671.696C44.1517 671.543 44 671.391 44 671.163C44.1517 664.39 48.4739 659.063 55.0711 657.541C55.7536 657.389 56.5118 657.237 57.1943 657.237C57.1185 653.356 55.2227 648.942 50.218 646.43L49.6114 646.05C49.3081 645.898 49.1564 645.669 49.1564 645.365C49.1564 645.061 49.3081 644.756 49.6114 644.68L58.5592 639.962L49.8389 635.396C49.6114 635.244 49.3839 635.015 49.3839 634.711C49.3839 634.407 49.5355 634.102 49.8389 634.026L50.4455 633.722C55.5261 631.21 57.346 626.797 57.4976 622.916C56.7393 622.839 55.9052 622.763 55.0711 622.535C48.4739 620.937 44.1517 615.61 44 608.837C44 608.609 44.0758 608.38 44.2275 608.228C44.3791 608.076 44.6066 608 44.7583 608C51.6588 608 57.1185 612.338 58.6351 619.034C58.7867 619.795 58.9384 620.48 59.0142 621.241C62.8815 621.089 67.0521 619.187 69.5545 614.24L69.8578 613.631C70.0095 613.327 70.237 613.175 70.5403 613.175C70.8436 613.175 71.0711 613.327 71.2227 613.631L75.9242 622.611L80.4739 613.86C80.6256 613.631 80.9289 613.479 81.1564 613.403C81.4597 613.403 81.763 613.555 81.8389 613.86L82.1422 614.468C84.6445 619.415 88.8152 621.317 92.6825 621.47C92.7583 620.633 92.8341 619.872 93.0616 619.034C94.8815 612.338 100.341 608 107.166 608C107.621 608 107.924 608.38 107.924 608.761C107.924 615.61 103.602 621.089 96.9289 622.687C96.0948 622.916 95.2607 622.992 94.4265 623.068C94.5782 626.949 96.4739 631.134 101.403 633.646L102.009 633.95C102.313 634.102 102.464 634.331 102.464 634.635C102.464 634.939 102.313 635.244 102.009 635.32L93.2891 639.886L102.389 644.68C102.616 644.832 102.844 645.061 102.844 645.365C102.844 645.669 102.692 645.974 102.389 646.05L101.782 646.354C96.8531 648.866 94.9573 653.051 94.8057 656.932C95.564 657.008 96.2464 657.084 97.0047 657.313C103.678 658.911 108 664.314 108 671.163C108 671.391 107.924 671.62 107.773 671.696C107.621 671.924 107.393 672 107.166 672ZM106.408 609.598C99.5071 609.979 95.8673 615.077 94.8057 619.415C94.654 620.1 94.5782 620.785 94.5024 621.47C95.2607 621.394 95.9431 621.317 96.6256 621.165C100.948 620.1 106.028 616.447 106.408 609.598ZM45.5924 609.598C46.1232 616.371 51.128 619.872 55.4502 620.861C56.0569 621.013 56.7393 621.089 57.4218 621.165C57.346 620.556 57.2701 619.948 57.1185 619.339C56.1327 615.077 52.4929 609.979 45.5924 609.598Z" fill="white"/>
<path d="M83.7817 736C83.3262 736 83.0225 735.62 83.0225 735.239C83.0225 734.859 83.4021 734.478 83.7817 734.478C90.4626 734.478 94.3345 730.216 95.777 726.031C89.7794 726.944 84.1613 724.281 81.2005 718.878L76.7212 727.857C76.4176 728.39 75.5824 728.39 75.2788 727.857L70.7995 718.878C67.8387 724.281 62.2206 726.944 56.223 726.031C57.6655 730.216 61.5374 734.478 68.2183 734.478C68.6738 734.478 68.9775 734.859 68.9775 735.239C68.9775 735.62 68.5979 736 68.2183 736C61.5374 736 56.223 731.967 54.401 725.574C48.0237 723.824 44 718.497 44 711.8C44 711.344 44.3796 711.039 44.7592 711.039C45.1388 711.039 45.5184 711.42 45.5184 711.8C45.5184 718.497 49.8458 722.302 53.9454 723.748C53.0344 717.736 55.6916 712.181 61.0819 709.213L52.1993 704.723C51.8956 704.571 51.7438 704.342 51.7438 704.038C51.7438 703.734 51.8956 703.429 52.1993 703.353L61.1578 698.863C55.7675 695.895 53.0344 690.34 54.0214 684.328C49.8458 685.774 45.5943 689.579 45.5943 696.276C45.5943 696.732 45.2147 697.037 44.8351 697.037C44.4555 697.037 44.0759 696.656 44.0759 696.276C44.0759 689.579 48.1756 684.252 54.4769 682.502C56.1471 676.033 61.5374 672 68.2183 672C68.6738 672 68.9775 672.38 68.9775 672.761C68.9775 673.141 68.5979 673.522 68.2183 673.522C61.5374 673.522 57.6655 677.784 56.223 681.969C62.2206 681.056 67.8387 683.719 70.7995 689.122L75.2788 680.143C75.5824 679.61 76.4176 679.61 76.7212 680.143L81.2005 689.122C84.1613 683.719 89.7794 681.056 95.777 681.969C94.3345 677.784 90.4626 673.522 83.7817 673.522C83.3262 673.522 83.0225 673.141 83.0225 672.761C83.0225 672.38 83.4021 672 83.7817 672C90.4626 672 95.777 676.033 97.5991 682.426C103.976 684.176 108 689.503 108 696.2C108 696.656 107.62 696.961 107.241 696.961C106.861 696.961 106.482 696.58 106.482 696.2C106.482 689.503 102.154 685.698 98.0546 684.252C98.9656 690.264 96.3084 695.819 90.9181 698.787L99.8766 703.277C100.18 703.429 100.332 703.658 100.332 703.962C100.332 704.266 100.18 704.571 99.8766 704.647L90.9181 709.137C96.3084 712.105 99.0415 717.66 98.0546 723.672C102.23 722.226 106.482 718.421 106.482 711.724C106.482 711.268 106.861 710.963 107.241 710.963C107.62 710.963 108 711.344 108 711.724C108 718.421 103.9 723.748 97.5991 725.498C95.8529 731.891 90.4626 736 83.7817 736ZM70.7995 716.214C71.1032 716.214 71.4069 716.366 71.4828 716.671L75.962 725.65L80.4413 716.671C80.5931 716.366 80.8209 716.214 81.1246 716.214C81.4282 716.214 81.7319 716.366 81.8078 716.671L82.1874 717.508C85.452 723.976 91.6014 725.194 96.1566 724.281C97.0676 719.791 95.8529 713.551 89.3998 710.354L88.5647 709.974C88.261 709.822 88.1091 709.593 88.1091 709.289C88.1091 708.985 88.261 708.68 88.5647 708.604L97.5231 704.114L88.7165 699.548C88.4128 699.396 88.261 699.168 88.261 698.863C88.261 698.559 88.4128 698.254 88.7165 698.178L89.5516 697.798C96.0048 694.526 97.2195 688.361 96.3084 683.872C91.8292 682.958 85.6038 684.176 82.3393 690.644L81.9597 691.482C81.656 692.014 80.8209 692.014 80.5172 691.482L76.038 682.502L71.5587 691.482C71.4069 691.786 71.1791 691.938 70.8754 691.938C70.5718 691.938 70.2681 691.786 70.1922 691.482L69.8126 690.644C66.548 684.176 60.3986 682.958 55.8434 683.872C54.9324 688.361 56.1471 694.602 62.6002 697.798L63.4354 698.178C63.739 698.331 63.8909 698.559 63.8909 698.863C63.8909 699.168 63.739 699.472 63.4354 699.548L54.325 703.962L63.2835 708.452C63.5872 708.604 63.739 708.832 63.739 709.137C63.739 709.441 63.5872 709.746 63.2835 709.822L62.4484 710.202C55.9953 713.474 54.7805 719.639 55.6916 724.128C60.1708 725.042 66.3962 723.824 69.6607 717.356L70.0403 716.518C70.1922 716.366 70.4958 716.214 70.7995 716.214Z" fill="white"/>
<path d="M57.4294 801C57.3537 801 57.2779 801 57.2779 801C56.8989 800.923 56.6715 800.614 56.6715 800.227V799.686C56.6715 799.3 56.8989 798.991 57.2021 798.914L68.2673 776.429L45.7579 787.942C45.3789 788.174 44.9242 787.942 44.6968 787.556C44.4694 787.169 44.621 786.706 45.0757 786.474L68.04 774.652L57.2779 769.398L45.2273 775.502C45 775.657 44.6968 775.579 44.4694 775.502C44.2421 775.348 44.0905 775.116 44.0905 774.807V762.212C44.0905 761.903 44.2421 761.672 44.4694 761.517C44.6968 761.363 45 761.363 45.2273 761.517L57.2779 767.621L68.1158 762.29L44.4694 750.314C44.1663 750.159 43.9389 749.773 44.0147 749.386C44.0905 749 44.3936 748.768 44.7726 748.768H45.3031C45.6821 748.768 45.9852 749 46.061 749.309L68.4189 760.667L57.3537 738.105C57.0505 738.028 56.8231 737.719 56.8231 737.333V736.792C56.8231 736.406 57.0505 736.097 57.4294 736.019C57.8084 735.942 58.1873 736.097 58.3389 736.483L70.1621 760.513L75.3916 749.464L69.4042 737.256C69.2526 737.024 69.3284 736.715 69.4042 736.483C69.48 736.251 69.7831 736.097 70.0863 736.097H82.5158C82.8189 736.097 83.0463 736.251 83.1979 736.483C83.3495 736.715 83.3495 737.024 83.1979 737.256L77.2105 749.464L82.3642 760.435L93.96 737.024C94.1874 736.637 94.6421 736.483 95.0211 736.637C95.4 736.869 95.5516 737.333 95.4 737.719L83.9558 760.744L105.935 749.618C106.011 749.309 106.314 749.077 106.693 749.077H107.223C107.602 749.077 107.905 749.309 107.981 749.695C108.057 750.082 107.905 750.468 107.526 750.623L83.88 762.599L94.7179 767.93L106.768 761.826C106.996 761.672 107.299 761.749 107.526 761.826C107.754 761.981 107.905 762.212 107.905 762.522V775.116C107.905 775.425 107.754 775.657 107.526 775.811C107.299 775.966 106.996 775.966 106.768 775.811L94.7179 769.707L83.9558 774.961L106.996 786.783C107.375 787.015 107.526 787.478 107.375 787.865C107.147 788.251 106.693 788.406 106.314 788.251L83.8042 776.738L95.1726 799.377C95.4 799.764 95.2484 800.227 94.7937 800.459C94.4147 800.691 93.96 800.536 93.7326 800.073L82.1368 776.661L76.9831 787.633L82.9705 799.841C83.1221 800.073 83.0463 800.382 82.9705 800.614C82.8189 800.845 82.5916 801 82.2884 801H69.8589C69.5558 801 69.3284 800.845 69.1768 800.614C69.0252 800.382 69.0252 800.073 69.1768 799.841L75.1642 787.633L69.9347 776.584L58.1115 800.614C57.96 800.845 57.7326 801 57.4294 801ZM71.1473 799.377H81L76.0737 789.333L71.1473 799.377ZM70.2379 773.957C70.3895 774.034 70.541 774.189 70.6926 774.343L76.0737 785.779L81.3789 774.498C81.5305 774.189 81.7579 774.034 82.061 774.034C82.1368 774.034 82.1368 774.034 82.2126 774.034L92.9747 768.78L81.7579 763.294C81.4547 763.14 81.3032 762.908 81.3032 762.599C81.3032 762.444 81.3031 762.367 81.3789 762.212L76.2252 751.318L70.8442 762.753C70.6926 763.062 70.4652 763.217 70.1621 763.217C70.1621 763.217 70.1621 763.217 70.0863 763.217L59.021 768.626L70.2379 773.957ZM96.6126 768.78L106.465 773.802V763.758L96.6126 768.78ZM45.6821 763.526V773.493L55.5347 768.471L45.6821 763.526ZM71.3747 737.642L76.301 747.609L81.2274 737.642H71.3747Z" fill="white"/>
<path d="M95.4874 864C95.4112 864 95.3351 864 95.259 863.925L76 857.605L56.741 863.925C56.4365 864 56.132 863.925 55.9037 863.699C55.6753 863.473 55.5992 863.172 55.6753 862.871L60.9277 847.298L45.0943 852.489C44.7898 852.564 44.4853 852.489 44.2569 852.263C44.0285 852.038 43.9524 851.737 44.0285 851.436L50.4228 832.476L44.0285 813.517C43.9524 813.216 44.0285 812.915 44.2569 812.69C44.4853 812.464 44.7898 812.389 45.0943 812.464L60.9277 817.655L55.6753 802.082C55.5992 801.781 55.6753 801.48 55.9037 801.254C56.132 801.028 56.4365 800.953 56.741 801.028L76 807.348L95.259 801.028C95.5635 800.953 95.868 801.028 96.0963 801.254C96.3247 801.48 96.4008 801.781 96.3247 802.082L91.0723 817.655L106.906 812.464C107.21 812.389 107.515 812.464 107.743 812.69C107.971 812.915 108.048 813.216 107.971 813.517L101.577 832.476L107.895 851.511C107.971 851.812 107.895 852.113 107.667 852.339C107.439 852.564 107.134 852.64 106.83 852.564L90.9961 847.373L96.2486 862.947C96.3247 863.248 96.2486 863.549 96.0202 863.774C95.9441 863.925 95.7157 864 95.4874 864ZM78.512 856.777L94.2694 861.969L91.1484 852.639L78.512 856.777ZM60.8516 852.639L57.7306 861.969L73.4879 856.777L60.8516 852.639ZM61.3845 851.135L76 855.95L90.6155 851.135L89.0931 846.696L76 842.408L62.9069 846.696L61.3845 851.135ZM51.3363 835.034L46.0838 850.533L55.5231 847.448L51.3363 835.034ZM96.4008 847.448L105.84 850.533L100.588 835.034L96.4008 847.448ZM52.2498 832.552L57.1216 846.922L61.6129 845.417L65.9518 832.476L61.6129 819.536L57.1216 818.031L52.2498 832.552ZM90.3872 845.492L94.8784 846.997L99.7502 832.627L94.8784 818.257L90.3872 819.762L86.0482 832.702L90.3872 845.492ZM78.512 841.58L88.4841 844.815L85.1347 835.034L84.678 836.389C84.6018 836.614 84.3735 836.84 84.069 836.915C83.7645 836.991 83.5361 836.915 83.3078 836.69L80.2629 833.68L78.6643 835.26L77.0657 836.84L80.1106 839.85C80.339 840.075 80.4151 840.301 80.339 840.602C80.2628 840.903 80.1106 841.053 79.8061 841.204L78.512 841.58ZM66.7892 835.034L63.4398 844.815L73.4118 841.58L72.0416 841.129C71.8133 841.053 71.5849 840.828 71.5088 840.527C71.4327 840.226 71.5088 840 71.7371 839.774L74.782 836.765L71.5849 833.605L68.54 836.614C68.3116 836.84 68.0832 836.915 67.7788 836.84C67.4743 836.765 67.322 836.614 67.1698 836.313L66.7892 835.034ZM73.8686 840L76 840.677L78.1314 840L76 837.893L73.8686 840ZM72.8028 832.552L74.4014 834.132L76 835.712L79.1971 832.552L76 829.392L74.4014 830.972L72.8028 832.552ZM67.6265 832.552L68.3116 834.658L70.443 832.552L68.3116 830.445L67.6265 832.552ZM81.4808 832.552L83.6123 834.658L84.2974 832.552L83.6123 830.445L81.4808 832.552ZM68.0071 828.188C68.2355 828.188 68.3877 828.263 68.54 828.414L71.5849 831.423L74.782 828.263L71.7371 825.254C71.5088 825.028 71.4327 824.803 71.5088 824.502C71.5849 824.201 71.7371 824.05 72.0416 823.9L73.4118 823.448L63.4398 820.213L66.7892 829.994L67.2459 828.639C67.322 828.414 67.5504 828.188 67.8549 828.113C67.931 828.188 67.931 828.188 68.0071 828.188ZM78.7404 829.843L80.339 831.423L83.3839 828.414C83.6122 828.188 83.8406 828.113 84.1451 828.188C84.4496 828.263 84.6018 828.414 84.7541 828.715L85.2108 830.069L88.5602 820.288L78.5882 823.524L79.9584 823.975C80.1867 824.05 80.4151 824.276 80.4912 824.577C80.5673 824.878 80.4912 825.103 80.2629 825.329L77.218 828.339L78.7404 829.843ZM46.16 814.571L51.4124 830.069L55.5992 817.655L46.16 814.571ZM96.4008 817.655L100.588 830.069L105.84 814.571L96.4008 817.655ZM73.8686 825.028L76 827.135L78.1314 825.028L76 824.351L73.8686 825.028ZM62.8308 818.408L75.9239 822.696L89.017 818.408L90.5394 813.969L75.9239 809.154L61.3083 813.969L62.8308 818.408ZM78.512 808.326L91.0723 812.464L94.1933 803.135L78.512 808.326ZM57.7306 803.135L60.8516 812.464L73.4118 808.326L57.7306 803.135Z" fill="white"/>
<path d="M94.8057 914.53C94.8815 915.215 94.9573 915.9 95.109 916.509C96.0948 920.847 99.5829 925.869 106.408 926.326C106.028 919.477 101.024 915.824 96.7014 914.835C96.0948 914.683 95.4123 914.606 94.8057 914.53ZM57.1943 914.835C56.5877 914.911 56.0569 914.987 55.4502 915.139C51.128 916.052 46.1232 919.629 45.6682 926.326C52.4171 925.869 55.9052 920.847 56.891 916.509C57.0427 915.976 57.1185 915.444 57.1943 914.835ZM58.8626 913.161C63.7915 913.237 68.1137 915.824 70.6919 920.314L75.3934 911.334C75.6967 910.801 76.5308 910.801 76.8341 911.334L81.3839 920.086C83.9621 915.596 88.2844 913.008 93.2133 912.932C93.4408 908.138 95.9431 903.876 100.341 901.441L91.3934 896.723C91.1659 896.571 90.9384 896.342 90.9384 896.038C90.9384 895.734 91.09 895.505 91.3934 895.353L100.114 890.787C95.7156 888.276 93.1374 884.014 92.9858 879.22C88.2085 879.068 83.9621 876.48 81.4597 872.067L76.91 880.818C76.6066 881.351 75.7725 881.351 75.4692 880.818L70.7678 871.838C68.2654 876.176 64.019 878.763 59.2417 878.992C59.1659 883.938 56.5877 888.276 52.0379 890.787L60.6825 895.201C60.91 895.353 61.1374 895.581 61.1374 895.886C61.1374 896.19 60.9858 896.419 60.6825 896.571L51.7346 901.289C56.1327 903.876 58.7109 908.29 58.8626 913.161ZM107.166 928C100.341 927.848 95.0332 923.51 93.5166 916.889C93.3649 916.128 93.2133 915.291 93.1374 914.53C89.1943 914.606 84.872 916.509 82.2938 921.532L81.9905 922.14C81.9147 922.369 81.6114 922.597 81.3081 922.597C81.0047 922.597 80.7014 922.445 80.6256 922.14L76.0758 913.389L71.3744 922.369C71.2227 922.597 70.9953 922.825 70.6919 922.825C70.3886 922.825 70.0853 922.673 70.0095 922.369L69.7062 921.76C67.128 916.737 62.8057 914.911 58.8626 914.759C58.7867 915.444 58.7109 916.128 58.5592 916.813C57.0427 923.434 51.7346 927.848 44.91 927.924C44.6825 927.924 44.455 927.848 44.3033 927.696C44.1517 927.543 44 927.391 44 927.163C44.1517 920.39 48.4739 915.063 55.0711 913.541C55.7536 913.389 56.5118 913.237 57.1943 913.237C57.1185 909.356 55.2227 904.942 50.218 902.43L49.6114 902.05C49.3081 901.898 49.1564 901.669 49.1564 901.365C49.1564 901.061 49.3081 900.756 49.6114 900.68L58.5592 895.962L49.8389 891.396C49.6114 891.244 49.3839 891.015 49.3839 890.711C49.3839 890.407 49.5355 890.102 49.8389 890.026L50.4455 889.722C55.5261 887.21 57.346 882.797 57.4976 878.916C56.7393 878.839 55.9052 878.763 55.0711 878.535C48.4739 876.937 44.1517 871.61 44 864.837C44 864.609 44.0758 864.38 44.2275 864.228C44.3791 864.076 44.6066 864 44.7583 864C51.6588 864 57.1185 868.338 58.6351 875.034C58.7867 875.795 58.9384 876.48 59.0142 877.241C62.8815 877.089 67.0521 875.187 69.5545 870.24L69.8578 869.631C70.0095 869.327 70.237 869.175 70.5403 869.175C70.8436 869.175 71.0711 869.327 71.2227 869.631L75.9242 878.611L80.4739 869.86C80.6256 869.631 80.9289 869.479 81.1564 869.403C81.4597 869.403 81.763 869.555 81.8389 869.86L82.1422 870.468C84.6445 875.415 88.8152 877.317 92.6825 877.47C92.7583 876.633 92.8341 875.872 93.0616 875.034C94.8815 868.338 100.341 864 107.166 864C107.621 864 107.924 864.38 107.924 864.761C107.924 871.61 103.602 877.089 96.9289 878.687C96.0948 878.916 95.2607 878.992 94.4265 879.068C94.5782 882.949 96.4739 887.134 101.403 889.646L102.009 889.95C102.313 890.102 102.464 890.331 102.464 890.635C102.464 890.939 102.313 891.244 102.009 891.32L93.2891 895.886L102.389 900.68C102.616 900.832 102.844 901.061 102.844 901.365C102.844 901.669 102.692 901.974 102.389 902.05L101.782 902.354C96.8531 904.866 94.9573 909.051 94.8057 912.932C95.564 913.008 96.2464 913.084 97.0047 913.313C103.678 914.911 108 920.314 108 927.163C108 927.391 107.924 927.62 107.773 927.696C107.621 927.924 107.393 928 107.166 928ZM106.408 865.598C99.5071 865.979 95.8673 871.077 94.8057 875.415C94.654 876.1 94.5782 876.785 94.5024 877.47C95.2607 877.394 95.9431 877.317 96.6256 877.165C100.948 876.1 106.028 872.447 106.408 865.598ZM45.5924 865.598C46.1232 872.371 51.128 875.872 55.4502 876.861C56.0569 877.013 56.7393 877.089 57.4218 877.165C57.346 876.556 57.2701 875.948 57.1185 875.339C56.1327 871.077 52.4929 865.979 45.5924 865.598Z" fill="white"/>
<path d="M83.7817 993C83.3262 993 83.0225 992.614 83.0225 992.227C83.0225 991.841 83.4021 991.454 83.7817 991.454C90.4626 991.454 94.3345 987.126 95.777 982.875C89.7794 983.803 84.1613 981.098 81.2005 975.61L76.7212 984.73C76.4176 985.271 75.5824 985.271 75.2788 984.73L70.7995 975.61C67.8387 981.098 62.2206 983.803 56.223 982.875C57.6655 987.126 61.5374 991.454 68.2183 991.454C68.6738 991.454 68.9775 991.841 68.9775 992.227C68.9775 992.614 68.5979 993 68.2183 993C61.5374 993 56.223 988.904 54.401 982.411C48.0237 980.634 44 975.224 44 968.422C44 967.958 44.3796 967.649 44.7592 967.649C45.1388 967.649 45.5184 968.036 45.5184 968.422C45.5184 975.224 49.8458 979.088 53.9454 980.556C53.0344 974.451 55.6916 968.809 61.0819 965.794L52.1993 961.234C51.8956 961.08 51.7438 960.848 51.7438 960.539C51.7438 960.229 51.8956 959.92 52.1993 959.843L61.1578 955.283C55.7675 952.269 53.0344 946.627 54.0214 940.521C49.8458 941.989 45.5943 945.854 45.5943 952.655C45.5943 953.119 45.2147 953.428 44.8351 953.428C44.4555 953.428 44.0759 953.042 44.0759 952.655C44.0759 945.854 48.1756 940.444 54.4769 938.666C56.1471 932.096 61.5374 928 68.2183 928C68.6738 928 68.9775 928.386 68.9775 928.773C68.9775 929.159 68.5979 929.546 68.2183 929.546C61.5374 929.546 57.6655 933.874 56.223 938.125C62.2206 937.197 67.8387 939.902 70.7995 945.39L75.2788 936.27C75.5824 935.729 76.4176 935.729 76.7212 936.27L81.2005 945.39C84.1613 939.902 89.7794 937.197 95.777 938.125C94.3345 933.874 90.4626 929.546 83.7817 929.546C83.3262 929.546 83.0225 929.159 83.0225 928.773C83.0225 928.386 83.4021 928 83.7817 928C90.4626 928 95.777 932.096 97.5991 938.589C103.976 940.366 108 945.776 108 952.578C108 953.042 107.62 953.351 107.241 953.351C106.861 953.351 106.482 952.964 106.482 952.578C106.482 945.776 102.154 941.912 98.0546 940.444C98.9656 946.549 96.3084 952.191 90.9181 955.206L99.8766 959.766C100.18 959.92 100.332 960.152 100.332 960.461C100.332 960.771 100.18 961.08 99.8766 961.157L90.9181 965.717C96.3084 968.731 99.0415 974.373 98.0546 980.479C102.23 979.011 106.482 975.146 106.482 968.345C106.482 967.881 106.861 967.572 107.241 967.572C107.62 967.572 108 967.958 108 968.345C108 975.146 103.9 980.556 97.5991 982.334C95.8529 988.826 90.4626 993 83.7817 993ZM70.7995 972.905C71.1032 972.905 71.4069 973.059 71.4828 973.369L75.962 982.489L80.4413 973.369C80.5931 973.059 80.8209 972.905 81.1246 972.905C81.4282 972.905 81.7319 973.059 81.8078 973.369L82.1874 974.219C85.452 980.788 91.6014 982.025 96.1566 981.098C97.0676 976.537 95.8529 970.2 89.3998 966.954L88.5647 966.567C88.261 966.413 88.1091 966.181 88.1091 965.872C88.1091 965.562 88.261 965.253 88.5647 965.176L97.5231 960.616L88.7165 955.979C88.4128 955.824 88.261 955.592 88.261 955.283C88.261 954.974 88.4128 954.665 88.7165 954.587L89.5516 954.201C96.0048 950.878 97.2195 944.617 96.3084 940.057C91.8292 939.13 85.6038 940.366 82.3393 946.936L81.9597 947.786C81.656 948.327 80.8209 948.327 80.5172 947.786L76.038 938.666L71.5587 947.786C71.4069 948.095 71.1791 948.25 70.8754 948.25C70.5718 948.25 70.2681 948.095 70.1922 947.786L69.8126 946.936C66.548 940.366 60.3986 939.13 55.8434 940.057C54.9324 944.617 56.1471 950.955 62.6002 954.201L63.4354 954.587C63.739 954.742 63.8909 954.974 63.8909 955.283C63.8909 955.592 63.739 955.901 63.4354 955.979L54.325 960.461L63.2835 965.021C63.5872 965.176 63.739 965.408 63.739 965.717C63.739 966.026 63.5872 966.335 63.2835 966.413L62.4484 966.799C55.9953 970.122 54.7805 976.383 55.6916 980.943C60.1708 981.87 66.3962 980.634 69.6607 974.064L70.0403 973.214C70.1922 973.059 70.4958 972.905 70.7995 972.905Z" fill="white"/>
<path d="M57.4294 1057C57.3537 1057 57.2779 1057 57.2779 1057C56.8989 1056.92 56.6715 1056.62 56.6715 1056.24V1055.71C56.6715 1055.33 56.8989 1055.02 57.2021 1054.95L68.2673 1032.81L45.7579 1044.14C45.3789 1044.37 44.9242 1044.14 44.6968 1043.76C44.4694 1043.38 44.621 1042.93 45.0757 1042.7L68.04 1031.06L57.2779 1025.88L45.2273 1031.89C45 1032.05 44.6968 1031.97 44.4694 1031.89C44.2421 1031.74 44.0905 1031.51 44.0905 1031.21V1018.81C44.0905 1018.5 44.2421 1018.28 44.4694 1018.12C44.6968 1017.97 45 1017.97 45.2273 1018.12L57.2779 1024.13L68.1158 1018.89L44.4694 1007.09C44.1663 1006.94 43.9389 1006.56 44.0147 1006.18C44.0905 1005.8 44.3936 1005.57 44.7726 1005.57H45.3031C45.6821 1005.57 45.9852 1005.8 46.061 1006.1L68.4189 1017.29L57.3537 995.073C57.0505 994.997 56.8231 994.693 56.8231 994.312V993.78C56.8231 993.399 57.0505 993.095 57.4294 993.019C57.8084 992.943 58.1873 993.095 58.3389 993.475L70.1621 1017.14L75.3916 1006.26L69.4042 994.236C69.2526 994.008 69.3284 993.704 69.4042 993.475C69.48 993.247 69.7831 993.095 70.0863 993.095H82.5158C82.8189 993.095 83.0463 993.247 83.1979 993.475C83.3495 993.704 83.3495 994.008 83.1979 994.236L77.2105 1006.26L82.3642 1017.06L93.96 994.008C94.1874 993.628 94.6421 993.475 95.0211 993.628C95.4 993.856 95.5516 994.312 95.4 994.693L83.9558 1017.36L105.935 1006.41C106.011 1006.1 106.314 1005.88 106.693 1005.88H107.223C107.602 1005.88 107.905 1006.1 107.981 1006.48C108.057 1006.87 107.905 1007.25 107.526 1007.4L83.88 1019.19L94.7179 1024.44L106.768 1018.43C106.996 1018.28 107.299 1018.35 107.526 1018.43C107.754 1018.58 107.905 1018.81 107.905 1019.11V1031.51C107.905 1031.82 107.754 1032.05 107.526 1032.2C107.299 1032.35 106.996 1032.35 106.768 1032.2L94.7179 1026.19L83.9558 1031.36L106.996 1043C107.375 1043.23 107.526 1043.69 107.375 1044.07C107.147 1044.45 106.693 1044.6 106.314 1044.45L83.8042 1033.11L95.1726 1055.4C95.4 1055.78 95.2484 1056.24 94.7937 1056.47C94.4147 1056.7 93.96 1056.54 93.7326 1056.09L82.1368 1033.04L76.9831 1043.84L82.9705 1055.86C83.1221 1056.09 83.0463 1056.39 82.9705 1056.62C82.8189 1056.85 82.5916 1057 82.2884 1057H69.8589C69.5558 1057 69.3284 1056.85 69.1768 1056.62C69.0252 1056.39 69.0252 1056.09 69.1768 1055.86L75.1642 1043.84L69.9347 1032.96L58.1115 1056.62C57.96 1056.85 57.7326 1057 57.4294 1057ZM71.1473 1055.4H81L76.0737 1045.51L71.1473 1055.4ZM70.2379 1030.37C70.3895 1030.45 70.541 1030.6 70.6926 1030.75L76.0737 1042.01L81.3789 1030.91C81.5305 1030.6 81.7579 1030.45 82.061 1030.45C82.1368 1030.45 82.1368 1030.45 82.2126 1030.45L92.9747 1025.28L81.7579 1019.87C81.4547 1019.72 81.3032 1019.49 81.3032 1019.19C81.3032 1019.04 81.3031 1018.96 81.3789 1018.81L76.2252 1008.08L70.8442 1019.34C70.6926 1019.65 70.4652 1019.8 70.1621 1019.8C70.1621 1019.8 70.1621 1019.8 70.0863 1019.8L59.021 1025.12L70.2379 1030.37ZM96.6126 1025.28L106.465 1030.22V1020.33L96.6126 1025.28ZM45.6821 1020.1V1029.92L55.5347 1024.97L45.6821 1020.1ZM71.3747 994.617L76.301 1004.43L81.2274 994.617H71.3747Z" fill="white"/>
<path d="M95.4874 1120C95.4112 1120 95.3351 1120 95.259 1119.92L76 1113.61L56.741 1119.92C56.4365 1120 56.132 1119.92 55.9037 1119.7C55.6753 1119.47 55.5992 1119.17 55.6753 1118.87L60.9277 1103.3L45.0943 1108.49C44.7898 1108.56 44.4853 1108.49 44.2569 1108.26C44.0285 1108.04 43.9524 1107.74 44.0285 1107.44L50.4228 1088.48L44.0285 1069.52C43.9524 1069.22 44.0285 1068.92 44.2569 1068.69C44.4853 1068.46 44.7898 1068.39 45.0943 1068.46L60.9277 1073.66L55.6753 1058.08C55.5992 1057.78 55.6753 1057.48 55.9037 1057.25C56.132 1057.03 56.4365 1056.95 56.741 1057.03L76 1063.35L95.259 1057.03C95.5635 1056.95 95.868 1057.03 96.0963 1057.25C96.3247 1057.48 96.4008 1057.78 96.3247 1058.08L91.0723 1073.66L106.906 1068.46C107.21 1068.39 107.515 1068.46 107.743 1068.69C107.971 1068.92 108.048 1069.22 107.971 1069.52L101.577 1088.48L107.895 1107.51C107.971 1107.81 107.895 1108.11 107.667 1108.34C107.439 1108.56 107.134 1108.64 106.83 1108.56L90.9961 1103.37L96.2486 1118.95C96.3247 1119.25 96.2486 1119.55 96.0202 1119.77C95.9441 1119.92 95.7157 1120 95.4874 1120ZM78.512 1112.78L94.2694 1117.97L91.1484 1108.64L78.512 1112.78ZM60.8516 1108.64L57.7306 1117.97L73.4879 1112.78L60.8516 1108.64ZM61.3845 1107.13L76 1111.95L90.6155 1107.13L89.0931 1102.7L76 1098.41L62.9069 1102.7L61.3845 1107.13ZM51.3363 1091.03L46.0838 1106.53L55.5231 1103.45L51.3363 1091.03ZM96.4008 1103.45L105.84 1106.53L100.588 1091.03L96.4008 1103.45ZM52.2498 1088.55L57.1216 1102.92L61.6129 1101.42L65.9518 1088.48L61.6129 1075.54L57.1216 1074.03L52.2498 1088.55ZM90.3872 1101.49L94.8784 1103L99.7502 1088.63L94.8784 1074.26L90.3872 1075.76L86.0482 1088.7L90.3872 1101.49ZM78.512 1097.58L88.4841 1100.82L85.1347 1091.03L84.678 1092.39C84.6018 1092.61 84.3735 1092.84 84.069 1092.92C83.7645 1092.99 83.5361 1092.92 83.3078 1092.69L80.2629 1089.68L78.6643 1091.26L77.0657 1092.84L80.1106 1095.85C80.339 1096.08 80.4151 1096.3 80.339 1096.6C80.2628 1096.9 80.1106 1097.05 79.8061 1097.2L78.512 1097.58ZM66.7892 1091.03L63.4398 1100.82L73.4118 1097.58L72.0416 1097.13C71.8133 1097.05 71.5849 1096.83 71.5088 1096.53C71.4327 1096.23 71.5088 1096 71.7371 1095.77L74.782 1092.76L71.5849 1089.61L68.54 1092.61C68.3116 1092.84 68.0832 1092.92 67.7788 1092.84C67.4743 1092.76 67.322 1092.61 67.1698 1092.31L66.7892 1091.03ZM73.8686 1096L76 1096.68L78.1314 1096L76 1093.89L73.8686 1096ZM72.8028 1088.55L74.4014 1090.13L76 1091.71L79.1971 1088.55L76 1085.39L74.4014 1086.97L72.8028 1088.55ZM67.6265 1088.55L68.3116 1090.66L70.443 1088.55L68.3116 1086.45L67.6265 1088.55ZM81.4808 1088.55L83.6123 1090.66L84.2974 1088.55L83.6123 1086.45L81.4808 1088.55ZM68.0071 1084.19C68.2355 1084.19 68.3877 1084.26 68.54 1084.41L71.5849 1087.42L74.782 1084.26L71.7371 1081.25C71.5088 1081.03 71.4327 1080.8 71.5088 1080.5C71.5849 1080.2 71.7371 1080.05 72.0416 1079.9L73.4118 1079.45L63.4398 1076.21L66.7892 1085.99L67.2459 1084.64C67.322 1084.41 67.5504 1084.19 67.8549 1084.11C67.931 1084.19 67.931 1084.19 68.0071 1084.19ZM78.7404 1085.84L80.339 1087.42L83.3839 1084.41C83.6122 1084.19 83.8406 1084.11 84.1451 1084.19C84.4496 1084.26 84.6018 1084.41 84.7541 1084.71L85.2108 1086.07L88.5602 1076.29L78.5882 1079.52L79.9584 1079.97C80.1867 1080.05 80.4151 1080.28 80.4912 1080.58C80.5673 1080.88 80.4912 1081.1 80.2629 1081.33L77.218 1084.34L78.7404 1085.84ZM46.16 1070.57L51.4124 1086.07L55.5992 1073.66L46.16 1070.57ZM96.4008 1073.66L100.588 1086.07L105.84 1070.57L96.4008 1073.66ZM73.8686 1081.03L76 1083.13L78.1314 1081.03L76 1080.35L73.8686 1081.03ZM62.8308 1074.41L75.9239 1078.7L89.017 1074.41L90.5394 1069.97L75.9239 1065.15L61.3083 1069.97L62.8308 1074.41ZM78.512 1064.33L91.0723 1068.46L94.1933 1059.13L78.512 1064.33ZM57.7306 1059.13L60.8516 1068.46L73.4118 1064.33L57.7306 1059.13Z" fill="white"/>
<path d="M94.8057 1171.32C94.8815 1172.02 94.9573 1172.71 95.109 1173.33C96.0948 1177.73 99.5829 1182.84 106.408 1183.3C106.028 1176.34 101.024 1172.63 96.7014 1171.63C96.0948 1171.47 95.4123 1171.4 94.8057 1171.32ZM57.1943 1171.63C56.5877 1171.71 56.0569 1171.78 55.4502 1171.94C51.128 1172.87 46.1232 1176.5 45.6682 1183.3C52.4171 1182.84 55.9052 1177.73 56.891 1173.33C57.0427 1172.79 57.1185 1172.25 57.1943 1171.63ZM58.8626 1169.93C63.7915 1170.01 68.1137 1172.63 70.6919 1177.19L75.3934 1168.07C75.6967 1167.53 76.5308 1167.53 76.8341 1168.07L81.3839 1176.96C83.9621 1172.4 88.2844 1169.77 93.2133 1169.7C93.4408 1164.83 95.9431 1160.5 100.341 1158.03L91.3934 1153.23C91.1659 1153.08 90.9384 1152.85 90.9384 1152.54C90.9384 1152.23 91.09 1152 91.3934 1151.84L100.114 1147.21C95.7156 1144.66 93.1374 1140.33 92.9858 1135.46C88.2085 1135.3 83.9621 1132.68 81.4597 1128.19L76.91 1137.08C76.6066 1137.62 75.7725 1137.62 75.4692 1137.08L70.7678 1127.96C68.2654 1132.37 64.019 1134.99 59.2417 1135.23C59.1659 1140.25 56.5877 1144.66 52.0379 1147.21L60.6825 1151.69C60.91 1151.84 61.1374 1152.07 61.1374 1152.38C61.1374 1152.69 60.9858 1152.93 60.6825 1153.08L51.7346 1157.87C56.1327 1160.5 58.7109 1164.98 58.8626 1169.93ZM107.166 1185C100.341 1184.85 95.0332 1180.44 93.5166 1173.72C93.3649 1172.94 93.2133 1172.09 93.1374 1171.32C89.1943 1171.4 84.872 1173.33 82.2938 1178.43L81.9905 1179.05C81.9147 1179.28 81.6114 1179.51 81.3081 1179.51C81.0047 1179.51 80.7014 1179.36 80.6256 1179.05L76.0758 1170.16L71.3744 1179.28C71.2227 1179.51 70.9953 1179.74 70.6919 1179.74C70.3886 1179.74 70.0853 1179.59 70.0095 1179.28L69.7062 1178.66C67.128 1173.56 62.8057 1171.71 58.8626 1171.55C58.7867 1172.25 58.7109 1172.94 58.5592 1173.64C57.0427 1180.36 51.7346 1184.85 44.91 1184.92C44.6825 1184.92 44.455 1184.85 44.3033 1184.69C44.1517 1184.54 44 1184.38 44 1184.15C44.1517 1177.27 48.4739 1171.86 55.0711 1170.32C55.7536 1170.16 56.5118 1170.01 57.1943 1170.01C57.1185 1166.06 55.2227 1161.58 50.218 1159.03L49.6114 1158.64C49.3081 1158.49 49.1564 1158.26 49.1564 1157.95C49.1564 1157.64 49.3081 1157.33 49.6114 1157.25L58.5592 1152.46L49.8389 1147.82C49.6114 1147.67 49.3839 1147.44 49.3839 1147.13C49.3839 1146.82 49.5355 1146.51 49.8389 1146.43L50.4455 1146.12C55.5261 1143.57 57.346 1139.09 57.4976 1135.15C56.7393 1135.07 55.9052 1134.99 55.0711 1134.76C48.4739 1133.14 44.1517 1127.73 44 1120.85C44 1120.62 44.0758 1120.39 44.2275 1120.23C44.3791 1120.08 44.6066 1120 44.7583 1120C51.6588 1120 57.1185 1124.41 58.6351 1131.21C58.7867 1131.98 58.9384 1132.68 59.0142 1133.45C62.8815 1133.29 67.0521 1131.36 69.5545 1126.34L69.8578 1125.72C70.0095 1125.41 70.237 1125.26 70.5403 1125.26C70.8436 1125.26 71.0711 1125.41 71.2227 1125.72L75.9242 1134.84L80.4739 1125.95C80.6256 1125.72 80.9289 1125.56 81.1564 1125.49C81.4597 1125.49 81.763 1125.64 81.8389 1125.95L82.1422 1126.57C84.6445 1131.59 88.8152 1133.53 92.6825 1133.68C92.7583 1132.83 92.8341 1132.06 93.0616 1131.21C94.8815 1124.41 100.341 1120 107.166 1120C107.621 1120 107.924 1120.39 107.924 1120.77C107.924 1127.73 103.602 1133.29 96.9289 1134.92C96.0948 1135.15 95.2607 1135.23 94.4265 1135.3C94.5782 1139.24 96.4739 1143.5 101.403 1146.05L102.009 1146.36C102.313 1146.51 102.464 1146.74 102.464 1147.05C102.464 1147.36 102.313 1147.67 102.009 1147.75L93.2891 1152.38L102.389 1157.25C102.616 1157.41 102.844 1157.64 102.844 1157.95C102.844 1158.26 102.692 1158.57 102.389 1158.64L101.782 1158.95C96.8531 1161.5 94.9573 1165.76 94.8057 1169.7C95.564 1169.77 96.2464 1169.85 97.0047 1170.08C103.678 1171.71 108 1177.19 108 1184.15C108 1184.38 107.924 1184.61 107.773 1184.69C107.621 1184.92 107.393 1185 107.166 1185ZM106.408 1121.62C99.5071 1122.01 95.8673 1127.19 94.8057 1131.59C94.654 1132.29 94.5782 1132.98 94.5024 1133.68C95.2607 1133.6 95.9431 1133.53 96.6256 1133.37C100.948 1132.29 106.028 1128.58 106.408 1121.62ZM45.5924 1121.62C46.1232 1128.5 51.128 1132.06 55.4502 1133.06C56.0569 1133.22 56.7393 1133.29 57.4218 1133.37C57.346 1132.75 57.2701 1132.13 57.1185 1131.52C56.1327 1127.19 52.4929 1122.01 45.5924 1121.62Z" fill="white"/>
<path d="M83.7817 1249C83.3262 1249 83.0225 1248.62 83.0225 1248.24C83.0225 1247.86 83.4021 1247.48 83.7817 1247.48C90.4626 1247.48 94.3345 1243.22 95.777 1239.03C89.7794 1239.94 84.1613 1237.28 81.2005 1231.88L76.7212 1240.86C76.4176 1241.39 75.5824 1241.39 75.2788 1240.86L70.7995 1231.88C67.8387 1237.28 62.2206 1239.94 56.223 1239.03C57.6655 1243.22 61.5374 1247.48 68.2183 1247.48C68.6738 1247.48 68.9775 1247.86 68.9775 1248.24C68.9775 1248.62 68.5979 1249 68.2183 1249C61.5374 1249 56.223 1244.97 54.401 1238.57C48.0237 1236.82 44 1231.5 44 1224.8C44 1224.34 44.3796 1224.04 44.7592 1224.04C45.1388 1224.04 45.5184 1224.42 45.5184 1224.8C45.5184 1231.5 49.8458 1235.3 53.9454 1236.75C53.0344 1230.74 55.6916 1225.18 61.0819 1222.21L52.1993 1217.72C51.8956 1217.57 51.7438 1217.34 51.7438 1217.04C51.7438 1216.73 51.8956 1216.43 52.1993 1216.35L61.1578 1211.86C55.7675 1208.9 53.0344 1203.34 54.0214 1197.33C49.8458 1198.77 45.5943 1202.58 45.5943 1209.28C45.5943 1209.73 45.2147 1210.04 44.8351 1210.04C44.4555 1210.04 44.0759 1209.66 44.0759 1209.28C44.0759 1202.58 48.1756 1197.25 54.4769 1195.5C56.1471 1189.03 61.5374 1185 68.2183 1185C68.6738 1185 68.9775 1185.38 68.9775 1185.76C68.9775 1186.14 68.5979 1186.52 68.2183 1186.52C61.5374 1186.52 57.6655 1190.78 56.223 1194.97C62.2206 1194.06 67.8387 1196.72 70.7995 1202.12L75.2788 1193.14C75.5824 1192.61 76.4176 1192.61 76.7212 1193.14L81.2005 1202.12C84.1613 1196.72 89.7794 1194.06 95.777 1194.97C94.3345 1190.78 90.4626 1186.52 83.7817 1186.52C83.3262 1186.52 83.0225 1186.14 83.0225 1185.76C83.0225 1185.38 83.4021 1185 83.7817 1185C90.4626 1185 95.777 1189.03 97.5991 1195.43C103.976 1197.18 108 1202.5 108 1209.2C108 1209.66 107.62 1209.96 107.241 1209.96C106.861 1209.96 106.482 1209.58 106.482 1209.2C106.482 1202.5 102.154 1198.7 98.0546 1197.25C98.9656 1203.26 96.3084 1208.82 90.9181 1211.79L99.8766 1216.28C100.18 1216.43 100.332 1216.66 100.332 1216.96C100.332 1217.27 100.18 1217.57 99.8766 1217.65L90.9181 1222.14C96.3084 1225.1 99.0415 1230.66 98.0546 1236.67C102.23 1235.23 106.482 1231.42 106.482 1224.72C106.482 1224.27 106.861 1223.96 107.241 1223.96C107.62 1223.96 108 1224.34 108 1224.72C108 1231.42 103.9 1236.75 97.5991 1238.5C95.8529 1244.89 90.4626 1249 83.7817 1249ZM70.7995 1229.21C71.1032 1229.21 71.4069 1229.37 71.4828 1229.67L75.962 1238.65L80.4413 1229.67C80.5931 1229.37 80.8209 1229.21 81.1246 1229.21C81.4282 1229.21 81.7319 1229.37 81.8078 1229.67L82.1874 1230.51C85.452 1236.98 91.6014 1238.19 96.1566 1237.28C97.0676 1232.79 95.8529 1226.55 89.3998 1223.35L88.5647 1222.97C88.261 1222.82 88.1091 1222.59 88.1091 1222.29C88.1091 1221.98 88.261 1221.68 88.5647 1221.6L97.5231 1217.11L88.7165 1212.55C88.4128 1212.4 88.261 1212.17 88.261 1211.86C88.261 1211.56 88.4128 1211.25 88.7165 1211.18L89.5516 1210.8C96.0048 1207.53 97.2195 1201.36 96.3084 1196.87C91.8292 1195.96 85.6038 1197.18 82.3393 1203.64L81.9597 1204.48C81.656 1205.01 80.8209 1205.01 80.5172 1204.48L76.038 1195.5L71.5587 1204.48C71.4069 1204.79 71.1791 1204.94 70.8754 1204.94C70.5718 1204.94 70.2681 1204.79 70.1922 1204.48L69.8126 1203.64C66.548 1197.18 60.3986 1195.96 55.8434 1196.87C54.9324 1201.36 56.1471 1207.6 62.6002 1210.8L63.4354 1211.18C63.739 1211.33 63.8909 1211.56 63.8909 1211.86C63.8909 1212.17 63.739 1212.47 63.4354 1212.55L54.325 1216.96L63.2835 1221.45C63.5872 1221.6 63.739 1221.83 63.739 1222.14C63.739 1222.44 63.5872 1222.75 63.2835 1222.82L62.4484 1223.2C55.9953 1226.47 54.7805 1232.64 55.6916 1237.13C60.1708 1238.04 66.3962 1236.82 69.6607 1230.36L70.0403 1229.52C70.1922 1229.37 70.4958 1229.21 70.7995 1229.21Z" fill="white"/>
</g>
<defs>
<clipPath id="clip0">
<rect width="64" height="933" fill="white" transform="translate(44 288)"/>
</clipPath>
</defs>
</svg>
