<svg width="260" height="130" viewBox="0 0 260 130" fill="none" xmlns="http://www.w3.org/2000/svg">
<path d="M260 130H0L130 0L260 130Z" fill="#F7F7F7"/>
<path d="M129.188 67.6615L129.301 67.4941L130.528 70L131.755 67.4941L131.868 67.6615C133.372 70.7252 138 69.6095 138 66.2133L138 66.1018L138 50.0045L132.981 59.9743L130.476 54.9693L132.906 50L130.472 50L127.984 50L130.47 54.9671L127.963 59.9743L123 50.0045L123 66.1018L123 66.2133C123 69.6095 127.628 70.7252 129.188 67.6615Z" fill="#F65275"/>
<path d="M84.3714 97.18H85.1014V99.43H84.2914V98H79.0214V99.43H78.2114V97.18H78.7514C78.8714 97.1067 78.9714 97.02 79.0514 96.92C79.1314 96.82 79.2081 96.6667 79.2814 96.46C79.3614 96.2467 79.4248 96.0133 79.4714 95.76C79.5248 95.5067 79.5814 95.14 79.6414 94.66C79.7014 94.1733 79.7581 93.66 79.8114 93.12C79.8648 92.58 79.9281 91.8733 80.0014 91H84.3714V97.18ZM80.8114 91.82C80.6648 93.6933 80.5214 94.99 80.3814 95.71C80.2414 96.4233 80.0281 96.9133 79.7414 97.18H83.4914V91.82H80.8114ZM90.83 91H91.47V98H90.59V92.67L86.6 98H86V91H86.87V96.29L90.83 91ZM96.7529 94.37C97.0795 94.51 97.3362 94.7333 97.5229 95.04C97.7095 95.3467 97.8029 95.69 97.8029 96.07C97.8029 96.6167 97.5995 97.0767 97.1929 97.45C96.7862 97.8167 96.2829 98 95.6829 98H92.8829V91H95.6429C96.2162 91 96.6862 91.17 97.0529 91.51C97.4262 91.85 97.6129 92.2767 97.6129 92.79C97.6129 93.1033 97.5329 93.4067 97.3729 93.7C97.2195 93.9933 97.0129 94.2167 96.7529 94.37ZM96.7229 92.91C96.7229 92.71 96.6729 92.53 96.5729 92.37C96.4795 92.21 96.3495 92.0867 96.1829 92C96.0162 91.9067 95.8295 91.86 95.6229 91.86H93.7429V93.96H95.6329C95.9395 93.96 96.1962 93.86 96.4029 93.66C96.6162 93.4533 96.7229 93.2033 96.7229 92.91ZM95.6729 97.13C96.0195 97.13 96.3095 97.02 96.5429 96.8C96.7762 96.58 96.8929 96.3033 96.8929 95.97C96.8929 95.6433 96.7762 95.37 96.5429 95.15C96.3095 94.93 96.0195 94.82 95.6729 94.82H93.7429V97.13H95.6729ZM103.658 91H104.298V98H103.418V92.67L99.4282 98H98.8282V91H99.6982V96.29L103.658 91ZM110.101 91V91.82H107.971V98H107.091V91.82H104.961V91H110.101ZM115.598 91H116.238V98H115.358V92.67L111.368 98H110.768V91H111.638V96.29L115.598 91ZM120.76 98.11C119.72 98.11 118.86 97.77 118.18 97.09C117.507 96.41 117.17 95.5467 117.17 94.5C117.17 93.4533 117.507 92.59 118.18 91.91C118.86 91.23 119.72 90.89 120.76 90.89C121.294 90.89 121.787 90.9933 122.24 91.2C122.7 91.4 123.087 91.6867 123.4 92.06C123.72 92.4333 123.944 92.87 124.07 93.37H123.18C122.994 92.8633 122.687 92.4667 122.26 92.18C121.834 91.8933 121.334 91.75 120.76 91.75C119.974 91.75 119.327 92.01 118.82 92.53C118.32 93.0433 118.07 93.7033 118.07 94.51C118.07 95.31 118.32 95.9667 118.82 96.48C119.327 96.9933 119.974 97.25 120.76 97.25C121.347 97.25 121.857 97.1 122.29 96.8C122.724 96.4933 123.03 96.07 123.21 95.53H124.11C123.91 96.3233 123.507 96.9533 122.9 97.42C122.3 97.88 121.587 98.11 120.76 98.11ZM126.794 91H129.484V98H128.604V95.28H127.054L125.434 98H124.404L126.114 95.17C125.787 95.0833 125.501 94.9433 125.254 94.75C125.014 94.5567 124.827 94.3233 124.694 94.05C124.561 93.77 124.494 93.4667 124.494 93.14C124.494 92.5267 124.711 92.0167 125.144 91.61C125.584 91.2033 126.134 91 126.794 91ZM126.824 94.46H128.604V91.83H126.824C126.551 91.83 126.304 91.8867 126.084 92C125.864 92.1067 125.691 92.26 125.564 92.46C125.444 92.66 125.384 92.8867 125.384 93.14C125.384 93.3933 125.444 93.62 125.564 93.82C125.691 94.02 125.864 94.1767 126.084 94.29C126.304 94.4033 126.551 94.46 126.824 94.46ZM138.835 97.09C138.142 97.7767 137.265 98.12 136.205 98.12C135.152 98.12 134.279 97.7767 133.585 97.09C132.892 96.4033 132.545 95.5433 132.545 94.51C132.545 93.47 132.892 92.6067 133.585 91.92C134.279 91.2267 135.152 90.88 136.205 90.88C137.265 90.88 138.142 91.2233 138.835 91.91C139.529 92.5967 139.875 93.46 139.875 94.5C139.875 95.54 139.529 96.4033 138.835 97.09ZM134.225 96.47C134.752 96.9967 135.412 97.26 136.205 97.26C137.005 97.26 137.665 97 138.185 96.48C138.712 95.9533 138.975 95.2933 138.975 94.5C138.975 93.7067 138.712 93.05 138.185 92.53C137.665 92.0033 137.005 91.74 136.205 91.74C135.412 91.74 134.752 92.0033 134.225 92.53C133.705 93.0567 133.445 93.7133 133.445 94.5C133.445 95.2867 133.705 95.9433 134.225 96.47ZM144.874 91V91.82H142.744V98H141.864V91.82H139.734V91H144.874ZM151.019 97.09C150.326 97.7767 149.449 98.12 148.389 98.12C147.336 98.12 146.462 97.7767 145.769 97.09C145.076 96.4033 144.729 95.5433 144.729 94.51C144.729 93.47 145.076 92.6067 145.769 91.92C146.462 91.2267 147.336 90.88 148.389 90.88C149.449 90.88 150.326 91.2233 151.019 91.91C151.712 92.5967 152.059 93.46 152.059 94.5C152.059 95.54 151.712 96.4033 151.019 97.09ZM146.409 96.47C146.936 96.9967 147.596 97.26 148.389 97.26C149.189 97.26 149.849 97 150.369 96.48C150.896 95.9533 151.159 95.2933 151.159 94.5C151.159 93.7067 150.896 93.05 150.369 92.53C149.849 92.0033 149.189 91.74 148.389 91.74C147.596 91.74 146.936 92.0033 146.409 92.53C145.889 93.0567 145.629 93.7133 145.629 94.5C145.629 95.2867 145.889 95.9433 146.409 96.47ZM156.59 91H157.47V98H156.59V95.22C156.03 95.44 155.493 95.55 154.98 95.55C154.24 95.55 153.643 95.33 153.19 94.89C152.743 94.4433 152.52 93.83 152.52 93.05V91H153.4V92.99C153.4 93.5367 153.543 93.9567 153.83 94.25C154.117 94.5433 154.527 94.69 155.06 94.69C155.5 94.69 156.01 94.5667 156.59 94.32V91ZM159.757 97.16H162.957V98H158.887V91H162.847V91.83H159.757V94H162.587V94.81H159.757V97.16ZM168.414 91H169.284V98H168.414V94.82H164.784V98H163.914V91H164.784V93.98H168.414V91ZM175.199 91H176.069V98H175.199V94.82H171.569V98H170.699V91H171.569V93.98H175.199V91ZM179.364 91H182.054V98H181.174V95.28H179.624L178.004 98H176.974L178.684 95.17C178.358 95.0833 178.071 94.9433 177.824 94.75C177.584 94.5567 177.398 94.3233 177.264 94.05C177.131 93.77 177.064 93.4667 177.064 93.14C177.064 92.5267 177.281 92.0167 177.714 91.61C178.154 91.2033 178.704 91 179.364 91ZM179.394 94.46H181.174V91.83H179.394C179.121 91.83 178.874 91.8867 178.654 92C178.434 92.1067 178.261 92.26 178.134 92.46C178.014 92.66 177.954 92.8867 177.954 93.14C177.954 93.3933 178.014 93.62 178.134 93.82C178.261 94.02 178.434 94.1767 178.654 94.29C178.874 94.4033 179.121 94.46 179.394 94.46Z" fill="#555568"/>
</svg>
