<svg width="260" height="210" viewBox="0 0 260 210" fill="none" xmlns="http://www.w3.org/2000/svg">
<path d="M31 100C31 44.186 75.3333 0 134.833 0C168.667 0 192 10.4651 213 27.907L181.5 66.2791C167.5 54.6512 153.5 47.6744 134.833 47.6744C106.833 47.6744 85.8334 70.9302 85.8334 101.163C85.8334 132.558 108 154.651 138.333 154.651C151.167 154.651 161.667 152.326 168.667 146.512V123.256H131.333V83.7209H220V169.767C199 187.209 169.833 200 136 200C75.3333 200 31 159.302 31 100Z" fill="#F65275"/>
<path d="M217.298 32.9746L186.432 70.5738C172.501 59.0887 158.478 52.1744 139.833 52.1744C111.515 52.1744 90.3334 75.6984 90.3334 106.163C90.3334 137.829 112.718 160.151 143.333 160.151C156.207 160.151 166.851 157.822 173.986 151.896L174.167 151.746V151.512V128.256V127.756H173.667H136.833V89.2209H224.5V174.532C203.594 191.831 174.608 204.5 141 204.5C110.779 204.5 84.6565 194.365 66.0929 176.874C47.5317 159.387 36.5 134.521 36.5 105C36.5 49.4749 80.5966 5.5 139.833 5.5C173.334 5.5 196.478 15.7908 217.298 32.9746Z" stroke="white" stroke-opacity="0.5"/>
<path d="M222.298 37.9746L191.432 75.5738C177.501 64.0887 163.478 57.1744 144.833 57.1744C116.515 57.1744 95.3334 80.6984 95.3334 111.163C95.3334 142.829 117.718 165.151 148.333 165.151C161.207 165.151 171.851 162.822 178.986 156.896L179.167 156.746V156.512V133.256V132.756H178.667H141.833V94.2209H229.5V179.532C208.594 196.831 179.608 209.5 146 209.5C115.779 209.5 89.6565 199.365 71.0929 181.874C52.5317 164.387 41.5 139.521 41.5 110C41.5 54.4749 85.5966 10.5 144.833 10.5C178.334 10.5 201.478 20.7908 222.298 37.9746Z" stroke="white" stroke-opacity="0.5"/>
<path d="M260 210H0L130 80L260 210Z" fill="white"/>
<path d="M129.188 147.661L129.301 147.494L130.528 150L131.755 147.494L131.868 147.661C133.372 150.725 138 149.61 138 146.213L138 146.102L138 130.004L132.981 139.974L130.476 134.969L132.906 130L130.472 130L127.984 130L130.47 134.967L127.963 139.974L123 130.004L123 146.102L123 146.213C123 149.61 127.628 150.725 129.188 147.661Z" fill="#F65275"/>
<path d="M107.214 178L106.514 176.32H103.154L102.464 178H101.534L104.394 171H105.214L108.164 178H107.214ZM104.824 172.21L103.484 175.52H106.184L104.824 172.21ZM111.307 171C111.967 171 112.517 171.213 112.957 171.64C113.404 172.067 113.627 172.6 113.627 173.24C113.627 173.88 113.404 174.413 112.957 174.84C112.517 175.267 111.967 175.48 111.307 175.48H109.667V178H108.797V171H111.307ZM111.257 174.63C111.684 174.63 112.034 174.5 112.307 174.24C112.587 173.973 112.727 173.64 112.727 173.24C112.727 172.84 112.587 172.51 112.307 172.25C112.034 171.983 111.684 171.85 111.257 171.85H109.667V174.63H111.257ZM119.156 178H118.166L116.226 175.04L114.306 178H113.316L115.686 174.33L113.496 171H114.486L116.236 173.67L117.966 171H118.956L116.776 174.36L119.156 178ZM119.682 178V171H120.552V178H119.682ZM126.365 171V171.82H124.235V178H123.355V171.82H121.225V171H126.365ZM127.901 177.16H131.101V178H127.031V171H130.991V171.83H127.901V174H130.731V174.81H127.901V177.16ZM136.329 178L133.869 174.79H132.929V178H132.059V171H132.929V173.97H133.859L136.099 171H137.219L134.659 174.37L137.449 178H136.329ZM142.296 171V171.82H140.166V178H139.286V171.82H137.156V171H142.296ZM147.023 171H147.963L145.803 175.84C145.43 176.693 145.063 177.27 144.703 177.57C144.343 177.87 143.846 178.02 143.213 178.02H142.883V177.2H143.283C143.663 177.2 143.953 177.123 144.153 176.97C144.353 176.81 144.57 176.49 144.803 176.01L142.133 171H143.143L145.263 174.99L147.023 171ZM151.008 171C151.668 171 152.218 171.213 152.658 171.64C153.105 172.067 153.328 172.6 153.328 173.24C153.328 173.88 153.105 174.413 152.658 174.84C152.218 175.267 151.668 175.48 151.008 175.48H149.368V178H148.498V171H151.008ZM150.958 174.63C151.385 174.63 151.735 174.5 152.008 174.24C152.288 173.973 152.428 173.64 152.428 173.24C152.428 172.84 152.288 172.51 152.008 172.25C151.735 171.983 151.385 171.85 150.958 171.85H149.368V174.63H150.958ZM158.513 178L157.813 176.32H154.453L153.763 178H152.833L155.693 171H156.513L159.463 178H158.513ZM156.123 172.21L154.783 175.52H157.483L156.123 172.21Z" fill="#27272C"/>
</svg>
