<svg width="92" height="98" viewBox="0 0 92 98" fill="none" xmlns="http://www.w3.org/2000/svg">
<path d="M42.2943 76.1192C42.2943 76.2058 42.2563 76.2491 42.1802 76.2491C42.1041 76.2491 42.0595 76.1914 42.0463 76.0759C42.0372 75.862 41.9822 75.6526 41.885 75.4619C41.7642 75.2441 41.49 75.1339 41.0623 75.1313H40.771V78.9295C40.771 79.0502 40.8629 79.1132 41.0466 79.1185C41.2302 79.1237 41.3221 79.1486 41.3221 79.1933C41.3221 79.2379 41.2683 79.2602 41.1607 79.2602H39.6217C39.4957 79.2602 39.4328 79.2379 39.4328 79.1933C39.4328 79.1486 39.5364 79.1237 39.7437 79.1185C39.7931 79.128 39.8439 79.128 39.8933 79.1185C39.9166 79.1141 39.9379 79.102 39.9536 79.0842C39.9693 79.0664 39.9785 79.0438 39.9799 79.0201C39.9799 78.9676 39.9799 78.8088 39.9799 78.5438V75.1352C39.6521 75.0976 39.3203 75.1493 39.0195 75.2848C38.828 75.4867 38.7209 75.7543 38.7203 76.0326C38.702 76.1769 38.6613 76.2491 38.5983 76.2491C38.5432 76.2491 38.5117 76.1782 38.5117 76.0365C38.5117 75.8948 38.5393 75.5012 38.5983 74.9738H40.7986H41.9794C42.046 74.9712 42.1121 74.9606 42.1762 74.9423V75.1352L42.2038 75.4698L42.2313 75.8634V76.0287C42.2943 76.0641 42.2943 76.1192 42.2943 76.1192Z" fill="#4D4D4C"/>
<path d="M47.0744 79.2091C47.0744 79.2537 46.98 79.276 46.791 79.276H45.4764C45.3386 79.276 45.2678 79.276 45.2678 79.213C45.2678 79.15 45.3189 79.1579 45.4252 79.15C45.6299 79.15 45.7362 79.1146 45.748 79.0634C45.7597 78.9601 45.7597 78.8558 45.748 78.7525V77.0246H43.961V78.969C43.9621 78.996 43.9699 79.0224 43.9837 79.0457C43.9974 79.069 44.0166 79.0886 44.0397 79.1028C44.1436 79.1311 44.2509 79.1443 44.3585 79.1421C44.4254 79.1421 44.4609 79.1658 44.4609 79.2091C44.4609 79.2524 44.3979 79.276 44.2719 79.276H42.8077C42.7132 79.276 42.666 79.2537 42.666 79.2091C42.666 79.1645 42.7579 79.1395 42.9415 79.1343C43.0806 79.1343 43.1567 79.0962 43.1698 79.0201V75.4777C43.1769 75.3834 43.1769 75.2886 43.1698 75.1943C43.1698 75.1444 43.1134 75.1195 43.0006 75.1195C42.788 75.1195 42.6778 75.0801 42.6778 75.025C42.6778 74.9699 42.7211 74.9699 42.8116 74.9699H44.3034C44.4097 74.9699 44.4648 74.9936 44.4648 75.0447C44.4648 75.0959 44.3822 75.1274 44.2129 75.1195C44.1444 75.1123 44.0752 75.1231 44.0122 75.151C43.9833 75.172 43.9689 75.2363 43.9689 75.3439V76.8356H45.7637V75.5525C45.7765 75.4413 45.7765 75.3291 45.7637 75.2179C45.7637 75.1431 45.6889 75.1116 45.5787 75.1234H45.4016C45.3203 75.1103 45.2796 75.0841 45.2796 75.0447C45.2796 74.9896 45.3465 74.966 45.4764 74.966H46.8461C46.9957 74.966 47.0744 74.9896 47.0744 75.0329C47.0744 75.0762 47.0311 75.1077 46.9485 75.1077H46.7359C46.6533 75.1077 46.606 75.1077 46.5942 75.1549C46.5821 75.2556 46.5821 75.3573 46.5942 75.458V78.7249C46.5942 78.9401 46.61 79.0582 46.6415 79.0792C46.7486 79.111 46.8609 79.1217 46.9721 79.1107C47.0311 79.1303 47.0744 79.1579 47.0744 79.2091Z" fill="#4D4D4C"/>
<path d="M51.0914 78.2564C51.0914 78.2564 51.0914 78.3037 51.0914 78.3784C51.0873 78.444 51.0873 78.5097 51.0914 78.5752V79.1223C51.0922 79.1863 51.1015 79.2498 51.1189 79.3113L49.5445 79.2837L47.7418 79.3113C47.6079 79.3113 47.541 79.2863 47.541 79.2365C47.541 79.1814 47.5804 79.1499 47.6552 79.1499C47.775 79.1628 47.8962 79.148 48.0094 79.1066C48.0435 79.0777 48.0606 78.9754 48.0606 78.7996V75.5484C48.0606 75.286 48.0383 75.1548 47.9937 75.1548C47.8849 75.1333 47.7738 75.1254 47.663 75.1312C47.5869 75.1312 47.5489 75.1089 47.5489 75.0643C47.5489 75.0131 47.5882 74.9895 47.6709 74.9895H50.8828V75.0564V75.1942C50.8828 75.286 50.9077 75.5655 50.9576 76.0326C50.961 76.0692 50.961 76.1061 50.9576 76.1428C50.9576 76.2254 50.9339 76.2648 50.8906 76.2648C50.8473 76.2648 50.7922 76.2018 50.7686 76.0758C50.682 75.5983 50.5154 75.3175 50.2687 75.2335C49.9457 75.1735 49.6168 75.151 49.2886 75.1666H48.8084V76.9064H49.0328C49.2838 76.9315 49.5371 76.8979 49.7728 76.808C49.8673 76.7424 49.9302 76.5613 49.9617 76.2648C49.9617 76.0877 50.0168 76.0011 50.0759 76.0011C50.1349 76.0011 50.1703 76.064 50.1703 76.19C50.1703 76.3159 50.1703 76.3829 50.1703 76.5403C50.1703 76.6977 50.1703 76.8158 50.1703 76.8985C50.1703 77.3078 50.1769 77.5886 50.19 77.7408C50.19 77.792 50.19 77.8313 50.19 77.8628C50.19 77.9651 50.1585 78.0124 50.0955 78.0124C50.0326 78.0124 50.0011 77.9337 49.9853 77.7762C49.9486 77.4351 49.8869 77.2317 49.8003 77.1661C49.5663 77.0751 49.314 77.0414 49.0643 77.0677H48.8321V79.1066C49.375 79.1231 49.9185 79.0981 50.4577 79.0318C50.7201 78.9636 50.867 78.6618 50.8985 78.1265C50.8985 78.0321 50.9379 77.9848 51.0009 77.9848C51.0638 77.9848 51.0914 78.0872 51.0914 78.2564Z" fill="#4D4D4C"/>
<path d="M20.263 90.5762C20.263 90.7363 20.0111 90.815 19.5073 90.8124C18.3737 90.8124 17.7439 90.979 17.618 91.3123C17.534 91.5432 17.492 92.4524 17.492 94.04V95.0437C16.5681 95.8604 15.5145 96.5175 14.3746 96.9881C13.2373 97.3872 12.0372 97.5779 10.8321 97.5509C7.51533 97.5509 4.88076 96.559 2.92846 94.5753C0.976151 92.5915 0 89.8992 0 86.4985C0 83.0558 0.95516 80.2743 2.86548 78.1541C4.7758 76.0339 7.2949 74.9738 10.4228 74.9738C11.9737 75.0265 13.4944 75.4174 14.8785 76.1191C15.2431 76.3169 15.6456 76.435 16.0593 76.4655C16.4581 76.4655 16.7206 76.2136 16.8465 75.7098C16.9515 75.4159 17.0827 75.269 17.2401 75.269C17.3976 75.269 17.4815 75.3634 17.492 75.5524C17.5025 75.7413 17.4842 75.9407 17.4369 76.1506C17.3229 77.0646 17.2677 77.9849 17.2716 78.9059V80.6062C17.3026 81.1415 17.292 81.6785 17.2401 82.2121C17.235 82.2995 17.1959 82.3814 17.1312 82.4402C17.0664 82.4991 16.9812 82.5303 16.8937 82.527C16.7048 82.527 16.5998 82.3788 16.5789 82.0823C16.4739 80.0591 15.8861 78.4611 14.8155 77.2882C14.2811 76.7076 13.6271 76.25 12.8986 75.9469C12.1701 75.6438 11.3844 75.5025 10.596 75.5327C8.41276 75.5327 6.68612 76.5062 5.41607 78.4532C4.14602 80.4002 3.511 83.0584 3.511 86.4276C3.511 89.6919 4.15652 92.2766 5.44756 94.1817C6.7386 96.0867 8.48623 97.0392 10.6904 97.0392C12.3699 97.0392 13.5244 96.5538 14.1542 95.5829C14.4691 95.0974 14.6265 94.2223 14.6265 92.9575C14.6265 91.9079 14.5268 91.286 14.3274 91.0919C14.128 90.8977 13.4405 90.8137 12.2649 90.84C12.0749 90.8493 11.8845 90.8348 11.6981 90.7967C11.6593 90.7858 11.6255 90.7618 11.6026 90.7288C11.5796 90.6957 11.5688 90.6557 11.5721 90.6156C11.5721 90.4083 11.8031 90.3047 12.2649 90.3047H12.8317C13.2935 90.3256 14.4481 90.3256 16.2955 90.3047H19.6333C20.0531 90.2942 20.263 90.3847 20.263 90.5762Z" fill="#4D4D4C"/>
<path d="M34.3061 97.0157C34.3061 97.1416 34.0962 97.2046 33.6764 97.2046H27.4731C27.0952 97.2046 26.9063 97.1206 26.9063 96.9527C26.9063 96.7848 27.2841 96.6916 28.0399 96.6733C28.9426 96.6523 29.3939 96.5486 29.3939 96.3623C29.3453 96.1599 29.2821 95.9613 29.205 95.768C29.163 95.6026 28.9216 94.9047 28.4807 93.674L28.0871 92.6112H23.6C22.7393 94.7734 22.3089 96.0225 22.3089 96.3584C22.3089 96.5473 22.4401 96.6523 22.7025 96.6733L23.0961 96.7047H23.5685L23.8519 96.7992C24.1038 96.7992 24.2455 96.8622 24.2455 96.9921C24.2455 97.122 24.0251 97.2125 23.5842 97.2125L22.4664 97.1653C21.7841 97.1338 21.1806 97.118 20.6558 97.118H20.3724L20.089 97.1653L19.7426 97.2125H19.6796C19.3437 97.2125 19.1758 97.1495 19.1758 97.0236C19.1758 96.8779 19.3135 96.7913 19.5694 96.7717C19.9473 96.7507 20.1992 96.7297 20.3251 96.7087C20.5807 96.6918 20.8238 96.5924 21.0179 96.4253C21.1438 96.3623 21.6582 95.1631 22.5608 92.8277C22.9177 91.8805 23.2641 90.9962 23.6 90.1748C23.6964 89.9594 23.7805 89.7386 23.8519 89.5136C23.9231 89.2885 24.0072 89.0678 24.1038 88.8523C24.4607 87.989 24.9645 86.6836 25.6152 84.936L26.0836 83.5977L26.3001 83.0309C26.4261 82.716 26.5573 82.5586 26.6937 82.5586C26.7567 82.5586 26.8879 82.8525 27.0873 83.4403C27.7171 84.9727 29.344 89.0242 31.9681 95.5948C32.2305 96.2455 32.4719 96.5919 32.6923 96.6339C33.0263 96.6833 33.3627 96.7148 33.7 96.7284C34.1041 96.752 34.3061 96.8477 34.3061 97.0157ZM27.9139 92.072L25.8868 86.6914C25.3778 87.951 24.6758 89.7445 23.781 92.072H27.9139Z" fill="#4D4D4C"/>
<path d="M47.2785 96.3859C47.2785 97.0576 46.6934 97.3935 45.523 97.3935C44.9956 97.406 44.4725 97.2963 43.9945 97.073C43.5165 96.8497 43.0967 96.5189 42.7678 96.1064C42.4796 95.7791 42.2649 95.394 42.138 94.9768C41.9517 94.0975 41.8203 93.2076 41.7444 92.3121C41.6394 91.412 41.3521 90.7849 40.8824 90.4306C40.4127 90.0764 39.6018 89.8783 38.4499 89.8363V96.3229C38.3869 96.6168 38.9117 96.7637 40.0243 96.7637C40.2526 96.7637 40.3667 96.8385 40.3667 96.9842C40.3667 97.1298 40.2211 97.2046 39.9259 97.2046H34.872C34.2842 97.2046 33.9903 97.1364 33.9903 96.9999C33.9903 96.8425 34.0965 96.7637 34.3052 96.7637H34.7421C35.4558 96.7637 35.8127 96.6168 35.8127 96.3229V83.885C35.8245 83.8005 35.8148 83.7143 35.7846 83.6345C35.7543 83.5547 35.7044 83.4838 35.6395 83.4284C35.3462 83.3279 35.0351 83.2903 34.7263 83.3182C34.233 83.3182 33.9863 83.2342 33.9863 83.0663C33.9863 82.8983 34.1333 82.8249 34.4272 82.8459H40.3786C41.5677 82.7881 42.7469 83.0884 43.7636 83.7079C44.1551 83.9431 44.4786 84.2762 44.7022 84.6744C44.9259 85.0726 45.0419 85.5223 45.0389 85.979C45.043 86.475 44.9209 86.9639 44.6841 87.3998C44.4472 87.8357 44.1034 88.2041 43.6849 88.4705C42.7822 89.1081 41.5121 89.4794 39.8747 89.5844C41.6381 89.7733 42.8504 90.2325 43.5117 90.962C44.173 91.6915 44.5981 93.0035 44.787 94.8981C44.9129 96.1943 45.3065 96.8425 45.9678 96.8425C46.0741 96.8425 46.1253 96.811 46.1253 96.7519C46.1072 96.6821 46.0807 96.6147 46.0465 96.5512C46.0031 96.4708 45.9764 96.3824 45.9678 96.2914C45.9678 95.9031 46.1777 95.7089 46.5976 95.7089C47.0515 95.7194 47.2785 95.945 47.2785 96.3859ZM42.3033 86.1994C42.3033 84.3206 41.377 83.3812 39.5244 83.3812C39.2205 83.347 38.9131 83.396 38.6349 83.5229C38.5194 83.6173 38.4617 83.8417 38.4617 84.1959V89.3325C41.0228 89.3325 42.3033 88.2894 42.3033 86.2033V86.1994Z" fill="#4D4D4C"/>
<path d="M63.1157 90.0094C63.1157 92.4708 62.171 94.3745 60.2817 95.7206C58.9172 96.6889 57.1643 97.173 55.023 97.173H48.9142C48.5573 97.173 48.3789 97.0733 48.3789 96.8739C48.3789 96.6745 48.5101 96.5957 48.7725 96.6377H49.4968C49.9166 96.6587 50.1475 96.5433 50.1895 96.2914C50.2539 95.9291 50.275 95.5605 50.2525 95.1932V85.1366C50.2803 84.6031 50.2592 84.0682 50.1895 83.5386C50.0846 83.4126 49.7172 83.3391 49.0874 83.3181C48.7095 83.3181 48.5206 83.2447 48.5206 83.0977C48.5206 82.9508 48.7095 82.8668 49.0874 82.8458H52.6299C55.3799 82.8458 57.3322 83.0138 58.4868 83.3496C59.8626 83.7424 61.0558 84.608 61.8561 85.7939C62.7073 87.0324 63.1479 88.507 63.1157 90.0094ZM60.0927 89.8992C60.0927 85.5538 58.3372 83.3811 54.8262 83.3811C53.7609 83.3811 53.1705 83.4389 53.055 83.5543C52.9395 83.6698 52.8818 84.0529 52.8818 84.7036V95.819C52.8818 96.1969 52.971 96.4278 53.1495 96.5118C53.5949 96.6273 54.0562 96.6699 54.5153 96.6377C58.2336 96.6377 60.094 94.3902 60.0967 89.8953L60.0927 89.8992Z" fill="#4D4D4C"/>
<path d="M76.6276 93.7881C76.6276 93.8117 76.6276 93.9416 76.5804 94.1817C76.5509 94.3996 76.5352 94.6191 76.5331 94.839V96.6653C76.5363 96.8785 76.5681 97.0903 76.6276 97.2951L71.3729 97.2006L65.3586 97.2951C64.9151 97.2951 64.6934 97.2124 64.6934 97.0471C64.6934 96.8582 64.8193 96.7598 65.087 96.7598C65.4862 96.8029 65.8901 96.7545 66.2678 96.6181C66.3833 96.5236 66.441 96.1825 66.441 95.5947V84.7785C66.441 83.9178 66.3675 83.4612 66.2206 83.4087C65.8579 83.3369 65.4877 83.3105 65.1185 83.33C64.8561 83.33 64.7248 83.2565 64.7248 83.1096C64.7248 82.9626 64.8561 82.8787 65.1185 82.8577H75.8876V83.0741L75.9191 83.5386C75.9611 83.8482 76.0451 84.7798 76.171 86.3332C76.1937 86.4565 76.2042 86.5817 76.2025 86.7071C76.2025 86.9695 76.129 87.1007 75.9821 87.1007C75.7932 87.1007 75.662 86.8908 75.5885 86.471C75.2946 84.8755 74.7409 83.9414 73.9274 83.6685C73.4682 83.5215 72.3819 83.4481 70.6684 83.4481H69.0703V89.3521H69.8182C71.1512 89.3521 71.9738 89.2419 72.2861 89.0215C72.5984 88.8011 72.807 88.1976 72.9119 87.2109C72.9749 86.6231 73.1061 86.3293 73.3055 86.3293C73.505 86.3293 73.6099 86.5392 73.6204 86.959C73.6204 87.2214 73.6047 87.615 73.5732 88.1398C73.5417 88.6646 73.526 89.0583 73.526 89.3207C73.526 90.6852 73.5496 91.6193 73.5968 92.1231C73.6126 92.2911 73.6204 92.4223 73.6204 92.5167C73.6204 92.8526 73.5168 93.0205 73.3095 93.0205C73.1022 93.0205 72.9775 92.7581 72.9355 92.2333C72.8122 91.0998 72.6049 90.4227 72.3137 90.2023C72.0224 89.9819 71.205 89.8717 69.8615 89.8717H69.0742V96.6732C72.147 96.6522 73.955 96.5682 74.4982 96.4213C75.3326 96.1904 75.8233 95.1827 75.9703 93.3984C75.9913 93.0835 76.1067 92.9261 76.3167 92.9261C76.5266 92.9261 76.6302 93.2134 76.6276 93.7881Z" fill="#4D4D4C"/>
<path d="M91.6143 83.0663C91.6143 83.2132 91.3834 83.2867 90.9215 83.2867H90.1343C89.9454 83.2867 89.8352 83.3287 89.8037 83.4127C89.7575 83.6949 89.7417 83.9812 89.7564 84.2668V95.8781C89.7564 96.6365 89.7459 97.0799 89.7249 97.2085C89.7053 97.3345 89.6108 97.3974 89.4415 97.3974C89.2106 97.3974 88.4641 96.5171 87.2019 94.7564C87.0549 94.5254 86.8253 94.2093 86.5131 93.8078C86.4711 93.7448 86.3556 93.5874 86.1667 93.3354C85.1171 91.9421 83.2159 89.3246 80.4633 85.483V95.4688C80.4633 96.256 80.5735 96.668 80.7939 96.7047C81.1957 96.7579 81.6011 96.779 82.0062 96.7677H82.1322C82.3841 96.7677 82.5258 96.8385 82.5258 96.9724C82.5258 97.1062 82.2936 97.2085 81.8331 97.2085C81.7491 97.2085 81.4027 97.1875 80.7939 97.1455C80.479 97.1245 80.1956 97.1141 79.9437 97.1141C79.7338 97.1141 79.5239 97.1245 79.3139 97.1455C78.885 97.1889 78.4541 97.2099 78.0229 97.2085C77.687 97.2085 77.5191 97.1298 77.5191 96.9724C77.5191 96.8149 77.7185 96.7467 78.1174 96.7677H78.4008L78.7944 96.7362C79.2982 96.6942 79.5606 96.5984 79.5816 96.4489C79.6126 96.1429 79.6231 95.8352 79.6131 95.5278V86.8095C79.6131 85.2351 79.5186 84.2838 79.3297 83.9558C79.0673 83.5334 78.574 83.3221 77.8497 83.3221C77.3249 83.3221 77.0625 83.2329 77.0625 83.0545C77.0625 82.8761 77.1937 82.8065 77.4561 82.8459H81.4552L88.8865 93.0796V84.3258C88.9068 84.02 88.8856 83.7128 88.8236 83.4127C88.7816 83.3287 88.6136 83.2867 88.3197 83.2867H87.4853C87.0864 83.2867 86.887 83.208 86.887 83.0506C86.887 82.9535 86.9867 82.8944 87.1861 82.8734C87.3856 82.8524 88.0941 82.8419 89.3117 82.8419C90.4662 82.8419 91.138 82.8511 91.3269 82.8695C91.5198 82.8931 91.6143 82.9561 91.6143 83.0663Z" fill="#4D4D4C"/>
<path d="M45.7979 0C38.9975 4.00971e-07 32.3499 2.01637 26.6954 5.79415C21.041 9.57193 16.6336 14.9415 14.0307 21.2239C11.4278 27.5063 10.7461 34.4194 12.072 41.0892C13.3978 47.759 16.6716 53.8859 21.4793 58.6952C26.2871 63.5045 32.4129 66.7804 39.0823 68.1085C45.7517 69.4366 52.6652 68.7573 58.9486 66.1566C65.2319 63.5558 70.6031 59.1504 74.3829 53.4973C78.1626 47.8443 80.1813 41.1974 80.1836 34.3971C80.1852 29.8806 79.2969 25.408 77.5696 21.2348C75.8422 17.0616 73.3096 13.2696 70.1165 10.0754C66.9233 6.88117 63.1321 4.34732 58.9595 2.61855C54.7868 0.889793 50.3145 -2.66313e-07 45.7979 0ZM46.5182 67.0663C45.731 66.7002 43.9755 65.8225 43.4205 65.1573C42.6962 64.2914 41.602 63.1893 41.3658 62.8272C40.9407 62.2053 40.185 60.9379 40.185 60.9379C39.8658 60.4434 39.6018 59.9155 39.3978 59.3634C39.0042 58.3125 38.461 57.3954 38.8507 56.0493C39.2403 54.7032 39.5749 54.2151 39.8268 53.9671C40.0787 53.7192 40.2913 53.8333 40.4802 53.8097C40.7413 53.7326 40.9749 53.5824 41.1533 53.3767C41.3848 53.1051 41.5493 52.7829 41.6335 52.436C41.6419 52.3411 41.6276 52.2455 41.5916 52.1572C41.5556 52.069 41.4991 51.9906 41.4267 51.9286C41.3543 51.8666 41.2682 51.8228 41.1754 51.8008C41.0827 51.7788 40.986 51.7794 40.8935 51.8023C40.6306 51.9126 40.3962 52.0811 40.208 52.2952C40.0198 52.5093 39.8828 52.7634 39.8071 53.0382C39.8071 53.3019 39.4844 53.5735 39.2994 53.8254C38.9586 54.2956 38.6795 54.8075 38.4689 55.3487C38.2721 55.9155 38.2799 56.2146 38.1343 55.947C37.9311 55.1197 37.9735 54.2511 38.2563 53.4476C38.6106 52.5698 39.63 51.4795 40.063 50.9875C40.496 50.4955 41.2005 49.3934 41.6571 48.9605C42.1137 48.5275 43.0859 47.5396 43.3221 47.3861C43.5582 47.2326 44.3022 45.8353 44.4202 45.603C44.5383 45.3708 44.8768 43.3162 44.9831 43.0328C45.2725 42.5039 45.4355 41.9152 45.4594 41.3127C45.4802 40.7449 45.4326 40.1767 45.3177 39.6202C45.2586 39.329 45.4043 39.4825 45.4279 39.1873C45.4515 38.8921 44.3888 37.4712 43.6842 37.1917C42.9796 36.9122 42.897 37.3019 42.6726 37.0697C42.4483 36.8375 42.6136 36.7194 42.6136 36.7194C42.6136 36.7194 42.3577 36.5344 42.1649 36.373C41.972 36.2116 41.9917 36.4163 41.8578 36.3297C41.724 36.2431 41.2399 35.7787 40.925 35.7826C40.6101 35.7865 40.4527 36.0817 40.307 36.0424C40.1614 36.003 39.5198 35.5858 39.3545 35.6488C39.1892 35.7118 37.7801 36.4714 37.5242 36.6328C37.2684 36.7942 36.2528 37.6601 36.0797 38.1836C35.9065 38.7071 35.2295 38.1127 34.7571 38.7582C34.2848 39.4038 34.2376 39.9587 34.1155 40.7066C33.9935 41.4544 33.655 42.3322 33.7219 42.6353C33.7733 43.3015 33.892 43.9609 34.0762 44.6033C34.3635 45.4889 34.7493 46.3902 35.0445 46.6618C35.3397 46.9334 37.0519 48.5196 37.1857 49.3187C37.3299 50.6599 37.3982 52.0081 37.3904 53.357C37.3471 53.6483 37.3038 53.975 37.0479 53.5578C36.7921 53.1406 35.501 49.8618 34.8713 48.8109C34.2415 47.76 32.9583 45.5912 32.5687 44.4813C32.3515 43.8871 32.2384 43.26 32.2341 42.6274C32.1514 42.0527 31.8405 40.864 32.8914 39.7383C33.7762 38.8115 34.7595 37.9839 35.8238 37.2704C36.4969 36.8375 37.6265 36.1329 37.8863 35.574C38.1461 35.0151 38.5633 33.9484 38.5515 33.4643C38.5397 32.9801 38.5515 32.9486 38.6657 32.9014C38.7798 32.8542 38.5594 32.2559 38.2327 32.1142C37.6901 31.7644 37.265 31.2598 37.0125 30.6657C36.8984 30.1855 35.0208 30.4493 34.2572 28.8197C33.4936 27.1902 34.1943 27.1548 34.0171 26.8989C33.84 26.6431 33.6786 26.0055 33.3598 25.9267C33.041 25.848 32.0137 25.852 31.8326 25.7103C31.6515 25.5686 30.7974 25.9937 30.4904 25.9504C30.1834 25.9071 28.0107 26.3794 27.1762 27.021C26.3417 27.6625 26.0741 27.328 25.8773 27.8987C25.6805 28.4694 25.712 28.8355 25.3774 28.9693C25.0428 29.1031 23.3897 30.3784 23.6298 31.5868C23.8699 32.7951 24.9287 33.1612 24.8106 33.3422C24.6925 33.5233 23.7164 34.3971 24.476 35.5976C25.2357 36.7981 25.9678 37.3334 26.5425 37.4987C27.1172 37.664 30.5967 39.1676 30.8092 40.1241C31.0218 41.0805 31.99 43.4894 31.687 43.7452C31.3839 44.0011 31.1792 43.1273 30.1794 42.8045C29.1797 42.4817 28.1917 42.2259 27.928 42.1039C27.6643 41.9819 28.0225 41.0884 26.8652 41.0766C25.708 41.0648 25.0901 41.5686 25.2003 42.0645C25.3105 42.5605 26.0072 42.9068 26.7078 42.8754C27.4084 42.8439 27.3022 42.6628 27.6682 42.6313C28.0343 42.5998 29.8685 43.2257 30.4904 43.6429C31.1123 44.0601 32.6316 45.3708 34.147 48.7007C35.6624 52.0306 37.7682 56.3524 38.0831 57.5056C38.398 58.6589 38.6224 58.7258 38.5791 59.0328C38.5358 59.3398 36.737 57.3482 36.0127 56.4154C35.2885 55.4825 34.517 54.4985 33.8046 50.9049C33.0922 47.3113 31.5964 46.9688 30.0692 46.1816C28.542 45.3944 26.6763 45.788 25.2003 46.4021C24.0872 46.8085 23.0749 47.4502 22.2325 48.2835C21.0989 49.2675 20.847 48.9802 20.595 49.9406C20.3431 50.901 20.6501 51.0269 20.7367 51.4677C20.8233 51.9086 20.225 51.9086 20.2762 52.2549C20.3274 52.6013 20.9808 53.1169 20.965 53.5932C20.9493 54.0695 21.213 55.4668 21.5436 55.7108C21.8743 55.9548 26.267 59.824 26.7629 59.6823C27.2589 59.5406 27.1565 59.3241 27.4242 59.4618C27.6918 59.5996 29.1167 60.1507 29.8606 59.8082C30.6045 59.4658 32.1869 59.0446 32.73 58.5093C33.2732 57.974 35.0012 57.0924 35.4617 57.1081C35.9222 57.1238 36.9259 58.1275 37.7643 59.206C38.6027 60.2845 40.0827 61.8471 40.3424 62.2879C41.2596 63.8387 42.8301 65.177 42.897 65.5312C42.9639 65.8855 42.897 65.9485 41.358 65.3541C40.1675 64.923 39.0008 64.429 37.8627 63.8742C37.4219 63.5947 37.5714 63.0043 36.981 62.8547C36.3906 62.7052 35.6624 63.0318 35.7333 63.3743C35.8041 63.7167 35.9143 64.6574 36.6504 64.8621C37.3864 65.0668 37.4652 65.0589 37.6305 64.8346C37.7958 64.6102 37.6777 64.3937 38.1894 64.5157C38.7011 64.6378 43.7747 66.8774 44.4478 67.1175C38.8412 66.8982 33.3856 65.2387 28.6066 62.2988C23.8276 59.359 19.8864 55.2378 17.1625 50.3325C14.4387 45.4272 13.0242 39.9031 13.0553 34.2924C13.0864 28.6817 14.5619 23.1735 17.3399 18.2987C18.1507 17.7673 19.4536 16.9722 20.1818 16.8502C21.2917 16.6652 22.815 16.2913 23.2322 16.2637C23.984 16.2126 25.4679 16.1968 25.4679 16.1968C26.0605 16.1788 26.6532 16.2263 27.2352 16.3385C28.3413 16.5275 29.4158 16.5353 30.3841 17.5469C31.3524 18.5585 31.5964 19.1213 31.683 19.4441C31.7696 19.7668 31.561 19.9125 31.4862 20.0856C31.4225 20.3458 31.4334 20.6186 31.5177 20.8729C31.6339 21.211 31.8281 21.5171 32.0845 21.7663C32.1619 21.8217 32.2515 21.8578 32.3456 21.8716C32.4398 21.8854 32.5359 21.8765 32.626 21.8458C32.7161 21.815 32.7975 21.7631 32.8635 21.6945C32.9295 21.626 32.9782 21.5426 33.0056 21.4515C33.0455 21.1671 33.0197 20.8773 32.9304 20.6044C32.841 20.3315 32.6903 20.0827 32.4899 19.877C32.2656 19.7393 32.1947 19.326 32.0963 19.0465C31.8645 18.5147 31.5656 18.0147 31.2068 17.5587C30.8132 17.1021 30.5534 16.9565 30.8604 16.9683C31.6758 17.2134 32.4021 17.6907 32.9505 18.342C33.5251 19.0938 33.9542 20.5265 34.1549 21.1484C34.3556 21.7703 34.9421 22.9393 35.0917 23.5533C35.2413 24.1673 35.5916 25.5213 35.5994 25.785C35.6073 26.0488 36.4378 27.4185 36.5795 27.635C36.7212 27.8515 38.3193 29.2094 38.5082 29.4259C38.8169 29.9436 39.2413 30.3827 39.7481 30.709C40.2269 31.0163 40.741 31.2647 41.2792 31.449C41.5587 31.5474 41.354 31.5907 41.5941 31.7639C41.8342 31.9371 43.5976 31.7403 44.1998 31.2758C44.802 30.8114 44.5108 30.5358 44.8178 30.4689C45.1248 30.402 45.1524 30.5949 45.1524 30.5949C45.1524 30.5949 45.4397 30.4689 45.6759 30.3823C45.912 30.2957 45.727 30.2131 45.8687 30.1383C46.0104 30.0635 46.656 29.8864 46.8134 29.6109C46.9708 29.3354 46.8134 29.052 46.9039 28.9457C46.9945 28.8394 47.6911 28.5048 47.7344 28.3277C47.7777 28.1506 47.8171 26.5683 47.8171 26.2534C47.8171 25.9385 47.577 24.6357 47.2149 24.2224C46.8528 23.8091 47.7069 23.5257 47.392 22.7897C47.0771 22.0537 46.6048 21.7348 46.0419 21.2507C45.4791 20.7666 44.8611 20.0266 44.5856 19.9203C43.9896 19.629 43.3659 19.3982 42.7238 19.2315C41.8146 19.0308 40.8423 18.9048 40.4605 19.019C40.0787 19.1331 37.843 19.8062 37.0873 19.5149C35.859 18.9583 34.6632 18.3328 33.5054 17.6414C33.2732 17.4564 33.0174 17.2478 33.5054 17.2478C33.9935 17.2478 37.477 17.7909 38.7011 17.7831C39.9252 17.7752 42.4443 17.7831 43.6055 17.9995C44.2277 18.1143 44.8256 18.3353 45.3728 18.6529C45.912 18.8733 47.1007 19.1922 47.5258 20.6879C47.8738 21.9206 48.0863 23.1876 48.1595 24.4665C48.191 25.2537 48.2225 26.5959 48.5728 27.1036C48.9231 27.6114 49.6316 28.5127 50.0528 28.7449C50.474 28.9772 50.5015 28.9969 50.4818 29.1385C50.4622 29.2802 51.0919 29.3747 51.3832 29.1661C51.9596 28.8769 52.6095 28.7672 53.2489 28.8512C53.7213 28.9969 54.4297 27.2453 56.2285 27.4303C58.0273 27.6153 57.6967 28.2175 58.0077 28.2175C58.3186 28.2175 58.9484 28.3789 59.1885 28.1427C59.4286 27.9066 59.9364 27.021 60.1489 26.9383C60.3615 26.8556 60.4284 25.9031 60.6252 25.6591C60.822 25.4151 61.5147 23.2975 61.3848 22.2583C61.2549 21.2192 61.68 21.1523 61.2904 20.6839C60.9007 20.2155 60.5661 20.066 60.6212 19.7078C60.6763 19.3496 60.4166 17.2792 59.2515 16.8738C58.0864 16.4684 57.2204 17.1848 57.1417 16.9958C57.063 16.8069 56.7875 15.5198 55.3705 15.5631C53.9535 15.6064 53.119 15.9567 52.6861 16.3779C52.2531 16.799 49.1908 19.0229 48.2579 18.7395C47.3251 18.4561 44.7627 18.0468 44.6918 17.6571C44.621 17.2674 45.4791 17.5312 46.2663 16.8384C47.0535 16.1457 47.7738 15.4214 48.0139 15.264C48.254 15.1065 48.8405 15.8583 49.4388 14.8704C50.0371 13.8824 49.915 13.0913 49.4388 12.9338C48.9625 12.7764 48.3012 13.2015 47.9745 13.8234C47.6478 14.4453 47.8565 14.4453 47.6951 14.7759C47.5337 15.1065 46.0655 16.37 45.3885 16.6928C44.7115 17.0155 42.8143 17.661 39.1774 17.2753C35.5404 16.8896 30.7462 16.5078 29.6008 16.1811C28.4554 15.8544 28.2783 16.0276 28.0264 15.8308C27.7745 15.634 30.4156 15.0987 31.5689 14.9491C32.7222 14.7995 33.9778 14.6342 37.4534 15.8544C40.9289 17.0746 41.9681 15.9528 43.4165 15.0318C44.865 14.1107 45.4672 12.3041 45.6995 10.7257C45.9143 9.56081 45.8754 8.36327 45.5853 7.21477C45.3137 5.73876 45.6877 5.66791 44.991 4.96335C44.2943 4.2588 44.0266 4.45954 43.6015 4.30997C43.1764 4.1604 43.4795 3.64872 43.1489 3.52276C42.8183 3.39681 42.0468 3.69201 41.6453 3.43617C41.2438 3.18033 39.8583 2.66077 39.4962 2.82215C39.1341 2.98352 33.5566 4.79017 33.4267 5.30185C33.2968 5.81354 33.533 5.82535 33.2811 5.98279C33.0292 6.14023 31.8287 7.09276 31.746 7.90752C31.6634 8.72228 31.2225 10.3006 31.4114 11.0564C31.6004 11.8121 31.4784 13.7329 31.2304 14.1225C30.9824 14.5122 29.6087 14.8664 28.2547 15.0396C26.9007 15.2128 24.8027 15.693 24.291 15.697C22.4922 15.697 20.5399 16.3779 20.1975 16.2519C19.8551 16.126 19.8472 16.0276 21.1343 15.016C22.1077 14.207 23.1233 13.4502 24.1769 12.7489C24.6414 12.5088 25.0743 12.9378 25.5034 12.5048C25.9324 12.0719 26.019 11.2807 25.6923 11.1666C25.3656 11.0524 24.5115 10.6706 23.9447 11.1981C23.3779 11.7255 23.3582 11.8003 23.4684 12.0561C23.5786 12.312 23.8266 12.3198 23.4684 12.6977C23.1614 13.0165 19.7999 15.4529 18.501 16.4251C21.5211 11.829 25.6527 8.06973 30.5127 5.49565C35.3727 2.92157 40.8039 1.61603 46.3028 1.70003C51.8018 1.78403 57.1906 3.25485 61.9697 5.97618C66.7488 8.6975 70.7635 12.5812 73.6418 17.2674C73.7088 18.1924 73.7835 19.9597 73.5001 20.7233C73.1065 21.7781 72.6736 23.2857 72.4886 23.6596C72.1579 24.3366 71.4376 25.6276 71.4376 25.6276C71.1578 26.1498 70.8212 26.6396 70.4339 27.0879C69.7176 27.9538 69.1783 28.8788 67.8243 29.2015C66.4703 29.5243 65.8562 29.481 65.5335 29.3826C65.2107 29.2842 65.1871 29.0441 65.0769 28.8945C64.8798 28.7055 64.6325 28.577 64.3645 28.5245C64.0127 28.4568 63.65 28.473 63.3057 28.5718C63.219 28.6114 63.143 28.6711 63.084 28.746C63.0251 28.8209 62.9849 28.9088 62.9668 29.0023C62.9487 29.0959 62.9532 29.1925 62.98 29.2839C63.0068 29.3754 63.055 29.4592 63.1207 29.5282C63.347 29.7021 63.6098 29.8223 63.8894 29.8795C64.169 29.9368 64.458 29.9297 64.7345 29.8588C64.9667 29.7329 65.3603 29.8588 65.6555 29.9179C66.2318 29.9813 66.8138 29.9707 67.3874 29.8864C67.9778 29.7762 68.2336 29.6227 68.0723 29.8864C67.4519 30.4697 66.675 30.8595 65.8366 31.0082C64.8998 31.1341 63.4395 30.7917 62.8058 30.6539C62.1721 30.5162 60.8574 30.4532 60.2552 30.2603C59.653 30.0675 58.3147 29.7211 58.0667 29.5912C57.8187 29.4613 56.2325 29.5046 55.9766 29.5203C55.7208 29.5361 53.7645 30.2564 53.4654 30.3076C52.8621 30.3174 52.2693 30.467 51.7335 30.7445C51.2296 31.0072 50.7591 31.3297 50.3323 31.7049C50.1079 31.8977 50.1709 31.7049 49.9032 31.8229C49.6356 31.941 48.9271 33.5745 49.0294 34.3263C49.1318 35.078 49.5175 34.9639 49.423 35.263C49.3286 35.5622 49.1475 35.4874 49.1475 35.4874C49.1475 35.4874 49.1121 35.8023 49.0688 36.0463C49.0255 36.2903 49.1908 36.1762 49.1829 36.3376C49.1751 36.499 49.0097 37.1484 49.1829 37.42C49.3561 37.6916 49.6749 37.6837 49.7143 37.8136C49.7537 37.9435 49.7143 38.7189 49.8363 38.8409C49.9583 38.9629 51.3202 39.7895 51.5958 39.943C51.8713 40.0965 53.119 40.5413 53.6583 40.4311C54.1975 40.3209 54.0165 41.2183 54.8116 41.297C55.6066 41.3757 56.1144 41.1514 56.819 40.9034C57.5235 40.6554 58.4603 40.5098 58.6965 40.3012C59.2455 39.9295 59.7558 39.5035 60.2197 39.0298C60.8377 38.3332 61.4281 37.5459 61.5069 37.176C61.5856 36.806 62.1288 34.5152 62.7546 33.9996C63.8489 33.2104 64.9869 32.4837 66.1633 31.8229C66.4388 31.7127 66.7419 31.5946 66.5057 32.0237C66.2695 32.4527 64.0732 35.1843 63.4749 36.2628C62.8766 37.3413 61.621 39.5179 60.8456 40.4075C60.437 40.8901 59.9483 41.2989 59.401 41.6158C58.9445 41.974 58.0706 42.8478 56.567 42.4739C55.3243 42.1624 54.1193 41.7163 52.9734 41.1435C52.261 40.7735 51.0959 40.1398 50.4779 40.191C49.8599 40.2421 48.7303 40.4075 48.317 40.6594C47.9037 40.9113 47.8761 40.9231 47.7699 40.8404C47.6636 40.7578 47.2621 41.234 47.2975 41.6276C47.261 42.2718 47.032 42.8902 46.6402 43.4028C46.2781 43.7413 47.4274 45.2409 46.3883 46.6933C45.3492 48.1457 44.9713 47.5711 44.8375 47.8545C44.7036 48.1378 44.2274 48.5905 44.3179 48.9054C44.4084 49.2203 44.9201 50.1137 44.8847 50.3381C44.8493 50.5625 45.6444 51.0978 45.7585 51.3851C45.8727 51.6724 47.3566 53.3295 48.3288 53.7467C49.301 54.1639 49.1436 54.5536 49.734 54.4434C50.3244 54.3332 50.6314 54.1246 50.9148 54.3489C51.1982 54.5733 53.123 55.3802 54.0637 54.5733C55.0044 53.7664 54.8037 52.6564 55.0084 52.684C55.213 52.7115 56.4647 53.113 57.1338 51.8613C57.803 50.6097 57.9211 49.7044 57.7636 49.1258C57.6062 48.5472 57.2086 44.7961 57.9368 44.1191C58.665 43.4421 60.2788 41.4308 60.6488 41.5646C61.0188 41.6985 60.3615 42.3125 60.574 43.3398C60.7865 44.3671 61.0542 45.3551 61.0778 45.6424C61.1014 45.9297 60.1489 46.0635 60.7078 47.0751C61.2668 48.0867 62.0146 48.374 62.3925 48.0316C62.7703 47.6891 62.727 46.9137 62.3492 46.3194C61.9713 45.7251 61.869 45.9258 61.6604 45.603C61.4517 45.2803 61.0857 43.3949 61.1447 42.651C61.2038 41.9071 61.5895 39.9351 63.7307 36.9713C65.872 34.0074 68.5918 30.0084 69.4342 29.1779C70.2765 28.3474 70.2214 28.1073 70.5166 27.9971C70.8118 27.8869 69.9616 30.4296 69.5089 31.5395C69.0563 32.6495 68.5918 33.7634 65.7972 36.1723C63.0026 38.5811 63.4631 40.0414 63.5418 41.7536C63.6205 43.4658 64.888 44.9024 66.1436 45.8746C67.0469 46.6409 68.1048 47.2035 69.2452 47.5238C70.6583 48.0237 70.5363 48.3819 71.4927 48.126C72.4492 47.8702 72.4059 47.5396 72.7483 47.2483C73.0908 46.957 73.3821 47.4727 73.6694 47.2483C73.9567 47.0239 74.063 46.2092 74.492 45.9888C74.9211 45.7683 75.9996 44.8473 76.0665 44.438C76.1334 44.0286 77.3103 38.3017 76.9364 37.9396C76.5624 37.5774 76.4286 37.7703 76.4168 37.4751C76.405 37.1799 76.1767 35.6645 75.5115 35.1883C74.8463 34.712 73.6969 33.543 72.9648 33.3383C72.2327 33.1336 70.6032 32.067 70.3946 31.6576C70.186 31.2483 70.5559 29.8825 71.0794 28.619C71.6029 27.3555 72.2288 25.3009 72.4846 24.8561C73.3781 23.2817 73.7639 21.2625 74.0591 21.0303C74.3543 20.7981 74.4291 20.8374 74.6652 22.4551C74.88 23.702 75.0285 24.9594 75.11 26.2219C75.0864 26.7415 74.4999 26.9068 74.6613 27.4933C74.8227 28.0798 75.4485 28.5521 75.7319 28.3238C76.0153 28.0955 76.7592 27.5366 76.5742 26.7927C76.3892 26.0488 76.342 25.9858 76.0665 25.9543C75.791 25.9228 75.6729 26.1314 75.5154 25.6276C75.358 25.1238 74.8109 20.1368 74.6574 19.0465C77.2753 23.9732 78.5888 29.4879 78.4727 35.0657C78.3566 40.6435 76.8148 46.0988 73.9942 50.9122C71.1735 55.7257 67.1678 59.7372 62.3584 62.5648C57.549 65.3924 52.0959 66.9421 46.5182 67.0663ZM37.414 46.4139C37.5045 46.9728 37.662 47.6419 37.5124 47.7049C37.3628 47.7679 36.7881 46.835 36.7252 46.6973C36.2316 45.822 35.8959 44.8667 35.7333 43.8751C35.5006 42.3077 35.6699 40.7068 36.2253 39.2227C36.5576 38.4148 37.0443 37.6795 37.658 37.0579C37.9623 36.72 38.3854 36.5127 38.8389 36.4793C38.9845 36.4793 39.1144 36.4793 39.1734 36.5619C39.382 36.8414 38.461 37.6365 37.9454 38.5733C37.7013 39.018 37.6305 40.1477 37.5085 42.3715C37.3864 44.5954 37.3038 45.7369 37.414 46.4099V46.4139ZM35.1862 44.0129C35.2673 44.7156 35.4434 45.4042 35.7097 46.0596C35.7569 46.1619 35.8317 46.3194 35.8041 46.3391C35.7766 46.3588 35.1783 45.7762 34.8162 45.0244C34.6134 44.5695 34.4807 44.0864 34.4226 43.5917C34.2742 42.9363 34.2581 42.2578 34.3753 41.5961C34.4737 41.112 34.5643 41.1356 34.6705 40.561C34.7022 40.1842 34.805 39.8169 34.9736 39.4785C35.0629 39.2958 35.2195 39.1548 35.4105 39.0849C35.4538 39.0849 35.564 39.0416 35.6231 39.0849C35.6821 39.1282 35.6231 39.4234 35.5837 39.4785C35.3475 40.0571 35.3082 40.7027 35.1271 41.3009C34.8673 42.1078 34.9775 42.7573 35.1862 44.0089V44.0129ZM38.0989 39.5888C38.3744 38.3371 38.5476 38.6362 39.0396 37.4042C39.0988 37.2279 39.2207 37.0795 39.382 36.987C39.4414 36.9538 39.5068 36.9329 39.5745 36.9254C39.6421 36.918 39.7105 36.9242 39.7756 36.9437C40.063 37.0736 39.9606 37.79 39.937 38.4906C39.9055 39.5612 40.1023 39.4234 40.2126 41.2458C40.2792 41.9418 40.2911 42.642 40.248 43.3398C40.2165 43.7098 40.1575 44.127 39.4608 46.4453C38.9136 48.2953 38.7129 48.8267 38.5122 48.807C38.3744 48.807 38.2839 48.5354 38.2012 48.2992C38.057 47.8728 38.0139 47.4187 38.0753 46.9728C38.2091 46.1265 37.9178 45.9691 37.8312 43.7925C37.737 42.3842 37.827 40.9697 38.0989 39.5848V39.5888ZM40.7085 41.2655C40.6652 40.7105 40.6416 40.9231 40.4881 39.6596C40.2637 37.7782 40.433 38.2151 40.3503 37.7191C40.3201 37.4781 40.3267 37.2339 40.37 36.9949C40.4094 36.7705 40.4408 36.7587 40.4527 36.7587C40.4645 36.7587 40.5707 37.0421 40.5944 37.1523C40.9092 38.7268 40.9486 39.1204 40.9486 39.1204C41.1612 41.2734 41.1769 41.2537 41.1493 41.4505C41.0215 41.9547 40.9321 42.4679 40.8817 42.9856C40.9002 43.3094 40.8817 43.6342 40.8266 43.9538C40.8266 43.9538 40.8266 43.9538 40.6849 43.6704C40.7439 41.8126 40.7282 41.482 40.7124 41.2616L40.7085 41.2655ZM40.7794 46.0517C41.1144 45.1184 41.3583 44.1548 41.5075 43.1745C41.7122 41.7733 41.7476 39.9863 41.4406 38.8252C41.2914 38.1588 41.1034 37.5017 40.8778 36.8571C40.8418 36.8169 40.815 36.7693 40.7994 36.7176C40.7837 36.6659 40.7796 36.6114 40.7872 36.558C40.8106 36.4967 40.8573 36.4472 40.9171 36.4202C41.1533 36.314 41.5666 36.7272 41.665 36.8138C42.2336 37.4538 42.6614 38.2061 42.9206 39.022C43.2254 40.042 43.3427 41.1089 43.267 42.1708C43.2429 42.7363 43.1558 43.2974 43.0072 43.8436C42.897 44.2372 42.7199 44.7253 41.3698 46.835C40.2559 48.5787 39.7953 49.1297 39.5631 49.6808C39.438 49.944 39.2919 50.1967 39.1262 50.4365C38.9176 50.7593 38.7916 50.9128 38.7326 50.8891C38.6735 50.8655 38.6854 50.7789 38.6854 50.7514C38.6845 50.6612 38.712 50.5731 38.7641 50.4995C38.8743 50.3342 38.9215 50.1334 39.0278 49.9642C39.3466 49.4525 39.9882 48.0276 40.1338 47.7009C40.2126 47.512 40.5038 46.8586 40.7833 46.0478L40.7794 46.0517ZM43.9282 40.9349C43.9085 40.5437 43.8411 40.1564 43.7275 39.7816C43.5386 39.2109 43.2197 38.6913 43.2434 38.0576C43.2434 37.9199 43.2709 37.7624 43.3693 37.7113C43.4677 37.6601 43.6448 37.7624 43.7983 37.8805C44.1674 38.1624 44.4743 38.5175 44.6997 38.9236C45.059 39.7769 45.1669 40.7151 45.0107 41.6276C44.8925 42.312 44.7201 42.9859 44.495 43.6429C44.0266 45.2173 43.7826 46.0045 43.3418 46.5595C43.3418 46.5792 42.9285 46.9531 42.1373 47.7403C41.0982 48.7597 41.047 48.7991 40.9092 49.0038C40.677 49.3462 40.3897 49.8658 40.244 49.8146C40.2258 49.8068 40.2096 49.795 40.1966 49.78C40.1836 49.765 40.1743 49.7472 40.1693 49.728C40.1693 49.6414 40.2519 49.5548 40.2755 49.5312C40.6691 49.173 40.8148 48.622 41.1257 48.193C41.797 47.3084 42.4021 46.3757 42.9363 45.4023C43.2826 44.783 43.5472 44.1215 43.7236 43.4343C43.9345 42.6163 44.0037 41.7683 43.9282 40.927V40.9349ZM26.8692 32.1614C27.2102 32.7338 27.5861 33.2845 27.9949 33.8106C28.2987 34.2105 28.5799 34.6271 28.8372 35.0584C29.0458 35.4087 29.3804 35.9676 29.2938 36.0345C29.2072 36.1014 28.7585 35.5622 27.9241 34.8301C27.0896 34.098 25.8694 33.1887 25.6293 33.0156C25.0074 32.559 24.7161 32.37 24.5233 31.9331C24.3423 31.4926 24.3297 31.0009 24.4878 30.5516C24.6453 30.1344 25.0271 29.6069 25.342 29.662C25.5388 29.6975 25.6372 29.9454 25.7356 30.1659C25.8222 30.3233 26.1725 30.9373 26.8692 32.1614ZM26.4126 29.0638C26.4638 29.0638 26.5385 29.1858 26.5976 29.2881C26.7691 29.6087 26.9102 29.9448 27.0188 30.2918C27.2352 30.957 27.4714 31.3545 27.4124 31.3782C27.3533 31.4018 27.3612 31.3467 27.2667 31.2247C27.0687 30.9795 26.8947 30.7159 26.7472 30.4374C26.5453 30.1366 26.411 29.7955 26.3536 29.4377C26.3811 29.4259 26.3457 29.0874 26.4205 29.0677L26.4126 29.0638ZM24.9011 34.1531C24.9208 34.1019 25.0428 33.7988 25.2947 33.7595C25.4797 33.7201 25.6529 33.8343 26.019 34.1531C26.2967 34.3844 26.5596 34.6328 26.8062 34.897C27.1998 35.2906 27.1329 35.1725 28.0106 35.9794C28.4734 36.3761 28.905 36.8077 29.3017 37.2704C29.6363 37.6876 30.1361 38.4001 30.0181 38.5142C29.9 38.6284 29.6835 38.4119 29.4867 38.2899C28.1917 37.5026 28.0185 37.7624 26.8338 37.0185C26.1862 36.6776 25.6311 36.1846 25.216 35.5819C25.0586 35.2748 24.6965 34.6805 24.9011 34.1531ZM29.6245 33.3659C29.2308 32.6967 29.2112 32.8975 28.8372 32.2283C28.3846 31.4018 28.4909 31.1853 27.9831 30.3036C27.8066 30.0521 27.6674 29.7763 27.5698 29.4849C27.4777 29.1748 27.4564 28.8479 27.5074 28.5283C27.5585 28.2088 27.6807 27.9049 27.865 27.6389C28.2298 27.1341 28.7473 26.7601 29.3411 26.5723C29.7707 26.3811 30.2441 26.3104 30.7108 26.3676C31.0649 26.4021 31.4013 26.5388 31.6791 26.7612C32.1436 27.1823 32.1869 27.8593 32.1672 28.5678C32.1239 30.0871 31.8326 30.402 31.6122 32.0158C31.5689 32.3307 31.3288 34.1531 31.1359 35.6094C31.1005 35.8928 31.0218 36.4753 30.8801 36.4832C30.7384 36.4911 30.6911 36.1211 30.4865 35.4638C30.2689 34.7327 29.9802 34.0248 29.6245 33.3501V33.3659ZM31.7106 36.5147C31.8011 35.4087 31.7696 35.5268 31.8129 35.0899C31.8916 34.3341 32.0333 33.4918 32.3049 32.0945C32.5214 30.9767 32.6474 29.847 32.8481 28.7253C32.9111 28.3868 33.104 27.324 32.6828 26.9777C32.4928 26.821 32.334 26.6301 32.2144 26.4148C32.1357 26.2731 32.1317 26.218 32.1475 26.1747C32.2183 26.0094 32.6395 26.0055 32.9347 26.1235C33.0543 26.1525 33.1609 26.2203 33.2378 26.3164C33.3756 26.529 33.2378 26.8045 33.163 27.1036C33.0722 27.5436 33.1175 28.0007 33.2929 28.4143C33.5566 29.1267 34.0447 29.0953 34.2769 29.7801C34.3764 30.1261 34.3873 30.4916 34.3084 30.8429C34.1943 31.6616 33.9148 32.1181 33.5212 32.9014C32.9434 34.1254 32.4336 35.3803 31.994 36.6603C31.9192 36.8847 31.746 37.3924 31.6752 37.3767C31.6043 37.361 31.683 37.05 31.7263 36.5108L31.7106 36.5147ZM36.4733 31.882C36.336 32.3995 36.1378 32.8989 35.8828 33.3698C35.5337 33.9355 35.1526 34.4809 34.7414 35.0033C34.1116 35.8653 33.718 36.4084 33.0725 37.1838C32.427 37.9592 32.2616 38.0931 32.2026 38.0537C32.1436 38.0143 32.2538 37.7506 32.2931 37.6601C32.7812 36.4557 32.5293 36.5619 33.1079 35.1764C33.9345 33.2084 34.458 32.9723 34.5682 32.1221C34.6272 31.6734 34.8319 31.2561 34.9185 30.8153C34.9461 30.6775 34.9775 30.4965 35.1035 30.4453C35.2295 30.3941 35.4026 30.6028 35.8356 30.7799C36.2686 30.957 36.3434 30.8586 36.4654 31.0003C36.5874 31.142 36.6071 31.4097 36.4733 31.882ZM36.7488 32.618C36.8157 32.3937 36.9613 31.8308 37.1424 31.8308C37.2369 31.8308 37.2684 31.9568 37.4455 32.1378C37.7171 32.4173 37.9099 32.3937 38.0516 32.5314C38.402 32.8857 38.028 33.7988 37.8391 34.2554C37.6218 34.8237 37.2895 35.3409 36.8629 35.7747C36.4693 36.1683 36.4142 36.066 35.4696 36.7351C34.1549 37.664 33.3519 38.341 33.3519 38.341C33.0567 38.589 32.7576 38.8566 32.6749 38.7937C32.5923 38.7307 32.8284 38.2702 32.8796 38.1757C33.211 37.6065 33.6479 37.1055 34.1667 36.6997C34.7501 36.1433 35.2392 35.4959 35.6152 34.7828C36.0795 34.1093 36.4614 33.3825 36.7527 32.618H36.7488ZM30.207 55.2778C29.6835 55.3133 28.9829 55.1046 27.5737 54.6874C25.9403 54.2083 24.3581 53.5688 22.8504 52.7784C22.3494 52.5915 21.9124 52.265 21.5909 51.8377C21.0989 51.1056 21.0201 49.9957 21.5436 49.362C21.7365 49.1297 22.0908 48.866 22.3309 48.9683C22.571 49.0707 22.5159 49.4446 22.7245 49.8697C22.99 50.3336 23.4069 50.6922 23.9053 50.8852C25.1739 51.4679 26.4719 51.9843 27.7942 52.4321C30.1834 53.3531 30.2818 53.8727 31.4941 54.034C32.0398 54.1053 32.5664 54.2818 33.0449 54.5536C33.4385 54.7819 33.8951 55.1322 33.8321 55.2463C33.7692 55.3605 33.3008 55.1598 32.6828 55.0653C31.6161 54.8921 31.1241 55.2188 30.2109 55.2778H30.207ZM31.6791 55.9981C31.6397 56.1083 31.2855 56.0414 30.8132 56.0257C29.9236 55.9903 29.9079 56.1713 29.3607 56.1005C28.6011 56.0021 27.9595 55.5612 27.9949 55.4589C28.0303 55.3566 28.1484 55.4274 28.3452 55.4589C28.717 55.5004 29.0836 55.5796 29.4395 55.6951C29.7486 55.7927 30.0719 55.8379 30.3959 55.8289C30.9116 55.7974 31.1831 55.5927 31.4823 55.7659C31.5925 55.8171 31.7066 55.9312 31.683 56.0021L31.6791 55.9981ZM25.2947 54.7622C24.9707 54.7959 24.6432 54.7665 24.3304 54.6756C23.9233 54.6024 23.5267 54.4794 23.1496 54.3096C22.1616 53.853 22.3348 53.483 21.4098 53.0185C21.2681 52.9477 20.9965 52.8217 20.9729 52.6249C20.9729 52.4754 21.0595 52.2983 21.1697 52.2904C21.2799 52.2825 21.3626 52.4439 21.4334 52.5423C21.6932 52.9359 22.0671 52.9359 22.567 53.1839C23.1968 53.4751 23.0551 53.6326 23.8148 54.0891C24.6374 54.5733 25.3184 54.6874 25.2947 54.7622ZM29.0931 48.6417C30.9273 49.7713 31.191 49.9878 31.4941 50.2909C31.9979 50.8187 32.4378 51.4039 32.8048 52.0345C33.1984 52.6446 33.9266 53.8018 33.6826 54.0301C33.5684 54.1403 33.289 53.9711 32.5017 53.6365C31.994 53.4318 31.4705 53.2783 30.9549 53.0855C28.1209 52.0306 27.9634 51.9716 27.3848 51.7511C26.2523 51.3543 25.1704 50.8259 24.1611 50.1767C23.648 49.8681 23.2635 49.3844 23.0787 48.8148C23.0163 48.6202 23.0054 48.4127 23.0472 48.2126C23.2322 47.4569 24.2674 47.1775 24.5115 47.1105C24.925 47.0024 25.3562 46.9797 25.7789 47.0436C26.637 47.1814 27.2116 47.4805 29.097 48.6456L29.0931 48.6417ZM26.2906 46.4375C26.2906 46.2289 27.3179 46.0439 28.2586 46.1029C29.2284 46.1965 30.156 46.5456 30.947 47.1145C31.8657 47.7098 32.6068 48.542 33.0922 49.5233C33.7574 50.901 33.7928 52.3848 33.659 52.4203C33.6157 52.4203 33.5212 52.2471 33.3401 51.8771C32.9859 51.1686 32.7064 50.7907 32.5529 50.5073C32.3994 50.2239 32.0648 49.7871 31.0966 49.0904C30.5742 48.7022 30.0168 48.3636 29.4316 48.0788C28.7882 47.6191 28.1014 47.2236 27.3809 46.898C26.696 46.6343 26.2866 46.5752 26.2945 46.4414L26.2906 46.4375ZM42.4286 21.0185C43.896 21.6146 45.188 22.5734 46.1836 23.8052C46.7156 24.4983 47.1074 25.2884 47.3369 26.1314C47.4732 26.5635 47.4379 27.0314 47.2385 27.4382C47.1676 27.5641 47.1007 27.6743 46.9984 27.6861C46.652 27.7255 46.4355 26.529 45.8884 25.604C45.6286 25.1671 44.7076 24.5373 42.8379 23.2975C40.9683 22.0576 40.0236 21.4239 39.3899 21.1759C38.8625 20.9713 38.2091 20.7823 38.2288 20.6052C38.2484 20.4281 39.3466 20.4241 39.5041 20.4281C40.5057 20.451 41.4955 20.6495 42.4286 21.0146V21.0185ZM40.2519 19.8337C40.2519 19.759 41.0391 19.5779 41.8893 19.6487C42.3867 19.706 42.8725 19.8387 43.33 20.0423C43.9757 20.2452 44.574 20.5759 45.0894 21.0146C45.4554 21.3452 45.3885 21.4082 45.8294 21.8018C46.141 22.0195 46.4082 22.2947 46.6166 22.6126C46.7248 22.7818 46.7642 22.986 46.7268 23.1833C46.7268 23.2266 46.6835 23.3368 46.6048 23.3604C46.5261 23.3841 46.3174 23.1754 46.2742 23.1164C45.8805 22.6165 45.361 22.2583 44.9359 21.7978C44.3848 21.1995 43.755 20.9634 42.5742 20.5107C41.9283 20.2233 41.2464 20.0247 40.5471 19.9203C40.4409 19.8888 40.2519 19.877 40.2519 19.8337ZM38.5594 21.4829C39.2207 22.0261 39.5041 21.8529 41.4249 22.8881C42.6809 23.5213 43.8492 24.3152 44.9005 25.2497C45.8372 26.1235 45.4948 26.1196 46.3056 27.1705C46.4266 27.3104 46.4923 27.4895 46.4906 27.6743C46.4894 27.7415 46.4748 27.8077 46.4478 27.8692C46.4208 27.9307 46.3818 27.9862 46.3332 28.0325C46.0734 28.2175 45.5145 27.7609 44.9201 27.387C44.0148 26.8163 44.0306 27.0564 42.4207 26.2337C41.7885 25.9381 41.1805 25.5933 40.6022 25.2025C40.2992 24.986 39.9606 24.7184 38.3193 22.9629C37.0007 21.5538 36.6465 21.109 36.7449 20.9437C36.8433 20.7784 37.0952 20.8847 37.3392 20.9437C37.7885 21.0264 38.2119 21.2138 38.5751 21.4908L38.5594 21.4829ZM46.1561 28.7135C46.1285 28.7646 45.8491 28.6702 45.7388 28.6308C44.2195 28.1034 43.8771 27.942 43.8771 27.942C41.909 27.0328 41.909 27.0564 41.7673 26.9304C41.3997 26.564 41.005 26.2259 40.5865 25.9189C40.2165 25.6788 39.752 25.4347 39.7796 25.3796C39.8071 25.3245 39.7796 25.3796 40.0984 25.4032C41.6729 26.3912 41.9444 26.5408 42.1531 26.6431C42.6529 26.8911 42.4837 26.7572 43.6488 27.2689C45.3846 28.0286 44.9201 27.9538 45.3925 28.1349C45.6161 28.2339 45.8231 28.3667 46.0065 28.5285C46.1561 28.6702 46.1561 28.7056 46.1561 28.7135ZM36.8905 22.8763C37.0086 23.0456 37.4258 23.6281 37.9808 24.2775C38.6148 25.0408 39.3214 25.7407 40.0905 26.3676C41.1966 27.2571 42.7159 28.1939 43.8731 28.5167C44.5188 28.7237 45.1759 28.8932 45.8412 29.0244C45.8941 29.014 45.9486 29.0154 46.001 29.0283C46.0533 29.0412 46.1022 29.0654 46.1443 29.0992C46.1844 29.1505 46.2028 29.2155 46.1954 29.2802C46.1679 29.5361 45.6011 29.6739 45.4673 29.7211C44.6263 29.8865 43.76 29.8731 42.9245 29.6817C41.8895 29.4273 40.9093 28.9872 40.0315 28.3828C39.5671 28.074 39.1381 27.7149 38.7523 27.3122C38.4689 27.017 38.1382 26.6155 37.0046 24.3799C36.0678 22.5339 35.8238 21.8687 35.4696 21.3767C35.3066 21.1366 35.1631 20.8839 35.0405 20.6209C34.8673 20.2785 34.8004 20.0935 34.8516 20.0502C34.9028 20.0069 34.9697 20.0502 34.9933 20.0817C35.0716 20.127 35.1336 20.1959 35.1704 20.2785C35.257 20.4596 35.4066 20.6013 35.4971 20.7784C35.7805 21.3098 36.6858 22.589 36.8905 22.8763ZM43.8613 30.7484C43.8613 30.8743 43.6763 30.9609 43.4953 31.0318C43.0645 31.2072 42.6022 31.2916 42.1373 31.2798C41.2196 31.1558 40.3565 30.772 39.6497 30.1737C39.1208 29.7242 38.6286 29.2332 38.1776 28.7056C37.0637 27.5051 36.5008 26.8911 36.2489 26.2298C36.2489 26.2062 36.1072 25.667 35.8553 24.5885C35.505 23.1754 35.4971 23.1125 35.3908 22.892C35.2137 22.5181 34.9146 22.0064 35.0327 21.9041C35.0489 21.8922 35.0676 21.8842 35.0874 21.8808C35.1072 21.8774 35.1275 21.8786 35.1468 21.8844C35.2295 21.912 35.257 22.0458 35.2609 22.0733C35.3712 22.589 35.7687 23.0023 35.9812 23.4864C36.4035 24.5135 36.9008 25.508 37.4691 26.462C37.8187 27.0759 38.246 27.6421 38.7405 28.1467C39.3448 28.7454 40.0478 29.2354 40.8187 29.5951C41.1666 29.7772 41.5353 29.9159 41.9169 30.0084C42.5073 30.1344 43.0977 30.1265 43.6488 30.4689C43.7393 30.5319 43.8692 30.6303 43.8574 30.7405L43.8613 30.7484ZM59.2121 26.2574C58.6099 26.4463 58.0077 26.1393 57.4054 25.7614C56.1183 24.9545 55.9963 24.5452 54.7171 23.5336L51.8634 21.2979C51.6391 21.1208 51.1746 20.7587 51.2415 20.6328C51.3084 20.5068 51.6351 20.6328 52.3239 20.802C53.0631 20.9856 53.8185 21.0963 54.5793 21.1326C55.3665 21.1326 55.1933 21.0146 55.957 21.0342C56.8977 21.0618 57.0315 21.2665 58.051 21.2783C58.3579 21.2536 58.6668 21.2734 58.9681 21.3373C59.2811 21.4142 59.5729 21.5602 59.8221 21.7645C60.0714 21.9688 60.2718 22.2263 60.4087 22.5181C60.6586 23.0891 60.7179 23.7253 60.5779 24.3326C60.5242 24.7995 60.3446 25.243 60.0584 25.6158C59.8456 25.9049 59.5528 26.1252 59.216 26.2495L59.2121 26.2574ZM59.1137 27.6704C59.0287 27.7593 58.9165 27.8175 58.7949 27.8357C58.543 27.8357 58.3777 27.5838 58.173 27.3791C57.8441 27.0796 57.4326 26.8862 56.9921 26.8242C56.2443 26.6903 56.0239 27.1233 55.3154 26.9777C54.9664 26.8881 54.6456 26.7122 54.3825 26.466C53.737 25.9543 53.489 25.4662 53.0088 24.742C52.2473 23.623 51.4248 22.5468 50.5448 21.5184C50.3913 21.3373 50.0371 20.9319 50.0882 20.8807C50.1394 20.8296 50.3598 21.0146 50.8046 21.3255C51.7099 21.9631 51.6233 21.8765 51.9854 22.1403C52.5955 22.589 53.2489 23.14 54.3156 24.0847C55.1658 24.8365 56.079 25.5213 56.941 26.2613C57.2008 26.4857 58.0155 27.1941 58.5154 27.0052C58.7461 26.9213 58.9904 26.8812 59.2357 26.8871C59.3971 26.8871 59.4483 26.9147 59.4758 26.954C59.586 27.0879 59.3774 27.4539 59.1176 27.6625L59.1137 27.6704ZM57.3936 20.2273C57.3936 20.2273 57.4448 20.1998 57.5983 20.1801C57.9054 20.1311 58.2164 20.1113 58.5272 20.1211C58.8885 20.1017 59.2497 20.1608 59.586 20.2943C59.6136 20.2943 59.9245 20.4517 59.9049 20.5265C59.8852 20.6013 59.7356 20.5737 59.6175 20.5698C59.2543 20.5552 58.8932 20.5064 58.539 20.4241C57.8542 20.2706 57.3936 20.2746 57.3936 20.2273ZM59.9324 19.3102C59.8025 19.4637 59.5388 19.4205 59.2987 19.3929C59.1255 19.3732 58.421 19.3653 57.0079 19.3457C56.342 19.348 55.6768 19.3914 55.0162 19.4756C54.516 19.5365 54.0126 19.5694 53.5087 19.574C53.1151 19.574 52.4499 19.574 52.4341 19.4716C52.4184 19.3693 53.1112 19.2512 54.166 18.9048C55.2209 18.5585 56.6222 17.9681 56.8937 17.85C57.6022 17.5469 57.9132 17.3895 58.3895 17.4564C58.8607 17.5236 59.2908 17.7618 59.5978 18.1255C59.8773 18.4679 60.141 19.0465 59.9324 19.3102ZM56.449 17.1808C56.3899 17.358 56.2049 17.4524 55.7523 17.6099C55.409 17.7369 55.058 17.8421 54.7013 17.9248C54.1582 18.0507 54.3077 18.0665 53.1584 18.4128C52.5818 18.61 51.991 18.7626 51.3911 18.8694C50.8597 18.9481 49.9938 19.015 49.9544 18.8694C49.9308 18.7749 50.2103 18.6332 50.4189 18.527C51.765 17.8145 51.5997 17.5311 52.8592 16.8856C53.4827 16.5 54.1905 16.2717 54.9218 16.2204C55.2563 16.2204 55.953 16.2008 56.2994 16.6495C56.3604 16.7224 56.4051 16.8076 56.4302 16.8993C56.4553 16.991 56.4604 17.087 56.445 17.1808H56.449ZM51.2454 23.203C52.5247 24.9152 52.4578 25.4859 53.1387 26.0133C53.4969 26.2889 53.7488 26.6825 54.0873 26.9816C54.1896 27.0721 54.3313 27.1941 54.3117 27.328C54.292 27.4618 54.0243 27.5051 53.6504 27.7885C53.2765 28.0719 53.3237 28.1821 53.1387 28.2215C52.9537 28.2608 52.7175 28.1112 52.3751 27.757C51.998 27.375 51.6677 26.9496 51.3911 26.4896C51.0805 25.9062 50.8032 25.3056 50.5606 24.6908C50.1394 23.7107 49.8678 23.0967 49.5254 22.1481C49.1829 21.1995 49.1554 20.987 49.2144 20.9673C49.2735 20.9476 49.4506 21.1641 49.5136 21.2468C50.3047 22.2741 50.3441 21.9986 51.2415 23.203H51.2454ZM49.3679 23.3211C49.5503 24.1055 49.8587 24.8552 50.2811 25.541C50.6351 26.2856 51.0779 26.9848 51.5997 27.6232C51.7571 27.7924 52.1547 28.1978 52.0563 28.3671C52.009 28.4458 51.8831 28.4104 51.6351 28.4734C51.2415 28.5678 51.1785 28.741 50.9817 28.7922C50.4976 28.9142 49.8993 28.127 49.6041 27.7334C49.227 27.2605 48.951 26.7153 48.7933 26.1314C48.6476 25.5804 48.7696 25.5961 48.6712 24.4428C48.5374 22.8369 48.3642 21.8057 48.3642 21.8057C48.3012 21.4121 48.2225 21.0185 48.3209 20.9949C48.4193 20.9713 48.6949 21.3885 48.75 21.4829C49.0683 22.0516 49.2766 22.6752 49.364 23.3211H49.3679ZM34.3242 12.7489C35.0169 11.8908 34.9854 11.3004 35.3987 10.4817C35.6349 10.0133 36.1859 9.51342 37.2408 8.51367C38.4819 7.35208 39.8346 6.31582 41.2792 5.41994C41.6944 5.08399 42.197 4.87368 42.7277 4.81379C43.6094 4.76262 44.6052 5.25856 44.8847 6.03002C44.987 6.31342 45.0382 6.75426 44.8335 6.9117C44.6289 7.06914 44.3258 6.82904 43.8613 6.78574C43.3219 6.78068 42.7975 6.96291 42.3774 7.30137C41.2315 8.09886 40.1279 8.95545 39.0711 9.86767C37.0637 11.4421 36.5638 11.2807 35.812 12.2293C35.4743 12.6623 35.0559 13.0259 34.58 13.2999C34.1864 13.5282 33.6511 13.7407 33.5802 13.6345C33.5094 13.5282 33.9266 13.2409 34.3242 12.7489ZM34.4462 10.6234C34.9264 9.87554 34.7807 9.76927 35.1192 9.33237C35.5916 8.73015 36.3001 8.39952 36.367 8.48218C36.4339 8.56484 36.3158 8.63175 36.2017 8.79313C35.9749 9.08702 35.719 9.35735 35.4381 9.60002C35.1938 9.82604 34.9901 10.0923 34.8358 10.3872C34.5997 10.8477 34.639 11.1744 34.336 11.3555C34.2297 11.4145 34.0722 11.4578 34.025 11.4027C33.9778 11.3476 34.1943 11.0131 34.4462 10.6234ZM38.9018 5.72301C39.1714 5.40415 39.4795 5.11991 39.8189 4.87676C40.7164 4.2588 40.9447 4.59337 41.8146 4.03445C41.9484 3.94785 42.2082 3.7786 42.3892 3.8652C42.5703 3.95179 42.6254 4.10923 42.5782 4.2037C42.5309 4.29816 42.3499 4.29423 42.2278 4.3021C41.7713 4.33359 41.5508 4.6406 41.0982 4.95548C40.5274 5.34909 40.4605 5.14835 39.6851 5.56951C38.831 6.03396 38.3862 6.56139 38.3311 6.50235C38.276 6.44331 38.6421 6.01034 38.8979 5.72301H38.9018ZM44.7194 10.8399C44.192 11.509 43.6409 11.8514 41.6807 12.8866C39.7205 13.9218 39.4568 14.0123 39.0435 14.1186C38.334 14.2844 37.6074 14.3663 36.8787 14.3626C36.1544 14.3862 34.7886 14.4295 34.7138 14.1029C34.6784 13.9493 34.9539 13.8076 35.6388 13.2881C36.0718 12.9575 36.4733 12.5796 36.8984 12.2372C39.26 10.3321 39.3781 10.2258 39.8622 9.83618C40.7778 9.06581 41.7805 8.4053 42.8497 7.86816C43.3794 7.58219 43.9948 7.49827 44.5816 7.63199C44.7799 7.67781 44.9629 7.77408 45.113 7.91145C45.668 8.45463 45.3846 9.48587 45.3177 9.73384C45.1939 10.1407 44.9891 10.5183 44.7155 10.8438L44.7194 10.8399ZM44.2904 13.4573C43.7176 14.2453 42.9461 14.8673 42.0547 15.2601C41.08 15.7468 39.9925 15.9629 38.9058 15.8859C37.3825 15.7599 36.0836 15.0396 36.1229 14.9019C36.1229 14.8586 36.3394 14.8704 36.7527 14.9019C37.5399 14.957 38.0083 14.9019 38.3272 14.9216C38.646 14.9412 39.197 14.8664 40.2952 14.3862C40.8946 14.1332 41.4691 13.8248 42.0114 13.4652C42.7319 13.1396 43.4187 12.7441 44.0621 12.2844C44.6525 11.8278 44.9123 11.4972 45.0225 11.5798C45.172 11.7097 44.8296 12.6859 44.2864 13.4613L44.2904 13.4573ZM60.7708 35.6685C60.2526 36.5313 59.5864 37.2961 58.8028 37.9277C57.5552 38.9037 56.0804 39.547 54.5163 39.7974C53.65 39.9085 52.7702 39.8497 51.9264 39.6242C51.4845 39.5268 51.097 39.2633 50.844 38.8881C50.7731 38.7622 50.7062 38.648 50.7495 38.5575C50.8912 38.2387 52.0327 38.648 53.1112 38.6323C53.6189 38.6323 54.6305 38.1285 56.63 37.1366C58.6296 36.1447 59.6569 35.6291 60.1725 35.2001C60.6134 34.8419 61.1172 34.3735 61.2431 34.4758C61.3691 34.5782 60.8495 35.5386 60.7669 35.6724L60.7708 35.6685ZM60.2512 38.1482C59.9597 38.5546 59.608 38.9143 59.2082 39.2148C58.7127 39.6674 58.1319 40.0166 57.4999 40.2421C57.0276 40.3956 57.004 40.3051 56.4529 40.498C56.1099 40.6567 55.7399 40.7488 55.3626 40.7696C55.1615 40.7794 54.9643 40.7118 54.8116 40.5806C54.7801 40.5491 54.6974 40.4665 54.7171 40.3878C54.7368 40.3091 55.0162 40.2303 55.1107 40.2225C55.7326 40.1437 56.2915 39.8564 56.9213 39.7186C57.7085 39.5376 58.2281 39.1204 59.2082 38.3213C59.7754 37.9048 60.2838 37.4136 60.7196 36.8611C60.7865 36.7705 60.8849 36.6288 60.9164 36.6407C60.9479 36.6525 60.7196 37.4672 60.2512 38.1521V38.1482ZM50.5291 37.2862C50.3126 37.3649 50.289 37.3413 50.2811 37.3295C50.2732 37.3177 50.47 37.0854 50.5606 37.0067C51.7729 35.9518 52.0838 35.7354 52.0838 35.7354C53.8472 34.4876 53.8275 34.4798 54.0125 34.4089C54.5145 34.2704 55.0053 34.0941 55.4807 33.8815C55.7532 33.7045 56.045 33.5592 56.3506 33.4485C56.3506 33.4485 56.3506 33.4682 56.1734 33.7122C54.54 34.5742 54.2684 34.7474 54.0755 34.8931C53.611 35.204 53.8118 35.1213 52.7884 35.8771C51.2651 37.0028 51.5603 36.6407 51.1707 36.9595C50.9735 37.1018 50.7559 37.2133 50.5251 37.2901L50.5291 37.2862ZM60.326 34.3538C59.5388 34.6569 59.5388 34.9875 57.681 36.1408C56.5103 36.9152 55.2441 37.5344 53.9141 37.9828C52.69 38.3765 52.8632 38.0655 51.5525 38.2466C51.3702 38.2824 51.1812 38.2501 51.0211 38.156C50.9642 38.1211 50.9148 38.0753 50.8756 38.0213C50.8364 37.9673 50.8083 37.9061 50.7928 37.8411C50.7613 37.5263 51.4344 37.2626 52.0563 36.9359C53.0009 36.436 52.7884 36.3297 54.2999 35.3614C54.8719 34.9592 55.4746 34.6025 56.1026 34.2948C56.4411 34.1413 56.8426 33.9799 59.1806 33.4288C61.0581 32.988 61.621 32.8975 61.7076 33.0825C61.7942 33.2675 61.5856 33.417 61.4203 33.602C61.1184 33.9337 60.7439 34.191 60.326 34.3538ZM59.9639 32.2047C59.7592 32.2047 59.0468 32.2953 58.2045 32.4527C57.2274 32.6221 56.2691 32.8857 55.3429 33.2399C54.0243 33.7555 52.4538 34.6057 51.5958 35.452C51.0931 35.9095 50.6173 36.3957 50.1709 36.9083C50.1709 36.9437 50.0882 37.109 49.9544 37.1366C49.8902 37.1451 49.8252 37.1281 49.7733 37.0894C49.5647 36.9359 49.7182 36.373 49.7733 36.2392C50.0484 35.428 50.4909 34.6837 51.0723 34.0547C51.8081 33.284 52.6776 32.6532 53.6386 32.1929C54.1401 31.9399 54.6682 31.7432 55.213 31.6065C55.6066 31.5081 56.1223 31.4215 58.6256 31.5513C60.6921 31.6576 61.3809 31.7718 61.9949 31.7127C62.2857 31.6892 62.5779 31.6892 62.8687 31.7127C63.2624 31.7324 63.4473 31.7678 63.4552 31.8347C63.4631 31.9017 63.3844 31.9292 63.3568 31.945C63.2782 31.9903 63.1873 32.0096 63.097 32.0001C62.8963 32.0001 62.7034 32.0434 62.4988 32.0355C61.865 32.0355 60.326 32.1693 59.956 32.2047H59.9639ZM49.608 33.8776C49.6705 33.4175 49.8273 32.9753 50.0686 32.5787C50.6322 31.8436 51.3943 31.285 52.2649 30.9688C52.9184 30.7335 53.5897 30.5505 54.2723 30.4217C55.8704 30.0517 56.6812 29.8707 57.3779 29.9809L58.9996 30.4611C60.3969 30.8547 60.4559 30.8862 60.7039 30.9058C61.0975 30.9373 61.7115 30.9334 61.7391 31.083C61.7416 31.1031 61.7394 31.1236 61.7325 31.1427C61.7257 31.1619 61.7145 31.1792 61.6997 31.1932C61.6328 31.2522 61.5069 31.1932 61.4793 31.1932C60.9755 31.0318 60.4205 31.1735 59.9049 31.1144C58.8037 30.9687 57.6934 30.9042 56.5828 30.9216C55.8764 30.9191 55.1726 31.0078 54.4888 31.1853C53.67 31.4121 52.8964 31.7782 52.2019 32.2677C51.871 32.4779 51.567 32.7277 51.2966 33.0116C50.903 33.4603 50.5999 33.9917 50.0371 34.2869C49.915 34.3499 49.7655 34.4129 49.6749 34.3499C49.5844 34.2869 49.5687 34.0704 49.6002 33.8776H49.608ZM47.8092 41.482C47.9431 41.0018 48.9231 40.8758 49.4152 40.8129C50.0164 40.7212 50.6302 40.7547 51.2179 40.9113C51.765 41.0608 51.6942 41.1553 52.7451 41.6473C54.2054 42.3322 55.1855 42.6943 55.1855 42.6943C55.5476 42.8281 55.9294 42.958 55.9137 43.0603C55.8979 43.1627 55.3823 43.1863 55.276 43.1902C54.6179 43.1818 53.9673 43.0482 53.3591 42.7966C52.5937 42.567 51.7963 42.462 50.9975 42.4857C50.176 42.4233 49.35 42.4603 48.5374 42.5959C48.3091 42.651 47.7502 42.7927 47.6675 42.6234C47.6203 42.5408 47.7148 42.4503 47.7856 42.2062C47.8683 41.8362 47.7541 41.6827 47.8092 41.482ZM48.0139 43.202C48.5282 43.067 49.0567 42.993 49.5883 42.9816C50.2471 43.0022 50.9042 43.0601 51.5564 43.1548C52.6152 43.2768 53.2843 43.3477 54.2762 43.5248C55.2681 43.7019 55.4571 43.7806 55.4571 43.8476C55.4571 43.9145 55.1697 43.9538 55.0635 43.9696C53.7764 44.1388 53.9928 44.3081 52.5011 44.4891C50.3795 44.745 49.915 44.4065 49.1239 44.7332C48.7067 44.9064 48.2422 44.93 47.8132 45.0756C47.6833 45.1189 47.5061 45.1819 47.3999 45.0992C47.2936 45.0166 47.3999 44.7607 47.329 44.312C47.2582 43.8633 47.148 43.8318 47.2109 43.6547C47.2739 43.4776 47.5376 43.3241 48.0139 43.202ZM47.2267 46.1383C47.4783 45.8798 47.791 45.689 48.1359 45.5834C48.9035 45.2803 49.4466 45.3078 50.3165 45.2527C51.6662 45.1497 53.0091 44.9723 54.3392 44.7214C54.5714 44.6781 55.0989 44.5718 55.1264 44.6426C55.154 44.7135 54.8745 44.8119 54.3865 45.0362C53.3827 45.5046 53.5008 45.4731 53.0954 45.6542C52.4027 45.9612 51.5997 46.2525 50.2496 46.7091C49.1711 47.0712 48.1281 47.5238 47.0535 47.8899C46.7307 48.004 45.7113 48.3583 45.6168 48.8975C45.5739 49.14 45.4857 49.3724 45.357 49.5824C45.2744 49.7201 45.2271 49.7516 45.1799 49.7595C45.0028 49.7792 44.7863 49.4171 44.7391 49.0864C44.6995 48.9703 44.6995 48.8444 44.7391 48.7283C44.8532 48.5039 45.1642 48.4921 45.4436 48.4134C45.8706 48.275 46.2454 48.0101 46.5182 47.6537C47.0259 47.0869 46.7583 46.6776 47.2346 46.1383H47.2267ZM45.9042 49.8894C46.0419 49.2754 46.6048 48.9054 47.2346 48.5708C48.5768 47.8545 48.994 47.9529 50.5055 47.3467L53.8629 45.9848C54.1267 45.8786 54.6738 45.6542 54.7486 45.7762C54.8234 45.8982 54.5281 46.1187 54.0637 46.6303C53.5367 47.1799 53.0647 47.7797 52.6546 48.4212C52.261 49.0786 52.4538 49.0117 52.0523 49.665C51.5603 50.4522 51.3163 50.4798 50.8007 51.3575C50.6691 51.6352 50.4981 51.8924 50.2929 52.1211C50.0689 52.3549 49.7951 52.5354 49.492 52.6492C49.1888 52.7629 48.8639 52.8071 48.5413 52.7784C47.9222 52.711 47.3412 52.446 46.8842 52.0227C46.506 51.7434 46.2107 51.3666 46.0301 50.9324C45.89 50.6037 45.8489 50.2411 45.912 49.8894H45.9042ZM50.6275 53.0618C50.8217 52.7543 51.0444 52.4657 51.2927 52.1998C51.7611 51.6842 51.9933 51.2827 52.0327 51.3064C52.072 51.33 52.0327 51.3654 51.9697 51.5071C51.8649 51.797 51.7331 52.0763 51.5761 52.3415C51.4072 52.6659 51.1694 52.9493 50.8794 53.1721C50.8518 53.1721 50.5724 53.3885 50.5212 53.3334C50.47 53.2783 50.5802 53.1642 50.6432 53.0618H50.6275ZM51.8083 53.3728C51.9106 53.235 52.2728 52.6249 52.9891 51.4048C53.3183 50.8251 53.6115 50.2257 53.8669 49.6099C54.0619 49.1466 54.2826 48.6946 54.5282 48.2559C54.7289 47.9017 55.0517 47.3349 55.1501 47.3743C55.2485 47.4136 55.0044 48.0709 54.7801 49.1612C54.5557 50.2515 54.3864 51.759 54.3353 52.0542C54.2448 52.8178 54.2251 53.1681 53.9417 53.5499C53.6486 53.924 53.2284 54.1775 52.7608 54.2623C52.32 54.3332 51.6705 54.2623 51.58 53.9593C51.5131 53.7743 51.6666 53.5657 51.824 53.3728H51.8083ZM55.1225 51.1804C55.1826 50.82 55.2654 50.4637 55.3705 50.1137C55.5319 49.5824 55.4453 49.6926 55.7129 48.5393C55.8289 47.94 55.9907 47.3505 56.1971 46.776C56.3939 46.28 56.7639 45.4889 56.9252 45.5361C57.0197 45.5637 57 45.8746 56.9921 46.1108C56.937 47.6301 57.2559 47.6458 57.2008 49.0431C57.2248 49.7749 57.0708 50.5016 56.752 51.1607C56.5946 51.4559 56.2561 52.066 55.6932 52.1447C55.5975 52.1636 55.4988 52.161 55.4042 52.1371C55.3097 52.1133 55.2215 52.0689 55.1461 52.007C55.0359 51.8613 55.0477 51.6527 55.1382 51.1804H55.1225ZM71.4337 37.0776C71.721 37.5145 71.8903 38.2269 72.2209 39.6557C72.6199 41.3092 72.8545 42.9981 72.9215 44.6977C73.009 45.2305 72.9406 45.7773 72.7247 46.2722C72.3311 47.0594 71.4022 47.6773 70.5953 47.5356C70.3001 47.4845 69.8947 47.3073 69.8553 47.0515C69.816 46.7957 70.1781 46.6579 70.4457 46.2643C70.7184 45.7992 70.8213 45.2539 70.737 44.7214C70.6189 43.3295 70.4284 41.9448 70.1663 40.5728C69.7727 38.038 70.186 37.6955 69.7294 36.5659C69.522 36.0572 69.415 35.5132 69.4145 34.9639C69.4145 34.5034 69.4971 33.9366 69.6231 33.9287C69.749 33.9208 69.8081 34.4325 70.0167 35.019C70.4142 36.0424 70.9535 36.314 71.4455 37.0776H71.4337ZM71.2211 35.7354C71.2211 35.6133 71.2644 35.4559 71.3353 35.4441C71.4061 35.4323 71.5715 35.7708 71.7879 36.1841C72.1815 36.9713 72.3626 36.8965 72.5752 37.4082C72.8625 38.1167 72.7995 38.8921 72.6933 38.9118C72.65 38.9118 72.5909 38.7937 72.5043 38.6166C72.3571 38.2732 72.245 37.9158 72.1697 37.5499C72.1029 37.2317 71.9831 36.9271 71.8155 36.6485C71.54 36.2116 71.229 36.0778 71.233 35.7314L71.2211 35.7354ZM65.561 41.3088C65.484 42.0941 65.484 42.8851 65.561 43.6704C65.6634 44.4104 65.8129 44.7922 65.6949 44.8512C65.5099 44.9457 64.8329 44.1585 64.4314 43.3044C64.0321 42.4151 63.8759 41.4358 63.9787 40.4665C64.0416 39.3742 64.3979 38.319 65.01 37.4121C65.8759 36.1526 67.1473 35.389 67.2457 35.4874C67.2772 35.5189 67.163 35.6921 66.9347 36.0345C66.4939 36.6918 66.305 37.1209 66.1475 37.3924C65.9901 37.664 65.7539 38.1796 65.6358 39.3605C65.5544 40.0065 65.5333 40.6588 65.5728 41.3088H65.561ZM66.2184 41.3088C66.2931 39.1558 66.3483 38.8212 66.4624 38.4079C66.6717 37.7098 66.9624 37.0387 67.3283 36.4084C67.6668 35.7708 68.3084 34.5624 68.6312 34.6608C68.7847 34.7081 68.765 35.0151 68.8792 35.8692C68.95 36.4124 69.076 36.9437 69.1665 37.483C69.6506 40.4665 69.6782 40.6318 69.7727 41.2458C69.9898 42.4253 70.0677 43.6261 70.0049 44.8237C69.99 45.4223 69.7594 45.9954 69.3554 46.4375C69.2169 46.5871 69.042 46.6983 68.8477 46.7602C68.0998 46.9728 67.3441 46.2131 67.167 46.0321C66.8673 45.727 66.6329 45.364 66.4781 44.9654C66.1751 44.19 66.1515 43.5405 66.2302 41.3246L66.2184 41.3088ZM73.3821 44.7528C73.323 44.0601 73.5316 44.1073 73.5513 43.2217C73.5749 42.2495 73.3388 41.604 73.4136 41.5843C73.4883 41.5647 73.6969 42.1 73.8072 42.466C73.9462 42.8588 74.0361 43.2673 74.0748 43.6822C74.1653 44.7686 73.7599 44.8001 73.815 45.8313C73.815 45.9888 73.8505 46.2879 73.6773 46.4139C73.5041 46.5398 73.3506 46.5005 73.2837 46.4139C73.2168 46.3273 73.3191 46.1698 73.3742 46.0596C73.5985 45.666 73.4411 45.3196 73.3939 44.7725L73.3821 44.7528Z" fill="#4D4D4C"/>
</svg>
