<svg width="18" height="16" viewBox="0 0 18 16" fill="none" xmlns="http://www.w3.org/2000/svg">
<path d="M8.75351 15.7735L9 16L9.24648 15.7735C9.66522 15.3891 10.1732 14.9096 10.7359 14.3784C11.1508 13.9864 11.5958 13.5664 12.0572 13.1351C14.617 10.7428 15.4356 9.91965 16.3161 8.68486C17.2558 7.36735 17.9347 6.41531 17.9925 5.0005C18.0619 3.76811 17.647 2.55595 16.8312 1.60772C16.1388 0.820717 15.194 0.281056 14.1478 0.0749083C13.1305 -0.102835 12.0812 0.0376443 11.1518 0.475998C10.3114 0.853138 9.57433 1.41629 9 2.12001C8.42567 1.41629 7.68857 0.85314 6.84816 0.475998C5.91874 0.0378737 4.86949 -0.102596 3.85217 0.0749083C2.80595 0.281056 1.86123 0.820718 1.16885 1.60772C0.35299 2.55595 -0.0619335 3.76811 0.00749508 5.0005C0.0652739 6.41531 0.744153 7.36735 1.68388 8.68486C2.56443 9.91965 3.38301 10.7428 5.94275 13.1351C6.40421 13.5664 6.84921 13.9864 7.2641 14.3784C7.82674 14.9096 8.33477 15.3891 8.75351 15.7735Z"/>
</svg>
