<svg width="129" height="40" viewBox="0 0 129 40" fill="none" xmlns="http://www.w3.org/2000/svg">
<path d="M75.3879 30.6409L74.5706 30.1027C79.2563 23.0278 78.2861 13.5347 72.2632 7.53097C65.2405 0.532286 53.8159 0.532286 46.7932 7.53097L46.1016 6.8415C53.5048 -0.540028 65.5517 -0.538254 72.9549 6.8415C79.3055 13.1714 80.3297 23.1802 75.3879 30.6409Z" fill="#4D4D4C"/>
<path d="M14.8108 9.66852L14.1191 8.97905L18.7036 4.40739L19.3958 5.09686L14.8108 9.66852Z" fill="#4D4D4C"/>
<path d="M19.3979 9.66876L18.7051 8.97929L23.2889 4.40764L23.9823 5.09711L19.3979 9.66876Z" fill="#4D4D4C"/>
<path d="M23.9827 9.66876L23.291 8.97929L27.8766 4.40764L28.5683 5.09711L23.9827 9.66876Z" fill="#4D4D4C"/>
<path d="M68.3931 10.7524L67.7109 10.0511L78.0361 0.0765209L78.7189 0.777216L68.3931 10.7524Z" fill="#4D4D4C"/>
<path d="M10.4562 28.6458L5.60274 21.9921L3.59947 24.0623V28.6458H0.609375V13.6765H3.59947V20.6935L10.1338 13.6765H13.6834L7.61194 19.9774L14.0432 28.6458H10.4562Z" fill="#4D4D4C"/>
<path d="M42.8893 28.6458L35.1252 18.4845V28.6458H32.1777V13.6765H35.0155L42.5301 23.5223V13.6765H45.4776V28.6458H42.8893Z" fill="#4D4D4C"/>
<path d="M64.2031 28.6454H67.1932V13.6767H64.2031V28.6454Z" fill="#4D4D4C"/>
<path d="M81.2755 28.6458L73.5107 18.4845V28.6458H70.5645V13.6765H73.3957L80.9163 23.5223V13.6765H83.8696V28.6458H81.2755Z" fill="#4D4D4C"/>
<path d="M92.4528 28.8644C90.133 28.8644 87.9164 28.0574 86.1875 26.5822L87.9466 24.4818C89.4698 25.7078 90.9313 26.272 92.5138 26.272C94.0121 26.272 94.9438 25.641 94.9438 24.6331V24.5911C94.9438 23.559 94.2433 23.0917 91.6918 22.4424C88.3247 21.5798 86.7292 20.6877 86.7292 17.9322V17.889C86.7292 16.5905 87.2288 15.4851 88.1789 14.678C89.1047 13.8887 90.437 13.445 91.917 13.445C93.9878 13.445 95.8323 14.0529 97.3851 15.2546L95.8323 17.4885C94.395 16.5172 93.0982 16.044 91.8743 16.044C90.2729 16.044 89.7003 16.8693 89.7003 17.5736V17.622C89.7003 18.8361 90.6569 19.1947 93.1776 19.8375C96.1001 20.5967 97.9215 21.5981 97.9215 24.2508V24.2987C97.9215 27.1162 95.8145 28.8644 92.4528 28.8644Z" fill="#4D4D4C"/>
<path d="M110.021 28.6458L105.169 21.9921L103.158 24.0623V28.6458H100.162V13.6765H103.158V20.6935L109.699 13.6765H113.249L107.177 19.9774L113.608 28.6458H110.021Z" fill="#4D4D4C"/>
<path d="M119.435 28.6458V22.7212L113.674 13.6765H117.17L120.952 20.0259L124.819 13.6765H128.198L122.425 22.6603V28.6458H119.435Z" fill="#4D4D4C"/>
<path d="M27.4887 28.6458L26.0882 25.1978H19.3044L17.8914 28.6458H14.8711L17.435 22.6296H25.0291V22.6059H25.041L22.6963 16.9053L22.6779 16.9242L21.3017 13.5672V13.5613H24.1762L30.6128 28.6458H27.4887Z" fill="#4D4D4C"/>
<path d="M51.5298 28.6458V25.9871H53.6611C55.0741 25.9871 56.2855 25.5251 57.1627 24.6637C58.0452 23.7893 58.5022 22.6 58.5022 21.2034V21.1549C58.5022 18.3202 56.5173 16.3351 53.6611 16.3351H51.5298H51.3348H47.8457V13.6765H53.6611C58.2894 13.6765 61.6505 16.8025 61.6505 21.1118V21.1549C61.6505 23.2186 60.8711 25.1127 59.4404 26.4846C57.9782 27.8807 55.9264 28.6458 53.6611 28.6458H51.5298Z" fill="#4D4D4C"/>
<path d="M18.8271 37.2084V37.1937C18.8271 36.0635 18.0003 35.1388 16.8588 35.1388C15.7179 35.1388 14.9047 36.0493 14.9047 37.1795V37.1937C14.9047 38.3245 15.7321 39.2485 16.873 39.2485C18.0139 39.2485 18.8271 38.3381 18.8271 37.2084ZM14.3203 37.2084V37.1937C14.3203 35.8212 15.3545 34.6201 16.873 34.6201C18.3932 34.6201 19.4132 35.8076 19.4132 37.1795V37.1937C19.4132 38.5661 18.379 39.7672 16.8588 39.7672C15.3403 39.7672 14.3203 38.5803 14.3203 37.2084Z" fill="#4D4D4C"/>
<path d="M22.7394 35.2247V39.1631H23.9088C25.1712 39.1631 25.9773 38.3105 25.9773 37.2081V37.1933C25.9773 36.092 25.1712 35.2247 23.9088 35.2247H22.7394ZM22.1758 34.7054H23.9088C25.4782 34.7054 26.5616 35.7783 26.5616 37.1797V37.1933C26.5616 38.5941 25.4782 39.6824 23.9088 39.6824H22.1758V34.7054Z" fill="#4D4D4C"/>
<path d="M29.3281 34.7054H32.9376V35.2165H29.8918V36.9162H32.6163V37.4279H29.8918V39.1701H32.9725V39.6824H29.3281V34.7054Z" fill="#4D4D4C"/>
<path d="M35.3516 38.9565L35.7007 38.5448C36.2222 39.0139 36.7213 39.2484 37.4129 39.2484C38.0832 39.2484 38.5254 38.8933 38.5254 38.4024V38.3882C38.5254 37.9262 38.2765 37.6639 37.2268 37.4423C36.0788 37.1936 35.5513 36.8243 35.5513 36.0061V35.9919C35.5513 35.2097 36.243 34.6342 37.1913 34.6342C37.9197 34.6342 38.4395 34.8404 38.9468 35.2457L38.6184 35.6793C38.155 35.3024 37.6915 35.1388 37.1776 35.1388C36.528 35.1388 36.1149 35.4944 36.1149 35.9423V35.957C36.1149 36.4261 36.3716 36.6884 37.4704 36.9236C38.5823 37.1658 39.0961 37.5705 39.0961 38.3309V38.3462C39.0961 39.1982 38.3831 39.7535 37.3916 39.7535C36.5998 39.7535 35.9502 39.49 35.3516 38.9565Z" fill="#4D4D4C"/>
<path d="M41.4902 38.9565L41.8393 38.5448C42.3609 39.0139 42.8599 39.2484 43.5516 39.2484C44.2219 39.2484 44.6641 38.8933 44.6641 38.4024V38.3882C44.6641 37.9262 44.4151 37.6639 43.3655 37.4423C42.2175 37.1936 41.69 36.8243 41.69 36.0061V35.9919C41.69 35.2097 42.3822 34.6342 43.3299 34.6342C44.0583 34.6342 44.5781 34.8404 45.0855 35.2457L44.7577 35.6793C44.2936 35.3024 43.8302 35.1388 43.3163 35.1388C42.6667 35.1388 42.2542 35.4944 42.2542 35.9423V35.957C42.2542 36.4261 42.5102 36.6884 43.6091 36.9236C44.721 37.1658 45.2348 37.5705 45.2348 38.3309V38.3462C45.2348 39.1982 44.5224 39.7535 43.5303 39.7535C42.7384 39.7535 42.0888 39.49 41.4902 38.9565Z" fill="#4D4D4C"/>
<path d="M51.1956 37.862L50.0612 35.3233L48.9203 37.862H51.1956ZM49.8052 34.6699H50.3321L52.6074 39.6823H52.0017L51.4167 38.3665H48.6993L48.1078 39.6823H47.5293L49.8052 34.6699Z" fill="#4D4D4C"/>
<path d="M60.9733 37.2434C61.723 37.2434 62.2582 36.8594 62.2582 36.2195V36.2054C62.2582 35.5939 61.7864 35.2246 60.9804 35.2246H59.4406V37.2434H60.9733ZM58.877 34.7053H61.0237C61.6371 34.7053 62.1284 34.8902 62.4425 35.2028C62.685 35.4444 62.8284 35.7936 62.8284 36.1841V36.1983C62.8284 37.023 62.2582 37.5063 61.4735 37.6487L63.0062 39.6823H62.3145L60.866 37.748H59.4406V39.6823H58.877V34.7053Z" fill="#4D4D4C"/>
<path d="M65.6074 34.7054H69.2175V35.2165H66.1711V36.9162H68.8962V37.4279H66.1711V39.1701H69.2524V39.6824H65.6074V34.7054Z" fill="#4D4D4C"/>
<path d="M71.6328 38.9565L71.9819 38.5448C72.5035 39.0139 73.0025 39.2484 73.6942 39.2484C74.3645 39.2484 74.8066 38.8933 74.8066 38.4024V38.3882C74.8066 37.9262 74.5577 37.6639 73.5081 37.4423C72.36 37.1936 71.8325 36.8243 71.8325 36.0061V35.9919C71.8325 35.2097 72.5248 34.6342 73.4725 34.6342C74.2009 34.6342 74.7207 34.8404 75.228 35.2457L74.9003 35.6793C74.4362 35.3024 73.9727 35.1388 73.4583 35.1388C72.8087 35.1388 72.3962 35.4944 72.3962 35.9423V35.957C72.3962 36.4261 72.6528 36.6884 73.7517 36.9236C74.8629 37.1658 75.3774 37.5705 75.3774 38.3309V38.3462C75.3774 39.1982 74.6644 39.7535 73.6722 39.7535C72.8804 39.7535 72.2314 39.49 71.6328 38.9565Z" fill="#4D4D4C"/>
<path d="M78.1484 34.7057H78.7115V39.6826H78.1484V34.7057Z" fill="#4D4D4C"/>
<path d="M82.3097 35.2247V39.1631H83.4809C84.7427 39.1631 85.5488 38.3105 85.5488 37.2081V37.1933C85.5488 36.092 84.7427 35.2247 83.4809 35.2247H82.3097ZM81.7461 34.7054H83.4809C85.0485 34.7054 86.1331 35.7783 86.1331 37.1797V37.1933C86.1331 38.5941 85.0485 39.6824 83.4809 39.6824H81.7461V34.7054Z" fill="#4D4D4C"/>
<path d="M88.8984 34.7054H92.5085V35.2165H89.4621V36.9162H92.1872V37.4279H89.4621V39.1701H92.5434V39.6824H88.8984V34.7054Z" fill="#4D4D4C"/>
<path d="M95.25 34.7054H95.7787L98.9229 38.694V34.7054H99.4723V39.6824H99.023L95.7994 35.6011V39.6824H95.25V34.7054Z" fill="#4D4D4C"/>
<path d="M102.238 37.2084V37.1937C102.238 35.7858 103.295 34.6201 104.764 34.6201C105.671 34.6201 106.211 34.9403 106.711 35.4094L106.325 35.8212C105.905 35.4236 105.434 35.1388 104.757 35.1388C103.651 35.1388 102.824 36.0351 102.824 37.1795V37.1937C102.824 38.3463 103.658 39.2485 104.757 39.2485C105.442 39.2485 105.89 38.9856 106.369 38.5307L106.74 38.8934C106.219 39.4186 105.648 39.7672 104.742 39.7672C103.302 39.7672 102.238 38.6376 102.238 37.2084Z" fill="#4D4D4C"/>
<path d="M109.326 34.7054H112.936V35.2165H109.89V36.9162H112.615V37.4279H109.89V39.1701H112.971V39.6824H109.326V34.7054Z" fill="#4D4D4C"/>
</svg>
