<svg width="86" height="98" viewBox="0 0 86 98" fill="none" xmlns="http://www.w3.org/2000/svg">
<path d="M0.433594 0.290649V86.1461H85.9996V0.290649H0.433594ZM66.4652 33.6153C65.4826 34.0886 61.4736 28.7645 60.9626 28.2124C55.3814 21.1531 51.0972 20.1671 47.3632 21.6658C44.6512 22.8883 42.5288 25.5306 42.6074 29.0406C42.686 36.0999 52.3156 42.8437 52.3156 42.8437C52.3156 42.8437 63.8318 50.0608 63.0064 59.6441C62.3776 64.8498 59.6262 68.6358 56.7177 71.6725C56.1281 71.1204 55.1848 69.4246 50.5862 68.8724C43.8651 68.0443 29.6369 75.0247 23.7805 61.9314C33.6852 69.6218 49.7215 61.1427 53.4161 66.0724C50.1145 57.3961 25.2348 71.2781 20.5968 51.5988C30.3051 63.3118 52.1977 53.2552 55.5779 62.1681C54.4774 48.9565 20.361 64.9287 19.7714 38.9C24.0949 53.2552 51.1365 47.2213 56.0495 55.8581C54.3201 44.1057 12.2643 51.9143 25.5492 18.0375C23.073 36.5731 38.3232 40.1619 47.4811 43.9085C40.4063 38.4267 37.3013 35.5872 37.3013 28.5673C36.8296 20.5221 44.3761 12.6346 53.8878 15.3163C61.6308 17.8403 62.7313 24.3081 64.1463 27.9758C66.4652 30.1843 66.819 33.497 66.4652 33.6153Z" fill="#4D4D4C"/>
<path d="M3.77619 90.2476L0.474609 96.3998H1.92888L4.40506 91.5884L6.80264 96.3998H8.45343L5.11255 90.2476H3.77619Z" fill="#4D4D4C"/>
<path d="M11.5986 93.6785H14.3892V92.6531H11.5986V91.2728H16.3937V90.2474V90.208H10.1836V96.3208H16.4723V95.2166H11.5986V93.6785Z" fill="#4D4D4C"/>
<path d="M25.1955 92.9688C24.8024 92.6139 24.3701 92.6139 23.977 92.6139H20.2824V91.3913H25.1169V90.287H18.8281V96.3999H23.7412C24.1342 96.3999 24.8024 96.3999 25.1955 96.0449C25.5885 95.7689 25.5885 95.4139 25.5885 95.2167V93.9153C25.5885 93.6787 25.5885 93.2843 25.1955 92.9688ZM24.1342 94.7435C24.1342 94.9407 24.0949 95.0984 23.977 95.1379C23.8984 95.2956 23.584 95.2956 23.4268 95.2956H20.2431V93.6392V93.5998H23.5447C23.6233 93.5998 23.8984 93.5998 23.977 93.6787C24.1342 93.8364 24.1342 94.0336 24.1342 94.1125V94.7435Z" fill="#4D4D4C"/>
<path d="M29.444 93.6785H32.2739V92.6531H29.444V91.2728H34.2392V90.2474V90.208H28.0684V96.3208H34.3571V95.2166H29.444V93.6785Z" fill="#4D4D4C"/>
<path d="M40.052 90.2476H38.637L36.1215 95.2561H35.4141V97.5435H36.7504V96.3604H41.9779V97.5435H43.3143V95.2561H42.6068L40.052 90.2476ZM37.3793 95.335L39.2659 91.5096L41.1918 95.335H37.3793Z" fill="#4D4D4C"/>
<path d="M46.3815 94.7829V90.2476H45.0059V96.3998H46.1457L51.216 91.8645V96.3998H52.6309V90.2476H51.4911L46.3815 94.7829Z" fill="#4D4D4C"/>
<path d="M61.3954 92.6137H56.954V90.208H55.5391V96.3208H56.954V93.7179H61.3954V96.3208H62.8104V90.208H61.3954V92.6137Z" fill="#4D4D4C"/>
<path d="M70.281 92.456H67.058H66.9794V90.1686H65.5645V96.2815H70.2417C70.6347 96.2815 71.3029 96.2815 71.696 95.9265C72.089 95.6505 72.089 95.2955 72.089 95.0983V93.5997C72.089 93.2053 71.9318 92.9687 71.8139 92.811C71.4208 92.4166 70.7527 92.456 70.281 92.456ZM70.7527 94.7434C70.7527 94.9406 70.7133 95.0983 70.5954 95.1378C70.5168 95.2955 70.2024 95.2955 70.0452 95.2955H67.058V93.4814V93.442H70.1631C70.2417 93.442 70.5168 93.442 70.5954 93.5208C70.7527 93.6786 70.7527 93.8758 70.7527 93.9546V94.7434Z" fill="#4D4D4C"/>
<path d="M73.6992 90.2476H75.1142V96.3604H73.6992V90.2476Z" fill="#4D4D4C"/>
<path d="M79.3974 94.7829V90.2476H77.9824V96.3998H79.1616L84.2318 91.8645V96.3998H85.6468V90.2476H84.4677L79.3974 94.7829Z" fill="#4D4D4C"/>
<path d="M81.8719 89.7348C82.4222 89.7348 82.9725 89.6953 83.4048 89.1826C83.6406 88.946 83.7979 88.5122 83.7586 87.9995H82.9725C82.9725 88.1967 82.9332 88.3939 82.7759 88.5516C82.6187 88.7094 82.3436 88.7883 81.9505 88.7883C81.5182 88.7883 81.2824 88.7094 81.1252 88.5516C80.9679 88.4728 80.9286 88.1967 80.9286 87.9995H79.946C79.8674 88.4333 80.0246 88.8671 80.2998 89.1826C80.6928 89.6953 81.3217 89.7348 81.8719 89.7348Z" fill="#4D4D4C"/>
</svg>
