<svg width="260" height="210" viewBox="0 0 260 210" fill="none" xmlns="http://www.w3.org/2000/svg">
<path d="M31 0H82.2129L165.129 105.455V0H220V200H171.226L85.8709 89.697V200H31V0Z" fill="#F65275"/>
<path d="M170.629 110.455V5.5H224.5V204.5H176.471L91.2664 94.391L90.3709 93.2338V94.697V204.5H36.5V5.5H86.97L169.736 110.764L170.629 111.899V110.455Z" stroke="white" stroke-opacity="0.5"/>
<path d="M175.629 115.455V10.5H229.5V209.5H181.471L96.2664 99.391L95.3709 98.2338V99.697V209.5H41.5V10.5H91.97L174.736 115.764L175.629 116.899V115.455Z" stroke="white" stroke-opacity="0.5"/>
<path d="M260 210H0L130 80L260 210Z" fill="white"/>
<path d="M129.188 147.661L129.301 147.494L130.528 150L131.755 147.494L131.868 147.661C133.372 150.725 138 149.61 138 146.213L138 146.102L138 130.004L132.981 139.974L130.476 134.969L132.906 130L130.472 130L127.984 130L130.47 134.967L127.963 139.974L123 130.004L123 146.102L123 146.213C123 149.61 127.628 150.725 129.188 147.661Z" fill="#F65275"/>
<path d="M111.108 178L108.648 174.79H107.708V178H106.838V171H107.708V173.97H108.638L110.878 171H111.998L109.438 174.37L112.228 178H111.108ZM118.154 177.09C117.46 177.777 116.584 178.12 115.524 178.12C114.47 178.12 113.597 177.777 112.904 177.09C112.21 176.403 111.864 175.543 111.864 174.51C111.864 173.47 112.21 172.607 112.904 171.92C113.597 171.227 114.47 170.88 115.524 170.88C116.584 170.88 117.46 171.223 118.154 171.91C118.847 172.597 119.194 173.46 119.194 174.5C119.194 175.54 118.847 176.403 118.154 177.09ZM113.544 176.47C114.07 176.997 114.73 177.26 115.524 177.26C116.324 177.26 116.984 177 117.504 176.48C118.03 175.953 118.294 175.293 118.294 174.5C118.294 173.707 118.03 173.05 117.504 172.53C116.984 172.003 116.324 171.74 115.524 171.74C114.73 171.74 114.07 172.003 113.544 172.53C113.024 173.057 112.764 173.713 112.764 174.5C112.764 175.287 113.024 175.943 113.544 176.47ZM124.635 171H125.505V178H124.635V174.82H121.005V178H120.135V171H121.005V173.98H124.635V171ZM131.31 171V171.82H129.18V178H128.3V171.82H126.17V171H131.31ZM136.212 178L135.512 176.32H132.152L131.462 178H130.532L133.392 171H134.212L137.162 178H136.212ZM133.822 172.21L132.482 175.52H135.182L133.822 172.21ZM142.065 178L139.605 174.79H138.665V178H137.795V171H138.665V173.97H139.595L141.835 171H142.955L140.395 174.37L143.185 178H142.065ZM148.033 171V171.82H145.903V178H145.023V171.82H142.893V171H148.033ZM153.529 171H154.169V178H153.289V172.67L149.299 178H148.699V171H149.569V176.29L153.529 171Z" fill="#27272C"/>
</svg>
