<svg width="260" height="210" viewBox="0 0 260 210" fill="none" xmlns="http://www.w3.org/2000/svg">
<path d="M174.034 100C174.034 72.093 154.153 48.8372 124.915 48.8372C95.678 48.8372 75.7966 72.093 75.7966 100C75.7966 127.907 95.678 151.163 124.915 151.163C155.322 152.326 174.034 129.07 174.034 100ZM22 100C22 45.3488 66.4407 0 126.085 0C185.729 0 229 44.186 229 100C229 154.651 184.559 200 124.915 200C65.2712 200 22 155.814 22 100Z" fill="#F65275"/>
<path d="M179.534 105C179.534 76.8531 159.464 53.3372 129.915 53.3372C100.367 53.3372 80.2966 76.8531 80.2966 105C80.2966 133.144 100.363 156.658 129.906 156.663C145.246 157.247 157.667 151.669 166.247 142.255C174.822 132.847 179.534 119.64 179.534 105ZM27.5 105C27.5 50.6351 71.7066 5.5 131.085 5.5C190.459 5.5 233.5 49.4687 233.5 105C233.5 159.365 189.293 204.5 129.915 204.5C70.5408 204.5 27.5 160.531 27.5 105Z" stroke="white" stroke-opacity="0.5"/>
<path d="M184.534 110C184.534 81.8531 164.464 58.3372 134.915 58.3372C105.367 58.3372 85.2966 81.8531 85.2966 110C85.2966 138.144 105.363 161.658 134.906 161.663C150.246 162.247 162.667 156.669 171.247 147.255C179.822 137.847 184.534 124.64 184.534 110ZM32.5 110C32.5 55.6351 76.7066 10.5 136.085 10.5C195.459 10.5 238.5 54.4687 238.5 110C238.5 164.365 194.293 209.5 134.915 209.5C75.5408 209.5 32.5 165.531 32.5 110Z" stroke="white" stroke-opacity="0.5"/>
<path d="M260 210H0L130 80L260 210Z" fill="white"/>
<path d="M129.188 147.661L129.301 147.494L130.528 150L131.755 147.494L131.868 147.661C133.372 150.725 138 149.61 138 146.213L138 146.102L138 130.004L132.981 139.974L130.476 134.969L132.906 130L130.472 130L127.984 130L130.47 134.967L127.963 139.974L123 130.004L123 146.102L123 146.213C123 149.61 127.628 150.725 129.188 147.661Z" fill="#F65275"/>
<path d="M114.43 178.11C113.39 178.11 112.53 177.77 111.85 177.09C111.177 176.41 110.84 175.547 110.84 174.5C110.84 173.453 111.177 172.59 111.85 171.91C112.53 171.23 113.39 170.89 114.43 170.89C114.964 170.89 115.457 170.993 115.91 171.2C116.37 171.4 116.757 171.687 117.07 172.06C117.39 172.433 117.614 172.87 117.74 173.37H116.85C116.664 172.863 116.357 172.467 115.93 172.18C115.504 171.893 115.004 171.75 114.43 171.75C113.644 171.75 112.997 172.01 112.49 172.53C111.99 173.043 111.74 173.703 111.74 174.51C111.74 175.31 111.99 175.967 112.49 176.48C112.997 176.993 113.644 177.25 114.43 177.25C115.017 177.25 115.527 177.1 115.96 176.8C116.394 176.493 116.7 176.07 116.88 175.53H117.78C117.58 176.323 117.177 176.953 116.57 177.42C115.97 177.88 115.257 178.11 114.43 178.11ZM119.454 177.16H122.654V178H118.584V171H122.544V171.83H119.454V174H122.284V174.81H119.454V177.16ZM126.121 171C126.781 171 127.331 171.213 127.771 171.64C128.218 172.067 128.441 172.6 128.441 173.24C128.441 173.88 128.218 174.413 127.771 174.84C127.331 175.267 126.781 175.48 126.121 175.48H124.481V178H123.611V171H126.121ZM126.071 174.63C126.498 174.63 126.848 174.5 127.121 174.24C127.401 173.973 127.541 173.64 127.541 173.24C127.541 172.84 127.401 172.51 127.121 172.25C126.848 171.983 126.498 171.85 126.071 171.85H124.481V174.63H126.071ZM133.085 174.37C133.412 174.51 133.668 174.733 133.855 175.04C134.042 175.347 134.135 175.69 134.135 176.07C134.135 176.617 133.932 177.077 133.525 177.45C133.118 177.817 132.615 178 132.015 178H129.215V171H131.975C132.548 171 133.018 171.17 133.385 171.51C133.758 171.85 133.945 172.277 133.945 172.79C133.945 173.103 133.865 173.407 133.705 173.7C133.552 173.993 133.345 174.217 133.085 174.37ZM133.055 172.91C133.055 172.71 133.005 172.53 132.905 172.37C132.812 172.21 132.682 172.087 132.515 172C132.348 171.907 132.162 171.86 131.955 171.86H130.075V173.96H131.965C132.272 173.96 132.528 173.86 132.735 173.66C132.948 173.453 133.055 173.203 133.055 172.91ZM132.005 177.13C132.352 177.13 132.642 177.02 132.875 176.8C133.108 176.58 133.225 176.303 133.225 175.97C133.225 175.643 133.108 175.37 132.875 175.15C132.642 174.93 132.352 174.82 132.005 174.82H130.075V177.13H132.005ZM135.16 178V171H136.03V178H135.16ZM140.563 178.11C139.523 178.11 138.663 177.77 137.983 177.09C137.31 176.41 136.973 175.547 136.973 174.5C136.973 173.453 137.31 172.59 137.983 171.91C138.663 171.23 139.523 170.89 140.563 170.89C141.096 170.89 141.59 170.993 142.043 171.2C142.503 171.4 142.89 171.687 143.203 172.06C143.523 172.433 143.746 172.87 143.873 173.37H142.983C142.796 172.863 142.49 172.467 142.063 172.18C141.636 171.893 141.136 171.75 140.563 171.75C139.776 171.75 139.13 172.01 138.623 172.53C138.123 173.043 137.873 173.703 137.873 174.51C137.873 175.31 138.123 175.967 138.623 176.48C139.13 176.993 139.776 177.25 140.563 177.25C141.15 177.25 141.66 177.1 142.093 176.8C142.526 176.493 142.833 176.07 143.013 175.53H143.913C143.713 176.323 143.31 176.953 142.703 177.42C142.103 177.88 141.39 178.11 140.563 178.11ZM149.547 171H150.187V178H149.307V172.67L145.317 178H144.717V171H145.587V176.29L149.547 171Z" fill="#27272C"/>
</svg>
