<svg width="188" height="188" viewBox="0 0 188 188" fill="none" xmlns="http://www.w3.org/2000/svg">
<path d="M116.859 188C115.521 188 114.629 186.882 114.629 185.765C114.629 184.647 115.744 183.529 116.859 183.529C136.484 183.529 147.858 171.011 152.095 158.716C134.477 161.398 117.974 153.574 109.276 137.703L96.1186 164.081C95.2266 165.646 92.7734 165.646 91.8814 164.081L78.7236 137.703C70.0261 153.574 53.5231 161.398 35.9051 158.716C40.1423 171.011 51.516 183.529 71.1412 183.529C72.4792 183.529 73.3713 184.647 73.3713 185.765C73.3713 186.882 72.2562 188 71.1412 188C51.516 188 35.9051 176.152 30.5528 157.375C11.8197 152.233 0 136.585 0 116.913C0 115.572 1.11507 114.678 2.23013 114.678C3.3452 114.678 4.46026 115.795 4.46026 116.913C4.46026 136.585 17.172 147.762 29.2147 152.01C26.5386 134.35 34.344 118.031 50.1779 109.313L24.0854 96.1237C23.1934 95.6766 22.7473 95.0059 22.7473 94.1118C22.7473 93.2176 23.1934 92.3234 24.0854 92.0999L50.401 78.9108C34.567 70.1926 26.5386 53.874 29.4377 36.214C17.172 40.4614 4.68327 51.6385 4.68327 71.3103C4.68327 72.6516 3.56821 73.5458 2.45314 73.5458C1.33808 73.5458 0.22301 72.4281 0.22301 71.3103C0.22301 51.6385 12.2657 35.9905 30.7758 30.849C35.6821 11.8478 51.516 0 71.1412 0C72.4792 0 73.3713 1.11772 73.3713 2.23543C73.3713 3.35315 72.2562 4.47087 71.1412 4.47087C51.516 4.47087 40.1423 16.9893 35.9051 29.2842C53.5231 26.6017 70.0261 34.4257 78.7236 50.2973L91.8814 23.9191C92.7734 22.3543 95.2266 22.3543 96.1186 23.9191L109.276 50.2973C117.974 34.4257 134.477 26.6017 152.095 29.2842C147.858 16.9893 136.484 4.47087 116.859 4.47087C115.521 4.47087 114.629 3.35315 114.629 2.23543C114.629 1.11772 115.744 0 116.859 0C136.484 0 152.095 11.8478 157.447 30.6254C176.18 35.7669 188 51.415 188 71.0868C188 72.4281 186.885 73.3222 185.77 73.3222C184.655 73.3222 183.54 72.2045 183.54 71.0868C183.54 51.415 170.828 40.2378 158.785 35.9905C161.461 53.6504 153.656 69.9691 137.822 78.6873L164.138 91.8763C165.03 92.3234 165.476 92.9941 165.476 93.8882C165.476 94.7824 165.03 95.6766 164.138 95.9001L137.822 109.089C153.656 117.807 161.684 134.126 158.785 151.786C171.051 147.539 183.54 136.361 183.54 116.69C183.54 115.348 184.655 114.454 185.77 114.454C186.885 114.454 188 115.572 188 116.69C188 136.361 175.957 152.01 157.447 157.151C152.318 175.929 136.484 188 116.859 188ZM78.7236 129.879C79.6157 129.879 80.5077 130.326 80.7307 131.22L93.8885 157.598L107.046 131.22C107.492 130.326 108.161 129.879 109.053 129.879C109.945 129.879 110.837 130.326 111.06 131.22L112.176 133.679C121.765 152.68 139.829 156.257 153.21 153.574C155.886 140.385 152.318 122.055 133.362 112.666L130.909 111.548C130.017 111.101 129.571 110.43 129.571 109.536C129.571 108.642 130.017 107.748 130.909 107.524L157.224 94.3353L131.355 80.9227C130.463 80.4756 130.017 79.805 130.017 78.9108C130.017 78.0166 130.463 77.1225 131.355 76.8989L133.808 75.7812C152.764 66.1689 156.332 48.0618 153.656 34.8728C140.498 32.1903 122.211 35.7669 112.622 54.7681L111.507 57.2271C110.615 58.7919 108.161 58.7919 107.269 57.2271L94.1115 30.849L80.9537 57.2271C80.5077 58.1213 79.8387 58.5684 78.9466 58.5684C78.0546 58.5684 77.1625 58.1213 76.9395 57.2271L75.8245 54.7681C66.2349 35.7669 48.1708 32.1903 34.79 34.8728C32.1139 48.0618 35.6821 66.3924 54.6382 75.7812L57.0913 76.8989C57.9834 77.346 58.4294 78.0166 58.4294 78.9108C58.4294 79.805 57.9834 80.6992 57.0913 80.9227L30.3298 93.8882L56.6453 107.077C57.5374 107.524 57.9834 108.195 57.9834 109.089C57.9834 109.983 57.5374 110.878 56.6453 111.101L54.1922 112.219C35.2361 121.831 31.6679 139.938 34.344 153.127C47.5018 155.81 65.7888 152.233 75.3784 133.232L76.4935 130.773C76.9395 130.326 77.8316 129.879 78.7236 129.879Z" fill="#F65275"/>
</svg>
