<svg width="150" height="150" viewBox="0 0 150 150" fill="none" xmlns="http://www.w3.org/2000/svg">
<path d="M93.2384 150C92.1708 150 91.4591 149.108 91.4591 148.216C91.4591 147.325 92.3488 146.433 93.2384 146.433C108.897 146.433 117.972 136.445 121.352 126.635C107.295 128.775 94.1281 122.533 87.1886 109.869L76.6904 130.916C75.9787 132.164 74.0214 132.164 73.3096 130.916L62.8114 109.869C55.8719 122.533 42.7046 128.775 28.6477 126.635C32.0285 136.445 41.1032 146.433 56.7616 146.433C57.8292 146.433 58.5409 147.325 58.5409 148.216C58.5409 149.108 57.6513 150 56.7616 150C41.1032 150 28.6477 140.547 24.3772 125.565C9.43061 121.463 0 108.977 0 93.2818C0 92.2117 0.88968 91.4982 1.77936 91.4982C2.66904 91.4982 3.55872 92.39 3.55872 93.2818C3.55872 108.977 13.7011 117.895 23.3096 121.284C21.1744 107.194 27.4021 94.1736 40.0356 87.2176L19.2171 76.6944C18.5053 76.3377 18.1495 75.8026 18.1495 75.0892C18.1495 74.3757 18.5053 73.6623 19.2171 73.484L40.2135 62.9608C27.5801 56.0048 21.1744 42.9845 23.4876 28.8942C13.7011 32.283 3.73665 41.201 3.73665 56.8966C3.73665 57.9667 2.84697 58.6801 1.95729 58.6801C1.06761 58.6801 0.177933 57.7883 0.177933 56.8966C0.177933 41.201 9.78648 28.7158 24.5552 24.6136C28.4698 9.45303 41.1032 0 56.7616 0C57.8292 0 58.5409 0.891796 58.5409 1.78359C58.5409 2.67539 57.6513 3.56718 56.7616 3.56718C41.1032 3.56718 32.0285 13.5553 28.6477 23.365C42.7046 21.2247 55.8719 27.4673 62.8114 40.1308L73.3096 19.0844C74.0214 17.8359 75.9787 17.8359 76.6904 19.0844L87.1886 40.1308C94.1281 27.4673 107.295 21.2247 121.352 23.365C117.972 13.5553 108.897 3.56718 93.2384 3.56718C92.1708 3.56718 91.4591 2.67539 91.4591 1.78359C91.4591 0.891796 92.3488 0 93.2384 0C108.897 0 121.352 9.45303 125.623 24.4352C140.569 28.5375 150 41.0226 150 56.7182C150 57.7883 149.11 58.5018 148.221 58.5018C147.331 58.5018 146.441 57.61 146.441 56.7182C146.441 41.0226 136.299 32.1046 126.69 28.7158C128.826 42.8062 122.598 55.8264 109.964 62.7824L130.961 73.3056C131.673 73.6623 132.028 74.1974 132.028 74.9108C132.028 75.6243 131.673 76.3377 130.961 76.5161L109.964 87.0392C122.598 93.9952 129.004 107.015 126.69 121.106C136.477 117.717 146.441 108.799 146.441 93.1035C146.441 92.0333 147.331 91.3199 148.221 91.3199C149.11 91.3199 150 92.2117 150 93.1035C150 108.799 140.391 121.284 125.623 125.386C121.53 140.369 108.897 150 93.2384 150ZM62.8114 103.627C63.5231 103.627 64.2349 103.983 64.4128 104.697L74.911 125.743L85.4093 104.697C85.7651 103.983 86.2989 103.627 87.0107 103.627C87.7224 103.627 88.4342 103.983 88.6121 104.697L89.5018 106.659C97.153 121.819 111.566 124.673 122.242 122.533C124.377 112.01 121.53 97.3841 106.406 89.893L104.448 89.0012C103.737 88.6445 103.381 88.1094 103.381 87.396C103.381 86.6825 103.737 85.9691 104.448 85.7907L125.445 75.2675L104.804 64.566C104.093 64.2093 103.737 63.6742 103.737 62.9608C103.737 62.2473 104.093 61.5339 104.804 61.3555L106.762 60.4637C121.886 52.7943 124.733 38.3472 122.598 27.824C112.1 25.6837 97.5089 28.5375 89.8577 43.698L88.968 45.6599C88.2562 46.9084 86.2989 46.9084 85.5872 45.6599L75.089 24.6136L64.5907 45.6599C64.2349 46.3734 63.7011 46.7301 62.9893 46.7301C62.2776 46.7301 61.5659 46.3734 61.3879 45.6599L60.4982 43.698C52.847 28.5375 38.4342 25.6837 27.758 27.824C25.6228 38.3472 28.4698 52.9727 43.5943 60.4637L45.5516 61.3555C46.2633 61.7123 46.6192 62.2473 46.6192 62.9608C46.6192 63.6742 46.2633 64.3876 45.5516 64.566L24.1993 74.9108L45.1957 85.434C45.9075 85.7907 46.2633 86.3258 46.2633 87.0392C46.2633 87.7527 45.9075 88.4661 45.1957 88.6445L43.2384 89.5363C28.1139 97.2057 25.2669 111.653 27.4021 122.176C37.9004 124.316 52.4911 121.463 60.1423 106.302L61.032 104.34C61.3879 103.983 62.0996 103.627 62.8114 103.627Z" fill="#EFEFEF"/>
</svg>
