<svg width="1326" height="89" viewBox="0 0 1326 89" fill="none" xmlns="http://www.w3.org/2000/svg">
<path d="M70.2662 69.7131C70.371 70.6574 70.4759 71.6018 70.6857 72.4413C72.049 78.4224 76.8733 85.3479 86.312 85.9775C85.7877 76.5336 78.8659 71.4969 72.888 70.1328C72.049 69.9229 71.1052 69.818 70.2662 69.7131ZM18.2482 70.1328C17.4092 70.2377 16.6751 70.3426 15.8361 70.5525C9.85824 71.8117 2.9365 76.7435 2.30725 85.9775C11.6411 85.3479 16.4654 78.4224 17.8287 72.4413C18.0385 71.7068 18.1434 70.9722 18.2482 70.1328ZM20.5555 67.8243C27.3723 67.9292 33.3502 71.4969 36.916 77.6879L43.4182 65.3059C43.8377 64.5714 44.9913 64.5714 45.4108 65.3059L51.7033 77.3731C55.2691 71.1821 61.2469 67.6144 68.0638 67.5095C68.3784 60.8988 71.8393 55.0225 77.922 51.6647L65.5468 45.1589C65.2322 44.9491 64.9176 44.6343 64.9176 44.2145C64.9176 43.7948 65.1273 43.48 65.5468 43.2701L77.6074 36.9742C71.5247 33.5115 67.9589 27.6352 67.7492 21.0245C61.1421 20.8147 55.2691 17.247 51.8082 11.1609L45.5157 23.2281C45.0962 23.9626 43.9426 23.9626 43.5231 23.2281L37.0208 10.8461C33.56 16.8272 27.687 20.3949 21.0799 20.7097C20.975 27.5303 17.4092 33.5115 11.1167 36.9742L23.0725 43.0603C23.3871 43.2701 23.7017 43.5849 23.7017 44.0047C23.7017 44.4244 23.492 44.7392 23.0725 44.9491L10.6972 51.4549C16.78 55.0225 20.3457 61.1086 20.5555 67.8243ZM87.3608 88.286C77.922 88.0762 70.5808 82.095 68.4833 72.966C68.2736 71.9166 68.0638 70.7624 67.9589 69.7131C62.5054 69.818 56.5276 72.4413 52.9618 79.3668L52.5423 80.2063C52.4374 80.5211 52.0179 80.8359 51.5984 80.8359C51.1789 80.8359 50.7594 80.626 50.6546 80.2063L44.3621 68.1391L37.8598 80.5211C37.6501 80.8359 37.3355 81.1507 36.916 81.1507C36.4965 81.1507 36.077 80.9408 35.9721 80.5211L35.5526 79.6816C31.9868 72.7561 26.009 70.2377 20.5555 70.0278C20.4506 70.9722 20.3457 71.9166 20.136 72.861C18.0385 81.9901 10.6972 88.0762 1.2585 88.1811C0.943874 88.1811 0.629249 88.0762 0.4195 87.8663C0.20975 87.6564 0 87.4466 0 87.1318C0.20975 77.7928 6.18762 70.4476 15.3117 68.3489C16.2556 68.1391 17.3044 67.9292 18.2482 67.9292C18.1434 62.5777 15.5215 56.4916 8.59974 53.0288L7.76074 52.5042C7.34124 52.2943 7.13149 51.9795 7.13149 51.5598C7.13149 51.1401 7.34124 50.7203 7.76074 50.6154L20.136 44.1096L8.07537 37.8137C7.76074 37.6038 7.44612 37.289 7.44612 36.8693C7.44612 36.4496 7.65587 36.0298 8.07537 35.9249L8.91436 35.5052C15.941 32.0424 18.458 25.9563 18.6677 20.6048C17.619 20.4999 16.4654 20.3949 15.3117 20.0801C6.18762 17.8766 0.20975 10.5313 0 1.19234C0 0.877543 0.104875 0.562747 0.314625 0.352882C0.524374 0.143018 0.838999 0.0380859 1.04875 0.0380859C10.5924 0.0380859 18.1434 6.01922 20.2409 15.2533C20.4506 16.3026 20.6604 17.247 20.7652 18.2963C26.1138 18.0864 31.882 15.4631 35.3428 8.64252L35.7623 7.80307C35.9721 7.38334 36.2867 7.17347 36.7062 7.17347C37.1257 7.17347 37.4403 7.38334 37.6501 7.80307L44.1523 20.1851L50.4448 8.11786C50.6546 7.80307 51.0741 7.5932 51.3887 7.48827C51.8082 7.48827 52.2277 7.69813 52.3326 8.11786L52.7521 8.95732C56.2129 15.7779 61.9811 18.4012 67.3297 18.6111C67.4345 17.4568 67.5394 16.4075 67.854 15.2533C70.371 6.01922 77.922 0.0380859 87.3608 0.0380859C87.99 0.0380859 88.4095 0.562747 88.4095 1.08741C88.4095 10.5313 82.4317 18.0864 73.2027 20.29C72.049 20.6048 70.8954 20.7097 69.7418 20.8147C69.9515 26.1662 72.5734 31.9375 79.3903 35.4002L80.2293 35.82C80.6488 36.0298 80.8585 36.3446 80.8585 36.7643C80.8585 37.1841 80.6488 37.6038 80.2293 37.7087L68.1687 44.0047L80.7537 50.6154C81.0683 50.8253 81.3829 51.1401 81.3829 51.5598C81.3829 51.9795 81.1732 52.3992 80.7537 52.5042L79.9147 52.9239C73.0978 56.3867 70.4759 62.1579 70.2662 67.5095C71.3149 67.6144 72.2588 67.7193 73.3075 68.0341C82.5365 70.2377 88.5144 77.6879 88.5144 87.1318C88.5144 87.4466 88.4095 87.7614 88.1998 87.8663C87.99 88.1811 87.6754 88.286 87.3608 88.286ZM86.312 2.24166C76.7684 2.76632 71.7344 9.79678 70.2662 15.7779C70.0564 16.7223 69.9515 17.6667 69.8467 18.6111C70.8954 18.5061 71.8393 18.4012 72.7832 18.1914C78.761 16.7223 85.7877 11.6856 86.312 2.24166ZM2.20237 2.24166C2.9365 11.5806 9.85824 16.4075 15.8361 17.7716C16.6751 17.9815 17.619 18.0864 18.5629 18.1914C18.458 17.3519 18.3531 16.5124 18.1434 15.673C16.78 9.79678 11.746 2.76632 2.20237 2.24166Z" fill="white"/>
<path d="M423.695 69.7131C423.8 70.6574 423.905 71.6018 424.114 72.4413C425.478 78.4224 430.302 85.3479 439.741 85.9775C439.216 76.5336 432.295 71.4969 426.317 70.1328C425.478 69.9229 424.534 69.818 423.695 69.7131ZM371.677 70.1328C370.838 70.2377 370.104 70.3426 369.265 70.5525C363.287 71.8117 356.365 76.7435 355.736 85.9775C365.07 85.3479 369.894 78.4224 371.257 72.4413C371.467 71.7068 371.572 70.9722 371.677 70.1328ZM373.984 67.8243C380.801 67.9292 386.779 71.4969 390.345 77.6879L396.847 65.3059C397.266 64.5714 398.42 64.5714 398.84 65.3059L405.132 77.3731C408.698 71.1821 414.676 67.6144 421.493 67.5095C421.807 60.8988 425.268 55.0225 431.351 51.6647L418.976 45.1589C418.661 44.9491 418.346 44.6343 418.346 44.2145C418.346 43.7948 418.556 43.48 418.976 43.2701L431.036 36.9742C424.953 33.5115 421.388 27.6352 421.178 21.0245C414.571 20.8147 408.698 17.247 405.237 11.1609L398.944 23.2281C398.525 23.9626 397.371 23.9626 396.952 23.2281L390.45 10.8461C386.989 16.8272 381.116 20.3949 374.509 20.7097C374.404 27.5303 370.838 33.5115 364.545 36.9742L376.501 43.0603C376.816 43.2701 377.13 43.5849 377.13 44.0047C377.13 44.4244 376.921 44.7392 376.501 44.9491L364.126 51.4549C370.209 55.0225 373.774 61.1086 373.984 67.8243ZM440.789 88.286C431.351 88.0762 424.01 82.095 421.912 72.966C421.702 71.9166 421.493 70.7624 421.388 69.7131C415.934 69.818 409.956 72.4413 406.391 79.3668L405.971 80.2063C405.866 80.5211 405.447 80.8359 405.027 80.8359C404.608 80.8359 404.188 80.626 404.083 80.2063L397.791 68.1391L391.289 80.5211C391.079 80.8359 390.764 81.1507 390.345 81.1507C389.925 81.1507 389.506 80.9408 389.401 80.5211L388.981 79.6816C385.416 72.7561 379.438 70.2377 373.984 70.0278C373.879 70.9722 373.774 71.9166 373.565 72.861C371.467 81.9901 364.126 88.0762 354.687 88.1811C354.373 88.1811 354.058 88.0762 353.848 87.8663C353.638 87.6564 353.429 87.4466 353.429 87.1318C353.638 77.7928 359.616 70.4476 368.74 68.3489C369.684 68.1391 370.733 67.9292 371.677 67.9292C371.572 62.5777 368.95 56.4916 362.028 53.0288L361.189 52.5042C360.77 52.2943 360.56 51.9795 360.56 51.5598C360.56 51.1401 360.77 50.7203 361.189 50.6154L373.565 44.1096L361.504 37.8137C361.189 37.6038 360.875 37.289 360.875 36.8693C360.875 36.4496 361.085 36.0298 361.504 35.9249L362.343 35.5052C369.37 32.0424 371.887 25.9563 372.096 20.6048C371.048 20.4999 369.894 20.3949 368.74 20.0801C359.616 17.8766 353.638 10.5313 353.429 1.19234C353.429 0.877543 353.534 0.562747 353.743 0.352882C353.953 0.143018 354.268 0.0380859 354.477 0.0380859C364.021 0.0380859 371.572 6.01922 373.67 15.2533C373.879 16.3026 374.089 17.247 374.194 18.2963C379.543 18.0864 385.311 15.4631 388.772 8.64252L389.191 7.80307C389.401 7.38334 389.715 7.17347 390.135 7.17347C390.554 7.17347 390.869 7.38334 391.079 7.80307L397.581 20.1851L403.874 8.11786C404.083 7.80307 404.503 7.5932 404.817 7.48827C405.237 7.48827 405.656 7.69813 405.761 8.11786L406.181 8.95732C409.642 15.7779 415.41 18.4012 420.758 18.6111C420.863 17.4568 420.968 16.4075 421.283 15.2533C423.8 6.01922 431.351 0.0380859 440.789 0.0380859C441.419 0.0380859 441.838 0.562747 441.838 1.08741C441.838 10.5313 435.86 18.0864 426.631 20.29C425.478 20.6048 424.324 20.7097 423.171 20.8147C423.38 26.1662 426.002 31.9375 432.819 35.4002L433.658 35.82C434.077 36.0298 434.287 36.3446 434.287 36.7643C434.287 37.1841 434.077 37.6038 433.658 37.7087L421.597 44.0047L434.182 50.6154C434.497 50.8253 434.812 51.1401 434.812 51.5598C434.812 51.9795 434.602 52.3992 434.182 52.5042L433.343 52.9239C426.527 56.3867 423.905 62.1579 423.695 67.5095C424.744 67.6144 425.688 67.7193 426.736 68.0341C435.965 70.2377 441.943 77.6879 441.943 87.1318C441.943 87.4466 441.838 87.7614 441.628 87.8663C441.419 88.1811 441.104 88.286 440.789 88.286ZM439.741 2.24166C430.197 2.76632 425.163 9.79678 423.695 15.7779C423.485 16.7223 423.38 17.6667 423.275 18.6111C424.324 18.5061 425.268 18.4012 426.212 18.1914C432.19 16.7223 439.216 11.6856 439.741 2.24166ZM355.631 2.24166C356.365 11.5806 363.287 16.4075 369.265 17.7716C370.104 17.9815 371.048 18.0864 371.992 18.1914C371.887 17.3519 371.782 16.5124 371.572 15.673C370.209 9.79678 365.175 2.76632 355.631 2.24166Z" fill="white"/>
<path d="M777.124 69.7131C777.228 70.6574 777.333 71.6018 777.543 72.4413C778.906 78.4224 783.731 85.3479 793.169 85.9775C792.645 76.5336 785.723 71.4969 779.745 70.1328C778.906 69.9229 777.963 69.818 777.124 69.7131ZM725.106 70.1328C724.267 70.2377 723.533 70.3426 722.694 70.5525C716.716 71.8117 709.794 76.7435 709.165 85.9775C718.499 85.3479 723.323 78.4224 724.686 72.4413C724.896 71.7068 725.001 70.9722 725.106 70.1328ZM727.413 67.8243C734.23 67.9292 740.208 71.4969 743.773 77.6879L750.276 65.3059C750.695 64.5714 751.849 64.5714 752.268 65.3059L758.561 77.3731C762.126 71.1821 768.104 67.6144 774.921 67.5095C775.236 60.8988 778.697 55.0225 784.779 51.6647L772.404 45.1589C772.09 44.9491 771.775 44.6343 771.775 44.2145C771.775 43.7948 771.985 43.48 772.404 43.2701L784.465 36.9742C778.382 33.5115 774.816 27.6352 774.607 21.0245C767.999 20.8147 762.126 17.247 758.666 11.1609L752.373 23.2281C751.954 23.9626 750.8 23.9626 750.381 23.2281L743.878 10.8461C740.417 16.8272 734.544 20.3949 727.937 20.7097C727.832 27.5303 724.267 33.5115 717.974 36.9742L729.93 43.0603C730.245 43.2701 730.559 43.5849 730.559 44.0047C730.559 44.4244 730.349 44.7392 729.93 44.9491L717.555 51.4549C723.637 55.0225 727.203 61.1086 727.413 67.8243ZM794.218 88.286C784.779 88.0762 777.438 82.095 775.341 72.966C775.131 71.9166 774.921 70.7624 774.816 69.7131C769.363 69.818 763.385 72.4413 759.819 79.3668L759.4 80.2063C759.295 80.5211 758.875 80.8359 758.456 80.8359C758.036 80.8359 757.617 80.626 757.512 80.2063L751.219 68.1391L744.717 80.5211C744.508 80.8359 744.193 81.1507 743.773 81.1507C743.354 81.1507 742.934 80.9408 742.83 80.5211L742.41 79.6816C738.844 72.7561 732.866 70.2377 727.413 70.0278C727.308 70.9722 727.203 71.9166 726.993 72.861C724.896 81.9901 717.555 88.0762 708.116 88.1811C707.801 88.1811 707.487 88.0762 707.277 87.8663C707.067 87.6564 706.857 87.4466 706.857 87.1318C707.067 77.7928 713.045 70.4476 722.169 68.3489C723.113 68.1391 724.162 67.9292 725.106 67.9292C725.001 62.5777 722.379 56.4916 715.457 53.0288L714.618 52.5042C714.199 52.2943 713.989 51.9795 713.989 51.5598C713.989 51.1401 714.199 50.7203 714.618 50.6154L726.993 44.1096L714.933 37.8137C714.618 37.6038 714.304 37.289 714.304 36.8693C714.304 36.4496 714.513 36.0298 714.933 35.9249L715.772 35.5052C722.798 32.0424 725.315 25.9563 725.525 20.6048C724.476 20.4999 723.323 20.3949 722.169 20.0801C713.045 17.8766 707.067 10.5313 706.857 1.19234C706.857 0.877543 706.962 0.562747 707.172 0.352882C707.382 0.143018 707.696 0.0380859 707.906 0.0380859C717.45 0.0380859 725.001 6.01922 727.098 15.2533C727.308 16.3026 727.518 17.247 727.623 18.2963C732.971 18.0864 738.739 15.4631 742.2 8.64252L742.62 7.80307C742.83 7.38334 743.144 7.17347 743.564 7.17347C743.983 7.17347 744.298 7.38334 744.508 7.80307L751.01 20.1851L757.302 8.11786C757.512 7.80307 757.931 7.5932 758.246 7.48827C758.666 7.48827 759.085 7.69813 759.19 8.11786L759.609 8.95732C763.07 15.7779 768.838 18.4012 774.187 18.6111C774.292 17.4568 774.397 16.4075 774.711 15.2533C777.228 6.01922 784.779 0.0380859 794.218 0.0380859C794.847 0.0380859 795.267 0.562747 795.267 1.08741C795.267 10.5313 789.289 18.0864 780.06 20.29C778.906 20.6048 777.753 20.7097 776.599 20.8147C776.809 26.1662 779.431 31.9375 786.248 35.4002L787.087 35.82C787.506 36.0298 787.716 36.3446 787.716 36.7643C787.716 37.1841 787.506 37.6038 787.087 37.7087L775.026 44.0047L787.611 50.6154C787.926 50.8253 788.24 51.1401 788.24 51.5598C788.24 51.9795 788.031 52.3992 787.611 52.5042L786.772 52.9239C779.955 56.3867 777.333 62.1579 777.124 67.5095C778.172 67.6144 779.116 67.7193 780.165 68.0341C789.394 70.2377 795.372 77.6879 795.372 87.1318C795.372 87.4466 795.267 87.7614 795.057 87.8663C794.847 88.1811 794.533 88.286 794.218 88.286ZM793.169 2.24166C783.626 2.76632 778.592 9.79678 777.124 15.7779C776.914 16.7223 776.809 17.6667 776.704 18.6111C777.753 18.5061 778.697 18.4012 779.641 18.1914C785.618 16.7223 792.645 11.6856 793.169 2.24166ZM709.06 2.24166C709.794 11.5806 716.716 16.4075 722.694 17.7716C723.533 17.9815 724.476 18.0864 725.42 18.1914C725.315 17.3519 725.211 16.5124 725.001 15.673C723.637 9.79678 718.603 2.76632 709.06 2.24166Z" fill="white"/>
<path d="M1130.78 69.7131C1130.89 70.6574 1130.99 71.6018 1131.2 72.4413C1132.56 78.4224 1137.39 85.3479 1146.83 85.9775C1146.3 76.5336 1139.38 71.4969 1133.4 70.1328C1132.56 69.9229 1131.62 69.818 1130.78 69.7131ZM1078.76 70.1328C1077.92 70.2377 1077.19 70.3426 1076.35 70.5525C1070.37 71.8117 1063.45 76.7435 1062.82 85.9775C1072.16 85.3479 1076.98 78.4224 1078.34 72.4413C1078.55 71.7068 1078.66 70.9722 1078.76 70.1328ZM1081.07 67.8243C1087.89 67.9292 1093.86 71.4969 1097.43 77.6879L1103.93 65.3059C1104.35 64.5714 1105.51 64.5714 1105.93 65.3059L1112.22 77.3731C1115.78 71.1821 1121.76 67.6144 1128.58 67.5095C1128.89 60.8988 1132.35 55.0225 1138.44 51.6647L1126.06 45.1589C1125.75 44.9491 1125.43 44.6343 1125.43 44.2145C1125.43 43.7948 1125.64 43.48 1126.06 43.2701L1138.12 36.9742C1132.04 33.5115 1128.47 27.6352 1128.26 21.0245C1121.66 20.8147 1115.78 17.247 1112.32 11.1609L1106.03 23.2281C1105.61 23.9626 1104.46 23.9626 1104.04 23.2281L1097.54 10.8461C1094.07 16.8272 1088.2 20.3949 1081.59 20.7097C1081.49 27.5303 1077.92 33.5115 1071.63 36.9742L1083.59 43.0603C1083.9 43.2701 1084.22 43.5849 1084.22 44.0047C1084.22 44.4244 1084.01 44.7392 1083.59 44.9491L1071.21 51.4549C1077.29 55.0225 1080.86 61.1086 1081.07 67.8243ZM1147.88 88.286C1138.44 88.0762 1131.1 82.095 1129 72.966C1128.79 71.9166 1128.58 70.7624 1128.47 69.7131C1123.02 69.818 1117.04 72.4413 1113.48 79.3668L1113.06 80.2063C1112.95 80.5211 1112.53 80.8359 1112.11 80.8359C1111.69 80.8359 1111.27 80.626 1111.17 80.2063L1104.88 68.1391L1098.37 80.5211C1098.16 80.8359 1097.85 81.1507 1097.43 81.1507C1097.01 81.1507 1096.59 80.9408 1096.49 80.5211L1096.07 79.6816C1092.5 72.7561 1086.52 70.2377 1081.07 70.0278C1080.97 70.9722 1080.86 71.9166 1080.65 72.861C1078.55 81.9901 1071.21 88.0762 1061.77 88.1811C1061.46 88.1811 1061.14 88.0762 1060.93 87.8663C1060.72 87.6564 1060.51 87.4466 1060.51 87.1318C1060.72 77.7928 1066.7 70.4476 1075.83 68.3489C1076.77 68.1391 1077.82 67.9292 1078.76 67.9292C1078.66 62.5777 1076.04 56.4916 1069.11 53.0288L1068.28 52.5042C1067.86 52.2943 1067.65 51.9795 1067.65 51.5598C1067.65 51.1401 1067.86 50.7203 1068.28 50.6154L1080.65 44.1096L1068.59 37.8137C1068.28 37.6038 1067.96 37.289 1067.96 36.8693C1067.96 36.4496 1068.17 36.0298 1068.59 35.9249L1069.43 35.5052C1076.46 32.0424 1078.97 25.9563 1079.18 20.6048C1078.13 20.4999 1076.98 20.3949 1075.83 20.0801C1066.7 17.8766 1060.72 10.5313 1060.51 1.19234C1060.51 0.877543 1060.62 0.562747 1060.83 0.352882C1061.04 0.143018 1061.35 0.0380859 1061.56 0.0380859C1071.11 0.0380859 1078.66 6.01922 1080.76 15.2533C1080.97 16.3026 1081.17 17.247 1081.28 18.2963C1086.63 18.0864 1092.4 15.4631 1095.86 8.64252L1096.28 7.80307C1096.49 7.38334 1096.8 7.17347 1097.22 7.17347C1097.64 7.17347 1097.95 7.38334 1098.16 7.80307L1104.67 20.1851L1110.96 8.11786C1111.17 7.80307 1111.59 7.5932 1111.9 7.48827C1112.32 7.48827 1112.74 7.69813 1112.85 8.11786L1113.27 8.95732C1116.73 15.7779 1122.5 18.4012 1127.84 18.6111C1127.95 17.4568 1128.05 16.4075 1128.37 15.2533C1130.89 6.01922 1138.44 0.0380859 1147.88 0.0380859C1148.5 0.0380859 1148.92 0.562747 1148.92 1.08741C1148.92 10.5313 1142.95 18.0864 1133.72 20.29C1132.56 20.6048 1131.41 20.7097 1130.26 20.8147C1130.47 26.1662 1133.09 31.9375 1139.9 35.4002L1140.74 35.82C1141.16 36.0298 1141.37 36.3446 1141.37 36.7643C1141.37 37.1841 1141.16 37.6038 1140.74 37.7087L1128.68 44.0047L1141.27 50.6154C1141.58 50.8253 1141.9 51.1401 1141.9 51.5598C1141.9 51.9795 1141.69 52.3992 1141.27 52.5042L1140.43 52.9239C1133.61 56.3867 1130.99 62.1579 1130.78 67.5095C1131.83 67.6144 1132.77 67.7193 1133.82 68.0341C1143.05 70.2377 1149.03 77.6879 1149.03 87.1318C1149.03 87.4466 1148.92 87.7614 1148.71 87.8663C1148.5 88.1811 1148.19 88.286 1147.88 88.286ZM1146.83 2.24166C1137.28 2.76632 1132.25 9.79678 1130.78 15.7779C1130.57 16.7223 1130.47 17.6667 1130.36 18.6111C1131.41 18.5061 1132.35 18.4012 1133.3 18.1914C1139.28 16.7223 1146.3 11.6856 1146.83 2.24166ZM1062.72 2.24166C1063.45 11.5806 1070.37 16.4075 1076.35 17.7716C1077.19 17.9815 1078.13 18.0864 1079.08 18.1914C1078.97 17.3519 1078.87 16.5124 1078.66 15.673C1077.29 9.79678 1072.26 2.76632 1062.72 2.24166Z" fill="white"/>
<path d="M143.469 88.286C142.84 88.286 142.42 87.7614 142.42 87.2367C142.42 86.7121 142.945 86.1874 143.469 86.1874C152.698 86.1874 158.047 80.3112 160.039 74.5399C151.754 75.7991 143.993 72.1265 139.903 64.6763L133.716 77.0583C133.296 77.7928 132.143 77.7928 131.723 77.0583L125.535 64.6763C121.445 72.1265 113.685 75.7991 105.4 74.5399C107.392 80.3112 112.741 86.1874 121.97 86.1874C122.599 86.1874 123.018 86.7121 123.018 87.2367C123.018 87.7614 122.494 88.286 121.97 88.286C112.741 88.286 105.4 82.7246 102.883 73.9103C94.073 71.4969 88.5146 64.1516 88.5146 54.9176C88.5146 54.288 89.039 53.8683 89.5634 53.8683C90.0878 53.8683 90.6121 54.393 90.6121 54.9176C90.6121 64.1516 96.59 69.3983 102.253 71.392C100.995 63.1023 104.665 55.4423 112.111 51.3499L99.8411 45.1589C99.4216 44.9491 99.2119 44.6343 99.2119 44.2145C99.2119 43.7948 99.4216 43.3751 99.8411 43.2701L112.216 37.0791C104.77 32.9868 100.995 25.3267 102.358 17.0371C96.59 19.0308 90.717 24.2774 90.717 33.5115C90.717 34.141 90.1926 34.5608 89.6683 34.5608C89.1439 34.5608 88.6195 34.0361 88.6195 33.5115C88.6195 24.2774 94.2828 16.9322 102.987 14.5187C105.295 5.59949 112.741 0.0380859 121.97 0.0380859C122.599 0.0380859 123.018 0.562747 123.018 1.08741C123.018 1.61207 122.494 2.13673 121.97 2.13673C112.741 2.13673 107.392 8.01293 105.4 13.7842C113.685 12.525 121.445 16.1976 125.535 23.6478L131.723 11.2658C132.143 10.5313 133.296 10.5313 133.716 11.2658L139.903 23.6478C143.993 16.1976 151.754 12.525 160.039 13.7842C158.047 8.01293 152.698 2.13673 143.469 2.13673C142.84 2.13673 142.42 1.61207 142.42 1.08741C142.42 0.562747 142.945 0.0380859 143.469 0.0380859C152.698 0.0380859 160.039 5.59949 162.556 14.4138C171.366 16.8272 176.924 24.1725 176.924 33.4065C176.924 34.0361 176.4 34.4558 175.875 34.4558C175.351 34.4558 174.827 33.9312 174.827 33.4065C174.827 24.1725 168.849 18.9259 163.186 16.9322C164.444 25.2218 160.773 32.8819 153.327 36.9742L165.703 43.1652C166.122 43.3751 166.332 43.6899 166.332 44.1096C166.332 44.5293 166.122 44.9491 165.703 45.054L153.327 51.245C160.773 55.3373 164.549 62.9974 163.186 71.287C168.954 69.2933 174.827 64.0467 174.827 54.8127C174.827 54.1831 175.351 53.7634 175.875 53.7634C176.4 53.7634 176.924 54.288 176.924 54.8127C176.924 64.0467 171.261 71.392 162.556 73.8054C160.144 82.6197 152.698 88.286 143.469 88.286ZM125.535 61.0037C125.955 61.0037 126.374 61.2135 126.479 61.6333L132.667 74.0153L138.855 61.6333C139.064 61.2135 139.379 61.0037 139.798 61.0037C140.218 61.0037 140.637 61.2135 140.742 61.6333L141.267 62.7875C145.776 71.7068 154.271 73.3857 160.564 72.1265C161.822 65.9355 160.144 57.3311 151.23 52.9239L150.076 52.3992C149.657 52.1894 149.447 51.8746 149.447 51.4549C149.447 51.0351 149.657 50.6154 150.076 50.5105L162.451 44.3195L150.286 38.0235C149.866 37.8137 149.657 37.4989 149.657 37.0791C149.657 36.6594 149.866 36.2397 150.286 36.1348L151.44 35.6101C160.354 31.098 162.032 22.5985 160.773 16.4075C154.586 15.1483 145.986 16.8272 141.476 25.7465L140.952 26.9007C140.533 27.6352 139.379 27.6352 138.959 26.9007L132.772 14.5187L126.584 26.9007C126.374 27.3205 126.06 27.5303 125.64 27.5303C125.221 27.5303 124.801 27.3205 124.696 26.9007L124.172 25.7465C119.663 16.8272 111.168 15.1483 104.875 16.4075C103.617 22.5985 105.295 31.2029 114.209 35.6101L115.363 36.1348C115.782 36.3446 115.992 36.6594 115.992 37.0791C115.992 37.4989 115.782 37.9186 115.363 38.0235L102.778 44.1096L115.153 50.3006C115.572 50.5105 115.782 50.8253 115.782 51.245C115.782 51.6647 115.572 52.0844 115.153 52.1894L113.999 52.714C105.085 57.2261 103.407 65.7256 104.665 71.9166C110.853 73.1758 119.453 71.4969 123.962 62.5777L124.487 61.4234C124.696 61.2135 125.116 61.0037 125.535 61.0037Z" fill="white"/>
<path d="M496.898 88.286C496.269 88.286 495.849 87.7614 495.849 87.2367C495.849 86.7121 496.373 86.1874 496.898 86.1874C506.127 86.1874 511.475 80.3112 513.468 74.5399C505.183 75.7991 497.422 72.1265 493.332 64.6763L487.144 77.0583C486.725 77.7928 485.571 77.7928 485.152 77.0583L478.964 64.6763C474.874 72.1265 467.113 75.7991 458.828 74.5399C460.821 80.3112 466.169 86.1874 475.398 86.1874C476.028 86.1874 476.447 86.7121 476.447 87.2367C476.447 87.7614 475.923 88.286 475.398 88.286C466.169 88.286 458.828 82.7246 456.311 73.9103C447.502 71.4969 441.943 64.1516 441.943 54.9176C441.943 54.288 442.468 53.8683 442.992 53.8683C443.516 53.8683 444.041 54.393 444.041 54.9176C444.041 64.1516 450.019 69.3983 455.682 71.392C454.423 63.1023 458.094 55.4423 465.54 51.3499L453.27 45.1589C452.85 44.9491 452.641 44.6343 452.641 44.2145C452.641 43.7948 452.85 43.3751 453.27 43.2701L465.645 37.0791C458.199 32.9868 454.423 25.3267 455.787 17.0371C450.019 19.0308 444.146 24.2774 444.146 33.5115C444.146 34.141 443.621 34.5608 443.097 34.5608C442.573 34.5608 442.048 34.0361 442.048 33.5115C442.048 24.2774 447.711 16.9322 456.416 14.5187C458.723 5.59949 466.169 0.0380859 475.398 0.0380859C476.028 0.0380859 476.447 0.562747 476.447 1.08741C476.447 1.61207 475.923 2.13673 475.398 2.13673C466.169 2.13673 460.821 8.01293 458.828 13.7842C467.113 12.525 474.874 16.1976 478.964 23.6478L485.152 11.2658C485.571 10.5313 486.725 10.5313 487.144 11.2658L493.332 23.6478C497.422 16.1976 505.183 12.525 513.468 13.7842C511.475 8.01293 506.127 2.13673 496.898 2.13673C496.269 2.13673 495.849 1.61207 495.849 1.08741C495.849 0.562747 496.373 0.0380859 496.898 0.0380859C506.127 0.0380859 513.468 5.59949 515.985 14.4138C524.795 16.8272 530.353 24.1725 530.353 33.4065C530.353 34.0361 529.829 34.4558 529.304 34.4558C528.78 34.4558 528.255 33.9312 528.255 33.4065C528.255 24.1725 522.278 18.9259 516.614 16.9322C517.873 25.2218 514.202 32.8819 506.756 36.9742L519.131 43.1652C519.551 43.3751 519.761 43.6899 519.761 44.1096C519.761 44.5293 519.551 44.9491 519.131 45.054L506.756 51.245C514.202 55.3373 517.978 62.9974 516.614 71.287C522.382 69.2933 528.255 64.0467 528.255 54.8127C528.255 54.1831 528.78 53.7634 529.304 53.7634C529.829 53.7634 530.353 54.288 530.353 54.8127C530.353 64.0467 524.69 71.392 515.985 73.8054C513.573 82.6197 506.127 88.286 496.898 88.286ZM478.964 61.0037C479.384 61.0037 479.803 61.2135 479.908 61.6333L486.096 74.0153L492.283 61.6333C492.493 61.2135 492.808 61.0037 493.227 61.0037C493.647 61.0037 494.066 61.2135 494.171 61.6333L494.695 62.7875C499.205 71.7068 507.7 73.3857 513.992 72.1265C515.251 65.9355 513.573 57.3311 504.659 52.9239L503.505 52.3992C503.085 52.1894 502.876 51.8746 502.876 51.4549C502.876 51.0351 503.085 50.6154 503.505 50.5105L515.88 44.3195L503.715 38.0235C503.295 37.8137 503.085 37.4989 503.085 37.0791C503.085 36.6594 503.295 36.2397 503.715 36.1348L504.868 35.6101C513.783 31.098 515.461 22.5985 514.202 16.4075C508.015 15.1483 499.415 16.8272 494.905 25.7465L494.381 26.9007C493.961 27.6352 492.808 27.6352 492.388 26.9007L486.201 14.5187L480.013 26.9007C479.803 27.3205 479.489 27.5303 479.069 27.5303C478.65 27.5303 478.23 27.3205 478.125 26.9007L477.601 25.7465C473.091 16.8272 464.596 15.1483 458.304 16.4075C457.045 22.5985 458.723 31.2029 467.638 35.6101L468.791 36.1348C469.211 36.3446 469.421 36.6594 469.421 37.0791C469.421 37.4989 469.211 37.9186 468.791 38.0235L456.206 44.1096L468.582 50.3006C469.001 50.5105 469.211 50.8253 469.211 51.245C469.211 51.6647 469.001 52.0844 468.582 52.1894L467.428 52.714C458.514 57.2261 456.836 65.7256 458.094 71.9166C464.282 73.1758 472.881 71.4969 477.391 62.5777L477.915 61.4234C478.125 61.2135 478.545 61.0037 478.964 61.0037Z" fill="white"/>
<path d="M850.327 88.286C849.697 88.286 849.278 87.7614 849.278 87.2367C849.278 86.7121 849.802 86.1874 850.327 86.1874C859.556 86.1874 864.904 80.3112 866.897 74.5399C858.612 75.7991 850.851 72.1265 846.761 64.6763L840.573 77.0583C840.154 77.7928 839 77.7928 838.581 77.0583L832.393 64.6763C828.303 72.1265 820.542 75.7991 812.257 74.5399C814.25 80.3112 819.598 86.1874 828.827 86.1874C829.456 86.1874 829.876 86.7121 829.876 87.2367C829.876 87.7614 829.352 88.286 828.827 88.286C819.598 88.286 812.257 82.7246 809.74 73.9103C800.93 71.4969 795.372 64.1516 795.372 54.9176C795.372 54.288 795.896 53.8683 796.421 53.8683C796.945 53.8683 797.47 54.393 797.47 54.9176C797.47 64.1516 803.447 69.3983 809.111 71.392C807.852 63.1023 811.523 55.4423 818.969 51.3499L806.699 45.1589C806.279 44.9491 806.069 44.6343 806.069 44.2145C806.069 43.7948 806.279 43.3751 806.699 43.2701L819.074 37.0791C811.628 32.9868 807.852 25.3267 809.216 17.0371C803.447 19.0308 797.574 24.2774 797.574 33.5115C797.574 34.141 797.05 34.5608 796.526 34.5608C796.001 34.5608 795.477 34.0361 795.477 33.5115C795.477 24.2774 801.14 16.9322 809.845 14.5187C812.152 5.59949 819.598 0.0380859 828.827 0.0380859C829.456 0.0380859 829.876 0.562747 829.876 1.08741C829.876 1.61207 829.352 2.13673 828.827 2.13673C819.598 2.13673 814.25 8.01293 812.257 13.7842C820.542 12.525 828.303 16.1976 832.393 23.6478L838.581 11.2658C839 10.5313 840.154 10.5313 840.573 11.2658L846.761 23.6478C850.851 16.1976 858.612 12.525 866.897 13.7842C864.904 8.01293 859.556 2.13673 850.327 2.13673C849.697 2.13673 849.278 1.61207 849.278 1.08741C849.278 0.562747 849.802 0.0380859 850.327 0.0380859C859.556 0.0380859 866.897 5.59949 869.414 14.4138C878.223 16.8272 883.782 24.1725 883.782 33.4065C883.782 34.0361 883.257 34.4558 882.733 34.4558C882.208 34.4558 881.684 33.9312 881.684 33.4065C881.684 24.1725 875.706 18.9259 870.043 16.9322C871.301 25.2218 867.631 32.8819 860.185 36.9742L872.56 43.1652C872.979 43.3751 873.189 43.6899 873.189 44.1096C873.189 44.5293 872.979 44.9491 872.56 45.054L860.185 51.245C867.631 55.3373 871.406 62.9974 870.043 71.287C875.811 69.2933 881.684 64.0467 881.684 54.8127C881.684 54.1831 882.208 53.7634 882.733 53.7634C883.257 53.7634 883.782 54.288 883.782 54.8127C883.782 64.0467 878.118 71.392 869.414 73.8054C867.002 82.6197 859.556 88.286 850.327 88.286ZM832.393 61.0037C832.812 61.0037 833.232 61.2135 833.337 61.6333L839.524 74.0153L845.712 61.6333C845.922 61.2135 846.236 61.0037 846.656 61.0037C847.075 61.0037 847.495 61.2135 847.6 61.6333L848.124 62.7875C852.634 71.7068 861.129 73.3857 867.421 72.1265C868.68 65.9355 867.002 57.3311 858.087 52.9239L856.934 52.3992C856.514 52.1894 856.304 51.8746 856.304 51.4549C856.304 51.0351 856.514 50.6154 856.934 50.5105L869.309 44.3195L857.143 38.0235C856.724 37.8137 856.514 37.4989 856.514 37.0791C856.514 36.6594 856.724 36.2397 857.143 36.1348L858.297 35.6101C867.211 31.098 868.889 22.5985 867.631 16.4075C861.443 15.1483 852.844 16.8272 848.334 25.7465L847.81 26.9007C847.39 27.6352 846.236 27.6352 845.817 26.9007L839.629 14.5187L833.442 26.9007C833.232 27.3205 832.917 27.5303 832.498 27.5303C832.078 27.5303 831.659 27.3205 831.554 26.9007L831.03 25.7465C826.52 16.8272 818.025 15.1483 811.733 16.4075C810.474 22.5985 812.152 31.2029 821.066 35.6101L822.22 36.1348C822.64 36.3446 822.849 36.6594 822.849 37.0791C822.849 37.4989 822.64 37.9186 822.22 38.0235L809.635 44.1096L822.01 50.3006C822.43 50.5105 822.64 50.8253 822.64 51.245C822.64 51.6647 822.43 52.0844 822.01 52.1894L820.857 52.714C811.942 57.2261 810.264 65.7256 811.523 71.9166C817.71 73.1758 826.31 71.4969 830.82 62.5777L831.344 61.4234C831.554 61.2135 831.973 61.0037 832.393 61.0037Z" fill="white"/>
<path d="M1203.98 88.286C1203.36 88.286 1202.94 87.7614 1202.94 87.2367C1202.94 86.7121 1203.46 86.1874 1203.98 86.1874C1213.21 86.1874 1218.56 80.3112 1220.55 74.5399C1212.27 75.7991 1204.51 72.1265 1200.42 64.6763L1194.23 77.0583C1193.81 77.7928 1192.66 77.7928 1192.24 77.0583L1186.05 64.6763C1181.96 72.1265 1174.2 75.7991 1165.92 74.5399C1167.91 80.3112 1173.26 86.1874 1182.49 86.1874C1183.11 86.1874 1183.53 86.7121 1183.53 87.2367C1183.53 87.7614 1183.01 88.286 1182.49 88.286C1173.26 88.286 1165.92 82.7246 1163.4 73.9103C1154.59 71.4969 1149.03 64.1516 1149.03 54.9176C1149.03 54.288 1149.55 53.8683 1150.08 53.8683C1150.6 53.8683 1151.13 54.393 1151.13 54.9176C1151.13 64.1516 1157.11 69.3983 1162.77 71.392C1161.51 63.1023 1165.18 55.4423 1172.63 51.3499L1160.36 45.1589C1159.94 44.9491 1159.73 44.6343 1159.73 44.2145C1159.73 43.7948 1159.94 43.3751 1160.36 43.2701L1172.73 37.0791C1165.29 32.9868 1161.51 25.3267 1162.87 17.0371C1157.11 19.0308 1151.23 24.2774 1151.23 33.5115C1151.23 34.141 1150.71 34.5608 1150.18 34.5608C1149.66 34.5608 1149.14 34.0361 1149.14 33.5115C1149.14 24.2774 1154.8 16.9322 1163.5 14.5187C1165.81 5.59949 1173.26 0.0380859 1182.49 0.0380859C1183.11 0.0380859 1183.53 0.562747 1183.53 1.08741C1183.53 1.61207 1183.01 2.13673 1182.49 2.13673C1173.26 2.13673 1167.91 8.01293 1165.92 13.7842C1174.2 12.525 1181.96 16.1976 1186.05 23.6478L1192.24 11.2658C1192.66 10.5313 1193.81 10.5313 1194.23 11.2658L1200.42 23.6478C1204.51 16.1976 1212.27 12.525 1220.55 13.7842C1218.56 8.01293 1213.21 2.13673 1203.98 2.13673C1203.36 2.13673 1202.94 1.61207 1202.94 1.08741C1202.94 0.562747 1203.46 0.0380859 1203.98 0.0380859C1213.21 0.0380859 1220.55 5.59949 1223.07 14.4138C1231.88 16.8272 1237.44 24.1725 1237.44 33.4065C1237.44 34.0361 1236.92 34.4558 1236.39 34.4558C1235.87 34.4558 1235.34 33.9312 1235.34 33.4065C1235.34 24.1725 1229.36 18.9259 1223.7 16.9322C1224.96 25.2218 1221.29 32.8819 1213.84 36.9742L1226.22 43.1652C1226.64 43.3751 1226.85 43.6899 1226.85 44.1096C1226.85 44.5293 1226.64 44.9491 1226.22 45.054L1213.84 51.245C1221.29 55.3373 1225.06 62.9974 1223.7 71.287C1229.47 69.2933 1235.34 64.0467 1235.34 54.8127C1235.34 54.1831 1235.87 53.7634 1236.39 53.7634C1236.92 53.7634 1237.44 54.288 1237.44 54.8127C1237.44 64.0467 1231.78 71.392 1223.07 73.8054C1220.66 82.6197 1213.21 88.286 1203.98 88.286ZM1186.05 61.0037C1186.47 61.0037 1186.89 61.2135 1186.99 61.6333L1193.18 74.0153L1199.37 61.6333C1199.58 61.2135 1199.89 61.0037 1200.31 61.0037C1200.73 61.0037 1201.15 61.2135 1201.26 61.6333L1201.78 62.7875C1206.29 71.7068 1214.79 73.3857 1221.08 72.1265C1222.34 65.9355 1220.66 57.3311 1211.75 52.9239L1210.59 52.3992C1210.17 52.1894 1209.96 51.8746 1209.96 51.4549C1209.96 51.0351 1210.17 50.6154 1210.59 50.5105L1222.97 44.3195L1210.8 38.0235C1210.38 37.8137 1210.17 37.4989 1210.17 37.0791C1210.17 36.6594 1210.38 36.2397 1210.8 36.1348L1211.96 35.6101C1220.87 31.098 1222.55 22.5985 1221.29 16.4075C1215.1 15.1483 1206.5 16.8272 1201.99 25.7465L1201.47 26.9007C1201.05 27.6352 1199.89 27.6352 1199.48 26.9007L1193.29 14.5187L1187.1 26.9007C1186.89 27.3205 1186.58 27.5303 1186.16 27.5303C1185.74 27.5303 1185.32 27.3205 1185.21 26.9007L1184.69 25.7465C1180.18 16.8272 1171.68 15.1483 1165.39 16.4075C1164.13 22.5985 1165.81 31.2029 1174.72 35.6101L1175.88 36.1348C1176.3 36.3446 1176.51 36.6594 1176.51 37.0791C1176.51 37.4989 1176.3 37.9186 1175.88 38.0235L1163.29 44.1096L1175.67 50.3006C1176.09 50.5105 1176.3 50.8253 1176.3 51.245C1176.3 51.6647 1176.09 52.0844 1175.67 52.1894L1174.51 52.714C1165.6 57.2261 1163.92 65.7256 1165.18 71.9166C1171.37 73.1758 1179.97 71.4969 1184.48 62.5777L1185 61.4234C1185.21 61.2135 1185.63 61.0037 1186.05 61.0037Z" fill="white"/>
<path d="M195.508 88.3123C195.403 88.3123 195.298 88.3123 195.298 88.3123C194.774 88.2073 194.459 87.7876 194.459 87.263V86.5284C194.459 86.0038 194.774 85.584 195.193 85.4791L210.505 54.9438L179.357 70.5787C178.833 70.8935 178.204 70.5787 177.889 70.0541C177.574 69.5294 177.784 68.8998 178.413 68.585L210.19 52.5304L195.298 45.395L178.623 53.6847C178.309 53.8945 177.889 53.7896 177.574 53.6847C177.26 53.4748 177.05 53.16 177.05 52.7403V35.6363C177.05 35.2166 177.26 34.9018 177.574 34.6919C177.889 34.4821 178.309 34.4821 178.623 34.6919L195.298 42.9816L210.295 35.7413L177.574 19.4768C177.155 19.2669 176.84 18.7422 176.945 18.2176C177.05 17.6929 177.47 17.3781 177.994 17.3781H178.728C179.252 17.3781 179.672 17.6929 179.777 18.1127L210.715 33.5377L195.403 2.89749C194.984 2.79256 194.669 2.37283 194.669 1.84817V1.11364C194.669 0.58898 194.984 0.169251 195.508 0.064319C196.032 -0.0406132 196.557 0.169251 196.766 0.693912L213.127 33.3278L220.363 18.3225L212.078 1.74323C211.868 1.42844 211.973 1.00871 212.078 0.693912C212.183 0.379115 212.603 0.169251 213.022 0.169251H230.222C230.641 0.169251 230.956 0.379115 231.165 0.693912C231.375 1.00871 231.375 1.42844 231.165 1.74323L222.88 18.3225L230.012 33.2229L246.058 1.42844C246.372 0.903776 247.002 0.693912 247.526 0.903776C248.05 1.21857 248.26 1.84817 248.05 2.37283L232.214 33.6426L262.628 18.5324C262.733 18.1127 263.152 17.7979 263.677 17.7979H264.411C264.935 17.7979 265.355 18.1127 265.46 18.6373C265.564 19.162 265.355 19.6866 264.83 19.8965L232.109 36.161L247.106 43.4013L263.782 35.1117C264.096 34.9018 264.516 35.0067 264.83 35.1117C265.145 35.3215 265.355 35.6363 265.355 36.0561V53.16C265.355 53.5797 265.145 53.8945 264.83 54.1044C264.516 54.3143 264.096 54.3143 263.782 54.1044L247.106 45.8147L232.214 52.9501L264.096 69.0048C264.621 69.3196 264.83 69.9492 264.621 70.4738C264.306 70.9985 263.677 71.2083 263.152 70.9985L232.004 55.3636L247.736 86.1087C248.05 86.6334 247.841 87.263 247.211 87.5778C246.687 87.8926 246.058 87.6827 245.743 87.0531L229.697 55.2586L222.566 70.159L230.851 86.7383C231.061 87.0531 230.956 87.4728 230.851 87.7876C230.641 88.1024 230.326 88.3123 229.907 88.3123H212.707C212.288 88.3123 211.973 88.1024 211.764 87.7876C211.554 87.4728 211.554 87.0531 211.764 86.7383L220.049 70.159L212.812 55.1537L196.452 87.7876C196.242 88.1024 195.927 88.3123 195.508 88.3123ZM214.49 86.1087H228.124L221.307 72.4675L214.49 86.1087ZM213.232 51.586C213.442 51.6909 213.651 51.9008 213.861 52.1107L221.307 67.6406L228.648 52.3205C228.858 51.9008 229.173 51.691 229.592 51.691C229.697 51.691 229.697 51.691 229.802 51.691L244.694 44.5556L229.173 37.1054C228.753 36.8955 228.544 36.5807 228.544 36.161C228.544 35.9511 228.544 35.8462 228.648 35.6363L221.517 20.8409L214.071 36.3709C213.861 36.7906 213.546 37.0004 213.127 37.0004C213.127 37.0004 213.127 37.0004 213.022 37.0004L197.71 44.3457L213.232 51.586ZM249.728 44.5556L263.362 51.3762V37.735L249.728 44.5556ZM179.252 37.4202V50.9564L192.886 44.1358L179.252 37.4202ZM214.805 2.26789L221.622 15.8041L228.439 2.26789H214.805Z" fill="white"/>
<path d="M548.936 88.3123C548.831 88.3123 548.726 88.3123 548.726 88.3123C548.202 88.2073 547.887 87.7876 547.887 87.263V86.5284C547.887 86.0038 548.202 85.584 548.621 85.4791L563.933 54.9438L532.785 70.5787C532.261 70.8935 531.631 70.5787 531.317 70.0541C531.002 69.5294 531.212 68.8998 531.841 68.585L563.618 52.5304L548.726 45.395L532.051 53.6847C531.736 53.8945 531.317 53.7896 531.002 53.6847C530.687 53.4748 530.478 53.16 530.478 52.7403V35.6363C530.478 35.2166 530.687 34.9018 531.002 34.6919C531.317 34.4821 531.736 34.4821 532.051 34.6919L548.726 42.9816L563.723 35.7413L531.002 19.4768C530.583 19.2669 530.268 18.7422 530.373 18.2176C530.478 17.6929 530.897 17.3781 531.422 17.3781H532.156C532.68 17.3781 533.1 17.6929 533.204 18.1127L564.143 33.5377L548.831 2.89749C548.411 2.79256 548.097 2.37283 548.097 1.84817V1.11364C548.097 0.58898 548.411 0.169251 548.936 0.064319C549.46 -0.0406132 549.984 0.169251 550.194 0.693912L566.555 33.3278L573.791 18.3225L565.506 1.74323C565.296 1.42844 565.401 1.00871 565.506 0.693912C565.611 0.379115 566.03 0.169251 566.45 0.169251H583.649C584.069 0.169251 584.383 0.379115 584.593 0.693912C584.803 1.00871 584.803 1.42844 584.593 1.74323L576.308 18.3225L583.44 33.2229L599.485 1.42844C599.8 0.903776 600.429 0.693912 600.954 0.903776C601.478 1.21857 601.688 1.84817 601.478 2.37283L585.642 33.6426L616.056 18.5324C616.161 18.1127 616.58 17.7979 617.104 17.7979H617.839C618.363 17.7979 618.782 18.1127 618.887 18.6373C618.992 19.162 618.782 19.6866 618.258 19.8965L585.537 36.161L600.534 43.4013L617.209 35.1117C617.524 34.9018 617.943 35.0067 618.258 35.1117C618.573 35.3215 618.782 35.6363 618.782 36.0561V53.16C618.782 53.5797 618.573 53.8945 618.258 54.1044C617.943 54.3143 617.524 54.3143 617.209 54.1044L600.534 45.8147L585.642 52.9501L617.524 69.0048C618.048 69.3196 618.258 69.9492 618.048 70.4738C617.734 70.9985 617.104 71.2083 616.58 70.9985L585.432 55.3636L601.163 86.1087C601.478 86.6334 601.268 87.263 600.639 87.5778C600.115 87.8926 599.485 87.6827 599.171 87.0531L583.125 55.2586L575.993 70.159L584.279 86.7383C584.488 87.0531 584.383 87.4728 584.279 87.7876C584.069 88.1024 583.754 88.3123 583.335 88.3123H566.135C565.716 88.3123 565.401 88.1024 565.191 87.7876C564.982 87.4728 564.982 87.0531 565.191 86.7383L573.476 70.159L566.24 55.1537L549.88 87.7876C549.67 88.1024 549.355 88.3123 548.936 88.3123ZM567.918 86.1087H581.552L574.735 72.4675L567.918 86.1087ZM566.66 51.586C566.869 51.6909 567.079 51.9008 567.289 52.1107L574.735 67.6406L582.076 52.3205C582.286 51.9008 582.601 51.691 583.02 51.691C583.125 51.691 583.125 51.691 583.23 51.691L598.122 44.5556L582.601 37.1054C582.181 36.8955 581.971 36.5807 581.971 36.161C581.971 35.9511 581.971 35.8462 582.076 35.6363L574.945 20.8409L567.499 36.3709C567.289 36.7906 566.974 37.0004 566.555 37.0004C566.555 37.0004 566.555 37.0004 566.45 37.0004L551.138 44.3457L566.66 51.586ZM603.156 44.5556L616.79 51.3762V37.735L603.156 44.5556ZM532.68 37.4202V50.9564L546.314 44.1358L532.68 37.4202ZM568.233 2.26789L575.05 15.8041L581.866 2.26789H568.233Z" fill="white"/>
<path d="M902.364 88.3123C902.26 88.3123 902.155 88.3123 902.155 88.3123C901.63 88.2073 901.316 87.7876 901.316 87.263V86.5284C901.316 86.0038 901.63 85.584 902.05 85.4791L917.362 54.9438L886.214 70.5787C885.689 70.8935 885.06 70.5787 884.745 70.0541C884.431 69.5294 884.641 68.8998 885.27 68.585L917.047 52.5304L902.155 45.395L885.48 53.6847C885.165 53.8945 884.745 53.7896 884.431 53.6847C884.116 53.4748 883.906 53.16 883.906 52.7403V35.6363C883.906 35.2166 884.116 34.9018 884.431 34.6919C884.745 34.4821 885.165 34.4821 885.48 34.6919L902.155 42.9816L917.152 35.7413L884.431 19.4768C884.011 19.2669 883.697 18.7422 883.802 18.2176C883.906 17.6929 884.326 17.3781 884.85 17.3781H885.584C886.109 17.3781 886.528 17.6929 886.633 18.1127L917.571 33.5377L902.26 2.89749C901.84 2.79256 901.525 2.37283 901.525 1.84817V1.11364C901.525 0.58898 901.84 0.169251 902.364 0.064319C902.889 -0.0406132 903.413 0.169251 903.623 0.693912L919.983 33.3278L927.22 18.3225L918.935 1.74323C918.725 1.42844 918.83 1.00871 918.935 0.693912C919.04 0.379115 919.459 0.169251 919.879 0.169251H937.078C937.498 0.169251 937.812 0.379115 938.022 0.693912C938.232 1.00871 938.232 1.42844 938.022 1.74323L929.737 18.3225L936.868 33.2229L952.914 1.42844C953.229 0.903776 953.858 0.693912 954.382 0.903776C954.907 1.21857 955.117 1.84817 954.907 2.37283L939.071 33.6426L969.484 18.5324C969.589 18.1127 970.009 17.7979 970.533 17.7979H971.267C971.792 17.7979 972.211 18.1127 972.316 18.6373C972.421 19.162 972.211 19.6866 971.687 19.8965L938.966 36.161L953.963 43.4013L970.638 35.1117C970.953 34.9018 971.372 35.0067 971.687 35.1117C972.001 35.3215 972.211 35.6363 972.211 36.0561V53.16C972.211 53.5797 972.001 53.8945 971.687 54.1044C971.372 54.3143 970.953 54.3143 970.638 54.1044L953.963 45.8147L939.071 52.9501L970.953 69.0048C971.477 69.3196 971.687 69.9492 971.477 70.4738C971.162 70.9985 970.533 71.2083 970.009 70.9985L938.861 55.3636L954.592 86.1087C954.907 86.6334 954.697 87.263 954.068 87.5778C953.543 87.8926 952.914 87.6827 952.6 87.0531L936.554 55.2586L929.422 70.159L937.707 86.7383C937.917 87.0531 937.812 87.4728 937.707 87.7876C937.498 88.1024 937.183 88.3123 936.763 88.3123H919.564C919.144 88.3123 918.83 88.1024 918.62 87.7876C918.41 87.4728 918.41 87.0531 918.62 86.7383L926.905 70.159L919.669 55.1537L903.308 87.7876C903.099 88.1024 902.784 88.3123 902.364 88.3123ZM921.347 86.1087H934.981L928.164 72.4675L921.347 86.1087ZM920.088 51.586C920.298 51.6909 920.508 51.9008 920.718 52.1107L928.164 67.6406L935.505 52.3205C935.715 51.9008 936.029 51.691 936.449 51.691C936.554 51.691 936.554 51.691 936.659 51.691L951.551 44.5556L936.029 37.1054C935.61 36.8955 935.4 36.5807 935.4 36.161C935.4 35.9511 935.4 35.8462 935.505 35.6363L928.373 20.8409L920.927 36.3709C920.718 36.7906 920.403 37.0004 919.983 37.0004C919.983 37.0004 919.983 37.0004 919.879 37.0004L904.567 44.3457L920.088 51.586ZM956.585 44.5556L970.218 51.3762V37.735L956.585 44.5556ZM886.109 37.4202V50.9564L899.743 44.1358L886.109 37.4202ZM921.661 2.26789L928.478 15.8041L935.295 2.26789H921.661Z" fill="white"/>
<path d="M1256.02 88.3123C1255.92 88.3123 1255.81 88.3123 1255.81 88.3123C1255.29 88.2073 1254.97 87.7876 1254.97 87.263V86.5284C1254.97 86.0038 1255.29 85.584 1255.71 85.4791L1271.02 54.9438L1239.87 70.5787C1239.35 70.8935 1238.72 70.5787 1238.4 70.0541C1238.09 69.5294 1238.3 68.8998 1238.93 68.585L1270.71 52.5304L1255.81 45.395L1239.14 53.6847C1238.82 53.8945 1238.4 53.7896 1238.09 53.6847C1237.77 53.4748 1237.56 53.16 1237.56 52.7403V35.6363C1237.56 35.2166 1237.77 34.9018 1238.09 34.6919C1238.4 34.4821 1238.82 34.4821 1239.14 34.6919L1255.81 42.9816L1270.81 35.7413L1238.09 19.4768C1237.67 19.2669 1237.35 18.7422 1237.46 18.2176C1237.56 17.6929 1237.98 17.3781 1238.51 17.3781H1239.24C1239.77 17.3781 1240.19 17.6929 1240.29 18.1127L1271.23 33.5377L1255.92 2.89749C1255.5 2.79256 1255.18 2.37283 1255.18 1.84817V1.11364C1255.18 0.58898 1255.5 0.169251 1256.02 0.064319C1256.55 -0.0406132 1257.07 0.169251 1257.28 0.693912L1273.64 33.3278L1280.88 18.3225L1272.59 1.74323C1272.38 1.42844 1272.49 1.00871 1272.59 0.693912C1272.7 0.379115 1273.12 0.169251 1273.54 0.169251H1290.74C1291.16 0.169251 1291.47 0.379115 1291.68 0.693912C1291.89 1.00871 1291.89 1.42844 1291.68 1.74323L1283.39 18.3225L1290.53 33.2229L1306.57 1.42844C1306.89 0.903776 1307.52 0.693912 1308.04 0.903776C1308.56 1.21857 1308.77 1.84817 1308.56 2.37283L1292.73 33.6426L1323.14 18.5324C1323.25 18.1127 1323.67 17.7979 1324.19 17.7979H1324.93C1325.45 17.7979 1325.87 18.1127 1325.97 18.6373C1326.08 19.162 1325.87 19.6866 1325.34 19.8965L1292.62 36.161L1307.62 43.4013L1324.3 35.1117C1324.61 34.9018 1325.03 35.0067 1325.34 35.1117C1325.66 35.3215 1325.87 35.6363 1325.87 36.0561V53.16C1325.87 53.5797 1325.66 53.8945 1325.34 54.1044C1325.03 54.3143 1324.61 54.3143 1324.3 54.1044L1307.62 45.8147L1292.73 52.9501L1324.61 69.0048C1325.14 69.3196 1325.34 69.9492 1325.14 70.4738C1324.82 70.9985 1324.19 71.2083 1323.67 70.9985L1292.52 55.3636L1308.25 86.1087C1308.56 86.6334 1308.36 87.263 1307.73 87.5778C1307.2 87.8926 1306.57 87.6827 1306.26 87.0531L1290.21 55.2586L1283.08 70.159L1291.37 86.7383C1291.58 87.0531 1291.47 87.4728 1291.37 87.7876C1291.16 88.1024 1290.84 88.3123 1290.42 88.3123H1273.22C1272.8 88.3123 1272.49 88.1024 1272.28 87.7876C1272.07 87.4728 1272.07 87.0531 1272.28 86.7383L1280.56 70.159L1273.33 55.1537L1256.97 87.7876C1256.76 88.1024 1256.44 88.3123 1256.02 88.3123ZM1275 86.1087H1288.64L1281.82 72.4675L1275 86.1087ZM1273.75 51.586C1273.96 51.6909 1274.17 51.9008 1274.38 52.1107L1281.82 67.6406L1289.16 52.3205C1289.37 51.9008 1289.69 51.691 1290.11 51.691C1290.21 51.691 1290.21 51.691 1290.32 51.691L1305.21 44.5556L1289.69 37.1054C1289.27 36.8955 1289.06 36.5807 1289.06 36.161C1289.06 35.9511 1289.06 35.8462 1289.16 35.6363L1282.03 20.8409L1274.59 36.3709C1274.38 36.7906 1274.06 37.0004 1273.64 37.0004C1273.64 37.0004 1273.64 37.0004 1273.54 37.0004L1258.23 44.3457L1273.75 51.586ZM1310.24 44.5556L1323.88 51.3762V37.735L1310.24 44.5556ZM1239.77 37.4202V50.9564L1253.4 44.1358L1239.77 37.4202ZM1275.32 2.26789L1282.14 15.8041L1288.95 2.26789H1275.32Z" fill="white"/>
<path d="M336.419 87.9057C336.314 87.9057 336.209 87.9057 336.104 87.8007L309.571 78.9864L283.038 87.8007C282.618 87.9057 282.199 87.8007 281.884 87.4859C281.57 87.1711 281.465 86.7514 281.57 86.3317L288.806 64.6107L266.992 71.851C266.572 71.956 266.153 71.851 265.838 71.5362C265.524 71.2215 265.419 70.8017 265.524 70.382L274.333 43.9391L265.524 17.4962C265.419 17.0764 265.524 16.6567 265.838 16.3419C266.153 16.0271 266.572 15.9222 266.992 16.0271L288.806 23.2674L281.57 1.54649C281.465 1.12676 281.57 0.707029 281.884 0.392232C282.199 0.0774355 282.618 -0.0274967 283.038 0.0774355L309.571 8.89174L336.104 0.0774355C336.524 -0.0274967 336.943 0.0774355 337.258 0.392232C337.573 0.707029 337.678 1.12676 337.573 1.54649L330.336 23.2674L352.15 16.0271C352.57 15.9222 352.989 16.0271 353.304 16.3419C353.619 16.6567 353.723 17.0764 353.619 17.4962L344.809 43.9391L353.514 70.4869C353.619 70.9067 353.514 71.3264 353.199 71.6412C352.884 71.956 352.465 72.0609 352.045 71.956L330.231 64.7157L337.468 86.4366C337.573 86.8563 337.468 87.2761 337.153 87.5909C337.048 87.8007 336.734 87.9057 336.419 87.9057ZM313.032 77.8322L334.741 85.0725L330.441 72.0609L313.032 77.8322ZM288.701 72.0609L284.401 85.0725L306.11 77.8322L288.701 72.0609ZM289.435 69.9623L309.571 76.6779L329.707 69.9623L327.61 63.7713L309.571 57.7901L291.533 63.7713L289.435 69.9623ZM275.592 47.5068L268.355 69.1228L281.36 64.8206L275.592 47.5068ZM337.678 64.8206L350.682 69.1228L343.446 47.5068L337.678 64.8206ZM276.85 44.044L283.562 64.0861L289.75 61.9874L295.728 43.9391L289.75 25.8908L283.562 23.7921L276.85 44.044ZM329.393 62.0924L335.58 64.191L342.292 44.149L335.58 24.1069L329.393 26.2055L323.415 44.2539L329.393 62.0924ZM313.032 56.6359L326.771 61.148L322.156 47.5068L321.527 49.3956C321.422 49.7104 321.107 50.0252 320.688 50.1301C320.268 50.235 319.954 50.1301 319.639 49.8153L315.444 45.618L313.242 47.8216L311.039 50.0252L315.234 54.2224C315.549 54.5372 315.654 54.852 315.549 55.2718C315.444 55.6915 315.234 55.9014 314.815 56.1112L313.032 56.6359ZM296.881 47.5068L292.267 61.148L306.005 56.6359L304.118 56.0063C303.803 55.9014 303.488 55.5866 303.384 55.1668C303.279 54.7471 303.384 54.4323 303.698 54.1175L307.893 49.9202L303.488 45.5131L299.293 49.7104C298.979 50.0252 298.664 50.1301 298.245 50.0252C297.825 49.9202 297.615 49.7104 297.406 49.2906L296.881 47.5068ZM306.635 54.4323L309.571 55.3767L312.508 54.4323L309.571 51.4942L306.635 54.4323ZM305.166 44.044L307.369 46.2476L309.571 48.4512L313.976 44.044L309.571 39.6369L307.369 41.8404L305.166 44.044ZM298.035 44.044L298.979 46.9821L301.915 44.044L298.979 41.1059L298.035 44.044ZM317.122 44.044L320.059 46.9821L321.003 44.044L320.059 41.1059L317.122 44.044ZM298.559 37.958C298.874 37.958 299.084 38.0629 299.293 38.2727L303.488 42.47L307.893 38.0629L303.698 33.8656C303.384 33.5508 303.279 33.236 303.384 32.8163C303.488 32.3965 303.698 32.1867 304.118 31.9768L306.005 31.3472L292.267 26.8351L296.881 40.4763L297.511 38.5875C297.615 38.2727 297.93 37.958 298.35 37.853C298.454 37.958 298.454 37.958 298.559 37.958ZM313.347 40.2665L315.549 42.47L319.744 38.2727C320.059 37.958 320.373 37.853 320.793 37.958C321.212 38.0629 321.422 38.2728 321.632 38.6925L322.261 40.5813L326.876 26.9401L313.137 31.4522L315.025 32.0817C315.339 32.1867 315.654 32.5015 315.759 32.9212C315.864 33.3409 315.759 33.6557 315.444 33.9705L311.249 38.1678L313.347 40.2665ZM268.46 18.9652L275.697 40.5813L281.465 23.2674L268.46 18.9652ZM337.678 23.2674L343.446 40.5813L350.682 18.9652L337.678 23.2674ZM306.635 33.5508L309.571 36.4889L312.508 33.5508L309.571 32.6064L306.635 33.5508ZM291.428 24.3168L309.466 30.2979L327.505 24.3168L329.602 18.1258L309.466 11.4101L289.33 18.1258L291.428 24.3168ZM313.032 10.2559L330.336 16.0271L334.636 3.01554L313.032 10.2559ZM284.401 3.01554L288.701 16.0271L306.005 10.2559L284.401 3.01554Z" fill="white"/>
<path d="M689.848 87.9057C689.743 87.9057 689.638 87.9057 689.533 87.8007L663 78.9864L636.467 87.8007C636.047 87.9057 635.628 87.8007 635.313 87.4859C634.998 87.1711 634.893 86.7514 634.998 86.3317L642.235 64.6107L620.421 71.851C620.001 71.956 619.582 71.851 619.267 71.5362C618.952 71.2215 618.848 70.8017 618.952 70.382L627.762 43.9391L618.952 17.4962C618.848 17.0764 618.952 16.6567 619.267 16.3419C619.582 16.0271 620.001 15.9222 620.421 16.0271L642.235 23.2674L634.998 1.54649C634.893 1.12676 634.998 0.707029 635.313 0.392232C635.628 0.0774355 636.047 -0.0274967 636.467 0.0774355L663 8.89174L689.533 0.0774355C689.953 -0.0274967 690.372 0.0774355 690.687 0.392232C691.001 0.707029 691.106 1.12676 691.001 1.54649L683.765 23.2674L705.579 16.0271C705.999 15.9222 706.418 16.0271 706.733 16.3419C707.047 16.6567 707.152 17.0764 707.047 17.4962L698.238 43.9391L706.942 70.4869C707.047 70.9067 706.942 71.3264 706.628 71.6412C706.313 71.956 705.894 72.0609 705.474 71.956L683.66 64.7157L690.897 86.4366C691.001 86.8563 690.897 87.2761 690.582 87.5909C690.477 87.8007 690.162 87.9057 689.848 87.9057ZM666.461 77.8322L688.17 85.0725L683.87 72.0609L666.461 77.8322ZM642.13 72.0609L637.83 85.0725L659.539 77.8322L642.13 72.0609ZM642.864 69.9623L663 76.6779L683.136 69.9623L681.038 63.7713L663 57.7901L644.961 63.7713L642.864 69.9623ZM629.02 47.5068L621.784 69.1228L634.789 64.8206L629.02 47.5068ZM691.106 64.8206L704.111 69.1228L696.874 47.5068L691.106 64.8206ZM630.279 44.044L636.991 64.0861L643.179 61.9874L649.156 43.9391L643.179 25.8908L636.991 23.7921L630.279 44.044ZM682.821 62.0924L689.009 64.191L695.721 44.149L689.009 24.1069L682.821 26.2055L676.843 44.2539L682.821 62.0924ZM666.461 56.6359L680.199 61.148L675.585 47.5068L674.956 49.3956C674.851 49.7104 674.536 50.0252 674.117 50.1301C673.697 50.235 673.382 50.1301 673.068 49.8153L668.873 45.618L666.67 47.8216L664.468 50.0252L668.663 54.2224C668.978 54.5372 669.083 54.852 668.978 55.2718C668.873 55.6915 668.663 55.9014 668.244 56.1112L666.461 56.6359ZM650.31 47.5068L645.696 61.148L659.434 56.6359L657.546 56.0063C657.232 55.9014 656.917 55.5866 656.812 55.1668C656.707 54.7471 656.812 54.4323 657.127 54.1175L661.322 49.9202L656.917 45.5131L652.722 49.7104C652.407 50.0252 652.093 50.1301 651.673 50.0252C651.254 49.9202 651.044 49.7104 650.834 49.2906L650.31 47.5068ZM660.063 54.4323L663 55.3767L665.936 54.4323L663 51.4942L660.063 54.4323ZM658.595 44.044L660.797 46.2476L663 48.4512L667.405 44.044L663 39.6369L660.797 41.8404L658.595 44.044ZM651.464 44.044L652.407 46.9821L655.344 44.044L652.407 41.1059L651.464 44.044ZM670.551 44.044L673.487 46.9821L674.431 44.044L673.487 41.1059L670.551 44.044ZM651.988 37.958C652.303 37.958 652.512 38.0629 652.722 38.2727L656.917 42.47L661.322 38.0629L657.127 33.8656C656.812 33.5508 656.707 33.236 656.812 32.8163C656.917 32.3965 657.127 32.1867 657.546 31.9768L659.434 31.3472L645.696 26.8351L650.31 40.4763L650.939 38.5875C651.044 38.2727 651.359 37.958 651.778 37.853C651.883 37.958 651.883 37.958 651.988 37.958ZM666.775 40.2665L668.978 42.47L673.173 38.2727C673.487 37.958 673.802 37.853 674.221 37.958C674.641 38.0629 674.851 38.2728 675.06 38.6925L675.69 40.5813L680.304 26.9401L666.566 31.4522L668.453 32.0817C668.768 32.1867 669.083 32.5015 669.187 32.9212C669.292 33.3409 669.187 33.6557 668.873 33.9705L664.678 38.1678L666.775 40.2665ZM621.889 18.9652L629.125 40.5813L634.893 23.2674L621.889 18.9652ZM691.106 23.2674L696.874 40.5813L704.111 18.9652L691.106 23.2674ZM660.063 33.5508L663 36.4889L665.936 33.5508L663 32.6064L660.063 33.5508ZM644.856 24.3168L662.895 30.2979L680.933 24.3168L683.031 18.1258L662.895 11.4101L642.759 18.1258L644.856 24.3168ZM666.461 10.2559L683.765 16.0271L688.065 3.01554L666.461 10.2559ZM637.83 3.01554L642.13 16.0271L659.434 10.2559L637.83 3.01554Z" fill="white"/>
<path d="M1043.28 87.9057C1043.17 87.9057 1043.07 87.9057 1042.96 87.8007L1016.43 78.9864L989.895 87.8007C989.476 87.9057 989.056 87.8007 988.742 87.4859C988.427 87.1711 988.322 86.7514 988.427 86.3317L995.663 64.6107L973.849 71.851C973.43 71.956 973.01 71.851 972.696 71.5362C972.381 71.2215 972.276 70.8017 972.381 70.382L981.191 43.9391L972.381 17.4962C972.276 17.0764 972.381 16.6567 972.696 16.3419C973.01 16.0271 973.43 15.9222 973.849 16.0271L995.663 23.2674L988.427 1.54649C988.322 1.12676 988.427 0.707029 988.742 0.392232C989.056 0.0774355 989.476 -0.0274967 989.895 0.0774355L1016.43 8.89174L1042.96 0.0774355C1043.38 -0.0274967 1043.8 0.0774355 1044.12 0.392232C1044.43 0.707029 1044.54 1.12676 1044.43 1.54649L1037.19 23.2674L1059.01 16.0271C1059.43 15.9222 1059.85 16.0271 1060.16 16.3419C1060.48 16.6567 1060.58 17.0764 1060.48 17.4962L1051.67 43.9391L1060.37 70.4869C1060.48 70.9067 1060.37 71.3264 1060.06 71.6412C1059.74 71.956 1059.32 72.0609 1058.9 71.956L1037.09 64.7157L1044.33 86.4366C1044.43 86.8563 1044.33 87.2761 1044.01 87.5909C1043.91 87.8007 1043.59 87.9057 1043.28 87.9057ZM1019.89 77.8322L1041.6 85.0725L1037.3 72.0609L1019.89 77.8322ZM995.558 72.0609L991.259 85.0725L1012.97 77.8322L995.558 72.0609ZM996.293 69.9623L1016.43 76.6779L1036.56 69.9623L1034.47 63.7713L1016.43 57.7901L998.39 63.7713L996.293 69.9623ZM982.449 47.5068L975.213 69.1228L988.217 64.8206L982.449 47.5068ZM1044.54 64.8206L1057.54 69.1228L1050.3 47.5068L1044.54 64.8206ZM983.708 44.044L990.42 64.0861L996.607 61.9874L1002.59 43.9391L996.607 25.8908L990.42 23.7921L983.708 44.044ZM1036.25 62.0924L1042.44 64.191L1049.15 44.149L1042.44 24.1069L1036.25 26.2055L1030.27 44.2539L1036.25 62.0924ZM1019.89 56.6359L1033.63 61.148L1029.01 47.5068L1028.38 49.3956C1028.28 49.7104 1027.96 50.0252 1027.55 50.1301C1027.13 50.235 1026.81 50.1301 1026.5 49.8153L1022.3 45.618L1020.1 47.8216L1017.9 50.0252L1022.09 54.2224C1022.41 54.5372 1022.51 54.852 1022.41 55.2718C1022.3 55.6915 1022.09 55.9014 1021.67 56.1112L1019.89 56.6359ZM1003.74 47.5068L999.124 61.148L1012.86 56.6359L1010.98 56.0063C1010.66 55.9014 1010.35 55.5866 1010.24 55.1668C1010.14 54.7471 1010.24 54.4323 1010.56 54.1175L1014.75 49.9202L1010.35 45.5131L1006.15 49.7104C1005.84 50.0252 1005.52 50.1301 1005.1 50.0252C1004.68 49.9202 1004.47 49.7104 1004.26 49.2906L1003.74 47.5068ZM1013.49 54.4323L1016.43 55.3767L1019.37 54.4323L1016.43 51.4942L1013.49 54.4323ZM1012.02 44.044L1014.23 46.2476L1016.43 48.4512L1020.83 44.044L1016.43 39.6369L1014.23 41.8404L1012.02 44.044ZM1004.89 44.044L1005.84 46.9821L1008.77 44.044L1005.84 41.1059L1004.89 44.044ZM1023.98 44.044L1026.92 46.9821L1027.86 44.044L1026.92 41.1059L1023.98 44.044ZM1005.42 37.958C1005.73 37.958 1005.94 38.0629 1006.15 38.2727L1010.35 42.47L1014.75 38.0629L1010.56 33.8656C1010.24 33.5508 1010.14 33.236 1010.24 32.8163C1010.35 32.3965 1010.56 32.1867 1010.98 31.9768L1012.86 31.3472L999.124 26.8351L1003.74 40.4763L1004.37 38.5875C1004.47 38.2727 1004.79 37.958 1005.21 37.853C1005.31 37.958 1005.31 37.958 1005.42 37.958ZM1020.2 40.2665L1022.41 42.47L1026.6 38.2727C1026.92 37.958 1027.23 37.853 1027.65 37.958C1028.07 38.0629 1028.28 38.2728 1028.49 38.6925L1029.12 40.5813L1033.73 26.9401L1019.99 31.4522L1021.88 32.0817C1022.2 32.1867 1022.51 32.5015 1022.62 32.9212C1022.72 33.3409 1022.62 33.6557 1022.3 33.9705L1018.11 38.1678L1020.2 40.2665ZM975.318 18.9652L982.554 40.5813L988.322 23.2674L975.318 18.9652ZM1044.54 23.2674L1050.3 40.5813L1057.54 18.9652L1044.54 23.2674ZM1013.49 33.5508L1016.43 36.4889L1019.37 33.5508L1016.43 32.6064L1013.49 33.5508ZM998.285 24.3168L1016.32 30.2979L1034.36 24.3168L1036.46 18.1258L1016.32 11.4101L996.188 18.1258L998.285 24.3168ZM1019.89 10.2559L1037.19 16.0271L1041.49 3.01554L1019.89 10.2559ZM991.259 3.01554L995.558 16.0271L1012.86 10.2559L991.259 3.01554Z" fill="white"/>
</svg>
