<svg width="188" height="188" viewBox="0 0 188 188" fill="none" xmlns="http://www.w3.org/2000/svg">
<path d="M39.449 188C39.2264 188 39.0037 188 39.0037 188C37.8905 187.777 37.2227 186.883 37.2227 185.765V184.201C37.2227 183.084 37.8906 182.19 38.7811 181.966L71.2853 116.934L5.16369 150.232C4.05053 150.903 2.71475 150.232 2.04685 149.115C1.37896 147.998 1.82422 146.657 3.16001 145.986L70.6174 111.794L39.0037 96.5979L3.60527 114.253C2.93738 114.7 2.04685 114.476 1.37895 114.253C0.711057 113.806 0.265794 113.135 0.265794 112.241V75.8146C0.265794 74.9207 0.711057 74.2502 1.37895 73.8033C2.04685 73.3563 2.93738 73.3563 3.60527 73.8033L39.0037 91.458L70.8401 76.038L1.37895 41.3991C0.488426 40.9522 -0.179483 39.8348 0.0431487 38.7174C0.26578 37.6 1.15631 36.9296 2.26947 36.9296H3.82792C4.94107 36.9296 5.8316 37.6 6.05423 38.4939L71.7306 71.345L39.2264 6.08975C38.3358 5.86627 37.6679 4.97236 37.6679 3.85498V2.29064C37.6679 1.17325 38.3358 0.279346 39.449 0.0558692C40.5622 -0.167608 41.6753 0.279346 42.1206 1.39673L76.8511 70.8981L92.2127 38.9409L74.6248 3.6315C74.1795 2.96107 74.4022 2.06716 74.6248 1.39673C74.8474 0.7263 75.738 0.279346 76.6285 0.279346H113.14C114.031 0.279346 114.699 0.7263 115.144 1.39673C115.589 2.06716 115.589 2.96107 115.144 3.6315L97.5559 38.9409L112.695 70.6746L146.757 2.96107C147.425 1.84368 148.761 1.39673 149.874 1.84368C150.988 2.51412 151.433 3.85498 150.988 4.97236L117.37 71.5685L181.933 39.3878C182.156 38.4939 183.046 37.8235 184.16 37.8235H185.718C186.831 37.8235 187.722 38.4939 187.944 39.6113C188.167 40.7287 187.722 41.8461 186.609 42.293L117.147 76.932L148.984 92.3519L184.382 74.6972C185.05 74.2502 185.941 74.4737 186.609 74.6972C187.277 75.1441 187.722 75.8146 187.722 76.7085V113.135C187.722 114.029 187.277 114.7 186.609 115.147C185.941 115.593 185.05 115.593 184.382 115.147L148.984 97.4918L117.37 112.688L185.05 146.88C186.163 147.551 186.609 148.892 186.163 150.009C185.495 151.126 184.16 151.573 183.046 151.126L116.925 117.828L150.32 183.307C150.987 184.424 150.542 185.765 149.206 186.436C148.093 187.106 146.757 186.659 146.09 185.318L112.027 117.605L96.888 149.338L114.476 184.648C114.921 185.318 114.699 186.212 114.476 186.883C114.031 187.553 113.363 188 112.472 188H75.9606C75.0701 188 74.4022 187.553 73.9569 186.883C73.5117 186.212 73.5117 185.318 73.9569 184.648L91.5448 149.338L76.1832 117.381L41.4527 186.883C41.0074 187.553 40.3395 188 39.449 188ZM79.7453 183.307H108.687L94.2164 154.255L79.7453 183.307ZM77.0738 109.783C77.519 110.007 77.9643 110.453 78.4096 110.9L94.2164 143.975L109.801 111.347C110.246 110.453 110.914 110.007 111.804 110.007C112.027 110.007 112.027 110.007 112.25 110.007L143.863 94.8101L110.914 78.9432C110.023 78.4963 109.578 77.8259 109.578 76.932C109.578 76.485 109.578 76.2615 109.801 75.8146L94.6617 44.3043L78.8548 77.3789C78.4096 78.2728 77.7416 78.7198 76.8511 78.7198C76.8511 78.7198 76.8511 78.7198 76.6285 78.7198L44.1242 94.3632L77.0738 109.783ZM154.55 94.8101L183.492 109.336V80.2841L154.55 94.8101ZM4.94107 79.6137V108.442L33.8832 93.9162L4.94107 79.6137ZM80.4132 4.74889L94.8843 33.5774L109.355 4.74889H80.4132Z" fill="#F65275"/>
</svg>
