<svg width="150" height="150" viewBox="0 0 150 150" fill="none" xmlns="http://www.w3.org/2000/svg">
<path d="M120.674 150C120.495 150 120.317 150 120.138 149.821L75 134.774L29.8617 149.821C29.1481 150 28.4345 149.821 27.8992 149.283C27.364 148.746 27.1855 148.03 27.3639 147.313L39.6744 110.233L2.56467 122.593C1.85102 122.772 1.13736 122.593 0.602123 122.056C0.0668861 121.518 -0.111504 120.802 0.066908 120.085L15.0535 74.944L0.066908 29.803C-0.111504 29.0864 0.0668861 28.3699 0.602123 27.8325C1.13736 27.2951 1.85102 27.116 2.56467 27.2951L39.6744 39.6552L27.3639 2.57501C27.1855 1.85849 27.364 1.14196 27.8992 0.604568C28.4345 0.0671742 29.1481 -0.111957 29.8617 0.0671742L75 15.1142L120.138 0.0671742C120.852 -0.111957 121.566 0.0671742 122.101 0.604568C122.636 1.14196 122.814 1.85849 122.636 2.57501L110.326 39.6552L147.435 27.2951C148.149 27.116 148.863 27.2951 149.398 27.8325C149.933 28.3699 150.112 29.0864 149.933 29.803L134.946 74.944L149.755 120.264C149.933 120.981 149.755 121.697 149.219 122.235C148.684 122.772 147.971 122.951 147.257 122.772L110.147 110.412L122.458 147.492C122.636 148.209 122.458 148.925 121.922 149.463C121.744 149.821 121.209 150 120.674 150ZM80.8876 132.803L117.819 145.163L110.504 122.951L80.8876 132.803ZM39.496 122.951L32.1811 145.163L69.1124 132.803L39.496 122.951ZM40.7449 119.369L75 130.833L109.255 119.369L105.687 108.8L75 98.5893L44.3131 108.8L40.7449 119.369ZM17.1945 81.0345L4.884 117.936L27.0072 110.591L17.1945 81.0345ZM122.814 110.591L144.938 117.936L132.627 81.0345L122.814 110.591ZM19.3354 75.1232L30.7538 109.337L41.2801 105.755L51.4496 74.944L41.2801 44.1335L30.7538 40.5508L19.3354 75.1232ZM108.72 105.934L119.246 109.516L130.665 75.3023L119.246 41.0882L108.72 44.6708L98.5504 75.4814L108.72 105.934ZM80.8876 96.6189L104.26 104.322L96.4095 81.0345L95.339 84.2589C95.1606 84.7962 94.6254 85.3336 93.9117 85.5128C93.1981 85.6919 92.6628 85.5128 92.1276 84.9754L84.9911 77.8101L81.2444 81.5719L77.4978 85.3336L84.6343 92.4989C85.1695 93.0363 85.3479 93.5737 85.1695 94.2902C84.9911 95.0067 84.6343 95.365 83.9206 95.7232L80.8876 96.6189ZM53.4121 81.0345L45.562 104.322L68.934 96.6189L65.7226 95.5441C65.1873 95.365 64.6521 94.8276 64.4737 94.1111C64.2953 93.3945 64.4737 92.8572 65.0089 92.3198L72.1454 85.1545L64.6521 77.631L57.5156 84.7962C56.9803 85.3336 56.4451 85.5128 55.7315 85.3336C55.0178 85.1545 54.661 84.7962 54.3042 84.0797L53.4121 81.0345ZM70.0044 92.8571L75 94.4693L79.9955 92.8571L75 87.8415L70.0044 92.8571ZM67.5067 75.1232L71.2533 78.8849L75 82.6467L82.4933 75.1232L75 67.5996L71.2533 71.3614L67.5067 75.1232ZM55.3747 75.1232L56.9804 80.1388L61.9759 75.1232L56.9804 70.1075L55.3747 75.1232ZM87.8456 75.1232L92.8412 80.1388L94.4469 75.1232L92.8412 70.1075L87.8456 75.1232ZM56.2667 64.7335C56.802 64.7335 57.1588 64.9127 57.5156 65.2709L64.6521 72.4362L72.1454 64.9127L65.0089 57.7474C64.4737 57.21 64.2953 56.6726 64.4737 55.9561C64.6521 55.2396 65.0089 54.8813 65.7226 54.5231L68.934 53.4483L45.562 45.7456L53.4121 69.0327L54.4826 65.8083C54.661 65.2709 55.1962 64.7336 55.9099 64.5544C56.0883 64.7336 56.0883 64.7335 56.2667 64.7335ZM81.4229 68.6744L85.1695 72.4362L92.306 65.2709C92.8412 64.7335 93.3764 64.5544 94.0901 64.7335C94.8037 64.9127 95.1606 65.2709 95.5174 65.9875L96.5879 69.2118L104.438 45.9248L81.066 53.6274L84.2774 54.7022C84.8126 54.8813 85.3479 55.4187 85.5263 56.1353C85.7047 56.8518 85.5263 57.3892 84.9911 57.9266L77.8546 65.0918L81.4229 68.6744ZM5.06243 32.3108L17.3729 69.2118L27.1855 39.6552L5.06243 32.3108ZM122.814 39.6552L132.627 69.2118L144.938 32.3108L122.814 39.6552ZM70.0044 57.21L75 62.2257L79.9955 57.21L75 55.5979L70.0044 57.21ZM44.1347 41.4465L74.8216 51.657L105.508 41.4465L109.077 30.8777L74.8216 19.4133L40.5664 30.8777L44.1347 41.4465ZM80.8876 17.4429L110.326 27.2951L117.64 5.08285L80.8876 17.4429ZM32.1811 5.08285L39.496 27.2951L68.934 17.4429L32.1811 5.08285Z" fill="#EFEFEF"/>
</svg>
