<svg width="150" height="150" viewBox="0 0 150 150" fill="none" xmlns="http://www.w3.org/2000/svg">
<path d="M119.076 118.43C119.254 120.036 119.431 121.641 119.787 123.068C122.097 133.234 130.273 145.006 146.268 146.076C145.379 130.024 133.649 121.463 123.519 119.144C122.097 118.787 120.498 118.609 119.076 118.43ZM30.9242 119.144C29.5024 119.322 28.2583 119.501 26.8365 119.857C16.7062 121.998 4.9763 130.381 3.90995 146.076C19.7275 145.006 27.9028 133.234 30.2133 123.068C30.5687 121.819 30.7464 120.571 30.9242 119.144ZM34.8341 115.22C46.3863 115.398 56.5166 121.463 62.5592 131.986L73.5782 110.939C74.2891 109.691 76.2441 109.691 76.955 110.939L87.6185 131.451C93.6611 120.927 103.791 114.863 115.344 114.685C115.877 103.448 121.742 93.4602 132.05 87.7527L111.078 76.6944C110.545 76.3377 110.012 75.8026 110.012 75.0892C110.012 74.3757 110.367 73.8407 111.078 73.484L131.517 62.7824C121.209 56.8966 115.166 46.9084 114.81 35.6718C103.614 35.3151 93.6611 29.2509 87.7962 18.9061L77.1327 39.4174C76.4218 40.6659 74.4668 40.6659 73.7559 39.4174L62.737 18.371C56.872 28.5375 46.9194 34.6017 35.7227 35.1367C35.545 46.7301 29.5024 56.8966 18.8389 62.7824L39.0995 73.1272C39.6327 73.4839 40.1659 74.019 40.1659 74.7325C40.1659 75.4459 39.8104 75.981 39.0995 76.3377L18.128 87.396C28.436 93.4602 34.4787 103.805 34.8341 115.22ZM148.045 150C132.05 149.643 119.609 139.477 116.055 123.96C115.699 122.176 115.344 120.214 115.166 118.43C105.924 118.609 95.7938 123.068 89.7512 134.839L89.0403 136.266C88.8626 136.801 88.1517 137.337 87.4408 137.337C86.7299 137.337 86.019 136.98 85.8412 136.266L75.1777 115.755L64.1588 136.801C63.8033 137.337 63.2701 137.872 62.5592 137.872C61.8483 137.872 61.1374 137.515 60.9597 136.801L60.2488 135.375C54.2062 123.603 44.0758 119.322 34.8341 118.966C34.6564 120.571 34.4787 122.176 34.1232 123.781C30.5687 139.298 18.128 149.643 2.1327 149.822C1.59953 149.822 1.06635 149.643 0.7109 149.287C0.35545 148.93 0 148.573 0 148.038C0.35545 132.164 10.4858 119.679 25.9479 116.112C27.5474 115.755 29.3246 115.398 30.9242 115.398C30.7464 106.302 26.3033 95.9572 14.5735 90.0714L13.1517 89.1796C12.4408 88.8228 12.0853 88.2878 12.0853 87.5743C12.0853 86.8609 12.4408 86.1474 13.1517 85.9691L34.1232 74.9108L13.6848 64.2093C13.1517 63.8526 12.6185 63.3175 12.6185 62.604C12.6185 61.8906 12.9739 61.1772 13.6848 60.9988L15.1066 60.2854C27.0142 54.3995 31.2796 44.0547 31.6351 34.9584C29.8578 34.78 27.9028 34.6017 25.9479 34.0666C10.4858 30.321 0.35545 17.8359 0 1.96195C0 1.42687 0.177725 0.891796 0.533175 0.535077C0.888626 0.178359 1.4218 0 1.77725 0C17.9502 0 30.7464 10.1665 34.3009 25.8621C34.6564 27.6457 35.0118 29.2509 35.1896 31.0345C44.2536 30.6778 54.0284 26.2188 59.8934 14.6254L60.6043 13.1986C60.9597 12.4851 61.4929 12.1284 62.2038 12.1284C62.9147 12.1284 63.4479 12.4851 63.8033 13.1986L74.8223 34.2449L85.4858 13.7337C85.8412 13.1986 86.5521 12.8419 87.0853 12.6635C87.7962 12.6635 88.5071 13.0202 88.6848 13.7337L89.3957 15.1605C95.2607 26.7539 105.036 31.2128 114.1 31.5696C114.277 29.6076 114.455 27.824 114.988 25.8621C119.254 10.1665 132.05 0 148.045 0C149.111 0 149.822 0.891796 149.822 1.78359C149.822 17.8359 139.692 30.6778 124.052 34.4233C122.097 34.9584 120.142 35.1367 118.187 35.3151C118.543 44.4114 122.986 54.2212 134.538 60.107L135.96 60.8204C136.671 61.1772 137.026 61.7122 137.026 62.4257C137.026 63.1391 136.671 63.8526 135.96 64.0309L115.521 74.7325L136.848 85.9691C137.382 86.3258 137.915 86.8609 137.915 87.5743C137.915 88.2878 137.559 89.0012 136.848 89.1796L135.427 89.893C123.874 95.7788 119.431 105.589 119.076 114.685C120.853 114.863 122.453 115.042 124.23 115.577C139.87 119.322 150 131.986 150 148.038C150 148.573 149.822 149.108 149.467 149.287C149.111 149.822 148.578 150 148.045 150ZM146.268 3.74554C130.095 4.63734 121.564 16.5874 119.076 26.7539C118.72 28.3591 118.543 29.9643 118.365 31.5696C120.142 31.3912 121.742 31.2128 123.341 30.8561C133.472 28.3591 145.379 19.7979 146.268 3.74554ZM3.73223 3.74554C4.9763 19.6195 16.7062 27.824 26.8365 30.1427C28.2583 30.4994 29.8578 30.6778 31.4573 30.8561C31.2796 29.4293 31.1019 28.0024 30.7464 26.5755C28.436 16.5874 19.9052 4.63734 3.73223 3.74554Z" fill="#EFEFEF"/>
</svg>
