<svg width="150" height="150" viewBox="0 0 150 150" fill="none" xmlns="http://www.w3.org/2000/svg">
<path d="M31.4753 150C31.2976 150 31.12 150 31.12 150C30.2318 149.822 29.6989 149.108 29.6989 148.217V146.969C29.6989 146.077 30.2318 145.364 30.9424 145.186L56.8766 93.2987L4.11996 119.866C3.2318 120.401 2.16602 119.866 1.63313 118.975C1.10023 118.083 1.4555 117.013 2.52129 116.478L56.3437 89.1976L31.12 77.0728L2.87655 91.159C2.34365 91.5156 1.63312 91.3373 1.10023 91.159C0.567333 90.8024 0.21207 90.2675 0.21207 89.5542V60.4903C0.21207 59.7771 0.567333 59.2422 1.10023 58.8856C1.63312 58.529 2.34365 58.529 2.87655 58.8856L31.12 72.9718L56.5213 60.6687L1.10023 33.0312C0.389701 32.6746 -0.143205 31.7831 0.0344271 30.8915C0.212059 30 0.922586 29.4651 1.81074 29.4651H3.05419C3.94235 29.4651 4.65287 30 4.83051 30.7132L57.2319 56.9242L31.2976 4.85884C30.5871 4.68054 30.0542 3.96731 30.0542 3.07578V1.82764C30.0542 0.936107 30.5871 0.222883 31.4753 0.0445765C32.3634 -0.13373 33.2516 0.222883 33.6068 1.11441L61.3174 56.5676L73.574 31.0698L59.5411 2.89747C59.1858 2.36256 59.3634 1.64933 59.5411 1.11441C59.7187 0.579495 60.4292 0.222883 61.1398 0.222883H90.2713C90.9819 0.222883 91.5148 0.579495 91.8701 1.11441C92.2253 1.64933 92.2253 2.36256 91.8701 2.89747L77.8371 31.0698L89.9161 56.3893L117.094 2.36256C117.627 1.47103 118.692 1.11441 119.581 1.47103C120.469 2.00594 120.824 3.07578 120.469 3.96731L93.6464 57.1025L145.16 31.4264C145.337 30.7132 146.048 30.1783 146.936 30.1783H148.179C149.067 30.1783 149.778 30.7132 149.956 31.6048C150.133 32.4963 149.778 33.3878 148.89 33.7444L93.4687 61.3819L118.87 73.685L147.114 59.5988C147.646 59.2422 148.357 59.4205 148.89 59.5988C149.423 59.9554 149.778 60.4903 149.778 61.2036V90.2675C149.778 90.9807 149.423 91.5156 148.89 91.8722C148.357 92.2288 147.646 92.2288 147.114 91.8722L118.87 77.786L93.6464 89.9109L147.646 117.192C148.535 117.727 148.89 118.796 148.535 119.688C148.002 120.579 146.936 120.936 146.048 120.579L93.2911 94.0119L119.936 146.256C120.469 147.147 120.113 148.217 119.048 148.752C118.16 149.287 117.094 148.93 116.561 147.86L89.3832 93.8336L77.3042 119.153L91.3372 147.325C91.6924 147.86 91.5148 148.574 91.3372 149.108C90.9819 149.643 90.449 150 89.7384 150H60.6069C59.8963 150 59.3634 149.643 59.0082 149.108C58.6529 148.574 58.6529 147.86 59.0082 147.325L73.0411 119.153L60.7845 93.6553L33.0739 149.108C32.7187 149.643 32.1858 150 31.4753 150ZM63.6266 146.256H86.7187L75.1727 123.076L63.6266 146.256ZM61.495 87.5929C61.8503 87.7712 62.2056 88.1278 62.5608 88.4844L75.1727 114.874L87.6069 88.841C87.9621 88.1278 88.495 87.7712 89.2056 87.7712C89.3832 87.7712 89.3832 87.7712 89.5608 87.7712L114.785 75.6464L88.495 62.9866C87.7845 62.63 87.4293 62.0951 87.4293 61.3819C87.4293 61.0253 87.4292 60.847 87.6069 60.4903L75.5279 35.3492L62.9161 61.7385C62.5608 62.4517 62.0279 62.8083 61.3174 62.8083C61.3174 62.8083 61.3174 62.8083 61.1398 62.8083L35.2055 75.2897L61.495 87.5929ZM123.311 75.6464L146.403 87.2363V64.0565L123.311 75.6464ZM3.94235 63.5215V86.523L27.0345 74.9331L3.94235 63.5215ZM64.1595 3.789L75.7056 26.7905L87.2516 3.789H64.1595Z" fill="#EFEFEF"/>
</svg>
