<svg width="46" height="46" viewBox="0 0 46 46" fill="none" xmlns="http://www.w3.org/2000/svg">
<circle cx="23" cy="23" r="23"/>
<path d="M23.8571 19.5714L24.4224 17.0001M24.7143 21.2857L29 17.1027M26.4286 22.1429L29 21.2857M28.1425 25.9843V27.7908C28.1431 27.9585 28.1112 28.1245 28.0487 28.2781C27.9862 28.4318 27.8945 28.5697 27.7795 28.6831C27.6645 28.7965 27.5288 28.8828 27.381 28.9365C27.2332 28.9903 27.0765 29.0102 26.9211 28.9951C25.1971 28.7938 23.5411 28.1606 22.0861 27.1465C20.7324 26.222 19.5847 24.9884 18.7245 23.5335C17.7777 21.9626 17.1884 20.174 17.0045 18.3128C16.9905 18.1463 17.009 17.9784 17.0586 17.82C17.1083 17.6615 17.1881 17.5159 17.293 17.3924C17.3978 17.269 17.5255 17.1703 17.6678 17.1027C17.8101 17.0352 17.9639 17.0002 18.1195 17.0001H19.8002C20.0721 16.9972 20.3357 17.1007 20.5419 17.2912C20.7481 17.4818 20.8827 17.7464 20.9208 18.0358C20.9917 18.6139 21.1233 19.1815 21.3129 19.7278C21.3883 19.9434 21.4046 20.1776 21.36 20.4028C21.3153 20.628 21.2115 20.8347 21.0608 20.9984L20.3493 21.7632C21.1469 23.2707 22.3082 24.5189 23.7109 25.3761L24.4224 24.6114C24.5747 24.4495 24.767 24.3379 24.9766 24.2899C25.1861 24.2419 25.404 24.2594 25.6045 24.3404C26.1128 24.5443 26.641 24.6857 27.1789 24.7619C27.451 24.8032 27.6996 24.9505 27.8772 25.1759C28.0549 25.4013 28.1493 25.689 28.1425 25.9843Z"/>
</svg>
