<svg width="158" height="158" viewBox="0 0 158 158" fill="none" xmlns="http://www.w3.org/2000/svg">
<g filter="url(#filter0_d)">
<path d="M79 154C120.421 154 154 120.421 154 79C154 37.5786 120.421 4 79 4C37.5787 4 4 37.5786 4 79C4 120.421 37.5787 154 79 154Z" fill="#405174"/>
</g>
<path d="M35.1568 102.157H33.2012V108.394H34.9718C36.0818 108.394 36.9274 108.129 37.5088 107.574C38.0902 107.019 38.3809 106.253 38.3809 105.222C38.3809 104.271 38.0902 103.505 37.5353 102.976C36.9539 102.421 36.161 102.157 35.1568 102.157ZM35.0775 107.284H34.5225V103.24H35.2361C36.4253 103.24 37.0067 103.901 37.0067 105.249C37.0067 106.597 36.3725 107.284 35.0775 107.284Z" fill="white"/>
<path d="M42.2637 108.367H45.8578V107.284H43.585V105.672H45.6992V104.588H43.585V103.24H45.8578V102.157H42.2637V108.367Z" fill="white"/>
<path d="M52.1468 105.857C51.9618 106.517 51.8561 106.967 51.8297 107.231C51.8032 107.125 51.7768 106.914 51.6975 106.623C51.6183 106.332 51.5654 106.068 51.4861 105.857L50.3233 102.157H49.002L51.1161 108.394H52.5432L54.6574 102.157H53.336L52.1468 105.857Z" fill="white"/>
<path d="M58.0371 108.367H61.6312V107.284H59.3585V105.672H61.4727V104.588H59.3585V103.24H61.6312V102.157H58.0371V108.367Z" fill="white"/>
<path d="M66.8604 102.157H65.5391V108.367H69.3975V107.284H66.8604V102.157Z" fill="white"/>
<path d="M75.7997 102.051C74.8483 102.051 74.1084 102.315 73.6062 102.87C73.1041 103.425 72.8398 104.218 72.8398 105.248C72.8398 106.279 73.1041 107.072 73.6062 107.627C74.1084 108.182 74.8483 108.446 75.7997 108.446C76.7511 108.446 77.4911 108.155 77.9932 107.627C78.4953 107.072 78.7596 106.279 78.7596 105.248C78.7596 104.218 78.4953 103.425 77.9932 102.87C77.4646 102.315 76.7511 102.051 75.7997 102.051ZM75.7733 107.362C75.2447 107.362 74.8483 107.177 74.5841 106.834C74.3198 106.49 74.1876 105.962 74.1876 105.275C74.1876 104.588 74.3198 104.059 74.5841 103.689C74.8483 103.345 75.2447 103.16 75.7733 103.16C76.8304 103.16 77.3325 103.874 77.3325 105.275C77.3589 106.649 76.8304 107.362 75.7733 107.362Z" fill="white"/>
<path d="M84.6285 102.157H82.6465V108.394H83.9679V106.174H84.5228C85.2892 106.174 85.897 105.989 86.3199 105.645C86.7427 105.302 86.9541 104.773 86.9541 104.112C86.9541 103.478 86.7691 102.976 86.3727 102.659C85.9763 102.315 85.3949 102.157 84.6285 102.157ZM85.3156 104.826C85.1042 104.985 84.8135 105.064 84.4171 105.064H83.9679V103.214H84.5757C84.9457 103.214 85.2099 103.293 85.3685 103.425C85.5271 103.584 85.6328 103.795 85.6328 104.112C85.6063 104.456 85.5271 104.667 85.3156 104.826Z" fill="white"/>
<path d="M94.03 106.914L92.5236 102.157H90.7266V108.394H91.9158V105.487C91.9158 105.143 91.8894 104.482 91.8365 103.505H91.8629L93.3693 108.394H94.585L96.1971 103.531H96.2235C96.1971 104.324 96.1706 104.8 96.1706 104.984C96.1706 105.169 96.1706 105.328 96.1706 105.46V108.394H97.4127V102.157H95.5892L94.03 106.914Z" fill="white"/>
<path d="M101.566 108.367H105.161V107.284H102.888V105.672H105.002V104.588H102.888V103.24H105.161V102.157H101.566V108.367Z" fill="white"/>
<path d="M113.406 105.09C113.406 105.434 113.433 105.989 113.459 106.808H113.433L110.737 102.157H109.072V108.394H110.261V105.46C110.261 105.117 110.235 104.509 110.182 103.69H110.209L112.904 108.394H114.569V102.157H113.38V105.09H113.406Z" fill="white"/>
<path d="M118.166 103.24H119.857V108.367H121.179V103.24H122.87V102.157H118.166V103.24Z" fill="white"/>
<path d="M143.056 88.9694L133.754 68.2503L139.964 54.5345L139.621 54.376L133.542 67.7746L130.16 60.2164H129.975H126.275H126.09L113.193 88.943H117.078L120.831 80.6183H127.755L121.122 95.2855L121.465 95.4441L131.825 72.5316L139.198 88.9165H143.056V88.9694ZM129.34 77.0771H122.417L128.125 64.3655L131.587 72.1087L129.34 77.0771Z" fill="white"/>
<path d="M94.3506 73.5623L102.966 54.5345L102.622 54.376L99.5568 61.1149C99.2397 60.9564 98.8961 60.7978 98.5526 60.6657C96.6762 59.9257 94.6678 59.5293 92.5536 59.5293C88.3781 59.5293 84.8368 60.9828 81.9298 63.8634C79.0228 66.7704 77.5957 70.3117 77.5957 74.5665C77.5957 78.7949 79.0492 82.3626 81.9298 85.2696C83.4626 86.8024 85.1803 87.9123 87.0831 88.6523L84.0704 95.3384L84.414 95.497L87.4531 88.7844C89.0387 89.3394 90.7301 89.6301 92.5536 89.6301C96.9141 89.6301 100.455 88.203 103.124 85.3753C105.503 82.9968 106.692 79.7991 106.692 75.7557C106.692 75.0686 106.613 74.3286 106.481 73.5887H94.3506V73.5623ZM84.6254 82.8118C82.4848 80.6184 81.4012 77.8699 81.4012 74.5665C81.4012 71.2631 82.4848 68.5146 84.6254 66.3211C86.7924 64.1541 89.4616 63.0706 92.58 63.0706C94.1921 63.0706 95.6984 63.3613 97.0991 63.9691C97.4426 64.1012 97.7597 64.2862 98.0504 64.4448L88.5895 85.3489C87.136 84.8467 85.7882 84.0011 84.6254 82.8118ZM99.7418 83.6575C97.839 85.2696 95.4606 86.0624 92.58 86.0624C91.2851 86.0624 90.0694 85.8774 88.9595 85.5074L92.7914 77.0242H103.019C102.728 79.8255 101.645 82.0454 99.7418 83.6575Z" fill="white"/>
<path d="M33.3296 75.9939C32.2725 74.7782 30.6076 73.7211 28.3349 72.8226L36.2102 55.4598L35.8667 55.3013L32.6161 62.5159C32.1933 62.0667 31.6911 61.6174 31.1362 61.2474C29.5241 60.111 27.6213 59.5561 25.4278 59.5561C22.9437 59.5561 20.8295 60.296 19.1117 61.8024C17.4204 63.3088 16.5747 65.1058 16.5747 67.22C16.5747 70.2591 18.1075 72.5319 21.1466 74.0911C21.7016 74.3818 23.1551 74.9368 25.4543 75.7825C25.7978 75.8882 26.115 76.0203 26.4321 76.126L22.3887 85.0585C22.098 84.8735 21.8337 84.6885 21.5694 84.477C20.988 83.9749 20.4859 83.3935 20.0631 82.68C19.6402 81.9929 19.2967 81.2001 19.0588 80.3544L15.5176 81.8079C16.2047 84.2128 17.4732 86.1155 19.2967 87.5162C19.7988 87.8862 20.3009 88.2033 20.8295 88.494L17.3146 96.2372L17.6582 96.3958L21.173 88.6526C22.5208 89.2868 24.0008 89.6039 25.5864 89.6039C28.2556 89.6039 30.5548 88.864 32.4311 87.3576C34.281 85.8248 35.206 83.8164 35.206 81.2793C35.1796 79.1916 34.5717 77.4209 33.3296 75.9939ZM27.0663 72.3469C24.1858 71.3691 22.3358 70.497 21.4902 69.7834C20.7238 69.0699 20.3274 68.1978 20.3274 67.22C20.3274 66.0043 20.8295 65.0265 21.8073 64.2866C22.8115 63.4937 24.0272 63.0709 25.4543 63.0709C26.8285 63.0709 27.9913 63.4145 28.9427 64.128C29.8148 64.7887 30.3962 65.5815 30.7398 66.5329L27.9649 72.664C27.6742 72.5847 27.3835 72.4526 27.0663 72.3469ZM29.7884 84.7677C28.7048 85.6398 27.3306 86.0627 25.6393 86.0627C24.8729 86.0627 24.1329 85.9305 23.4194 85.6398C23.1551 85.5341 22.9172 85.402 22.653 85.2699L26.7228 76.2846C28.282 76.9188 29.392 77.5531 30.0526 78.1873C30.9512 79.033 31.374 80.0637 31.374 81.2793C31.4004 82.7328 30.8719 83.8956 29.7884 84.7677Z" fill="white"/>
<path d="M68.5873 54.5345L68.2437 54.376L62.1918 67.7746L58.862 60.3486L61.5047 54.5345L61.1612 54.376L58.5184 60.2428H55.1093L57.6992 54.5345L57.3556 54.376L38.8301 95.3119L39.1736 95.4705L42.1335 88.9694H45.5426L42.662 95.3119L43.0056 95.4705L49.7181 80.6447H56.4043L49.771 95.3119L50.1145 95.4705L60.5005 72.558L67.8737 88.9694H71.7585L62.3768 68.2239L68.5873 54.5345ZM57.937 77.0771H51.2509L56.8799 64.6562L60.2098 72.0823L57.937 77.0771Z" fill="white"/>
<defs>
<filter id="filter0_d" x="0.517217" y="0.517217" width="156.966" height="156.966" filterUnits="userSpaceOnUse" color-interpolation-filters="sRGB">
<feFlood flood-opacity="0" result="BackgroundImageFix"/>
<feColorMatrix in="SourceAlpha" type="matrix" values="0 0 0 0 0 0 0 0 0 0 0 0 0 0 0 0 0 0 127 0"/>
<feOffset/>
<feGaussianBlur stdDeviation="1.74139"/>
<feColorMatrix type="matrix" values="0 0 0 0 0 0 0 0 0 0 0 0 0 0 0 0 0 0 0.1 0"/>
<feBlend mode="normal" in2="BackgroundImageFix" result="effect1_dropShadow"/>
<feBlend mode="normal" in="SourceGraphic" in2="effect1_dropShadow" result="shape"/>
</filter>
</defs>
</svg>
