<svg width="260" height="210" viewBox="0 0 260 210" fill="none" xmlns="http://www.w3.org/2000/svg">
<path d="M31 110.16V0H86.6842V108.962C86.6842 137.7 101.211 150.871 123 150.871C144.789 150.871 159.316 137.7 159.316 110.16V0H215V108.962C215 172.424 178.684 199.964 121.789 199.964C67.3158 201.162 31 172.424 31 110.16Z" fill="#F65275"/>
<path d="M36.5 115.16V5.5H91.1842V113.962C91.1842 128.41 94.836 139.026 101.304 146.032C107.776 153.045 117.003 156.371 128 156.371C138.996 156.371 148.221 153.045 154.693 146.186C161.161 139.331 164.816 129.014 164.816 115.16V5.5H219.5V113.962C219.5 145.598 210.451 168.196 194.393 182.893C178.326 197.596 155.164 204.464 126.789 204.464L126.779 204.464C99.6273 205.061 77.0726 198.197 61.3081 183.494C45.5482 168.796 36.5 146.195 36.5 115.16Z" stroke="white" stroke-opacity="0.5"/>
<path d="M41.5 120.16V10.5H96.1842V118.962C96.1842 133.41 99.836 144.026 106.304 151.032C112.776 158.045 122.003 161.371 133 161.371C143.996 161.371 153.221 158.045 159.693 151.186C166.161 144.331 169.816 134.014 169.816 120.16V10.5H224.5V118.962C224.5 150.598 215.451 173.196 199.393 187.893C183.326 202.596 160.164 209.464 131.789 209.464L131.779 209.464C104.627 210.061 82.0726 203.197 66.3081 188.494C50.5482 173.796 41.5 151.195 41.5 120.16Z" stroke="white" stroke-opacity="0.5"/>
<path d="M260 210H0L130 80L260 210Z" fill="white"/>
<path d="M129.188 147.661L129.301 147.494L130.528 150L131.755 147.494L131.868 147.661C133.372 150.725 138 149.61 138 146.213L138 146.102L138 130.004L132.981 139.974L130.476 134.969L132.906 130L130.472 130L127.984 130L130.47 134.967L127.963 139.974L123 130.004L123 146.102L123 146.213C123 149.61 127.628 150.725 129.188 147.661Z" fill="#F65275"/>
<path d="M111.386 178L108.926 174.79H107.986V178H107.116V171H107.986V173.97H108.916L111.156 171H112.276L109.716 174.37L112.506 178H111.386ZM116.834 174.37C117.161 174.51 117.417 174.733 117.604 175.04C117.791 175.347 117.884 175.69 117.884 176.07C117.884 176.617 117.681 177.077 117.274 177.45C116.867 177.817 116.364 178 115.764 178H112.964V171H115.724C116.297 171 116.767 171.17 117.134 171.51C117.507 171.85 117.694 172.277 117.694 172.79C117.694 173.103 117.614 173.407 117.454 173.7C117.301 173.993 117.094 174.217 116.834 174.37ZM116.804 172.91C116.804 172.71 116.754 172.53 116.654 172.37C116.561 172.21 116.431 172.087 116.264 172C116.097 171.907 115.911 171.86 115.704 171.86H113.824V173.96H115.714C116.021 173.96 116.277 173.86 116.484 173.66C116.697 173.453 116.804 173.203 116.804 172.91ZM115.754 177.13C116.101 177.13 116.391 177.02 116.624 176.8C116.857 176.58 116.974 176.303 116.974 175.97C116.974 175.643 116.857 175.37 116.624 175.15C116.391 174.93 116.101 174.82 115.754 174.82H113.824V177.13H115.754ZM123.692 178L122.992 176.32H119.632L118.942 178H118.012L120.872 171H121.692L124.642 178H123.692ZM121.302 172.21L119.962 175.52H122.662L121.302 172.21ZM127.784 171C128.444 171 128.994 171.213 129.434 171.64C129.881 172.067 130.104 172.6 130.104 173.24C130.104 173.88 129.881 174.413 129.434 174.84C128.994 175.267 128.444 175.48 127.784 175.48H126.144V178H125.274V171H127.784ZM127.734 174.63C128.161 174.63 128.511 174.5 128.784 174.24C129.064 173.973 129.204 173.64 129.204 173.24C129.204 172.84 129.064 172.51 128.784 172.25C128.511 171.983 128.161 171.85 127.734 171.85H126.144V174.63H127.734ZM135.268 171V171.82H133.138V178H132.258V171.82H130.128V171H135.268ZM140.765 171H141.405V178H140.525V172.67L136.535 178H135.935V171H136.805V176.29L140.765 171ZM145.327 171C145.987 171 146.537 171.213 146.977 171.64C147.424 172.067 147.647 172.6 147.647 173.24C147.647 173.88 147.424 174.413 146.977 174.84C146.537 175.267 145.987 175.48 145.327 175.48H143.687V178H142.817V171H145.327ZM145.277 174.63C145.704 174.63 146.054 174.5 146.327 174.24C146.607 173.973 146.747 173.64 146.747 173.24C146.747 172.84 146.607 172.51 146.327 172.25C146.054 171.983 145.704 171.85 145.277 171.85H143.687V174.63H145.277ZM153.251 171H153.891V178H153.011V172.67L149.021 178H148.421V171H149.291V176.29L153.251 171Z" fill="#27272C"/>
</svg>
