<svg width="138" height="89" viewBox="0 0 138 89" fill="none" xmlns="http://www.w3.org/2000/svg">
<path d="M59.0233 53.3061H51.8979C51.7737 53.3061 51.6546 53.2568 51.5668 53.1691C51.479 53.0814 51.4297 52.9624 51.4297 52.8383C51.4297 52.7142 51.479 52.5952 51.5668 52.5075C51.6546 52.4197 51.7737 52.3704 51.8979 52.3704H59.0233C59.1475 52.3704 59.2666 52.4197 59.3544 52.5075C59.4422 52.5952 59.4916 52.7142 59.4916 52.8383C59.4916 52.9624 59.4422 53.0814 59.3544 53.1691C59.2666 53.2568 59.1475 53.3061 59.0233 53.3061Z" fill="#4D4D4C"/>
<path d="M26.8803 40.4892L20.9055 34.3637C20.8264 34.2832 20.7756 34.1793 20.7605 34.0675C20.7455 33.9557 20.7671 33.842 20.822 33.7435L26.6915 23.3022C26.7372 23.2223 26.8033 23.1559 26.883 23.1097C26.9626 23.0635 27.0531 23.0392 27.1452 23.0392C27.2373 23.0392 27.3278 23.0635 27.4075 23.1097C27.4872 23.1559 27.5532 23.2223 27.599 23.3022L33.8096 33.7363C33.8686 33.8359 33.8928 33.9524 33.8783 34.0673C33.8639 34.1821 33.8116 34.289 33.7298 34.3709L27.628 40.4929C27.5791 40.5424 27.5207 40.5817 27.4564 40.6084C27.3921 40.6351 27.323 40.6487 27.2534 40.6483C27.1837 40.648 27.1148 40.6338 27.0507 40.6064C26.9867 40.5791 26.9287 40.5393 26.8803 40.4892Z" fill="#4D4D4C"/>
<path d="M110.866 40.4892L104.888 34.3637C104.809 34.2832 104.758 34.1793 104.743 34.0675C104.728 33.9557 104.749 33.842 104.804 33.7435L110.674 23.3022C110.72 23.2223 110.786 23.1559 110.865 23.1097C110.945 23.0635 111.036 23.0392 111.128 23.0392C111.22 23.0392 111.31 23.0635 111.39 23.1097C111.47 23.1559 111.536 23.2223 111.581 23.3022L117.792 33.758C117.851 33.8577 117.875 33.9741 117.861 34.089C117.846 34.2039 117.794 34.3107 117.712 34.3927L111.61 40.4929C111.562 40.5419 111.503 40.5807 111.439 40.6071C111.375 40.6334 111.307 40.6468 111.238 40.6465C111.168 40.6462 111.1 40.6321 111.036 40.6051C110.972 40.5781 110.915 40.5387 110.866 40.4892Z" fill="#4D4D4C"/>
<path d="M51.6328 53.3062C51.5086 53.3062 51.3895 53.2569 51.3017 53.1692C51.2138 53.0814 51.1645 52.9624 51.1645 52.8383V36.2932L43.07 28.2418L34.9754 36.2932V52.8383C34.9754 52.9624 34.9261 53.0814 34.8383 53.1692C34.7504 53.2569 34.6313 53.3062 34.5072 53.3062H17.2944C17.1702 53.3062 17.0511 53.2569 16.9633 53.1692C16.8755 53.0814 16.8262 52.9624 16.8262 52.8383C16.8262 52.7143 16.8755 52.5953 16.9633 52.5075C17.0511 52.4198 17.1702 52.3705 17.2944 52.3705H34.0534V36.101C34.0531 36.039 34.0652 35.9776 34.0889 35.9203C34.1126 35.863 34.1474 35.811 34.1914 35.7673L42.7542 27.2517C42.8419 27.1645 42.9607 27.1155 43.0845 27.1155C43.2083 27.1155 43.327 27.1645 43.4148 27.2517L51.9958 35.7673C52.0397 35.811 52.0745 35.863 52.0982 35.9203C52.1219 35.9776 52.134 36.039 52.1337 36.101V52.8383C52.1338 52.9026 52.1207 52.9662 52.0952 53.0252C52.0696 53.0842 52.0322 53.1374 51.9852 53.1813C51.9382 53.2252 51.8826 53.2589 51.822 53.2804C51.7614 53.3019 51.6969 53.3107 51.6328 53.3062Z" fill="#4D4D4C"/>
<path d="M27.1439 41.4105C27.0816 41.4103 27.02 41.3977 26.9626 41.3734C26.9053 41.3491 26.8534 41.3136 26.8099 41.269L20.1891 34.4834C20.1187 34.4111 20.0737 34.318 20.0606 34.218C20.0475 34.118 20.0671 34.0165 20.1165 33.9285L26.6175 22.3411C26.6585 22.2695 26.7177 22.21 26.7891 22.1686C26.8605 22.1272 26.9415 22.1054 27.0241 22.1054C27.1066 22.1054 27.1877 22.1272 27.2591 22.1686C27.3305 22.21 27.3897 22.2695 27.4306 22.3411L34.3273 33.9249C34.3803 34.0144 34.4018 34.1189 34.3887 34.222C34.3756 34.3251 34.3284 34.4209 34.2547 34.4943L27.4778 41.2727C27.4341 41.3166 27.382 41.3514 27.3247 41.3751C27.2673 41.3987 27.2059 41.4108 27.1439 41.4105ZM21.1038 34.0809L27.1475 40.2753L33.3182 34.0845L27.0386 23.5089L21.1038 34.0809Z" fill="#4D4D4C"/>
<path d="M27.1206 53.2156C26.9964 53.2156 26.8773 53.1663 26.7895 53.0785C26.7017 52.9908 26.6523 52.8718 26.6523 52.7477V27.8212C26.6523 27.6971 26.7017 27.5781 26.7895 27.4904C26.8773 27.4026 26.9964 27.3533 27.1206 27.3533C27.2448 27.3533 27.3639 27.4026 27.4517 27.4904C27.5395 27.5781 27.5888 27.6971 27.5888 27.8212V52.7477C27.5888 52.8092 27.5767 52.87 27.5532 52.9268C27.5297 52.9835 27.4952 53.0351 27.4517 53.0785C27.4082 53.122 27.3566 53.1565 27.2998 53.18C27.243 53.2035 27.1821 53.2156 27.1206 53.2156Z" fill="#4D4D4C"/>
<path d="M27.1212 36.7538C27.0317 36.7547 26.9438 36.7299 26.8679 36.6824C26.792 36.6348 26.7314 36.5665 26.6932 36.4856C26.655 36.4047 26.6408 36.3145 26.6523 36.2258C26.6639 36.137 26.7006 36.0535 26.7583 35.985L29.4334 32.7681C29.4728 32.7204 29.5211 32.681 29.5757 32.6521C29.6303 32.6231 29.69 32.6051 29.7515 32.5993C29.813 32.5934 29.8751 32.5996 29.9342 32.6177C29.9933 32.6358 30.0482 32.6653 30.0959 32.7046C30.1436 32.7439 30.183 32.7922 30.212 32.8467C30.241 32.9012 30.259 32.9609 30.2649 33.0224C30.2708 33.0839 30.2645 33.1459 30.2464 33.2049C30.2283 33.264 30.1987 33.3189 30.1594 33.3665L27.4842 36.5834C27.4401 36.6369 27.3847 36.6799 27.3219 36.7094C27.2591 36.7389 27.1906 36.7541 27.1212 36.7538Z" fill="#4D4D4C"/>
<path d="M27.0946 34.8135C27.0258 34.8146 26.9576 34.8006 26.8949 34.7724C26.8322 34.7441 26.7764 34.7025 26.7316 34.6503L24.3033 31.7888C24.2229 31.6926 24.184 31.5685 24.1953 31.4437C24.2065 31.3189 24.2669 31.2036 24.3632 31.1233C24.4594 31.043 24.5837 31.0042 24.7086 31.0154C24.8335 31.0266 24.9488 31.087 25.0292 31.1831L27.4649 34.0446C27.5236 34.113 27.5614 34.197 27.5735 34.2863C27.5857 34.3756 27.5717 34.4666 27.5334 34.5482C27.4951 34.6298 27.4339 34.6986 27.3574 34.7463C27.2808 34.794 27.1921 34.8186 27.1019 34.8171L27.0946 34.8135Z" fill="#4D4D4C"/>
<path d="M27.0975 31.5749C27.0052 31.5746 26.9149 31.547 26.8382 31.4955C26.7615 31.4441 26.7017 31.3712 26.6664 31.2859C26.6311 31.2006 26.6218 31.1067 26.6398 31.0162C26.6577 30.9256 26.7021 30.8424 26.7672 30.777L28.2809 29.2647C28.3245 29.2211 28.3763 29.1865 28.4333 29.1629C28.4902 29.1393 28.5513 29.1272 28.613 29.1272C28.6747 29.1272 28.7358 29.1393 28.7927 29.1629C28.8497 29.1865 28.9015 29.2211 28.9451 29.2647C28.9887 29.3082 29.0233 29.36 29.047 29.4169C29.0706 29.4738 29.0827 29.5349 29.0827 29.5965C29.0827 29.6581 29.0706 29.7192 29.047 29.7761C29.0233 29.833 28.9887 29.8848 28.9451 29.9283L27.4315 31.4407C27.3874 31.484 27.3352 31.5181 27.2779 31.5411C27.2206 31.5642 27.1593 31.5756 27.0975 31.5749Z" fill="#4D4D4C"/>
<path d="M58.7366 34.154L68.6533 22.2982L58.8818 1.26678L48.3008 22.2982L58.7366 34.154Z" fill="#4D4D4C"/>
<path d="M58.7375 34.6213C58.669 34.6228 58.601 34.6094 58.5382 34.5818C58.4755 34.5542 58.4196 34.5132 58.3745 34.4617L47.9496 22.6059C47.8883 22.5358 47.8493 22.449 47.8377 22.3566C47.826 22.2642 47.8422 22.1704 47.8842 22.0873L58.4652 1.05223C58.5037 0.973329 58.5635 0.906811 58.638 0.860275C58.7124 0.813739 58.7985 0.789062 58.8863 0.789062C58.9741 0.789062 59.0602 0.813739 59.1346 0.860275C59.2091 0.906811 59.2689 0.973329 59.3074 1.05223L69.0789 22.0873C69.1163 22.1678 69.13 22.2572 69.1184 22.3452C69.1069 22.4332 69.0705 22.5161 69.0136 22.5842L59.0968 34.4545C59.0524 34.5073 58.9968 34.5497 58.934 34.5785C58.8713 34.6073 58.8029 34.622 58.7338 34.6213H58.7375ZM48.8643 22.2142L58.7266 33.4245L68.1061 22.2142L58.8681 2.33972L48.8643 22.2142Z" fill="#4D4D4C"/>
<path d="M58.7729 53.1031C58.6487 53.1031 58.5296 53.0538 58.4418 52.9661C58.354 52.8783 58.3047 52.7593 58.3047 52.6353V13.7821C58.3047 13.658 58.354 13.539 58.4418 13.4512C58.5296 13.3635 58.6487 13.3142 58.7729 13.3142C58.8971 13.3142 59.0162 13.3635 59.104 13.4512C59.1919 13.539 59.2412 13.658 59.2412 13.7821V52.6353C59.2412 52.7593 59.1919 52.8783 59.104 52.9661C59.0162 53.0538 58.8971 53.1031 58.7729 53.1031Z" fill="#4D4D4C"/>
<path d="M58.7738 27.3932C58.7044 27.3934 58.6359 27.3782 58.5731 27.3487C58.5103 27.3193 58.4549 27.2762 58.4108 27.2227L54.2619 22.2142C54.2226 22.1666 54.193 22.1117 54.1749 22.0526C54.1568 21.9936 54.1505 21.9316 54.1564 21.8701C54.1623 21.8087 54.1803 21.749 54.2093 21.6944C54.2383 21.6399 54.2777 21.5916 54.3254 21.5523C54.3731 21.513 54.428 21.4835 54.4871 21.4654C54.5462 21.4473 54.6083 21.4411 54.6698 21.447C54.7313 21.4529 54.791 21.4708 54.8456 21.4998C54.9002 21.5287 54.9485 21.5682 54.9879 21.6158L59.1404 26.6062C59.198 26.6747 59.2348 26.7582 59.2463 26.847C59.2578 26.9357 59.2437 27.0259 59.2055 27.1068C59.1673 27.1877 59.1066 27.256 59.0308 27.3036C58.9549 27.3511 58.867 27.3759 58.7774 27.375L58.7738 27.3932Z" fill="#4D4D4C"/>
<path d="M58.8079 24.3903C58.7177 24.3917 58.629 24.3671 58.5524 24.3194C58.4759 24.2717 58.4148 24.2029 58.3764 24.1213C58.3381 24.0397 58.3241 23.9488 58.3363 23.8594C58.3485 23.7701 58.3862 23.6862 58.445 23.6178L62.2345 19.1678C62.3149 19.0716 62.4302 19.0112 62.5551 19C62.6801 18.9888 62.8043 19.0276 62.9006 19.1079C62.9969 19.1882 63.0573 19.3035 63.0685 19.4283C63.0797 19.5531 63.0409 19.6772 62.9605 19.7734L59.1637 24.2162C59.1207 24.2694 59.0666 24.3126 59.0051 24.3426C58.9437 24.3727 58.8764 24.389 58.8079 24.3903Z" fill="#4D4D4C"/>
<path d="M58.8103 19.3527C58.6862 19.3523 58.5674 19.3028 58.4799 19.2149L56.1278 16.8648C56.0397 16.7768 55.9902 16.6574 55.9902 16.533C55.9902 16.4085 56.0397 16.2891 56.1278 16.2011C56.2159 16.1131 56.3354 16.0637 56.4599 16.0637C56.5845 16.0637 56.704 16.1131 56.7921 16.2011L59.1442 18.5512C59.2094 18.6167 59.2537 18.6999 59.2717 18.7904C59.2896 18.881 59.2803 18.9748 59.245 19.0601C59.2097 19.1454 59.1499 19.2183 59.0732 19.2698C58.9965 19.3212 58.9063 19.3488 58.8139 19.3491L58.8103 19.3527Z" fill="#4D4D4C"/>
<path d="M79.4569 34.1534L88.5315 22.5188L78.945 9.41541L70.0156 22.6276L79.4569 34.1534Z" fill="#4D4D4C"/>
<path d="M79.457 34.6212C79.3876 34.6214 79.3191 34.6062 79.2563 34.5767C79.1935 34.5472 79.1381 34.5042 79.094 34.4507L69.6527 22.9394C69.5889 22.8615 69.5519 22.765 69.5474 22.6644C69.5428 22.5638 69.5708 22.4643 69.6273 22.3809L78.5531 9.15785C78.5935 9.09767 78.6473 9.04767 78.7103 9.0118C78.7733 8.97592 78.8437 8.95516 78.9161 8.95113C78.9917 8.9489 79.0666 8.96527 79.1343 8.99879C79.2021 9.0323 79.2605 9.08195 79.3045 9.14334L88.8946 22.2467C88.9564 22.3281 88.9898 22.4275 88.9898 22.5296C88.9898 22.6318 88.9564 22.7311 88.8946 22.8125L79.8199 34.4471C79.7769 34.5026 79.722 34.5477 79.6591 34.5791C79.5963 34.6105 79.5272 34.6273 79.457 34.6284V34.6212ZM70.6001 22.5985L79.4497 33.4026L87.9472 22.5224L78.9597 10.2459L70.6001 22.5985Z" fill="#4D4D4C"/>
<path d="M79.4547 22.5768C79.3916 22.5766 79.3291 22.5636 79.2711 22.5387C79.2131 22.5138 79.1607 22.4774 79.1171 22.4317L76.5762 19.7878C76.4901 19.6984 76.443 19.5784 76.4454 19.4542C76.4478 19.3301 76.4994 19.212 76.589 19.1259C76.6785 19.0398 76.7986 18.9928 76.9228 18.9952C77.047 18.9976 77.1652 19.0492 77.2514 19.1386L79.7923 21.7825C79.8554 21.8487 79.8978 21.932 79.9141 22.022C79.9304 22.112 79.9199 22.2048 79.884 22.2889C79.8481 22.373 79.7883 22.4448 79.712 22.4953C79.6357 22.5458 79.5462 22.5729 79.4547 22.5731V22.5768Z" fill="#4D4D4C"/>
<path d="M79.5279 24.3901C79.4433 24.3903 79.3602 24.3676 79.2874 24.3244C79.2147 24.2811 79.155 24.219 79.1148 24.1446C79.0746 24.0702 79.0553 23.9863 79.059 23.9018C79.0628 23.8173 79.0893 23.7354 79.1359 23.6648L82.5153 18.5257C82.5836 18.4218 82.6905 18.3493 82.8123 18.3242C82.9342 18.299 83.061 18.3232 83.165 18.3915C83.269 18.4598 83.3416 18.5666 83.3667 18.6883C83.3919 18.8101 83.3677 18.9368 83.2993 19.0407L79.9199 24.1798C79.8772 24.2446 79.819 24.2977 79.7505 24.3345C79.6821 24.3712 79.6056 24.3903 79.5279 24.3901Z" fill="#4D4D4C"/>
<path d="M79.5304 19.0768C79.4619 19.0784 79.3939 19.0649 79.3312 19.0373C79.2684 19.0097 79.2125 18.9687 79.1674 18.9172L77.7699 17.3215C77.6881 17.2277 77.6469 17.1053 77.6554 16.9811C77.6639 16.857 77.7214 16.7413 77.8153 16.6596C77.9091 16.5778 78.0317 16.5367 78.1559 16.5452C78.2801 16.5537 78.3959 16.6111 78.4777 16.7049L79.8752 18.3007C79.9352 18.369 79.9739 18.4533 79.9867 18.5432C79.9995 18.6331 79.9858 18.7248 79.9473 18.8071C79.9088 18.8894 79.8472 18.9588 79.7699 19.0066C79.6927 19.0545 79.6031 19.0789 79.5122 19.0768H79.5304Z" fill="#4D4D4C"/>
<path d="M111.086 41.2326C110.962 41.2332 110.844 41.1849 110.756 41.0984L103.993 34.3745C103.919 34.3011 103.872 34.2053 103.859 34.1022C103.846 33.9991 103.868 33.8946 103.921 33.8051L110.817 22.3301C110.859 22.2616 110.918 22.2049 110.988 22.1655C111.057 22.1261 111.136 22.1054 111.217 22.1052C111.298 22.1061 111.378 22.1284 111.448 22.1698C111.518 22.2111 111.576 22.2702 111.616 22.341L118.113 33.8196C118.163 33.9074 118.183 34.009 118.17 34.1092C118.157 34.2093 118.112 34.3025 118.041 34.3745L111.416 41.0912C111.373 41.1348 111.322 41.1695 111.265 41.1931C111.208 41.2168 111.147 41.229 111.086 41.229V41.2326ZM104.915 33.9792L111.086 40.112L117.133 33.9755L111.191 23.4943L104.915 33.9792Z" fill="#4D4D4C"/>
<path d="M111.107 53.0413C111.045 53.0417 110.984 53.03 110.927 53.0066C110.87 52.9833 110.818 52.9488 110.775 52.9053C110.731 52.8618 110.697 52.81 110.673 52.753C110.65 52.696 110.638 52.635 110.639 52.5734V27.7665C110.649 27.65 110.703 27.5416 110.789 27.4626C110.875 27.3837 110.988 27.3398 111.105 27.3398C111.222 27.3398 111.335 27.3837 111.421 27.4626C111.508 27.5416 111.561 27.65 111.572 27.7665V52.5807C111.57 52.7029 111.52 52.8195 111.433 52.9055C111.346 52.9916 111.229 53.0403 111.107 53.0413Z" fill="#4D4D4C"/>
<path d="M111.109 36.6158C111.04 36.6168 110.971 36.6023 110.908 36.5734C110.845 36.5445 110.79 36.502 110.746 36.449L108.07 33.2647C107.991 33.1685 107.953 33.0448 107.965 32.9206C107.977 32.7965 108.038 32.6822 108.134 32.6029C108.23 32.5235 108.354 32.4856 108.478 32.4975C108.603 32.5094 108.717 32.5701 108.796 32.6663L111.472 35.8506C111.528 35.9192 111.564 36.0024 111.575 36.0905C111.586 36.1787 111.571 36.2681 111.533 36.3484C111.495 36.4286 111.435 36.4964 111.36 36.5438C111.285 36.5911 111.198 36.6161 111.109 36.6158Z" fill="#4D4D4C"/>
<path d="M111.131 34.6973C111.041 34.6982 110.954 34.6734 110.878 34.6258C110.802 34.5783 110.741 34.51 110.703 34.4291C110.665 34.3481 110.651 34.258 110.662 34.1692C110.674 34.0805 110.71 33.9969 110.768 33.9284L113.204 31.096C113.243 31.0495 113.292 31.0114 113.347 30.9837C113.401 30.956 113.461 30.9393 113.522 30.9346C113.583 30.9299 113.644 30.9372 113.702 30.9562C113.76 30.9752 113.814 31.0054 113.861 31.0452C113.907 31.0849 113.945 31.1335 113.973 31.188C114.001 31.2425 114.017 31.3019 114.022 31.3629C114.027 31.4238 114.019 31.4851 114.001 31.5432C113.982 31.6014 113.951 31.6552 113.911 31.7016L111.483 34.545C111.439 34.594 111.384 34.6329 111.324 34.6592C111.263 34.6854 111.197 34.6984 111.131 34.6973Z" fill="#4D4D4C"/>
<path d="M110.822 31.1866C110.7 31.1866 110.583 31.1384 110.496 31.0524L109.287 29.8556C109.208 29.7667 109.167 29.6513 109.17 29.5328C109.174 29.4144 109.222 29.3016 109.305 29.2173C109.389 29.1331 109.501 29.0836 109.62 29.0789C109.738 29.0741 109.854 29.1145 109.944 29.1919L111.153 30.3887C111.219 30.4532 111.265 30.5362 111.284 30.627C111.303 30.7179 111.295 30.8123 111.26 30.8982C111.224 30.984 111.164 31.0574 111.087 31.1088C111.01 31.1602 110.919 31.1873 110.826 31.1866H110.822Z" fill="#4D4D4C"/>
<path d="M79.4897 53.3241C79.3655 53.3241 79.2464 53.2748 79.1586 53.1871C79.0708 53.0993 79.0215 52.9803 79.0215 52.8563V17.5246C79.0215 17.4005 79.0708 17.2815 79.1586 17.1938C79.2464 17.1061 79.3655 17.0568 79.4897 17.0568C79.6139 17.0568 79.733 17.1061 79.8208 17.1938C79.9086 17.2815 79.958 17.4005 79.958 17.5246V52.3884H86.1106V36.1007C86.1103 36.0388 86.1224 35.9774 86.146 35.9201C86.1697 35.8628 86.2045 35.8108 86.2485 35.7671L94.8258 27.2515C94.9136 27.1643 95.0323 27.1153 95.1561 27.1153C95.2799 27.1153 95.3987 27.1643 95.4865 27.2515L104.049 35.7671C104.093 35.8108 104.128 35.8628 104.152 35.9201C104.175 35.9774 104.187 36.0388 104.187 36.1007V52.3703H120.946C121.07 52.3703 121.189 52.4196 121.277 52.5073C121.365 52.595 121.414 52.714 121.414 52.8381C121.414 52.9622 121.365 53.0812 121.277 53.1689C121.189 53.2567 121.07 53.306 120.946 53.306H103.704C103.58 53.306 103.461 53.2567 103.373 53.1689C103.286 53.0812 103.236 52.9622 103.236 52.8381V36.293L95.1416 28.2416L87.0471 36.293V52.8381C87.0471 52.9622 86.9977 53.0812 86.9099 53.1689C86.8221 53.2567 86.703 53.306 86.5788 53.306L79.4897 53.3241Z" fill="#4D4D4C"/>
<path d="M79.4662 28.9199C79.3491 28.9201 79.2363 28.876 79.1504 28.7966L73.3426 23.4508C73.2973 23.4092 73.2607 23.359 73.2348 23.3032C73.209 23.2473 73.1943 23.187 73.1918 23.1255C73.1893 23.0641 73.1989 23.0027 73.2201 22.945C73.2413 22.8872 73.2737 22.8342 73.3154 22.789C73.3571 22.7437 73.4073 22.7071 73.4632 22.6813C73.519 22.6554 73.5795 22.6408 73.641 22.6383C73.7025 22.6357 73.7639 22.6454 73.8217 22.6665C73.8795 22.6877 73.9325 22.7201 73.9778 22.7618L79.7856 28.1076C79.855 28.1712 79.9035 28.2544 79.9249 28.3461C79.9462 28.4377 79.9394 28.5337 79.9053 28.6215C79.8712 28.7092 79.8114 28.7847 79.7337 28.8379C79.656 28.8912 79.564 28.9197 79.4698 28.9199H79.4662Z" fill="#4D4D4C"/>
<path d="M76.0748 21.5176C75.9589 21.5188 75.8467 21.4771 75.7598 21.4005C75.673 21.3238 75.6177 21.2177 75.6046 21.1027C75.5915 20.9876 75.6215 20.8718 75.689 20.7776C75.7564 20.6834 75.8563 20.6176 75.9695 20.5928L77.8426 20.154C77.9616 20.1304 78.0851 20.1539 78.1871 20.2195C78.2892 20.2852 78.3617 20.3878 78.3895 20.5058C78.4172 20.6238 78.3981 20.748 78.336 20.8522C78.2739 20.9564 78.1738 21.0324 78.0567 21.0643L76.1837 21.4886C76.1487 21.5026 76.1121 21.5123 76.0748 21.5176Z" fill="#4D4D4C"/>
<path d="M64.4685 22.6929C64.4347 22.6965 64.4007 22.6965 64.3669 22.6929L60.8786 21.9204C60.8185 21.907 60.7617 21.882 60.7113 21.8467C60.6609 21.8115 60.618 21.7666 60.585 21.7147C60.5519 21.6629 60.5294 21.605 60.5188 21.5445C60.5081 21.4839 60.5095 21.4219 60.5229 21.3619C60.5362 21.3019 60.5613 21.2451 60.5966 21.1947C60.6319 21.1444 60.6768 21.1015 60.7287 21.0685C60.7806 21.0355 60.8385 21.013 60.8991 21.0024C60.9597 20.9917 61.0218 20.9931 61.0819 21.0064L64.5702 21.7789C64.683 21.8037 64.7827 21.8693 64.8501 21.9631C64.9175 22.0568 64.9478 22.1722 64.9352 22.287C64.9226 22.4017 64.868 22.5078 64.7818 22.5847C64.6957 22.6617 64.5841 22.7041 64.4685 22.7038V22.6929Z" fill="#4D4D4C"/>
<path d="M74.5687 26.1817C74.4445 26.187 74.3233 26.1428 74.2318 26.0588C74.1402 25.9748 74.0858 25.8579 74.0805 25.7338C74.0752 25.6097 74.1195 25.4886 74.2035 25.3971C74.2876 25.3057 74.4046 25.2513 74.5288 25.246L76.2566 25.1009C76.3186 25.0943 76.3813 25.1001 76.441 25.118C76.5007 25.1358 76.5562 25.1654 76.6044 25.2051C76.6525 25.2447 76.6922 25.2935 76.7212 25.3486C76.7501 25.4038 76.7678 25.4642 76.7731 25.5262C76.7784 25.5883 76.7713 25.6508 76.7521 25.71C76.733 25.7693 76.7021 25.8242 76.6614 25.8714C76.6208 25.9186 76.5711 25.9572 76.5153 25.9849C76.4595 26.0127 76.3987 26.029 76.3364 26.033L74.6086 26.1781L74.5687 26.1817Z" fill="#4D4D4C"/>
<path d="M79.4914 30.0695C79.4074 30.0684 79.3252 30.0447 79.2535 30.0009C79.1818 29.9572 79.1232 29.8949 79.0838 29.8207C79.0445 29.7466 79.0258 29.6632 79.0298 29.5793C79.0338 29.4954 79.0604 29.4142 79.1066 29.3441L83.0995 23.5812C83.1341 23.5299 83.1787 23.4859 83.2305 23.4519C83.2823 23.4179 83.3403 23.3945 83.4013 23.383C83.4622 23.3716 83.5248 23.3724 83.5854 23.3853C83.6461 23.3983 83.7035 23.4231 83.7545 23.4584C83.8054 23.4937 83.8488 23.5387 83.8822 23.5909C83.9156 23.6431 83.9383 23.7014 83.9489 23.7625C83.9596 23.8235 83.958 23.886 83.9443 23.9464C83.9306 24.0068 83.905 24.0639 83.869 24.1144L79.8762 29.8772C79.8321 29.9377 79.7741 29.9867 79.7072 30.0201C79.6402 30.0536 79.5662 30.0705 79.4914 30.0695Z" fill="#4D4D4C"/>
<path d="M82.0967 26.2905C81.9756 26.2906 81.8592 26.2438 81.7719 26.1599C81.6846 26.0761 81.6332 25.9617 81.6285 25.8408L81.5958 24.2269C81.5944 24.1652 81.6052 24.1037 81.6276 24.0462C81.6501 23.9886 81.6837 23.9361 81.7265 23.8916C81.7694 23.8471 81.8206 23.8115 81.8773 23.7869C81.934 23.7623 81.995 23.7491 82.0568 23.7482C82.1798 23.7482 82.2978 23.7964 82.3854 23.8826C82.473 23.9688 82.5232 24.0859 82.5251 24.2088L82.5577 25.8227C82.558 25.9413 82.5132 26.0556 82.4323 26.1425C82.3515 26.2293 82.2406 26.2822 82.1222 26.2905H82.0967Z" fill="#4D4D4C"/>
<path d="M51.5707 23.683C51.4465 23.6878 51.3255 23.6431 51.2343 23.5587C51.1431 23.4744 51.0891 23.3573 51.0843 23.2332C51.0795 23.1092 51.1242 22.9882 51.2086 22.8971C51.2931 22.806 51.4102 22.7521 51.5344 22.7473L55.3567 22.4535C55.4774 22.4491 55.5952 22.4916 55.6853 22.5719C55.7755 22.6523 55.831 22.7644 55.8404 22.8847C55.8498 23.0051 55.8122 23.1244 55.7356 23.2177C55.659 23.3111 55.5492 23.3712 55.4293 23.3856L51.607 23.6648L51.5707 23.683Z" fill="#4D4D4C"/>
<path d="M58.9179 16.4113C58.8251 16.411 58.7344 16.3831 58.6575 16.3312C58.5805 16.2793 58.5208 16.2058 58.4858 16.1199C58.4507 16.034 58.4421 15.9396 58.4608 15.8488C58.4796 15.758 58.525 15.6748 58.5912 15.6098L60.6856 13.5534C60.7304 13.5103 60.7833 13.4764 60.8412 13.4537C60.8991 13.4311 60.9609 13.42 61.0231 13.4212C61.0853 13.4223 61.1466 13.4358 61.2036 13.4606C61.2606 13.4855 61.3122 13.5213 61.3553 13.5661C61.3985 13.6109 61.4323 13.6637 61.4551 13.7215C61.4778 13.7794 61.4888 13.8412 61.4877 13.9033C61.4865 13.9654 61.4731 14.0267 61.4482 14.0837C61.4233 14.1406 61.3874 14.1921 61.3426 14.2352L59.2555 16.2807C59.2107 16.3238 59.1578 16.3575 59.0998 16.3799C59.0418 16.4023 58.98 16.413 58.9179 16.4113Z" fill="#4D4D4C"/>
<path d="M42.267 41.4865H39.7261C39.6646 41.4865 39.6037 41.4744 39.5469 41.4509C39.4901 41.4274 39.4384 41.3929 39.395 41.3495C39.3515 41.306 39.317 41.2545 39.2935 41.1977C39.2699 41.1409 39.2578 41.0801 39.2578 41.0187V38.4799C39.2578 38.3559 39.3071 38.2369 39.395 38.1491C39.4828 38.0614 39.6019 38.0121 39.7261 38.0121H42.267C42.3911 38.0121 42.5102 38.0614 42.5981 38.1491C42.6859 38.2369 42.7352 38.3559 42.7352 38.4799V41.0187C42.7352 41.0801 42.7231 41.1409 42.6996 41.1977C42.676 41.2545 42.6415 41.306 42.5981 41.3495C42.5546 41.3929 42.503 41.4274 42.4461 41.4509C42.3893 41.4744 42.3284 41.4865 42.267 41.4865ZM40.2016 40.5508H41.7987V38.955H40.2016V40.5508Z" fill="#4D4D4C"/>
<path d="M46.2338 41.4865H43.6929C43.6314 41.4865 43.5705 41.4744 43.5137 41.4509C43.4569 41.4274 43.4052 41.3929 43.3618 41.3495C43.3183 41.306 43.2838 41.2545 43.2603 41.1977C43.2367 41.1409 43.2246 41.0801 43.2246 41.0187V38.4799C43.2246 38.3559 43.2739 38.2369 43.3618 38.1491C43.4496 38.0614 43.5687 38.0121 43.6929 38.0121H46.2338C46.3579 38.0121 46.477 38.0614 46.5649 38.1491C46.6527 38.2369 46.702 38.3559 46.702 38.4799V41.0187C46.702 41.0801 46.6899 41.1409 46.6664 41.1977C46.6428 41.2545 46.6083 41.306 46.5649 41.3495C46.5214 41.3929 46.4698 41.4274 46.4129 41.4509C46.3561 41.4744 46.2952 41.4865 46.2338 41.4865ZM44.1684 40.5508H45.7655V38.955H44.1684V40.5508Z" fill="#4D4D4C"/>
<path d="M42.267 45.4505H39.7261C39.6019 45.4505 39.4828 45.4012 39.395 45.3135C39.3071 45.2257 39.2578 45.1067 39.2578 44.9826V42.4439C39.2578 42.3198 39.3071 42.2008 39.395 42.1131C39.4828 42.0254 39.6019 41.9761 39.7261 41.9761H42.267C42.3911 41.9761 42.5102 42.0254 42.5981 42.1131C42.6859 42.2008 42.7352 42.3198 42.7352 42.4439V44.9826C42.7352 45.1067 42.6859 45.2257 42.5981 45.3135C42.5102 45.4012 42.3911 45.4505 42.267 45.4505ZM40.2016 44.5148H41.7987V42.919H40.2016V44.5148Z" fill="#4D4D4C"/>
<path d="M46.2338 45.4505H43.6929C43.5687 45.4505 43.4496 45.4012 43.3618 45.3135C43.2739 45.2257 43.2246 45.1067 43.2246 44.9826V42.4439C43.2246 42.3198 43.2739 42.2008 43.3618 42.1131C43.4496 42.0254 43.5687 41.9761 43.6929 41.9761H46.2338C46.3579 41.9761 46.477 42.0254 46.5649 42.1131C46.6527 42.2008 46.702 42.3198 46.702 42.4439V44.9826C46.702 45.0441 46.6899 45.1049 46.6664 45.1617C46.6428 45.2184 46.6083 45.27 46.5649 45.3135C46.5214 45.3569 46.4698 45.3914 46.4129 45.4149C46.3561 45.4384 46.2952 45.4505 46.2338 45.4505ZM44.1684 44.5148H45.7655V42.919H44.1684V44.5148Z" fill="#4D4D4C"/>
<path d="M94.2611 41.4865H91.7202C91.6587 41.4865 91.5978 41.4744 91.541 41.4509C91.4842 41.4274 91.4326 41.3929 91.3891 41.3495C91.3456 41.306 91.3111 41.2545 91.2876 41.1977C91.2641 41.1409 91.252 41.0801 91.252 41.0187V38.4799C91.252 38.3559 91.3013 38.2369 91.3891 38.1491C91.4769 38.0614 91.596 38.0121 91.7202 38.0121H94.2611C94.3853 38.0121 94.5044 38.0614 94.5922 38.1491C94.68 38.2369 94.7294 38.3559 94.7294 38.4799V41.0187C94.7294 41.0801 94.7173 41.1409 94.6937 41.1977C94.6702 41.2545 94.6357 41.306 94.5922 41.3495C94.5487 41.3929 94.4971 41.4274 94.4403 41.4509C94.3835 41.4744 94.3226 41.4865 94.2611 41.4865ZM92.1957 40.5508H93.7929V38.955H92.1957V40.5508Z" fill="#4D4D4C"/>
<path d="M98.2259 41.4865H95.6851C95.6236 41.4865 95.5627 41.4744 95.5059 41.4509C95.4491 41.4274 95.3974 41.3929 95.3539 41.3495C95.3105 41.306 95.276 41.2545 95.2524 41.1977C95.2289 41.1409 95.2168 41.0801 95.2168 41.0187V38.4799C95.2168 38.4185 95.2289 38.3577 95.2524 38.3009C95.276 38.2441 95.3105 38.1926 95.3539 38.1491C95.3974 38.1057 95.4491 38.0712 95.5059 38.0477C95.5627 38.0242 95.6236 38.0121 95.6851 38.0121H98.2259C98.3501 38.0121 98.4692 38.0614 98.5571 38.1491C98.6449 38.2369 98.6942 38.3559 98.6942 38.4799V41.0187C98.6942 41.0801 98.6821 41.1409 98.6586 41.1977C98.635 41.2545 98.6005 41.306 98.5571 41.3495C98.5136 41.3929 98.4619 41.4274 98.4051 41.4509C98.3483 41.4744 98.2874 41.4865 98.2259 41.4865ZM96.1606 40.5508H97.7577V38.955H96.1606V40.5508Z" fill="#4D4D4C"/>
<path d="M94.2611 45.4505H91.7202C91.596 45.4505 91.4769 45.4012 91.3891 45.3135C91.3013 45.2257 91.252 45.1067 91.252 44.9826V42.4439C91.252 42.3198 91.3013 42.2008 91.3891 42.1131C91.4769 42.0254 91.596 41.9761 91.7202 41.9761H94.2611C94.3853 41.9761 94.5044 42.0254 94.5922 42.1131C94.68 42.2008 94.7294 42.3198 94.7294 42.4439V44.9826C94.7294 45.1067 94.68 45.2257 94.5922 45.3135C94.5044 45.4012 94.3853 45.4505 94.2611 45.4505ZM92.1957 44.5148H93.7929V42.919H92.1957V44.5148Z" fill="#4D4D4C"/>
<path d="M98.2259 45.4505H95.6851C95.6236 45.4505 95.5627 45.4384 95.5059 45.4149C95.4491 45.3914 95.3974 45.3569 95.3539 45.3135C95.3105 45.27 95.276 45.2184 95.2524 45.1617C95.2289 45.1049 95.2168 45.0441 95.2168 44.9826V42.4439C95.2168 42.3825 95.2289 42.3216 95.2524 42.2649C95.276 42.2081 95.3105 42.1565 95.3539 42.1131C95.3974 42.0697 95.4491 42.0352 95.5059 42.0117C95.5627 41.9882 95.6236 41.9761 95.6851 41.9761H98.2259C98.3501 41.9761 98.4692 42.0254 98.5571 42.1131C98.6449 42.2008 98.6942 42.3198 98.6942 42.4439V44.9826C98.6942 45.1067 98.6449 45.2257 98.5571 45.3135C98.4692 45.4012 98.3501 45.4505 98.2259 45.4505ZM96.1606 44.5148H97.7577V42.919H96.1606V44.5148Z" fill="#4D4D4C"/>
<path d="M68.0144 37.3955H64.7476C64.6861 37.3955 64.6252 37.3834 64.5684 37.3599C64.5115 37.3364 64.4599 37.3019 64.4164 37.2585C64.373 37.215 64.3385 37.1634 64.3149 37.1067C64.2914 37.0499 64.2793 36.9891 64.2793 36.9276V33.6636C64.2793 33.5395 64.3286 33.4205 64.4164 33.3328C64.5043 33.245 64.6234 33.1957 64.7476 33.1957H68.0144C68.1386 33.1957 68.2577 33.245 68.3455 33.3328C68.4333 33.4205 68.4827 33.5395 68.4827 33.6636V36.9276C68.4827 36.9891 68.4706 37.0499 68.447 37.1067C68.4235 37.1634 68.389 37.215 68.3455 37.2585C68.302 37.3019 68.2504 37.3364 68.1936 37.3599C68.1368 37.3834 68.0759 37.3955 68.0144 37.3955ZM65.2049 36.4598H67.5462V34.1206H65.2049V36.4598Z" fill="#4D4D4C"/>
<path d="M73.1414 37.3955H69.8745C69.813 37.3955 69.7521 37.3834 69.6953 37.3599C69.6385 37.3364 69.5869 37.3019 69.5434 37.2585C69.4999 37.215 69.4654 37.1634 69.4419 37.1067C69.4184 37.0499 69.4063 36.9891 69.4062 36.9276V33.6636C69.4062 33.5395 69.4556 33.4205 69.5434 33.3328C69.6312 33.245 69.7503 33.1957 69.8745 33.1957H73.1414C73.2656 33.1957 73.3847 33.245 73.4725 33.3328C73.5603 33.4205 73.6096 33.5395 73.6096 33.6636V36.9276C73.6096 36.9891 73.5975 37.0499 73.574 37.1067C73.5504 37.1634 73.5159 37.215 73.4725 37.2585C73.429 37.3019 73.3774 37.3364 73.3206 37.3599C73.2637 37.3834 73.2029 37.3955 73.1414 37.3955ZM70.3319 36.4598H72.684V34.1206H70.3428L70.3319 36.4598Z" fill="#4D4D4C"/>
<path d="M68.0144 42.5237H64.7476C64.6234 42.5237 64.5043 42.4745 64.4164 42.3867C64.3286 42.299 64.2793 42.18 64.2793 42.0559V38.7918C64.2793 38.6677 64.3286 38.5487 64.4164 38.461C64.5043 38.3733 64.6234 38.324 64.7476 38.324H68.0144C68.1386 38.324 68.2577 38.3733 68.3455 38.461C68.4333 38.5487 68.4827 38.6677 68.4827 38.7918V42.0559C68.4827 42.18 68.4333 42.299 68.3455 42.3867C68.2577 42.4745 68.1386 42.5237 68.0144 42.5237ZM65.2049 41.588H67.5462V39.2597H65.2049V41.588Z" fill="#4D4D4C"/>
<path d="M73.1414 42.5237H69.8745C69.7503 42.5237 69.6312 42.4745 69.5434 42.3867C69.4556 42.299 69.4062 42.18 69.4062 42.0559V38.7918C69.4062 38.6677 69.4556 38.5487 69.5434 38.461C69.6312 38.3733 69.7503 38.324 69.8745 38.324H73.1414C73.2656 38.324 73.3847 38.3733 73.4725 38.461C73.5603 38.5487 73.6096 38.6677 73.6096 38.7918V42.0559C73.6096 42.18 73.5603 42.299 73.4725 42.3867C73.3847 42.4745 73.2656 42.5237 73.1414 42.5237ZM70.3319 41.588H72.684V39.2597H70.3428L70.3319 41.588Z" fill="#4D4D4C"/>
<path d="M59.0506 82.6572C59.3568 82.6743 59.6609 82.597 59.9218 82.436C60.0226 82.3663 60.1041 82.2722 60.1587 82.1625C60.2133 82.0527 60.2392 81.931 60.234 81.8086C60.235 81.7551 60.2211 81.7024 60.194 81.6563C60.1825 81.6347 60.1652 81.6169 60.144 81.6047C60.1228 81.5925 60.0987 81.5865 60.0742 81.5874H59.6532C59.6553 81.6971 59.6443 81.8066 59.6205 81.9138C59.6032 81.9925 59.5671 82.0659 59.5152 82.1277C59.4658 82.1839 59.4017 82.2253 59.3301 82.2474C59.1458 82.2967 58.9518 82.2967 58.7675 82.2474C58.6959 82.2253 58.6319 82.1839 58.5824 82.1277C58.5305 82.0659 58.4944 81.9925 58.4771 81.9138C58.4533 81.8066 58.4424 81.6971 58.4444 81.5874H58.0198C57.9953 81.5865 57.9712 81.5925 57.95 81.6047C57.9288 81.6169 57.9115 81.6347 57.9 81.6563C57.8729 81.7024 57.859 81.7551 57.86 81.8086C57.8548 81.931 57.8807 82.0527 57.9353 82.1625C57.9899 82.2722 58.0714 82.3663 58.1722 82.436C58.4352 82.5985 58.742 82.6758 59.0506 82.6572Z" fill="#4D4D4C"/>
<path d="M34.7492 86.012C34.6409 85.9273 34.5178 85.8634 34.3863 85.8234C34.4948 85.7888 34.5949 85.732 34.6803 85.6566C34.7701 85.5735 34.8493 85.4797 34.9162 85.3773L36.6186 83.0453H36.0233C35.9429 83.0444 35.8637 83.0657 35.7946 83.107C35.7238 83.1495 35.6651 83.2094 35.624 83.2811L34.1721 85.3048C34.1056 85.4071 34.0129 85.4898 33.9035 85.5441C33.8009 85.5852 33.6909 85.605 33.5804 85.6022H32.9743V83.0453H32.2301V85.6022H31.6675C31.5558 85.6047 31.4448 85.5849 31.3408 85.5441C31.2305 85.4912 31.1374 85.4082 31.0722 85.3048L29.6203 83.2811C29.579 83.2096 29.5203 83.1497 29.4497 83.107C29.3806 83.0657 29.3015 83.0444 29.221 83.0453H28.5785L30.2773 85.3773C30.3442 85.4797 30.4234 85.5735 30.5132 85.6566C30.5996 85.7325 30.701 85.7893 30.8109 85.8234C30.6783 85.8609 30.5548 85.9251 30.4479 86.012C30.3357 86.1082 30.2401 86.2221 30.1648 86.3493L28.4297 88.888H28.9596C29.064 88.8903 29.1669 88.864 29.2573 88.8118C29.341 88.7618 29.4098 88.6904 29.4569 88.6051L30.9343 86.5379C30.9954 86.4357 31.0816 86.3508 31.1847 86.2912C31.2976 86.2362 31.4223 86.2101 31.5477 86.2151H32.2192V88.8844H32.9743V86.2151H33.6494C33.7749 86.2096 33.8997 86.2358 34.0124 86.2912C34.1155 86.3508 34.2017 86.4357 34.2628 86.5379L35.7438 88.6051C35.7929 88.6902 35.8628 88.7613 35.9471 88.8118C36.0375 88.864 36.1404 88.8903 36.2447 88.888H36.7493L35.0179 86.3493C34.9478 86.2227 34.857 86.1087 34.7492 86.012Z" fill="#4D4D4C"/>
<path d="M41.5162 83.1179C41.4593 83.1668 41.4103 83.2243 41.371 83.2883L38.6341 87.3321C38.5775 87.4226 38.5254 87.5158 38.4781 87.6114C38.4216 87.7294 38.3719 87.8505 38.3292 87.9741C38.3486 87.829 38.3607 87.6936 38.3655 87.5679C38.3704 87.4422 38.3704 87.3213 38.3655 87.2052V83.0417H37.5742V88.8735H38.1623C38.2383 88.8744 38.3119 88.8473 38.3692 88.7973C38.4261 88.7484 38.4751 88.6909 38.5144 88.6269L41.2621 84.594C41.322 84.5061 41.3754 84.414 41.4219 84.3183C41.4727 84.2119 41.5211 84.0983 41.567 83.9774C41.5477 84.1176 41.5356 84.2518 41.5308 84.38C41.5259 84.5081 41.5259 84.629 41.5308 84.7427V88.8735H42.3221V83.0417H41.734C41.6543 83.038 41.5762 83.0653 41.5162 83.1179Z" fill="#4D4D4C"/>
<path d="M44.7347 85.0507C44.6839 85.6116 44.6222 86.0855 44.5496 86.4724C44.4971 86.7903 44.4181 87.1033 44.3136 87.4081C44.2486 87.6019 44.1557 87.7851 44.0378 87.9521C43.9607 88.0625 43.8554 88.1502 43.7329 88.206C43.6301 88.247 43.5204 88.2679 43.4098 88.2676H43.123V88.7681C43.123 88.8189 43.163 88.8588 43.2428 88.8842C43.3527 88.9143 43.4665 88.9277 43.5804 88.9241C43.7504 88.9255 43.9195 88.8998 44.0813 88.8479C44.2506 88.7891 44.4027 88.6894 44.5242 88.5578C44.6757 88.3852 44.7983 88.1892 44.8872 87.9775C45.0224 87.6709 45.1258 87.3513 45.1957 87.0237C45.2994 86.5569 45.3769 86.0847 45.428 85.6092C45.4909 85.058 45.5417 84.4076 45.5805 83.658H47.5115V88.8733H48.3028V83.0415H44.8363C44.8097 83.82 44.7758 84.4898 44.7347 85.0507Z" fill="#4D4D4C"/>
<path d="M54.4003 83.8105C54.1434 83.5431 53.833 83.333 53.4892 83.1939C52.7339 82.9006 51.896 82.9006 51.1407 83.1939C50.7982 83.3335 50.489 83.5436 50.2332 83.8105C49.9756 84.082 49.7755 84.4027 49.6452 84.7534C49.3683 85.5311 49.3683 86.3803 49.6452 87.1579C49.7751 87.5089 49.9752 87.8297 50.2332 88.1009C50.4892 88.3666 50.7984 88.5755 51.1407 88.7138C51.8964 89.0047 52.7334 89.0047 53.4892 88.7138C53.8327 88.576 54.1432 88.3671 54.4003 88.1009C54.6583 87.8297 54.8584 87.5089 54.9883 87.1579C55.2652 86.3803 55.2652 85.5311 54.9883 84.7534C54.8579 84.4027 54.6579 84.082 54.4003 83.8105ZM54.2369 86.9222C54.1494 87.1902 54.0073 87.4371 53.8195 87.6475C53.6387 87.8459 53.4153 88.0009 53.1661 88.1009C52.6166 88.3097 52.0096 88.3097 51.4601 88.1009C51.2114 87.9999 50.9883 87.8451 50.8067 87.6475C50.6185 87.4375 50.4763 87.1904 50.3893 86.9222C50.1936 86.2939 50.1936 85.6211 50.3893 84.9928C50.4763 84.7246 50.6185 84.4775 50.8067 84.2674C50.9883 84.0699 51.2114 83.9151 51.4601 83.8141C52.0091 83.6029 52.6171 83.6029 53.1661 83.8141C53.4148 83.9151 53.6379 84.0699 53.8195 84.2674C54.0073 84.4778 54.1494 84.7248 54.2369 84.9928C54.4327 85.6211 54.4327 86.2939 54.2369 86.9222Z" fill="#4D4D4C"/>
<path d="M60.6197 83.1179C60.5628 83.1669 60.5138 83.2244 60.4746 83.2884L57.7377 87.3322C57.681 87.4226 57.6289 87.5158 57.5816 87.6114C57.5251 87.7294 57.4754 87.8505 57.4327 87.9741C57.4509 87.829 57.4654 87.6948 57.469 87.5679C57.4727 87.441 57.469 87.3213 57.469 87.2052V83.0417H56.6777V88.8735H57.2658C57.3418 88.8745 57.4154 88.8474 57.4727 88.7974C57.5296 88.7484 57.5786 88.6909 57.6179 88.6269L60.3657 84.594C60.4256 84.5062 60.479 84.414 60.5254 84.3184C60.5762 84.212 60.6246 84.0983 60.6706 83.9774C60.6524 84.1189 60.6379 84.2531 60.6343 84.38C60.6306 84.5069 60.6343 84.6266 60.6343 84.7427V88.8735H61.4328V83.0417H60.8448C60.8041 83.0389 60.7633 83.0442 60.7246 83.0573C60.686 83.0704 60.6504 83.091 60.6197 83.1179Z" fill="#4D4D4C"/>
<path d="M67.6026 86.0083C67.4965 85.9219 67.3725 85.86 67.2396 85.827C67.4489 85.7568 67.6298 85.6206 67.7551 85.439L69.5192 83.0417H68.8368C68.7629 83.0393 68.6903 83.0609 68.6299 83.1033C68.5703 83.1463 68.5197 83.2005 68.481 83.2629L66.9529 85.3193C66.8882 85.4142 66.8009 85.4915 66.6988 85.5441C66.5999 85.585 66.4936 85.6048 66.3866 85.6022H65.7877V83.0453H65V88.8735H65.7877V86.2042H66.4882C66.6029 86.1981 66.7173 86.2192 66.8222 86.2658C66.9159 86.3191 66.9945 86.3952 67.0509 86.4871L68.5936 88.6232C68.6334 88.6942 68.6863 88.757 68.7496 88.8082C68.8086 88.8508 68.8802 88.8725 68.9529 88.8698H69.6789L67.893 86.3311C67.8138 86.209 67.7158 86.1 67.6026 86.0083Z" fill="#4D4D4C"/>
<path d="M74.7889 83.8105C74.5322 83.543 74.2217 83.3329 73.8779 83.1939C73.1225 82.9006 72.2847 82.9006 71.5293 83.1939C71.1868 83.3334 70.8776 83.5435 70.6219 83.8105C70.3642 84.082 70.1642 84.4027 70.0338 84.7534C69.7569 85.5311 69.7569 86.3803 70.0338 87.1579C70.1638 87.5089 70.3638 87.8297 70.6219 88.1009C70.8778 88.3667 71.1871 88.5756 71.5293 88.7138C72.2851 89.0047 73.1221 89.0047 73.8779 88.7138C74.2215 88.5761 74.532 88.3672 74.7889 88.1009C75.047 87.8297 75.2471 87.5089 75.377 87.1579C75.6539 86.3803 75.6539 85.5311 75.377 84.7534C75.2466 84.4027 75.0466 84.082 74.7889 83.8105ZM74.6256 86.9222C74.5391 87.1899 74.3983 87.4368 74.2118 87.6475C74.031 87.8459 73.8076 88.0009 73.5584 88.1009C73.009 88.3097 72.4019 88.3097 71.8524 88.1009C71.6037 87.9999 71.3806 87.8451 71.199 87.6475C71.0107 87.4375 70.8685 87.1904 70.7816 86.9222C70.5856 86.294 70.5856 85.621 70.7816 84.9928C70.8685 84.7245 71.0107 84.4775 71.199 84.2674C71.3806 84.0699 71.6037 83.9151 71.8524 83.8141C72.4014 83.6029 73.0094 83.6029 73.5584 83.8141C73.8071 83.9151 74.0302 84.0699 74.2118 84.2674C74.3983 84.4782 74.5391 84.7251 74.6256 84.9928C74.8216 85.621 74.8216 86.294 74.6256 86.9222Z" fill="#4D4D4C"/>
<path d="M82.0396 83.0598C81.9906 83.0825 81.9518 83.1226 81.9307 83.1723L79.9451 86.77C79.9089 86.8371 79.8761 86.9061 79.8471 86.9767C79.8181 87.0493 79.7891 87.1218 79.76 87.1943C79.7334 87.1218 79.7044 87.0493 79.6729 86.9767C79.6414 86.9042 79.6112 86.8353 79.5822 86.77L77.564 83.1795C77.5415 83.1308 77.5031 83.0911 77.4551 83.0671C77.4022 83.051 77.347 83.0437 77.2917 83.0453H76.7109V88.8735H77.4042V84.594C77.4033 84.4606 77.3948 84.3274 77.3788 84.195L79.4261 87.858C79.45 87.9139 79.49 87.9614 79.5411 87.9943C79.5922 88.0273 79.652 88.0442 79.7128 88.043H79.8253C79.8862 88.0442 79.946 88.0273 79.9971 87.9943C80.0482 87.9614 80.0882 87.9139 80.1121 87.858L82.123 84.2059C82.123 84.2736 82.123 84.3401 82.123 84.4054V84.5903V88.8735H82.8163V83.0417H82.2319C82.1672 83.0358 82.102 83.042 82.0396 83.0598Z" fill="#4D4D4C"/>
<path d="M90.7835 85.0507C90.7327 85.6116 90.671 86.0855 90.5984 86.4724C90.5459 86.7903 90.467 87.1033 90.3625 87.4081C90.2974 87.6018 90.2045 87.7851 90.0866 87.9521C90.0096 88.0625 89.9043 88.1502 89.7817 88.206C89.679 88.247 89.5693 88.2679 89.4586 88.2676H89.1719V88.7681C89.1719 88.8189 89.2118 88.8588 89.288 88.8842C89.3979 88.9143 89.5117 88.9277 89.6256 88.9241C89.7956 88.9255 89.9647 88.8998 90.1265 88.8479C90.2958 88.7891 90.4479 88.6894 90.5694 88.5578C90.7209 88.3852 90.8435 88.1892 90.9324 87.9775C91.0676 87.6709 91.171 87.3513 91.2409 87.0237C91.3443 86.5568 91.4219 86.0846 91.4732 85.6092C91.5361 85.058 91.5869 84.4076 91.6256 83.658H93.5567V88.8733H94.348V83.0415H90.8815C90.867 83.82 90.8343 84.4898 90.7835 85.0507Z" fill="#4D4D4C"/>
<path d="M96.649 86.2403H98.9249V85.6201H96.649V83.6834H99.4585V83.0415H95.8613V88.8769H99.4585L99.4621 88.2314H96.649V86.2403Z" fill="#4D4D4C"/>
<path d="M103.177 86.0083C103.071 85.922 102.947 85.8601 102.814 85.827C103.022 85.7564 103.202 85.6202 103.326 85.439L105.09 83.0417H104.411C104.337 83.0393 104.265 83.0609 104.204 83.1033C104.145 83.1464 104.094 83.2006 104.055 83.2629L102.527 85.3193C102.462 85.4142 102.375 85.4915 102.273 85.5441C102.174 85.585 102.068 85.6048 101.961 85.6022H101.362V83.0453H100.574V88.8735H101.362V86.2042H102.062C102.177 86.1981 102.292 86.2192 102.396 86.2658C102.49 86.3191 102.569 86.3952 102.625 86.4871L104.168 88.6232C104.208 88.6942 104.261 88.757 104.324 88.8082C104.383 88.851 104.454 88.8728 104.527 88.8698H105.253L103.467 86.3311C103.388 86.2089 103.29 86.1 103.177 86.0083Z" fill="#4D4D4C"/>
<path d="M109.861 87.6693C109.809 87.6721 109.759 87.6941 109.723 87.731C109.628 87.8192 109.526 87.8992 109.418 87.9703C109.314 88.037 109.203 88.0918 109.087 88.1335C108.962 88.1785 108.831 88.2101 108.699 88.2278C108.543 88.2489 108.385 88.2586 108.227 88.2568C107.953 88.2591 107.682 88.206 107.429 88.1009C107.185 87.9991 106.967 87.8457 106.79 87.6512C106.6 87.44 106.455 87.1935 106.361 86.9258C106.253 86.6135 106.2 86.2845 106.205 85.9539C106.201 85.626 106.253 85.2998 106.358 84.9892C106.448 84.7215 106.591 84.4748 106.779 84.2638C106.958 84.0672 107.179 83.9124 107.425 83.8105C107.688 83.7038 107.969 83.6508 108.253 83.6545C108.623 83.6437 108.989 83.7327 109.312 83.912C109.408 83.9657 109.5 84.025 109.588 84.0897C109.638 84.134 109.7 84.1619 109.766 84.1695C109.803 84.172 109.84 84.1631 109.871 84.1441C109.897 84.1259 109.918 84.1024 109.933 84.0752L110.195 83.7125C109.95 83.4832 109.666 83.3002 109.356 83.1722C109.01 83.0347 108.64 82.9669 108.267 82.9727C107.869 82.9676 107.474 83.0416 107.106 83.1903C106.764 83.3288 106.456 83.5377 106.202 83.8032C105.945 84.0749 105.746 84.3957 105.617 84.7462C105.476 85.1329 105.405 85.5421 105.41 85.9539C105.406 86.365 105.473 86.7737 105.61 87.1616C105.732 87.5104 105.924 87.8311 106.173 88.1045C106.417 88.3679 106.716 88.5757 107.047 88.7138C107.409 88.8622 107.797 88.9362 108.187 88.9314C108.612 88.943 109.034 88.8639 109.425 88.6993C109.76 88.5493 110.057 88.3277 110.296 88.0501L109.984 87.7128C109.968 87.6969 109.949 87.6847 109.927 87.6772C109.906 87.6696 109.883 87.667 109.861 87.6693Z" fill="#4D4D4C"/>
<path d="M83.8203 88.8733V83.0415H88.5391V88.8733H87.766V83.6435H84.5826V88.8733H83.8203Z" fill="#4D4D4C"/>
<path d="M6.51694 59.932C7.45437 59.9148 8.39011 60.0184 9.30103 60.2403C9.98616 60.4051 10.6315 60.7047 11.1994 61.1216C11.6772 61.4806 12.0526 61.9582 12.2884 62.507C12.5254 63.0881 12.6427 63.711 12.6332 64.3385C12.6351 64.7175 12.5776 65.0944 12.4626 65.4555C12.3448 65.8167 12.1641 66.1543 11.929 66.4529C11.6689 66.7796 11.359 67.0636 11.0107 67.2943C10.5959 67.5579 10.148 67.7652 9.67854 67.9108C11.9557 68.4234 13.0942 69.6529 13.0942 71.5992C13.1 72.2696 12.9627 72.9336 12.6913 73.5468C12.424 74.1426 12.0242 74.6697 11.5225 75.0881C10.9635 75.5443 10.3212 75.8879 9.63135 76.1C8.80035 76.3551 7.93426 76.4775 7.06505 76.4627H0.814453V59.932H6.51694ZM3.89256 62.3148V67.1021H6.34634C7.40141 67.1021 8.19756 66.9111 8.73478 66.529C9.01043 66.3183 9.2289 66.0419 9.37028 65.7252C9.51167 65.4085 9.57147 65.0614 9.54423 64.7157C9.54423 63.8525 9.30224 63.2384 8.81826 62.8733C8.33428 62.5082 7.5696 62.3244 6.5242 62.322L3.89256 62.3148ZM7.00697 74.0763C7.49914 74.0894 7.99001 74.0195 8.45891 73.8695C8.80655 73.7563 9.12503 73.5682 9.39178 73.3183C9.61862 73.0941 9.78904 72.8195 9.88907 72.5168C9.99387 72.2035 10.0466 71.8751 10.0452 71.5448C10.0508 71.2141 9.99288 70.8854 9.87455 70.5765C9.75951 70.2933 9.57471 70.0438 9.33733 69.8511C9.05976 69.6228 8.73685 69.4559 8.38994 69.3615C7.93032 69.2505 7.45783 69.2017 6.98519 69.2164H3.88893V74.0763H7.00697Z" fill="#4D4D4C"/>
<path d="M28.7629 59.932L22.0803 74.1778C21.8801 74.6159 21.6265 75.0276 21.3253 75.4036C21.0825 75.7025 20.7903 75.9576 20.4614 76.158C20.1526 76.3412 19.8152 76.4712 19.4632 76.5424C19.0879 76.6169 18.706 76.6533 18.3234 76.6512C17.9161 76.6713 17.5085 76.621 17.1183 76.5025C16.8763 76.4034 16.7553 76.2583 16.7553 76.0673V74.1415H17.6483C17.8211 74.1407 17.9936 74.125 18.1637 74.0944C18.3468 74.0612 18.5233 73.9987 18.6864 73.9094C18.8717 73.8072 19.0396 73.6762 19.1837 73.5214C19.3645 73.3234 19.515 73.0997 19.6302 72.8577L20.269 71.5375L13.6191 59.932H16.523C16.7535 59.9205 16.9807 59.9898 17.1655 60.1278C17.3314 60.2637 17.4684 60.4314 17.5684 60.6211L20.7772 66.6741C20.9539 67.0102 21.1124 67.3426 21.2527 67.6714C21.3911 68.001 21.5123 68.3375 21.6157 68.6797C21.8151 67.9906 22.0725 67.3197 22.3852 66.6741L25.1947 60.6029C25.2841 60.4249 25.4074 60.2659 25.5577 60.1351C25.7454 59.9858 25.9828 59.9132 26.222 59.932H28.7629Z" fill="#4D4D4C"/>
<path d="M44.9015 74.1091V79.5492C44.9066 79.6693 44.8852 79.7891 44.8388 79.9C44.7924 80.011 44.7221 80.1103 44.6329 80.1911C44.4369 80.3569 44.1853 80.4424 43.9287 80.4305H42.0702V76.4773H29.8994V79.5347C29.9045 79.6548 29.883 79.7746 29.8366 79.8855C29.7902 79.9964 29.7199 80.0958 29.6308 80.1766C29.4347 80.3424 29.1831 80.4279 28.9266 80.4159H27.0645V74.1054H28.8794C29.1242 73.9636 29.3398 73.7765 29.5146 73.5542C29.7675 73.2289 29.974 72.87 30.128 72.4879C30.3615 71.9231 30.5508 71.3411 30.6943 70.7471C30.9015 69.8991 31.0638 69.0408 31.1807 68.1757C31.3259 67.1651 31.4469 65.9791 31.5437 64.6179C31.6405 63.2567 31.7191 61.6851 31.7796 59.9031H42.3062V74.0946L44.9015 74.1091ZM39.2281 74.1091V62.2895H34.7017C34.6097 63.9167 34.4887 65.3602 34.3387 66.6199C34.1886 67.8795 34.0071 68.9869 33.7942 69.9419C33.6231 70.7742 33.3938 71.5934 33.1081 72.3936C32.8951 72.9923 32.6227 73.5681 32.2951 74.1127L39.2281 74.1091Z" fill="#4D4D4C"/>
<path d="M58.1993 72.5749C58.2832 72.5753 58.3661 72.5929 58.4429 72.6266C58.5197 72.6603 58.5887 72.7093 58.6458 72.7707L59.8618 74.0872C59.1978 74.9123 58.3467 75.5674 57.379 75.9985C56.2609 76.4677 55.0558 76.6939 53.8435 76.6622C52.7061 76.6799 51.5771 76.4651 50.5258 76.0312C49.5728 75.6316 48.7154 75.0345 48.0103 74.2794C47.2984 73.5052 46.7535 72.5929 46.4096 71.5993C46.0298 70.5057 45.8419 69.3549 45.8542 68.1974C45.84 67.0305 46.0419 65.871 46.4495 64.7774C46.8228 63.7819 47.3946 62.8726 48.1301 62.1045C48.8613 61.3495 49.7413 60.7542 50.7146 60.3564C51.7705 59.93 52.9007 59.7179 54.0395 59.7326C55.1407 59.7122 56.2346 59.9145 57.2556 60.3274C58.1421 60.6922 58.9522 61.22 59.644 61.8833L58.6131 63.3158C58.5496 63.4092 58.4696 63.4903 58.3772 63.5552C58.2591 63.6295 58.1208 63.665 57.9815 63.6567C57.8542 63.6552 57.7293 63.6215 57.6185 63.5588C57.4951 63.4935 57.3608 63.4137 57.2156 63.3194C57.0704 63.2252 56.9023 63.12 56.7111 63.0039C56.4994 62.8794 56.2771 62.7738 56.0468 62.6884C55.7612 62.5842 55.4674 62.5042 55.1684 62.449C54.7888 62.3799 54.4035 62.3471 54.0177 62.3511C53.3191 62.3425 52.626 62.4771 51.9814 62.7464C51.3736 63.0052 50.8315 63.3968 50.3951 63.8925C49.9321 64.4278 49.5815 65.0506 49.3643 65.724C49.1092 66.5219 48.9866 67.3562 49.0013 68.1938C48.9874 69.0386 49.1212 69.8793 49.3969 70.6781C49.6361 71.3541 50.0061 71.9764 50.4859 72.5096C50.9284 72.9998 51.4721 73.3884 52.0794 73.6484C52.7022 73.9142 53.3732 74.0488 54.0504 74.0437C54.4314 74.046 54.8122 74.023 55.1902 73.9748C55.51 73.9337 55.825 73.8608 56.1303 73.7572C56.4144 73.6588 56.6871 73.5299 56.9434 73.3728C57.2151 73.2049 57.4703 73.0118 57.7057 72.7961C57.7777 72.73 57.8582 72.6739 57.9452 72.6293C58.0248 72.5924 58.1116 72.5739 58.1993 72.5749Z" fill="#4D4D4C"/>
<path d="M73.5608 62.4489H68.5625V76.4771H65.4807V62.4489H60.4824V59.9102H73.5499L73.5608 62.4489Z" fill="#4D4D4C"/>
<path d="M90.996 68.1974C91.007 69.3494 90.8026 70.4932 90.3934 71.5703C90.0139 72.5719 89.4347 73.4862 88.6911 74.2577C87.9414 75.0246 87.0403 75.6273 86.0449 76.0275C83.8343 76.8753 81.3878 76.8753 79.1772 76.0275C78.1801 75.6266 77.2767 75.0241 76.5238 74.2577C75.7768 73.4868 75.194 72.5725 74.8105 71.5703C74.0007 69.3945 74.0007 67.0003 74.8105 64.8245C75.1945 63.8236 75.7773 62.9107 76.5238 62.1408C77.2767 61.3743 78.1801 60.7717 79.1772 60.3709C80.2666 59.9366 81.431 59.721 82.6038 59.7362C83.4045 59.7317 84.2024 59.8305 84.9777 60.03C85.6911 60.2133 86.377 60.4901 87.0177 60.8533C87.631 61.2047 88.1919 61.6406 88.6838 62.148C89.1771 62.656 89.5996 63.2281 89.9397 63.8489C90.2893 64.4911 90.5529 65.1764 90.7238 65.8872C90.9069 66.6436 90.9983 67.4192 90.996 68.1974ZM87.8453 68.1974C87.8583 67.3683 87.7357 66.5426 87.4823 65.753C87.2634 65.0758 86.909 64.4502 86.4405 63.9142C85.9875 63.4088 85.4252 63.0131 84.7962 62.7573C83.3931 62.2256 81.8436 62.2256 80.4404 62.7573C79.8096 63.0136 79.245 63.4091 78.7888 63.9142C78.3164 64.4486 77.9593 65.0745 77.7398 65.753C77.2511 67.346 77.2511 69.0488 77.7398 70.6418C77.9585 71.3184 78.3158 71.9421 78.7888 72.4733C79.2465 72.975 79.8109 73.3678 80.4404 73.623C81.8436 74.1547 83.3931 74.1547 84.7962 73.623C85.424 73.3684 85.9861 72.9754 86.4405 72.4733C86.9095 71.9405 87.2641 71.3171 87.4823 70.6418C87.7345 69.852 87.8558 69.0263 87.8417 68.1974H87.8453Z" fill="#4D4D4C"/>
<path d="M99.0979 59.9321C100.072 59.9126 101.043 60.0435 101.976 60.3201C102.714 60.5397 103.397 60.9102 103.984 61.4082C104.504 61.8634 104.907 62.4367 105.16 63.0801C105.421 63.7591 105.552 64.4814 105.545 65.209C105.553 65.963 105.416 66.7116 105.142 67.414C104.879 68.0739 104.466 68.6637 103.936 69.1367C103.351 69.6455 102.666 70.0271 101.926 70.2574C101.012 70.541 100.058 70.6769 99.1015 70.66H96.7966V76.4881H93.7148V59.9321H99.0979ZM99.0979 68.2736C99.5985 68.2835 100.097 68.2125 100.575 68.0632C100.965 67.9401 101.323 67.7334 101.624 67.4575C101.905 67.1908 102.119 66.8615 102.249 66.4965C102.391 66.0899 102.461 65.6615 102.456 65.2307C102.461 64.8201 102.391 64.4119 102.249 64.0267C102.117 63.6763 101.904 63.3619 101.628 63.1091C101.327 62.8432 100.971 62.6464 100.586 62.5324C100.102 62.3901 99.5988 62.3229 99.0943 62.333H96.7893V68.2772L99.0979 68.2736Z" fill="#4D4D4C"/>
<path d="M121.875 59.9321V76.4918H118.786V66.0975C118.786 65.7083 118.796 65.2997 118.815 64.8717C118.834 64.4437 118.878 63.9892 118.946 63.5081C118.803 63.9126 118.637 64.3086 118.448 64.694C118.269 65.0567 118.095 65.3758 117.926 65.6515L111.581 75.527C111.507 75.648 111.425 75.7632 111.334 75.8716C111.24 75.9845 111.134 76.0867 111.018 76.1762C110.907 76.2637 110.785 76.3368 110.655 76.3938C110.521 76.451 110.376 76.4806 110.23 76.4809H107.896V59.9321H110.993V70.3082C110.993 70.6974 110.983 71.1073 110.964 71.5376C110.944 71.968 110.901 72.4238 110.833 72.9049C110.976 72.4994 111.142 72.1023 111.33 71.7153C111.49 71.3852 111.668 71.0643 111.864 70.7543L118.191 60.8823C118.264 60.7612 118.346 60.646 118.438 60.5378C118.531 60.4248 118.637 60.3226 118.753 60.2331C118.865 60.146 118.987 60.073 119.116 60.0155C119.252 59.9579 119.397 59.9283 119.545 59.9285L121.875 59.9321Z" fill="#4D4D4C"/>
<path d="M137.437 76.4772H134.355V69.6299H132.66C132.481 69.6292 132.302 69.6462 132.127 69.6807C131.953 69.716 131.787 69.7784 131.633 69.8656C131.463 69.9656 131.307 70.0876 131.168 70.2283C130.996 70.4014 130.846 70.5951 130.722 70.8049L127.8 75.4218C127.612 75.7392 127.347 76.0047 127.03 76.1943C126.683 76.3962 126.286 76.4978 125.883 76.488H123.557L127.361 70.6853C127.77 69.9948 128.382 69.4467 129.114 69.1149C128.552 68.9753 128.013 68.7555 127.513 68.4621C127.083 68.2082 126.701 67.8804 126.384 67.4937C126.088 67.1263 125.863 66.7069 125.72 66.257C125.573 65.7875 125.5 65.2982 125.502 64.8063C125.495 64.1318 125.633 63.4637 125.909 62.8479C126.179 62.2531 126.583 61.7283 127.088 61.3138C127.652 60.8611 128.298 60.5212 128.991 60.3128C129.824 60.0597 130.693 59.9374 131.564 59.9501H137.434L137.437 76.4772ZM134.355 67.2254V62.3111H131.571C131.08 62.2976 130.591 62.3612 130.119 62.4997C129.775 62.6023 129.457 62.7808 129.19 63.022C128.962 63.2352 128.789 63.5002 128.686 63.7945C128.58 64.1025 128.527 64.4262 128.53 64.7519C128.525 65.0973 128.575 65.4413 128.678 65.771C128.774 66.0713 128.948 66.3405 129.183 66.5508C129.454 66.7826 129.772 66.9523 130.116 67.0476C130.588 67.1782 131.078 67.2381 131.568 67.2254H134.355Z" fill="#4D4D4C"/>
</svg>
