<svg width="30" height="30" viewBox="0 0 30 30" fill="none" xmlns="http://www.w3.org/2000/svg">
<circle cx="15" cy="15" r="15" fill="#C4AC88"/>
<path d="M21.7589 12.3031L20.6005 11.1448L21.4713 10.2743C21.5483 10.1974 21.5915 10.0932 21.5915 9.9842C21.5915 9.8752 21.5483 9.77099 21.4713 9.69405L20.3054 8.52819C20.1515 8.37429 19.879 8.37429 19.7251 8.52819L18.8547 9.39897L17.6961 8.24039C17.3756 7.91987 16.8559 7.91987 16.5354 8.24039C16.2148 8.56091 16.2148 9.08061 16.5354 9.40116L20.5981 13.4639C20.9186 13.7844 21.4383 13.7844 21.7589 13.4639C22.0794 13.1434 22.0794 12.6237 21.7589 12.3031Z" fill="white"/>
<path d="M13.4639 20.607L9.40119 16.5442C9.08061 16.2237 8.56097 16.2237 8.24039 16.5442C7.91987 16.8648 7.91987 17.3845 8.24039 17.705L9.39895 18.8636L8.52986 19.7323C8.4529 19.8093 8.40961 19.9135 8.40961 20.0225C8.40961 20.1315 8.4529 20.2357 8.52986 20.3126L9.69572 21.4781C9.77586 21.5583 9.88086 21.5984 9.98587 21.5984C10.0909 21.5984 10.1959 21.5583 10.276 21.4781L11.1448 20.6094L12.3031 21.7678C12.6236 22.0883 13.1433 22.0883 13.4639 21.7678C13.7845 21.4472 13.7845 20.9275 13.4639 20.607Z" fill="white"/>
<path d="M15.3744 12.8835L12.8828 15.3836L14.624 17.1248L17.1156 14.6247L15.3744 12.8835Z" fill="white"/>
<path d="M20.5974 14.6247L15.3739 9.40116C15.0533 9.08064 14.5336 9.08064 14.2131 9.40116C13.8925 9.72173 13.8925 10.2414 14.2131 10.562L19.4366 15.7855C19.7571 16.106 20.2768 16.106 20.5974 15.7855C20.918 15.465 20.918 14.9453 20.5974 14.6247Z" fill="white"/>
<path d="M15.7849 19.4462L10.5613 14.2227C10.2408 13.9022 9.72111 13.9022 9.40059 14.2227C9.08001 14.5433 9.08001 15.063 9.40059 15.3835L14.6241 20.607C14.9446 20.9275 15.4643 20.9275 15.7849 20.607C16.1055 20.2865 16.1055 19.7668 15.7849 19.4462Z" fill="white"/>
</svg>
