<svg width="30" height="30" viewBox="0 0 30 30" fill="none" xmlns="http://www.w3.org/2000/svg">
<circle cx="15" cy="15" r="15" fill="#DDA6A6"/>
<path d="M22.0618 14.3569L19.2494 16.1425C19.2494 15.6005 18.9907 15.1211 18.5904 14.7934C19.5433 14.2466 20.1869 13.2614 20.1869 12.1248C20.1869 10.399 18.7179 9 16.9058 9C15.0937 9 13.6247 10.399 13.6247 12.1248C13.6247 13.0002 14.0048 13.7895 14.6142 14.3569H12.8949C13.3439 13.8823 13.6247 13.2605 13.6247 12.5712C13.6247 11.0919 12.3657 9.89281 10.8124 9.89281C9.259 9.89281 8 11.0919 8 12.5712C8 13.3783 8.38295 14.0935 8.97588 14.5845C8.39701 14.8885 8 15.4684 8 16.1425V19.7137C8 20.6998 8.83949 21.4993 9.8749 21.4993H17.3745C18.4099 21.4993 19.2494 20.6998 19.2494 19.7137L22.0618 21.4993C22.5797 21.4993 22.9992 21.0998 22.9992 20.6065V15.2497C22.9992 14.7564 22.5797 14.3569 22.0618 14.3569ZM10.8124 14.3569C9.77694 14.3569 8.93745 13.5573 8.93745 12.5712C8.93745 11.5851 9.77694 10.7856 10.8124 10.7856C11.8478 10.7856 12.6873 11.5851 12.6873 12.5712C12.6873 13.5573 11.8478 14.3569 10.8124 14.3569ZM16.9058 14.3618C15.6084 14.3618 14.557 13.36 14.557 12.1248C14.557 10.8892 15.6088 9.88791 16.9058 9.88791C18.2027 9.88791 19.2546 10.8892 19.2546 12.1248C19.2546 13.3605 18.2032 14.3618 16.9058 14.3618Z" fill="white"/>
</svg>
