<svg width="30" height="30" viewBox="0 0 30 30" fill="none" xmlns="http://www.w3.org/2000/svg">
<circle cx="15" cy="15" r="15" fill="#8BBED3"/>
<path d="M21.9378 17.0839C20.9917 17.1422 19.7478 18.0873 18.5481 18.6307C17.0768 19.2961 14.7875 18.7613 14.7872 18.7613C15.1411 18.5955 16.5762 18.2537 16.8651 18.1264C18.4013 17.4507 18.2704 16.0416 17.539 16.0534C16.5729 16.0697 16.0047 16.307 14.0761 16.57C12.6141 16.7687 10.885 16.696 10.0557 17.0126C8.88497 17.46 7 20.4686 7 20.4686L9.91495 23.2939C9.91495 23.2939 11.7202 21.5163 12.5981 21.5163C14.5996 21.5163 14.6802 21.4888 16.538 21.3884C17.3286 21.3462 17.4929 21.3137 17.9455 21.1613C20.3543 20.347 22.9404 18.1783 22.988 17.9173C23.0975 17.3133 22.4367 17.0528 21.9378 17.0839Z" fill="white"/>
<path d="M9.91515 15.0379C9.99546 15.0894 10.0959 15.0974 10.1819 15.0586C11.7423 14.3577 13.3242 14.3577 14.8842 15.0586C14.9573 15.0908 15.0414 15.0908 15.1146 15.0586C16.6747 14.3577 18.2569 14.3577 19.8168 15.0586C19.8527 15.0747 19.8924 15.0831 19.931 15.0831C19.9847 15.0831 20.0379 15.0678 20.0838 15.0379C20.1634 14.9866 20.2117 14.8981 20.2117 14.8029V7.82391C20.2117 7.63274 20.0497 7.56926 20.0445 7.56703C19.2077 7.1909 18.3491 7 17.4931 7C16.7402 7 15.9848 7.14893 15.2431 7.44091V10.8668C15.2431 11.0015 15.1345 11.1107 14.9992 11.1107C14.865 11.1107 14.7553 11.0015 14.7553 10.8668V7.44091C14.0144 7.14893 13.2591 7 12.506 7C11.6504 7 10.7914 7.1909 9.95408 7.56703C9.94903 7.56926 9.78711 7.65234 9.78711 7.82391V14.8029C9.78706 14.8981 9.83519 14.9865 9.91515 15.0379ZM10.3475 13.4775C11.0594 13.196 11.784 13.0529 12.506 13.0529C13.321 13.0529 14.1414 13.2352 14.9423 13.5953C14.9782 13.6114 15.0204 13.6114 15.0564 13.5953C15.8575 13.2352 16.6778 13.0529 17.4931 13.0529C18.2147 13.0529 18.9394 13.196 19.6511 13.4775V14.3836C18.9302 14.1119 18.1967 13.9746 17.4647 13.9746C16.6379 13.9746 15.809 14.1499 14.9992 14.497C14.1898 14.1499 13.3609 13.9746 12.5336 13.9746C11.8019 13.9746 11.0686 14.1119 10.3474 14.3836L10.3475 13.4775Z" fill="white"/>
</svg>
