<svg width="30" height="30" viewBox="0 0 30 30" fill="none" xmlns="http://www.w3.org/2000/svg">
<circle cx="15" cy="15" r="15" fill="#AF82C4"/>
<path d="M9 13.5592C9 14.3552 9.51893 15.0183 10.2188 15.2096V20.8289H9.40625C9.18248 20.8289 9 21.0202 9 21.2566C9 21.493 9.18251 21.6842 9.40625 21.6842H21.5938C21.8191 21.6842 22 21.493 22 21.2566C22 21.0202 21.8191 20.8289 21.5938 20.8289H20.7812V15.2096C21.4811 15.0183 22 14.3552 22 13.5592V13.1316H9V13.5592ZM17.125 15.2697C18.0232 15.2697 18.75 14.5038 18.75 13.5592C18.75 14.3552 19.2689 15.0183 19.9688 15.2096V20.8289H13.875V15.2697C14.7732 15.2697 15.5 14.5038 15.5 13.5592C15.5 14.5038 16.2284 15.2697 17.125 15.2697ZM13.4688 15.2096V20.8289H11.0312V15.2096C11.7311 15.0183 12.25 14.3552 12.25 13.5592C12.25 14.3552 12.7689 15.0183 13.4688 15.2096ZM20.375 9.28289H10.625L9 12.7039H22L20.375 9.28289ZM12.4325 10.2334L11.62 11.9439C11.5835 12.0191 11.5121 12.0625 11.4375 12.0625C11.4073 12.0625 11.3764 12.0558 11.347 12.04C11.247 11.9873 11.2058 11.8587 11.2566 11.7535L12.0691 10.043C12.1198 9.93771 12.2412 9.89513 12.3412 9.9469C12.442 9.99953 12.4817 10.1281 12.4325 10.2334ZM14.0575 10.2334L13.245 11.9439C13.2085 12.0191 13.1371 12.0625 13.0625 12.0625C13.0323 12.0625 13.0014 12.0558 12.972 12.04C12.872 11.9873 12.8308 11.8587 12.8816 11.7535L13.6941 10.043C13.7448 9.93771 13.8671 9.89513 13.9662 9.9469C14.067 9.99953 14.1067 10.1281 14.0575 10.2334ZM15.7031 11.8487C15.7031 11.9673 15.6127 12.0625 15.5 12.0625C15.3881 12.0625 15.2969 11.9673 15.2969 11.8487V10.1382C15.2969 10.0195 15.3881 9.92434 15.5 9.92434C15.6127 9.92434 15.7031 10.0196 15.7031 10.1382V11.8487ZM18.0359 12.0358C18.0042 12.0542 17.9708 12.0625 17.9375 12.0625C17.8661 12.0625 17.7963 12.0224 17.7598 11.9514L16.8711 10.2409C16.8171 10.1373 16.8536 10.007 16.952 9.95107C17.0489 9.89427 17.1742 9.93102 17.2282 10.0354L18.1168 11.7459C18.1692 11.8495 18.1343 11.9798 18.0359 12.0358ZM19.6529 12.0399C19.6244 12.0558 19.5942 12.0625 19.5625 12.0625C19.4879 12.0625 19.4165 12.0191 19.3816 11.9439L18.5691 10.2334C18.5183 10.1281 18.5596 9.9995 18.6595 9.94687C18.7579 9.89425 18.8817 9.93685 18.9325 10.0429L19.745 11.7535C19.7942 11.8587 19.7545 11.9873 19.6529 12.0399ZM12.4531 18.3283V17.3428C12.3341 17.2676 12.25 17.1373 12.25 16.9803C12.25 16.7439 12.4325 16.5527 12.6562 16.5527C12.8816 16.5527 13.0625 16.7439 13.0625 16.9803C13.0625 17.1373 12.9792 17.2676 12.8594 17.3428V18.3283C12.9792 18.4035 13.0625 18.5338 13.0625 18.6908C13.0625 18.9272 12.8816 19.1184 12.6562 19.1184C12.4325 19.1184 12.25 18.9272 12.25 18.6908C12.25 18.5338 12.3341 18.4035 12.4531 18.3283ZM10.625 8.42763C10.625 8.19126 10.8075 8 11.0312 8H19.9688C20.1941 8 20.375 8.19126 20.375 8.42763C20.375 8.664 20.1941 8.85526 19.9688 8.85526H11.0312C10.8075 8.85526 10.625 8.664 10.625 8.42763ZM16.1205 17.5591L15.8333 17.2567L16.9822 16.0473L17.2694 16.3497L16.1205 17.5591ZM16.1205 18.7685L15.8333 18.4661L18.1311 16.0473L18.4183 16.3497L16.1205 18.7685ZM18.1311 17.2567L18.4183 17.5591L17.2694 18.7685L16.9822 18.4661L18.1311 17.2567Z" fill="white"/>
</svg>
