<svg width="30" height="30" viewBox="0 0 30 30" fill="none" xmlns="http://www.w3.org/2000/svg">
<circle cx="15" cy="15" r="15" fill="#9FC9B5"/>
<path d="M20.5023 11.5186C20.3848 10.37 20.1977 9.47561 19.9015 9.12408C18.6807 7.67866 10.1285 7.57289 9.15753 9.12408C8.92001 9.50412 8.75343 10.3953 8.64163 11.5205C8.28091 11.563 8 11.8667 8 12.2385V13.6456C8 13.9585 8.19825 14.2223 8.47505 14.3252C8.40949 16.5415 8.4627 18.8537 8.56087 20.0036C8.56087 20.8913 9.15722 20.7441 9.15722 20.7441H9.71619V21.7024C9.71619 22.0824 10.1079 22.39 10.5906 22.39C11.0739 22.39 11.4656 22.0824 11.4656 21.7024V20.7441H17.9687V21.7024C17.9687 22.0824 18.3602 22.39 18.8435 22.39C19.3261 22.39 19.7179 22.0824 19.7179 21.7024V20.7441H19.9015C19.9015 20.7441 20.6033 20.8404 20.6483 20.4223C20.6483 19.2755 20.7205 16.734 20.661 14.335C20.9552 14.2429 21.1699 13.9718 21.1699 13.6456V12.2385C21.1702 11.8578 20.8757 11.549 20.5023 11.5186ZM11.2462 9.33025H17.8129V10.3237H11.2462V9.33025ZM11.3399 19.6125C10.8243 19.6125 10.4066 19.1945 10.4066 18.6789C10.4066 18.1636 10.8243 17.7459 11.3399 17.7459C11.8555 17.7459 12.2735 18.1636 12.2735 18.6789C12.2735 19.1945 11.8558 19.6125 11.3399 19.6125ZM17.7778 19.6125C17.2625 19.6125 16.8438 19.1945 16.8438 18.6789C16.8438 18.1636 17.2622 17.7459 17.7778 17.7459C18.2933 17.7459 18.7111 18.1636 18.7111 18.6789C18.7114 19.1945 18.2933 19.6125 17.7778 19.6125ZM18.9644 15.5271H10.0946V10.8748H18.9644V15.5271Z" fill="white"/>
</svg>
