<svg width="30" height="30" viewBox="0 0 30 30" fill="none" xmlns="http://www.w3.org/2000/svg">
<circle cx="15" cy="15" r="15" fill="#ECBA6F"/>
<path d="M21.6516 19.9215L16.1536 14.4235L9.73014 8H9.22814L9.12564 8.26046C8.8551 8.94794 8.73951 9.65108 8.7914 10.2938C8.85056 11.0264 9.12887 11.6607 9.59631 12.1281L14.6108 17.1426L15.2722 16.4812L19.9081 21.665C20.3693 22.1262 21.1631 22.1536 21.6516 21.665C22.1323 21.1843 22.1323 20.4022 21.6516 19.9215Z" fill="white"/>
<path d="M12.2878 15.9812L8.3605 19.9085C7.87983 20.3892 7.87983 21.1714 8.3605 21.652C8.81712 22.1086 9.60705 22.149 10.104 21.652L14.0314 17.7247L12.2878 15.9812Z" fill="white"/>
<path d="M21.4222 10.3348L19.1944 12.5626L18.6132 11.9814L20.841 9.75361L20.2598 9.17244L18.0321 11.4002L17.4509 10.8191L19.6787 8.59127L19.0976 8.01013L16.1917 10.916C15.8362 11.2715 15.624 11.7435 15.5939 12.2451C15.5864 12.3722 15.5576 12.4972 15.5098 12.6161L17.3974 14.5038C17.5163 14.4559 17.6413 14.4271 17.7684 14.4196C18.2701 14.3896 18.7421 14.1773 19.0976 13.8218L22.0034 10.916L21.4222 10.3348Z" fill="white"/>
</svg>
