<svg width="30" height="30" viewBox="0 0 30 30" fill="none" xmlns="http://www.w3.org/2000/svg">
<circle cx="15" cy="15" r="15" fill="#ADD17E"/>
<path fill-rule="evenodd" clip-rule="evenodd" d="M20.7112 20.5844C20.7216 20.6967 20.7142 20.8104 20.7142 20.9401C20.8973 20.9401 21.1617 20.9401 21.3508 20.9401C21.358 20.7834 21.3653 20.6261 21.374 20.4386C21.8837 20.4923 22.3311 20.5094 22.8046 20.6965C22.8076 20.7237 22.8104 20.7509 22.8133 20.7778C22.6943 20.8177 22.578 20.8799 22.4562 20.8937C21.7259 20.9767 20.9961 21.0907 20.2635 21.1159C18.3669 21.1809 16.4687 21.2394 14.5715 21.2359C12.6476 21.2323 10.7213 21.198 8.80699 20.9643C8.59549 20.9385 8.38679 20.8871 8.17809 20.8419C8.12937 20.8313 8.08608 20.7964 8 20.752C8.2375 20.5632 8.49229 20.5639 8.72766 20.5316C9.15757 20.4725 9.59094 20.4371 10.0238 20.4049C10.1515 20.3952 10.2083 20.343 10.2562 20.2316C10.6726 19.262 10.8797 18.2464 10.9245 17.1962C10.964 16.2646 10.9016 15.3396 10.7233 14.4233C10.7159 14.3851 10.7057 14.3473 10.6998 14.3228C10.4707 14.4037 10.2544 14.5148 10.0258 14.5555C8.93866 14.7484 8.05432 13.7062 8.41164 12.6599C8.45098 12.5448 8.44423 12.4732 8.36852 12.3758C7.90668 11.7833 7.97218 10.9444 8.51896 10.4303C8.60471 10.3499 8.64059 10.276 8.63812 10.157C8.61755 9.21896 9.31887 8.56701 10.2513 8.64009C10.3211 8.64536 10.418 8.6024 10.4652 8.54874C11.0642 7.86882 11.9604 7.81532 12.6369 8.41855C12.6848 8.46118 12.7947 8.48093 12.8536 8.4569C13.9549 8.00938 15.0183 8.80896 14.9067 10.0006C14.9005 10.0677 14.9447 10.167 14.9987 10.2086C15.8205 10.8443 15.8169 11.9596 14.9836 12.5909C14.9074 12.6487 14.8509 12.6898 14.8687 12.8125C14.9545 13.4098 14.7451 13.9001 14.2518 14.2391C13.7638 14.5746 13.2396 14.5805 12.7139 14.3048C12.6798 14.287 12.6438 14.2724 12.5723 14.2396C12.5085 14.6189 12.4339 14.9758 12.3906 15.3365C12.1962 16.9541 12.3602 18.5353 12.8823 20.0805C12.9362 20.2403 13.0116 20.2814 13.1693 20.2712C13.4007 20.2559 13.5329 20.2673 13.7887 20.2673C13.7887 20.4933 13.7944 20.7517 13.7944 20.9859C13.9875 20.9859 14.3162 20.9857 14.5112 20.9857C14.5112 20.8043 14.4989 20.6019 14.4989 20.6019C14.4989 20.6019 14.5519 20.6006 14.5162 20.5943C14.5616 20.6055 14.5351 20.5848 14.5351 20.5848C14.5351 20.5848 14.5563 20.5415 14.5613 20.5943C14.7382 20.5943 15.0353 20.6095 15.2186 20.6095C15.2259 20.5122 15.2287 20.3678 15.239 20.2296C16.8629 20.2635 18.3516 20.2892 19.9714 20.3229C19.9911 20.4169 19.9774 20.5668 19.9932 20.6419C20.1555 20.6419 20.5211 20.6495 20.6429 20.6495C20.6552 20.5789 20.6401 20.3567 20.6401 20.3567C20.6401 20.3567 20.6635 20.3601 20.7031 20.3502" fill="white"/>
<path fill-rule="evenodd" clip-rule="evenodd" d="M21.5768 19.0521C21.4575 19.0624 21.3668 19.0509 21.2578 19.0603C21.2578 19.5216 21.2578 19.9751 21.2578 20.4285C21.2578 20.5085 21.2585 20.5887 21.2588 20.6687C21.2598 20.9379 21.2711 20.8711 21.0134 20.8803C20.8493 20.8861 20.7805 20.8927 20.7835 20.7236C20.7927 20.1765 20.7869 19.6291 20.7869 19.0651C20.7064 19.0651 20.6386 19.0651 20.5445 19.0651C20.5445 19.4812 20.5468 19.8936 20.5422 20.3061C20.5413 20.3801 20.5232 20.5123 20.4941 20.5177C20.3736 20.5408 20.2443 20.5347 20.1218 20.5154C20.0988 20.512 20.0813 20.3997 20.0808 20.3374C20.0772 19.9172 20.0788 19.4971 20.0788 19.0619C18.4161 19.0619 16.7694 19.0619 15.0972 19.0619C15.0972 19.5513 15.0972 20.035 15.0972 20.5128C15.0542 20.5265 15.0361 20.536 15.0172 20.5377C14.6279 20.576 14.624 20.5699 14.6278 20.1858C14.6314 19.8135 14.6286 19.4412 14.6286 19.0586C14.5464 19.0586 14.49 19.0586 14.4069 19.0586C14.4069 19.457 14.4064 19.8488 14.407 20.2406C14.4072 20.401 14.4005 20.5622 14.4135 20.7217C14.4307 20.932 14.3093 20.9365 14.1506 20.9396C13.99 20.943 13.9266 20.9029 13.9305 20.7286C13.9417 20.2407 13.9348 19.7524 13.9342 19.2644C13.9342 19.1992 13.9289 19.134 13.9256 19.0593C13.8501 19.0516 13.8249 19.0539 13.707 19.0519C13.707 18.908 13.7204 18.8277 13.7434 18.7239C13.9906 18.3664 14.2681 18.0133 14.2681 18.0133C14.2681 18.0133 14.6602 18.0171 14.9989 18.0171C16.9911 18.0171 18.9837 18.0193 20.976 18.0133C21.0489 18.013 21.16 18.0133 21.16 18.0133C21.16 18.0133 21.2458 18.1257 21.2774 18.2043C21.3607 18.4118 21.469 18.6093 21.5565 18.8152C21.5811 18.8725 21.5699 18.9638 21.5768 19.0521Z" fill="white"/>
<path fill-rule="evenodd" clip-rule="evenodd" d="M21.1611 16.8912C21.1611 17.0346 21.1611 17.0812 21.1611 17.2375C18.8651 17.2375 16.5735 17.2375 14.2695 17.2375C14.2695 17.0924 14.2695 17.0464 14.2695 16.8912C16.5656 16.8912 18.8578 16.8912 21.1611 16.8912Z" fill="white"/>
<path fill-rule="evenodd" clip-rule="evenodd" d="M21.1607 17.4533C21.1607 17.606 21.1667 17.673 21.1667 17.8364C21.0965 17.8402 21.0266 17.8473 20.957 17.8473C18.7995 17.848 16.6449 17.8292 14.4871 17.8373C14.3952 17.8376 14.2759 17.8407 14.2759 17.8407C14.2759 17.8407 14.271 17.7729 14.27 17.6815C14.269 17.5785 14.27 17.4396 14.27 17.4396C14.27 17.4396 14.4016 17.4393 14.4818 17.4396C16.6393 17.4473 18.7969 17.4439 20.9543 17.4439C21.0193 17.444 21.0844 17.4496 21.1607 17.4533Z" fill="white"/>
<path fill-rule="evenodd" clip-rule="evenodd" d="M14.2922 16.2662C16.5862 16.2662 18.8637 16.2662 21.1566 16.2662C21.1566 16.4177 21.1553 16.5149 21.1553 16.6807C21.0756 16.6807 21.004 16.6807 20.9326 16.6807C18.8204 16.6805 16.7084 16.6807 14.5962 16.6803C14.4202 16.6803 14.2871 16.6807 14.2871 16.6807C14.2871 16.6807 14.2803 16.5085 14.2922 16.2662Z" fill="white"/>
</svg>
