<svg width="30" height="30" viewBox="0 0 30 30" fill="none" xmlns="http://www.w3.org/2000/svg">
<circle cx="15" cy="15" r="15" fill="#63A292"/>
<path d="M14.059 20.5089L13.9704 18.7548C13.7638 18.797 13.5795 18.843 13.4252 18.8864C13.0849 18.9821 12.738 18.8487 12.5417 18.5801C12.386 18.3668 12.3429 18.0997 12.4234 17.8475C12.6092 17.2657 12.87 16.7409 13.1464 16.2891L12.9346 15.7142L13.0894 12.3749L13.4554 12.6194L13.5511 12.476V12.4775L14.2378 11.5501L12.6489 10.4629C12.5059 10.365 12.3366 10.3125 12.1631 10.3125H10.1911C9.91108 10.3125 9.6485 10.4489 9.48742 10.6781L7.88149 12.9634L6.18452 14.7834C5.93925 15.0464 5.93568 15.4614 6.1907 15.715C6.45767 15.9805 6.88819 15.9696 7.14184 15.6974L8.81506 13.903C8.86765 13.845 8.89951 13.8171 8.93948 13.7599L9.31287 13.2259L9.17225 16.2627C8.89017 16.8428 8.26931 18.1194 8.08817 18.4919C8.06016 18.5494 8.03942 18.6102 8.02638 18.6728L7.32998 22.0372C7.24374 22.4542 7.51167 22.862 7.9286 22.9484C8.34457 23.0345 8.75326 22.7675 8.83977 22.3498L9.51667 19.0796C9.72816 18.6447 10.3428 17.3807 10.544 16.9672L11.7767 17.0313C11.9813 17.5868 12.2367 18.2802 12.429 18.8024L12.6023 22.2325C12.6296 22.7741 13.189 23.1091 13.6735 22.9034C13.4419 22.56 13.3826 22.1103 13.5558 21.7002L14.059 20.5089Z" fill="white"/>
<path d="M11.3556 9.91943C12.1543 9.96091 12.848 9.34773 12.8901 8.53653C12.932 7.73095 12.3129 7.04389 11.5074 7.00201C10.7018 6.96012 10.0146 7.5792 9.9727 8.38478C9.93068 9.19488 10.5555 9.87782 11.3556 9.91943Z" fill="white"/>
<path d="M14.3899 18.681L14.3084 19.2446C14.2849 19.4064 14.316 19.5707 14.3954 19.7123L14.8535 18.6276C14.6924 18.641 14.5374 18.6593 14.3899 18.681Z" fill="white"/>
<path d="M16.7834 20.627L16.0996 22.2458L16.3733 22.6436C16.6057 22.9815 17.0668 23.0652 17.4027 22.8341C17.7396 22.6024 17.8249 22.1416 17.5932 21.8047L16.7834 20.627Z" fill="white"/>
<path d="M15.4351 18.6351L14.0409 21.936C13.8819 22.3125 14.0582 22.7469 14.4349 22.9061C14.8108 23.0647 15.2456 22.8895 15.4049 22.5121L16.9527 18.8476C16.4835 18.7087 15.976 18.6376 15.4351 18.6351Z" fill="white"/>
<path d="M18.3856 8.98546C18.3856 9.76027 17.7576 10.3883 16.9829 10.3883C16.2081 10.3883 15.5801 9.76027 15.5801 8.98546C15.5801 8.21079 16.2081 7.58264 16.9829 7.58264C17.7576 7.58264 18.3856 8.21079 18.3856 8.98546Z" fill="white"/>
<path d="M23.4383 11.5596C19.7771 11.1254 17.2444 10.8532 16.1396 10.7374C15.7528 10.6969 15.3738 10.864 15.1426 11.1766L13.5725 13.2996L13.5089 13.3677L13.4173 15.3472L14.5356 14.1477C14.552 14.13 14.5674 14.1115 14.5818 14.0921L14.9467 13.5994C14.9264 14.041 14.9084 14.4332 14.8881 14.8753C14.8881 14.8753 13.4588 16.1357 12.8669 17.9894C12.7813 18.2573 13.0277 18.5134 13.2982 18.4373C13.7915 18.2986 14.5487 18.1378 15.4059 18.1378C16.2343 18.1378 17.1562 18.2881 18.0236 18.7539C18.3941 18.9529 18.7782 19.0383 19.1642 19.0383C20.8122 19.0383 22.5001 17.4812 23.3666 16.5445C23.5615 16.334 23.3762 15.9975 23.0938 16.0473C22.6562 16.1242 22.0908 16.1946 21.4891 16.1946C20.3001 16.1946 18.9684 15.9195 18.1954 14.8753C18.205 14.6657 18.3022 12.5488 18.3168 12.2312L23.2885 12.8218C23.3139 12.8248 23.3392 12.8263 23.3643 12.8263C23.6818 12.8263 23.9562 12.5888 23.9946 12.2658C24.036 11.9171 23.787 11.601 23.4383 11.5596Z" fill="white"/>
</svg>
